<?xml version="1.0" standalone="no"?>
<!DOCTYPE svg PUBLIC "-//W3C//DTD SVG 1.1//EN" "http://www.w3.org/Graphics/SVG/1.1/DTD/svg11.dtd" >
<svg xmlns="http://www.w3.org/2000/svg">
<metadata></metadata>
<defs>
<font id="ee_nobblee_boldregular" horiz-adv-x="555" >
<font-face units-per-em="1000" ascent="750" descent="-250" />
<missing-glyph horiz-adv-x="180" />
<glyph unicode="fi" horiz-adv-x="646" d="M73 499q17 0 36 -12l3 3q-33 21 -33 62q0 28 17.5 48.5t44.5 25.5q-1 5 -1 16q0 31 22 53t53 22q27 0 47 -17q23 29 59 29q31 0 53 -21.5t22 -52.5t-22 -53t-53 -22q-26 0 -47 16q-16 -22 -48 -27q2 -12 2 -17q0 -40 -34 -62l4 -3q19 12 38 12q28 0 48 -22q20 22 49 22 q28 0 48 -20.5t20 -49.5t-19.5 -48.5t-48.5 -19.5q-30 0 -49 21q-19 -21 -48 -21q-20 0 -35 9l-3 -2q30 -23 30 -60t-30 -60q30 -23 30 -60q0 -38 -30 -61q30 -22 30 -59q0 -31 -21.5 -53t-52.5 -22q-32 0 -53.5 21.5t-21.5 53.5q0 38 30 59q-30 22 -30 61q0 37 30 60 q-30 22 -30 60q0 37 30 60q-1 0 -3 2q-15 -9 -33 -9q-29 0 -48.5 19.5t-19.5 48.5t20 49.5t48 20.5zM526 499q32 0 53.5 -21.5t21.5 -53.5q0 -36 -29 -60q29 -24 29 -59q0 -36 -29 -59q29 -23 29 -59q0 -38 -30 -60q30 -23 30 -59q0 -32 -21.5 -53.5t-53.5 -21.5 q-31 0 -53 22t-22 53q0 36 30 59q-30 22 -30 60q0 36 29 59q-29 23 -29 59t29 59q-29 23 -29 60q0 31 22 53t53 22zM526 706q32 0 53.5 -22t21.5 -53t-22 -52.5t-53 -21.5t-53 21.5t-22 52.5t22 53t53 22z" />
<glyph unicode=" "  horiz-adv-x="180" />
<glyph unicode="&#x09;" horiz-adv-x="180" />
<glyph unicode="&#xa0;" horiz-adv-x="180" />
<glyph unicode="!" horiz-adv-x="250" d="M125 142q31 0 53 -21.5t22 -52.5q0 -32 -22 -53.5t-53 -21.5t-53 22t-22 53t22 52.5t53 21.5zM174 575q26 -23 26 -57q0 -33 -26 -56q26 -23 26 -56q0 -34 -26 -57q26 -23 26 -56q0 -30 -22 -52.5t-53 -22.5t-53 22.5t-22 52.5q0 33 26 56q-26 23 -26 57q0 33 26 56 q-26 23 -26 56q0 34 26 57q-26 23 -26 56q0 30 22 52.5t53 22.5t53 -22.5t22 -52.5q0 -33 -26 -56z" />
<glyph unicode="&#x22;" horiz-adv-x="386" d="M105 706q31 0 53 -22t22 -53q0 -37 -30 -59q30 -23 30 -60q0 -31 -22.5 -53t-52.5 -22q-31 0 -53 22t-22 53q0 37 30 60q-30 22 -30 59q0 31 22 53t53 22zM281 706q31 0 53 -22t22 -53q0 -37 -30 -59q30 -23 30 -60q0 -31 -22.5 -53t-52.5 -22q-31 0 -53 22t-22 53 q0 37 30 60q-30 22 -30 59q0 31 22 53t53 22z" />
<glyph unicode="#" horiz-adv-x="689" d="M436 68q0 -31 -22 -53t-53 -22t-53 21.5t-22 53.5q0 45 40 65q-9 17 -9 37q0 11 1 16q-42 0 -62 37q-11 -13 -23 -18q10 -18 10 -35q0 -46 -41 -67q9 -16 9 -35q0 -31 -21.5 -53t-52.5 -22t-53 21.5t-22 53.5q0 45 40 65q-9 17 -9 37q0 6 2 16q-28 4 -46.5 25t-18.5 50 q0 31 22 52.5t53 21.5q23 0 40 -11q12 10 19 14q-8 16 -8 36q0 17 8 35q-4 -1 -11 -1q-31 0 -53 22t-22 53t22 53t53 22q36 0 57 -28q12 9 17 12q-9 15 -9 36q0 44 41 65q-9 17 -9 37q0 31 21.5 52.5t52.5 21.5t53 -21.5t22 -52.5q0 -45 -40 -67q9 -15 9 -35q0 -11 -3 -20h3 q39 0 62 -33q10 11 21 17q-8 16 -8 36q0 45 40 65q-9 17 -9 37q0 31 22 52.5t53 21.5t52.5 -21.5t21.5 -52.5q0 -47 -40 -67q9 -17 9 -35q0 -11 -3 -20q29 -2 49.5 -24t20.5 -51q0 -31 -22 -53t-53 -22q-27 0 -45 15q-7 -7 -19 -14q9 -15 9 -35q0 -21 -12 -42q9 3 20 3 q31 0 52.5 -21.5t21.5 -52.5t-21.5 -53t-52.5 -22q-40 0 -62 32q-9 -9 -18 -13q10 -18 10 -35q0 -45 -41 -67q10 -17 10 -35zM320 335q25 0 46 -16q8 11 23 19q-9 15 -9 36t10 37q-10 -3 -22 -3q-29 0 -50 18q-6 -7 -22 -17q9 -15 9 -35q0 -25 -15 -45q14 6 30 6z" />
<glyph unicode="$" horiz-adv-x="649" d="M111 99h-1q-30 0 -52.5 22t-22.5 53q0 30 22.5 52t52.5 22q31 0 53 -21.5t22 -52.5h1q22 0 40.5 -12t27.5 -32q16 7 31 7q31 0 52 -21q23 21 53 21q16 0 30 -6q13 33 47 42q-2 6 -2 19q0 18 6 31q-24 14 -33 42q-10 -3 -21 -3q-41 0 -62 32q-19 -11 -40 -11q-45 0 -66 38 q-17 -12 -40 -12q-30 0 -52.5 22t-22.5 52h-1q-31 0 -52.5 22t-21.5 53q0 33 24 55q-14 19 -14 45q0 31 21.5 52.5t52.5 21.5h6q4 28 25.5 47t49.5 19q22 0 42 -13q2 1 4 5q-19 21 -19 50q0 31 22 53t53 22t53 -22t22 -53q0 -29 -19 -50l5 -7q16 12 40 12q29 0 50 -19 t24 -48q4 1 11 1q31 0 53 -21.5t22 -52.5t-22 -53t-53 -22q-28 0 -49.5 18.5t-25.5 46.5h-10q-39 0 -61 32q-19 -11 -40 -11q-24 0 -42 12q-22 -30 -60 -30h-7q-3 -27 -24 -46q15 -20 15 -43h1q43 0 65 -39q18 12 41 12q40 0 62 -32q19 11 40 11q25 0 44.5 -14.5t26.5 -37.5 q14 4 22 4q31 0 53 -22t22 -53q0 -16 -7 -32q36 -21 36 -64q0 -24 -14.5 -44t-37.5 -28q2 -12 2 -18q0 -31 -22 -53t-53 -22q-17 0 -30 6q-20 -45 -69 -45q-6 0 -14 2q25 -23 25 -57q0 -31 -22 -52.5t-53 -21.5t-53 21.5t-22 52.5q0 34 24 56q-42 5 -58 42q-14 -7 -31 -7 q-31 0 -53 22t-22 53z" />
<glyph unicode="%" horiz-adv-x="687" d="M543 647q31 0 52.5 -21.5t21.5 -52.5t-21.5 -52.5t-52.5 -21.5h-8q2 -10 2 -16q0 -30 -21.5 -52t-51.5 -22h-8q2 -10 2 -15q0 -30 -22 -52t-52 -22h-9q2 -10 2 -15q0 -30 -22 -52t-52 -22h-8q2 -10 2 -15q0 -30 -21.5 -52t-52.5 -22h-9q2 -10 2 -16q0 -30 -21.5 -51.5 t-52.5 -21.5t-52 21.5t-21 51.5q0 32 21 53.5t52 21.5q5 0 8 -1q-1 5 -1 16q0 31 21.5 53t52.5 22q5 0 7 -1q-1 5 -1 15q0 31 21.5 53t52.5 22q5 0 8 -1q-1 5 -1 15q0 31 21.5 53t52.5 22q5 0 7 -1q-1 5 -1 15q0 31 21.5 53t52.5 22q5 0 8 -1q-1 5 -1 16q0 31 21.5 52.5 t50.5 21.5zM588 244q30 0 52 -21.5t22 -51.5q0 -51 -48 -70q9 -15 9 -34q0 -31 -21.5 -52.5t-52.5 -21.5q-33 0 -55 25q-20 -25 -56 -25q-30 0 -51.5 21.5t-21.5 52.5q0 18 8 34q-47 18 -47 70q0 30 21.5 51.5t52.5 21.5q10 0 21 -3q0 31 21.5 52.5t52.5 21.5 q30 0 51.5 -21.5t22.5 -52.5q9 3 19 3zM99 455q-30 0 -52 21.5t-22 51.5q0 50 46 69q-8 16 -8 35q0 31 21 52.5t52 21.5q33 0 55 -25q23 25 56 25q31 0 52.5 -21.5t21.5 -52.5q0 -20 -9 -35q21 -8 34.5 -26.5t13.5 -42.5q0 -31 -21.5 -52t-52.5 -21q-8 0 -20 2 q-1 -31 -22.5 -52t-51.5 -21q-31 0 -52.5 21t-21.5 52q-12 -2 -19 -2zM465 135q17 -6 29 -20q12 14 29 20q-9 15 -9 35q-12 -2 -19 -2q-12 0 -21 3q0 -16 -9 -36zM220 563q-17 6 -29 20q-11 -13 -27 -19q9 -20 9 -36q9 3 19 3t20 -3q0 19 8 35z" />
<glyph unicode="&#x26;" horiz-adv-x="633" d="M90 568q0 31 22 52.5t53 21.5q5 0 15 -2q4 29 25 47.5t50 18.5q44 0 65 -38q17 11 39 11q31 0 52.5 -22t21.5 -53q0 -14 -5 -27q23 -7 38.5 -26.5t15.5 -44.5q0 -28 -18 -48.5t-44 -25.5q6 -18 6 -28q0 -40 -33 -61q8 -16 8 -32q0 -7 -1 -10q30 -3 50 -28q4 27 25 45 t48 18q31 0 53 -21.5t22 -52.5t-22 -53t-53 -22h-5q13 -20 13 -42v-4q30 -2 51 -23t21 -50q0 -31 -22 -53t-53 -22t-52.5 22t-21.5 53v5q-21 1 -37 13q-6 -24 -26.5 -40t-45.5 -16q-18 0 -34 8q-20 -45 -69 -45q-24 0 -42.5 13t-26.5 34q-17 -9 -37 -9q-30 0 -52 22.5 t-22 52.5q0 20 10 38q-42 22 -42 68q0 25 15.5 45t39.5 27q-4 9 -4 24q0 25 14.5 44.5t37.5 26.5q-25 5 -41.5 25.5t-16.5 46.5q0 43 37 64q-22 20 -22 53zM320 229v10q-21 3 -37.5 17.5t-22.5 35.5q-6 -2 -20 -2q-10 0 -15 1q-10 -40 -50 -53q5 -13 5 -26q0 -22 -11 -39 q28 -15 37 -41q16 9 36 9q17 0 33 -8q19 44 64 47q-19 21 -19 49zM332 506q0 13 5 26q-31 10 -44 35q-18 -10 -38 -10q-11 0 -17 1q-5 -35 -36 -55q22 -20 22 -52q0 -6 -2 -16q12 2 18 2q27 0 47 -17q10 43 52 53q-7 14 -7 33z" />
<glyph unicode="'" horiz-adv-x="210" d="M105 706q31 0 53 -22t22 -53q0 -37 -30 -59q30 -23 30 -60q0 -31 -22.5 -53t-52.5 -22q-31 0 -53 22t-22 53q0 37 30 60q-30 22 -30 59q0 31 22 53t53 22z" />
<glyph unicode="(" horiz-adv-x="346" d="M299 -190q-31 0 -53 22t-22 53q0 7 2 19q-30 2 -50.5 23t-20.5 52q0 18 7 32q-24 7 -39.5 27t-15.5 46q0 23 12 41q-42 20 -42 68q0 33 23 54q-31 23 -31 62q0 38 31 61q-23 21 -23 54q0 46 42 67q-12 18 -12 42q0 26 15.5 46t39.5 26q-7 14 -7 33q0 30 20.5 52t50.5 23 q-2 12 -2 19q0 31 22 53t53 22t53 -22t22 -53q0 -30 -21.5 -51.5t-51.5 -22.5q3 -10 3 -20q0 -25 -15.5 -45t-39.5 -27q8 -16 8 -33q0 -47 -44 -67q13 -20 13 -42q0 -40 -31 -61q23 -23 23 -54q0 -33 -24 -55q32 -24 32 -61q0 -23 -13 -42q19 -9 31.5 -27.5t12.5 -39.5 q0 -17 -8 -33q24 -7 39.5 -27t15.5 -45q0 -10 -3 -19q30 -1 51.5 -23t21.5 -52q0 -31 -22 -53t-53 -22z" />
<glyph unicode=")" horiz-adv-x="346" d="M49 -190q-31 0 -52.5 22t-21.5 53q0 30 20.5 52t50.5 23q-2 12 -2 19q0 25 15.5 45.5t39.5 26.5q-7 14 -7 33q0 47 43 67q-13 19 -13 42q0 37 32 61q-24 22 -24 55q0 31 23 54q-31 21 -31 61q0 22 13 42q-43 20 -43 67q0 19 7 33q-24 7 -39.5 26.5t-15.5 45.5q0 13 2 20 q-30 1 -50.5 22.5t-20.5 51.5q0 31 21.5 53t52.5 22t53 -21.5t22 -53.5q0 -10 -3 -19q31 -1 52 -23t21 -52q0 -17 -8 -33q24 -6 39.5 -26t15.5 -46q0 -23 -13 -42q44 -21 44 -67q0 -33 -24 -54q32 -24 32 -61q0 -38 -32 -62q24 -22 24 -54q0 -47 -44 -68q13 -20 13 -41 q0 -26 -15.5 -46t-39.5 -27q8 -16 8 -32q0 -31 -21 -52t-52 -23q3 -9 3 -19q0 -31 -22 -53t-53 -22z" />
<glyph unicode="*" horiz-adv-x="428" d="M107 624q19 0 34 -9q-1 5 -1 15q0 31 22 53t53 22t53 -22t22 -53q0 -9 -1 -13q16 7 32 7q31 0 53 -22t22 -53q0 -26 -17 -46.5t-43 -25.5q16 -19 16 -46q0 -31 -21.5 -52.5t-52.5 -21.5q-41 0 -63 34q-21 -34 -64 -34q-31 0 -52.5 21.5t-21.5 52.5q0 28 15 46 q-26 5 -43 25.5t-17 46.5q0 31 22 53t53 22zM215 556q-20 0 -35 8q2 -10 2 -15q0 -24 -16 -45q32 -6 48 -33q17 27 48 33q-16 21 -16 45q0 9 1 14q-14 -7 -32 -7z" />
<glyph unicode="+" horiz-adv-x="661" d="M218 426q35 0 56 -26l7 7q-24 21 -24 56q0 33 25 56q-25 22 -25 57q0 31 21.5 52.5t52.5 21.5t53 -21.5t22 -52.5q0 -36 -26 -57q26 -23 26 -56q0 -36 -25 -56l7 -7q21 26 56 26q33 0 56 -26q21 26 57 26q31 0 52.5 -21.5t21.5 -52.5t-21.5 -53t-52.5 -22q-36 0 -57 26 q-23 -26 -56 -26q-35 0 -56 26l-8 -8q26 -23 26 -57q0 -35 -26 -56q26 -23 26 -57q0 -30 -22 -52t-53 -22t-52.5 22t-21.5 52q0 34 25 57q-25 22 -25 56t25 57l-8 8q-21 -26 -56 -26q-34 0 -57 25q-23 -25 -56 -25q-31 0 -53 22t-22 53t22 52.5t53 21.5q33 0 56 -26 q23 26 57 26z" />
<glyph unicode="," horiz-adv-x="209" d="M108 134q30 0 50.5 -20.5t20.5 -50.5q0 -48 -45 -65q12 -19 12 -39q0 -29 -20.5 -49.5t-50.5 -20.5q-29 0 -49.5 20.5t-20.5 49.5q0 47 44 66q-11 17 -11 38q0 30 20.5 50.5t49.5 20.5z" />
<glyph unicode="-" horiz-adv-x="322" d="M30 306q0 31 22 53t53 22q33 0 56 -26q23 26 57 26q31 0 52.5 -22t21.5 -53t-21.5 -53t-52.5 -22q-34 0 -57 26q-23 -26 -56 -26q-31 0 -53 22t-22 53z" />
<glyph unicode="." horiz-adv-x="208" d="M104 142q31 0 52.5 -21.5t21.5 -52.5t-21.5 -53t-52.5 -22t-52.5 22t-21.5 53t21.5 52.5t52.5 21.5z" />
<glyph unicode="/" horiz-adv-x="381" d="M316 729q31 0 53 -21.5t22 -52.5q0 -24 -14 -43.5t-36 -27.5q8 -16 8 -32q0 -23 -13.5 -42.5t-35.5 -27.5q7 -18 7 -32q0 -24 -14 -43t-36 -27q8 -16 8 -32q0 -23 -13.5 -42.5t-35.5 -27.5q7 -18 7 -32q0 -24 -14 -43t-35 -27q7 -18 7 -32q0 -23 -13.5 -42.5t-35.5 -27.5 q7 -18 7 -32q0 -31 -21.5 -52.5t-52.5 -21.5t-53 21.5t-22 52.5q0 24 13.5 43t34.5 27q-7 13 -7 32q0 24 14 43.5t36 27.5q-7 13 -7 31q0 24 13.5 43t34.5 27q-7 14 -7 32q0 24 14 43.5t36 27.5q-7 13 -7 31q0 24 13.5 43t34.5 27q-7 14 -7 32q0 24 13.5 43t35.5 27 q-7 14 -7 33q0 31 22 52.5t53 21.5z" />
<glyph unicode="0" horiz-adv-x="636" d="M318 716q49 0 69 -44q18 9 35 9q31 0 53 -22t22 -53q0 -3 -0.5 -7t-0.5 -6q30 -2 51 -23.5t21 -51.5q0 -24 -14 -44q42 -20 42 -67q0 -36 -27 -58q27 -22 27 -57q0 -46 -42 -68q14 -19 14 -43q0 -31 -21.5 -52.5t-50.5 -22.5q0 -2 0.5 -6.5t0.5 -6.5q0 -31 -22 -53 t-53 -22q-20 0 -35 9q-20 -44 -69 -44t-68 44q-16 -9 -36 -9q-31 0 -53 22t-22 53q0 9 1 13q-30 1 -51 22.5t-21 52.5q0 24 14 43q-42 22 -42 68q0 35 27 57q-27 22 -27 58q0 47 42 67q-14 20 -14 44q0 31 21 52t51 23q-1 4 -1 13q0 31 22 53t53 22q18 0 36 -10 q8 20 26.5 32.5t41.5 12.5zM318 131q20 0 36 -9q19 44 65 46q-1 4 -1 13q0 46 42 67q-13 21 -13 44q0 34 26 57q-26 23 -26 58q0 23 13 43q-42 23 -42 68q0 9 1 13q-47 2 -65 45q-18 -8 -36 -8q-19 0 -35 8q-18 -43 -67 -45q0 -2 0.5 -6.5t0.5 -6.5q0 -46 -41 -67 q14 -20 14 -44q0 -36 -27 -58q27 -22 27 -57q0 -25 -14 -44q41 -22 41 -67q0 -3 -0.5 -7t-0.5 -6q48 -2 67 -46q15 9 35 9z" />
<glyph unicode="1" horiz-adv-x="374" d="M209 706h6h1l2 -1q4 0 6 -1q4 -1 17 -5l8 -4q5 -3 13 -11q6 -4 9 -11l2 -2q0 -1 1 -1v-2l3 -5q4 -13 5 -17q2 -10 2 -15q0 -13 -5 -26q-2 -6 -11 -20q-4 -6 -10 -10q26 -23 26 -57q0 -33 -26 -56q26 -23 26 -56q0 -34 -26 -57q26 -23 26 -56t-25 -56q25 -23 25 -56 q0 -36 -26 -57q26 -23 26 -56q0 -32 -22 -53.5t-53 -21.5q-30 0 -52 22t-22 53q0 33 26 56q-26 21 -26 57q0 34 25 56q-25 22 -25 56q0 33 25 56q-25 23 -25 57q0 33 25 56q-25 23 -25 55q-18 -8 -36 -8q-31 0 -52.5 21.5t-21.5 52.5t21.5 53t52.5 22q20 0 38 -10v1 q5 19 16 31l4 4q11 12 26 17l8 3q4 0 6 1q1 0 3 0.5t3 0.5h6z" />
<glyph unicode="2" horiz-adv-x="571" d="M38 561q0 31 21.5 52.5t52.5 21.5q4 0 14 -2q1 30 23 50.5t52 20.5q33 0 54 -24q23 33 62 33q27 0 47.5 -16.5t25.5 -42.5q16 8 34 8q31 0 53 -22t22 -53q0 -23 -13 -43q45 -21 45 -68q0 -26 -15.5 -46t-39.5 -27q11 -17 11 -38q0 -31 -21.5 -53t-53.5 -22q-16 0 -27 4 q-5 -26 -25.5 -43.5t-47.5 -17.5q-14 0 -29 5q-5 -26 -25 -43t-48 -17q-8 0 -12 1q0 -28 -18 -49q17 11 38 11q33 0 56 -25q23 25 56 25q34 0 57 -26q21 26 57 26q31 0 52.5 -21.5t21.5 -51.5q0 -31 -21.5 -53t-52.5 -22q-36 0 -57 26q-23 -26 -57 -26q-33 0 -56 25 q-23 -25 -56 -25q-35 0 -56 26q-1 -2 -3 -3.5t-4 -3.5l-3 -3q-4 -4 -10 -7q-7 -4 -19 -7h-3q-6 -2 -9 -2h-6h-6l-12 2q-19 5 -33 18l-6 6q-18 20 -18 49v9v1l1 2q0 3 1 5q8 29 33 45h1q-17 20 -17 49q0 31 21.5 53t52.5 22q2 0 6 -0.5t6 -0.5q0 31 22 52.5t53 21.5 q14 0 28 -6q5 27 26 44.5t48 17.5q13 0 26 -5q4 21 19 37t35 21q-10 17 -10 40q0 25 13 42q-36 15 -44 54q-13 -8 -34 -8q-34 0 -54 23q-22 -32 -62 -32q-10 0 -14 1q-2 -29 -23.5 -49.5t-51.5 -20.5q-31 0 -52.5 22t-21.5 53z" />
<glyph unicode="3" horiz-adv-x="566" d="M372 511q0 13 4 24q-28 9 -43 38q-15 -8 -35 -8q-26 0 -47 16q-21 -31 -60 -31h-5q-3 -29 -24.5 -48.5t-50.5 -19.5q-31 0 -53 22t-22 53q0 30 22 51.5t53 21.5h5q2 29 23.5 49.5t51.5 20.5q25 0 46 -16q23 30 61 30q47 0 67 -42q17 9 35 9q31 0 53 -22t22 -53 q0 -12 -5 -24q23 -8 37 -27t14 -44q0 -21 -11.5 -39.5t-29.5 -27.5q8 -16 8 -32q0 -44 -40 -62q23 -5 38.5 -24t15.5 -43t-15 -44q34 -22 34 -62q0 -28 -18 -49t-45 -25q2 -12 2 -17q0 -31 -22 -53t-53 -22q-22 0 -41 11q-22 -38 -65 -38q-44 0 -65 36q-17 -13 -42 -13 q-32 0 -53.5 21.5t-21.5 53.5v7q-30 1 -51 23t-21 52q0 31 22 52.5t53 21.5t53 -21.5t22 -52.5q0 -2 -0.5 -4t-0.5 -3q42 -2 62 -37q19 13 43 13q22 0 40 -12q17 33 55 39q-2 10 -2 17q0 29 19 50q-26 23 -26 54q-6 -2 -17 -2q-28 0 -48 17q-19 -17 -46 -17q-31 0 -52 21 t-21 50q0 31 21 51.5t52 20.5q27 0 46 -17q20 17 48 17h4q5 32 31 49q-11 17 -11 40z" />
<glyph unicode="4" horiz-adv-x="632" d="M539 155q-25 0 -44 14q-2 -28 -20 -46q25 -23 25 -55t-22 -53.5t-53 -21.5t-53 22t-22 53q0 35 25 55q-20 22 -20 48q-21 -16 -46 -16q-30 0 -51 21q-21 -21 -52 -21q-33 0 -53 22q-22 -22 -53 -22t-53 21.5t-22 52.5q0 27 17 47.5t43 25.5v5q0 28 18 48.5t46 25.5 q-1 4 -1 12q0 28 18.5 49t46.5 25q-1 4 -1 13q0 28 18.5 49t46.5 25q-1 4 -1 12q0 28 19 49.5t48 24.5v1q0 31 22 53t53 22q32 0 53.5 -22t21.5 -53q0 -36 -29 -59q36 -21 36 -64q0 -33 -26 -56q26 -23 26 -56t-24 -55q17 -20 17 -45q0 -12 -5 -25q22 20 51 20q31 0 52 -21 t21 -52t-21 -52t-52 -21zM232 292q15 -6 25 -16q21 23 52 23q25 0 46 -16q-4 9 -4 23q0 27 19 48q-20 20 -20 52q0 33 26 56q-8 6 -14 16q-1 -28 -19.5 -48.5t-45.5 -24.5q0 -2 0.5 -6t0.5 -6q0 -28 -18.5 -49.5t-46.5 -25.5q0 -2 0.5 -5.5t0.5 -5.5q0 -5 -2 -15z" />
<glyph unicode="5" horiz-adv-x="554" d="M69 631q0 31 21.5 53t53.5 22q33 0 54 -24q24 24 55 24q35 0 58 -28q21 28 59 28q31 0 53 -22t22 -53t-22 -52.5t-53 -21.5q-38 0 -59 28q-23 -28 -58 -28q-32 0 -55 23q-10 -10 -16 -13q26 -23 26 -57q0 -37 -36 -63l3 -4q22 35 60 35q35 0 56 -26q22 22 53 22 q29 0 50.5 -21t23.5 -50h6q32 0 53.5 -21.5t21.5 -53.5q0 -25 -14 -44q39 -20 39 -65q0 -24 -13.5 -43t-34.5 -27q7 -17 7 -32q0 -31 -22 -53t-53 -22q-10 0 -21 3q-5 -26 -25 -43t-48 -17q-38 0 -60 30q-22 -22 -54 -22q-28 0 -49.5 18.5t-25.5 46.5q-9 -3 -20 -3 q-31 0 -53 21.5t-22 52.5t22 53t53 22q28 0 49 -18.5t25 -46.5q11 3 21 3q39 0 60 -31q23 23 54 23q11 0 20 -3q8 41 48 56q-7 14 -7 32q0 25 14 44q-37 20 -39 61h-6q-38 0 -60 30q-20 -18 -48 -18q-26 0 -47 18q-20 -39 -66 -39q-31 0 -52.5 22t-21.5 53q0 41 36 64 q-26 21 -26 56q0 43 36 64q-26 23 -26 57z" />
<glyph unicode="6" horiz-adv-x="563" d="M384 716q31 0 53 -22t22 -53t-22 -52.5t-53 -21.5q-14 0 -29 5q-7 -24 -27.5 -40t-45.5 -16h-7q-3 -37 -33 -57q24 -3 43 -20q22 27 57 27q27 0 47.5 -17.5t25.5 -43.5q10 2 15 2q31 0 53 -22t22 -53q0 -22 -12 -40q40 -20 40 -66t-40 -66q11 -19 11 -39q0 -31 -22 -53 t-53 -22q-10 0 -15 1q-5 -26 -25.5 -42.5t-47.5 -16.5q-32 0 -55 23q-21 -23 -54 -23q-27 0 -47.5 16.5t-25.5 42.5q-5 -1 -15 -1q-31 0 -53 22t-22 53q0 20 11 39q-40 20 -40 66q0 34 24 55q-21 21 -21 52q0 22 11.5 39.5t30.5 25.5q-7 14 -7 32q0 25 15 45t39 27 q-2 12 -2 19q0 30 21.5 51t51.5 21h4q1 30 22.5 51.5t52.5 21.5q16 0 29 -6q7 25 27 40.5t46 15.5zM341 136q5 0 15 -2q6 37 39 53q-11 17 -11 39q0 23 11 40q-30 16 -38 51q-5 -1 -15 -1q-33 0 -55 24q-21 -24 -53 -24q-12 0 -18 2q-6 -34 -38 -52q12 -16 12 -40 q0 -22 -11 -39q32 -19 38 -53q10 2 15 2q33 0 54 -24q22 24 55 24z" />
<glyph unicode="7" horiz-adv-x="519" d="M316 706q33 0 56 -26q23 26 57 26q31 0 53 -22t22 -53q0 -24 -14.5 -43.5t-37.5 -27.5q-1 -24 -15.5 -42.5t-36.5 -25.5q5 -13 5 -27q0 -25 -14.5 -44.5t-36.5 -27.5q5 -13 5 -27q0 -26 -15 -46t-39 -27q5 -13 5 -26q0 -24 -13 -43t-34 -27q7 -13 7 -30q0 -44 -39 -66 q8 -16 8 -33q0 -31 -21.5 -53t-52.5 -22t-53 22t-22 53q0 44 38 64q-8 15 -8 35q0 49 46 68q-6 15 -6 32q0 25 15.5 45t39.5 26q-5 11 -5 28q0 25 14 44t37 26q-5 15 -5 29q0 25 15 44.5t38 26.5q-5 12 -5 22q-28 5 -44 24q-22 -25 -56 -25t-57 26q-23 -26 -57 -26 q-31 0 -53 21.5t-22 52.5t22 53t53 22q34 0 57 -26q23 26 57 26q33 0 56 -25q23 25 56 25z" />
<glyph unicode="8" horiz-adv-x="581" d="M387 674q31 0 53 -22t22 -53q0 -6 -2 -16q24 -7 39 -27t15 -45q0 -48 -44 -68q6 -12 6 -26q0 -19 -10 -36q39 -22 39 -66q0 -18 -8 -34q36 -22 36 -64q0 -43 -36 -64q8 -16 8 -33q0 -31 -22 -53t-53 -22q-11 0 -16 1q-7 -23 -26.5 -38t-44.5 -15q-30 0 -53 21 q-21 -21 -52 -21q-25 0 -44.5 14.5t-26.5 38.5q-5 -1 -15 -1q-31 0 -53 22t-22 53q0 14 7 32q-36 21 -36 65q0 45 38 65q-6 14 -6 29q0 40 32 59q-19 21 -19 47q0 13 5 26q-42 20 -42 68q0 25 15 45t38 27q-2 10 -2 16q0 31 22 53t53 22q17 0 35 -9q22 41 67 41t67 -42 q18 10 36 10zM343 141q5 0 15 -2q8 29 33 45q-7 18 -7 33q0 18 8 34q-28 16 -34 47q-12 -2 -19 -2q-29 0 -49 20q-18 -18 -45 -18q-13 0 -24 4q-3 -32 -32 -51q8 -16 8 -34q0 -16 -8 -32q26 -16 34 -46q10 2 15 2q31 0 52 -21q23 21 53 21zM339 433h2q6 29 32 43 q-8 16 -8 35q0 11 1 16q-32 10 -46 39q-16 -9 -36 -9q-18 0 -36 8q-14 -28 -46 -38q2 -10 2 -16q0 -20 -9 -35q27 -16 33 -47q10 2 17 2q25 0 45 -18q22 20 49 20z" />
<glyph unicode="9" horiz-adv-x="563" d="M324 241q-25 0 -44 16q-21 -29 -59 -29q-26 0 -47.5 17t-26.5 43q-4 -1 -14 -1q-30 0 -52 22t-22 53q0 22 11 39q-40 22 -40 67q0 44 40 66q-10 16 -10 39q0 31 21.5 52.5t52.5 21.5q5 0 15 -2q5 26 25.5 43.5t47.5 17.5q33 0 55 -24q21 24 54 24q28 0 48 -17.5t25 -43.5 q10 2 16 2q31 0 53 -21.5t22 -52.5q0 -19 -12 -40q40 -20 40 -65q0 -36 -28 -59q16 -19 16 -44q0 -44 -38 -64q10 -17 10 -35q0 -25 -15 -44.5t-39 -25.5q3 -9 3 -19q0 -29 -21 -50t-51 -21h-4q-4 -28 -25 -46.5t-49 -18.5q-16 0 -30 6q-7 -24 -27 -39t-45 -15 q-32 0 -53.5 21.5t-21.5 53.5q0 31 22 52.5t53 21.5q16 0 29 -6q7 24 27 39.5t46 15.5q5 0 8 -1q6 34 36 51h-2zM222 558q-10 0 -15 1q-6 -35 -38 -53q11 -17 11 -38q0 -20 -12 -41q32 -17 38 -51q10 2 15 2q34 0 55 -24q20 20 48 20q9 0 21 -4q5 40 40 58q-11 17 -11 40 q0 20 11 39q-31 15 -39 52q-5 -1 -15 -1q-33 0 -54 23q-23 -23 -55 -23z" />
<glyph unicode=":" horiz-adv-x="208" d="M104 139q31 0 52.5 -21.5t21.5 -52.5t-21.5 -53t-52.5 -22t-52.5 22t-21.5 53t21.5 52.5t52.5 21.5zM104 477q31 0 52.5 -21.5t21.5 -52.5t-21.5 -53t-52.5 -22t-52.5 22t-21.5 53t21.5 52.5t52.5 21.5z" />
<glyph unicode=";" horiz-adv-x="212" d="M108 134q30 0 50.5 -20.5t20.5 -50.5q0 -48 -45 -65q12 -19 12 -39q0 -29 -20.5 -49.5t-50.5 -20.5q-29 0 -49.5 20.5t-20.5 49.5q0 47 44 66q-11 17 -11 38q0 30 20.5 50.5t49.5 20.5zM108 480q31 0 52.5 -21.5t21.5 -52.5t-21.5 -53t-52.5 -22t-52.5 22t-21.5 53 t21.5 52.5t52.5 21.5z" />
<glyph unicode="&#x3c;" horiz-adv-x="523" d="M262 145q-29 0 -50 19t-25 47h-4q-29 0 -50 18.5t-25 46.5h-3q-31 0 -53 21.5t-22 52.5t22 53t53 22h4q4 28 25 47t50 19h3q4 27 25 46t50 19h4q4 28 25 46.5t49 18.5h3q4 27 25.5 46t49.5 19q31 0 53 -22t22 -53t-22 -53t-53 -22h-4q-4 -27 -25 -45.5t-49 -18.5h-5 q-3 -28 -23.5 -47t-49.5 -19h-4q-4 -36 -38 -56q32 -18 37 -55h5q28 0 49 -18.5t24 -46.5h4q29 0 50 -19t24 -46h5q31 0 53 -22t22 -53t-22 -53t-53 -22q-28 0 -49.5 19t-25.5 47h-4q-28 0 -49 18t-25 46h-3z" />
<glyph unicode="=" horiz-adv-x="548" d="M218 522q35 0 56 -27q24 27 57 27q34 0 57 -26q21 26 57 26q30 0 51.5 -22t21.5 -53t-21.5 -52.5t-51.5 -21.5q-35 0 -57 25q-23 -25 -57 -25t-57 26q-21 -26 -56 -26q-34 0 -56 25q-23 -25 -57 -25q-31 0 -53 21.5t-22 52.5t22 53t53 22q34 0 57 -26q21 26 56 26z M218 326q35 0 56 -26q23 26 57 26t57 -26q21 26 57 26q30 0 51.5 -21.5t21.5 -52.5t-21.5 -53t-51.5 -22q-36 0 -57 26q-23 -26 -57 -26t-57 26q-21 -26 -56 -26t-56 26q-23 -26 -57 -26q-31 0 -53 22t-22 53t22 52.5t53 21.5q34 0 57 -26q21 26 56 26z" />
<glyph unicode="&#x3e;" horiz-adv-x="523" d="M261 145h-4q-4 -28 -24.5 -46t-48.5 -18h-5q-3 -28 -24.5 -47t-49.5 -19q-31 0 -53 22t-22 53t22 53t53 22h4q4 27 25 46t50 19h3q4 28 25 46.5t49 18.5h4q5 37 37 55q-32 19 -38 56h-3q-28 0 -49 18.5t-25 47.5h-4q-29 0 -50 18.5t-25 45.5h-3q-31 0 -53 22t-22 53 t22 53t53 22q28 0 49 -19t25 -46h4q28 0 49 -18.5t24 -46.5h5q28 0 49 -19t25 -46h4q29 0 50 -19t24 -47h5q31 0 53 -22t22 -53t-22 -52.5t-53 -21.5h-4q-3 -28 -24 -46.5t-50 -18.5h-5q-3 -28 -24 -47t-50 -19z" />
<glyph unicode="?" horiz-adv-x="521" d="M406 631q31 0 53 -21.5t22 -52.5q0 -36 -26 -57q26 -23 26 -56q0 -30 -20.5 -51t-50.5 -23q1 -4 1 -13q0 -31 -21.5 -53t-53.5 -22q-12 0 -17 2q-6 -25 -26 -41t-46 -16q-31 0 -53 22t-22 53t22 53t53 22q5 0 17 -2q6 23 25 39t43 17q-1 4 -1 13q0 33 26 56 q-26 21 -26 57v1q-5 -1 -16 -1q-34 0 -56 24q-21 -24 -55 -24q-15 0 -26 4q-6 -24 -26.5 -39.5t-46.5 -15.5q-31 0 -53 21.5t-22 52.5t22 53t53 22q13 0 26 -5q7 24 27 40t46 16q34 0 55 -24q22 24 56 24q31 0 53 -22t22 -53v-2q10 2 16 2zM247 142q31 0 52.5 -21.5 t21.5 -52.5t-21.5 -53t-52.5 -22t-53 21.5t-22 53.5q0 31 22 52.5t53 21.5z" />
<glyph unicode="@" horiz-adv-x="933" d="M659 -28q30 0 52 -22.5t22 -52.5q0 -31 -21.5 -53t-52.5 -22q-26 0 -47 16q-8 -20 -26.5 -32.5t-41.5 -12.5q-37 0 -59 30q-24 -27 -58 -27q-51 0 -70 49q-20 -15 -44 -15q-31 0 -53 22t-22 53q-10 -3 -21 -3q-31 0 -52.5 22t-21.5 53q0 13 3 23q-27 4 -45 25t-18 49 q0 24 14 43q-43 20 -43 69q0 33 25 56q-29 23 -29 60q0 44 39 66q-16 21 -16 47t16 46t41 26q-7 13 -7 31q0 31 22 53t53 22h5v10q0 30 22 52t53 22q15 0 31 -7q7 24 27 39.5t46 15.5q33 0 53 -22q24 32 62 32q45 0 67 -41q20 17 47 17q28 0 49 -18.5t25 -46.5q9 3 20 3 q31 0 53 -22t22 -52q0 -11 -3 -20q27 -3 46.5 -24.5t19.5 -49.5q0 -21 -12 -40q21 -8 35 -27t14 -42q0 -34 -26 -57q29 -21 29 -58q0 -50 -46 -69q12 -18 12 -40q0 -30 -22.5 -52t-52.5 -22q-19 0 -35 8q-8 -21 -27 -34t-42 -13q-31 0 -53 22t-22 53q0 10 1 15 q-25 5 -41.5 25.5t-16.5 47.5q0 35 27 57q-34 23 -34 63q0 12 2 18q-32 6 -49 33q-21 -16 -47 -16h-10q-5 -40 -40 -59q17 -20 17 -47q0 -18 -8 -34q35 -13 46 -49q13 5 27 5q30 0 52 -22t22 -52q0 -31 -22 -53t-52 -22q-26 0 -45.5 15t-26.5 39q-15 -5 -27 -5q-31 0 -53 22 t-22 52q0 18 8 34q-21 8 -34.5 27t-13.5 43q0 46 39 66q-16 21 -16 48q0 30 22 52t53 22q6 0 10 -1q2 29 23.5 48.5t50.5 19.5q39 0 63 -34q22 17 47 17q31 0 52.5 -22t21.5 -53q0 -8 -2 -18q26 -5 44 -25.5t18 -48.5q0 -34 -27 -58q34 -22 34 -62q0 -5 -2 -15q12 -3 18 -7 q13 29 40 41q-11 17 -11 40q0 34 25 56q-28 21 -28 59q0 21 12 39q-22 8 -35 27t-13 43q0 7 2 19q-25 3 -43.5 21t-22.5 43q-12 -2 -19 -2q-47 0 -67 41q-20 -17 -47 -17q-33 0 -53 22q-22 -32 -62 -32q-19 0 -32 7q-7 -24 -27 -39.5t-45 -15.5h-6q1 -3 1 -10 q0 -25 -17 -45.5t-41 -26.5q7 -18 7 -31q0 -45 -40 -66q17 -22 17 -47q0 -34 -26 -57q29 -24 29 -59q0 -25 -14 -45q44 -19 44 -67q0 -14 -4 -23q28 -4 46 -25.5t18 -48.5q9 3 21 3q24 0 43 -13.5t27 -35.5q19 14 44 14q37 0 60 -29q21 26 57 26q28 0 46 -15q21 45 69 45z " />
<glyph unicode="A" horiz-adv-x="703" d="M352 153q-34 0 -55 24q-22 -24 -56 -24q-12 0 -21 3q-14 -41 -57 -49q12 -21 12 -39q0 -31 -22.5 -53t-52.5 -22q-31 0 -53 22t-22 53q0 27 17 47.5t44 24.5q-11 20 -11 41q0 27 17.5 48t43.5 26q-11 17 -11 38q0 27 17 48t44 25q-11 19 -11 40q0 27 17.5 48.5t43.5 25.5 q-11 17 -11 39q0 27 17 48t44 25q-11 17 -11 39q0 31 22 53t52 22q31 0 53 -22t22 -53q0 -21 -11 -38q27 -5 45 -26t18 -48q0 -20 -12 -39q26 -5 44 -26t18 -48q0 -22 -11 -39q26 -5 44 -26t18 -48q0 -21 -11 -38q26 -5 43.5 -26t17.5 -48q0 -21 -11 -40q26 -5 44 -25.5 t18 -47.5q0 -31 -22 -53t-53 -22t-53 22t-22 53q0 20 11 39q-42 6 -57 48q-12 -2 -19 -2q-33 0 -56 23q-21 -23 -55 -23zM264 332q11 -17 11 -39q12 -6 22 -16q21 24 55 24t55 -24q8 8 20 15v1q0 20 11 39q-26 5 -43.5 25.5t-17.5 48.5q0 20 11 39q-18 3 -38 19 q-18 -16 -37 -19q11 -19 11 -39q0 -27 -17 -48t-43 -26z" />
<glyph unicode="B" horiz-adv-x="648" d="M50 68q0 35 25 55q-25 22 -25 57q0 34 25 56q-25 22 -25 56q0 33 25 56q-25 23 -25 57q0 33 25 56q-25 23 -25 57q0 33 25 56q-25 22 -25 57q0 31 21.5 53t52.5 22q33 0 55 -24q21 24 55 24q33 0 54 -24q22 24 56 24q42 0 63 -36q23 20 51 20q31 0 53 -22t22 -53 q0 -7 -2 -19q28 -3 47 -24t19 -50q0 -43 -37 -65q12 -17 12 -37q0 -27 -19.5 -46.5t-47.5 -19.5h-3v-5v-1q8 2 13 2q29 0 49.5 -20t20.5 -48q0 -23 -14 -42q37 -22 37 -64q0 -30 -20 -51.5t-49 -23.5q3 -10 3 -20q0 -31 -22 -53t-53 -22q-32 0 -54 22q-22 -35 -63 -35 q-34 0 -57 25q-22 -25 -55 -25q-36 0 -57 26q-23 -26 -57 -26q-31 0 -52.5 22t-21.5 53zM327 278q-29 0 -50 21q-21 -21 -52 -21q-17 0 -27 5q-3 -28 -24 -47q25 -23 25 -56q0 -34 -26 -57l8 -7q21 26 57 26q34 0 55 -26q23 26 57 26q30 0 52 -22q20 33 59 36q-2 12 -2 20 q0 27 18 48q-30 20 -30 56q-6 -2 -18 -2q-29 0 -50 21q-21 -21 -52 -21zM234 557q-34 0 -55 23l-6 -5q26 -23 26 -57t-26 -57q20 -17 25 -45q12 6 27 6q31 0 52 -21q21 21 50 21q31 0 52 -21q21 21 50 21q6 0 10 -1q0 33 26 53q-17 20 -17 48q0 12 2 18q-37 5 -56 36 q-21 -19 -50 -19q-34 0 -56 24q-21 -24 -54 -24z" />
<glyph unicode="C" horiz-adv-x="628" d="M598 86q0 -32 -22 -53.5t-53 -21.5q-24 0 -42 12q-21 -34 -63 -34q-34 0 -57 26q-21 -21 -52 -21q-25 0 -44 14t-27 37q-16 -4 -25 -4q-30 0 -51.5 22t-21.5 53v6q-31 1 -52 22.5t-21 52.5q0 17 7 31q-44 20 -44 68q0 33 24 55q-24 22 -24 55q0 48 44 68q-7 13 -7 31 q0 30 21 52t52 23v6q0 31 21.5 53t51.5 22q10 0 24 -4q8 23 28 37.5t44 14.5q30 0 53 -21q21 26 56 26q42 0 64 -35q16 12 41 12q31 0 53 -21.5t22 -53.5q0 -30 -22 -52.5t-53 -22.5q-42 0 -63 36q-18 -12 -42 -12q-31 0 -52 21q-23 -26 -57 -26q-15 0 -24 4 q-7 -23 -26 -37.5t-44 -15.5q0 -1 0.5 -3t0.5 -3q0 -46 -43 -68q7 -16 7 -31q0 -33 -24 -55q24 -22 24 -55q0 -15 -7 -31q43 -21 43 -68q0 -1 -0.5 -3t-0.5 -3q24 -1 43 -15.5t26 -37.5q13 5 25 5q33 0 57 -27q22 22 52 22q22 0 42 -13q21 36 63 36q31 0 53 -22t22 -53z" />
<glyph unicode="D" horiz-adv-x="680" d="M50 68q0 33 26 56q-26 21 -26 57q0 34 25 56q-25 22 -25 56q0 33 25 56q-25 23 -25 57q0 33 25 56q-25 23 -25 57t25 56q-25 20 -25 56q0 31 21.5 53t52.5 22q33 0 55 -24q21 24 55 24q35 0 58 -28q21 28 59 28q24 0 43 -14t27 -36q16 8 33 8q31 0 52.5 -22t21.5 -53v-5 h5q31 0 52.5 -22t21.5 -53q0 -18 -8 -34q22 -8 36.5 -27t14.5 -43q0 -34 -26 -55q26 -23 26 -56q0 -24 -14 -43.5t-36 -27.5q7 -17 7 -32q0 -31 -21.5 -53t-52.5 -22h-5v-6q0 -31 -21.5 -53t-52.5 -22q-19 0 -33 7q-8 -22 -27 -35.5t-43 -13.5q-35 0 -58 26q-21 -26 -55 -26 q-36 0 -57 26q-23 -26 -57 -26q-31 0 -52.5 22t-21.5 53zM234 557q-34 0 -55 23l-5 -5q25 -23 25 -56q0 -34 -26 -57q26 -23 26 -56q0 -34 -26 -57q26 -23 26 -56t-25 -56q25 -23 25 -56q0 -36 -26 -57l8 -8q21 26 57 26q32 0 56 -27q21 26 57 26q15 0 32 -7q8 22 27 36.5 t44 14.5h4v6q0 24 13.5 43t35.5 27q-7 14 -7 33q0 34 25 56q-25 20 -25 55q0 17 8 33q-23 8 -36.5 27t-13.5 44v5h-4q-25 0 -44 13.5t-27 36.5q-14 -7 -32 -7q-38 0 -59 28q-23 -28 -58 -28z" />
<glyph unicode="E" d="M234 557q-34 0 -55 23l-5 -5q25 -23 25 -56q0 -34 -26 -57q18 -15 24 -38h5q34 0 55 -24q24 24 55 24q33 0 55 -24q21 24 54 24q31 0 53 -22t22 -53t-22 -52.5t-53 -21.5q-34 0 -55 23q-20 -23 -54 -23q-32 0 -55 23q-21 -23 -55 -23h-5q-6 -23 -23 -38q25 -23 25 -56 q0 -36 -26 -57l6 -6q22 24 55 24q32 0 54 -25q23 25 56 25q30 0 54 -24q22 24 55 24q31 0 52.5 -22t21.5 -52q0 -31 -21.5 -53t-52.5 -22q-34 0 -55 23q-23 -23 -54 -23q-34 0 -56 24q-21 -24 -54 -24q-34 0 -55 24q-22 -24 -55 -24q-31 0 -52.5 22t-21.5 53q0 33 26 56 q-26 21 -26 57q0 34 25 56q-25 22 -25 56q0 33 25 56q-25 23 -25 57q0 33 25 56q-25 23 -25 57t25 56q-25 20 -25 56q0 31 21.5 53t52.5 22q33 0 55 -24q21 24 55 24q33 0 54 -24q22 24 56 24q32 0 54 -24q21 24 55 24q31 0 52.5 -22t21.5 -53t-21.5 -52.5t-52.5 -21.5 q-35 0 -55 23q-21 -23 -54 -23q-34 0 -56 24q-21 -24 -54 -24z" />
<glyph unicode="F" horiz-adv-x="552" d="M234 557q-34 0 -55 23l-5 -5q25 -23 25 -56q0 -34 -26 -57q18 -15 24 -38h5q34 0 55 -24q24 24 55 24q33 0 55 -24q21 24 54 24q31 0 53 -22t22 -53t-22 -52.5t-53 -21.5q-34 0 -55 23q-20 -23 -54 -23q-32 0 -55 23q-21 -23 -55 -23h-5q-6 -23 -23 -38q25 -23 25 -56 q0 -36 -26 -57q26 -23 26 -56q0 -32 -21.5 -53.5t-53.5 -21.5q-31 0 -52.5 22t-21.5 53q0 33 26 56q-26 21 -26 57q0 34 25 56q-25 22 -25 56q0 33 25 56q-25 23 -25 57q0 33 25 56q-25 23 -25 57t25 56q-25 20 -25 56q0 31 21.5 53t52.5 22q33 0 55 -24q21 24 55 24 q33 0 54 -24q22 24 56 24q32 0 54 -24q21 24 55 24q31 0 52.5 -22t21.5 -53t-21.5 -52.5t-52.5 -21.5q-35 0 -55 23q-21 -23 -54 -23q-34 0 -56 24q-21 -24 -54 -24z" />
<glyph unicode="G" horiz-adv-x="711" d="M493 413q32 0 55 -25q22 25 54 25q29 0 50.5 -21t21.5 -51q0 -33 -26 -54q26 -21 26 -55q0 -35 -28 -56q24 -21 24 -53q0 -29 -21.5 -50t-50.5 -21q-12 0 -22 3q-6 -26 -26.5 -42t-46.5 -16q-25 0 -44 14q-23 -30 -60 -30q-43 0 -64 36q-19 -15 -45 -15q-25 0 -45.5 16 t-26.5 41q-6 -2 -17 -2q-31 0 -53 21.5t-22 52.5v10q-28 4 -46.5 25.5t-18.5 49.5q0 21 9 37q-40 23 -40 67q0 36 28 59q-18 21 -18 49q0 26 15.5 46t39.5 26q-5 15 -5 27q0 31 22 53t53 22h5q1 30 22.5 51.5t52.5 21.5q16 0 32 -8q8 21 27 34t43 13q32 0 55 -25 q21 23 54 23q22 0 40.5 -12.5t27.5 -33.5q16 8 34 8q31 0 52.5 -22t21.5 -53t-21.5 -53t-52.5 -22q-51 0 -70 46q-14 -7 -32 -7q-34 0 -56 24q-20 -22 -53 -22q-20 0 -34 7q-8 -21 -27 -34t-41 -13h-7q-1 -25 -15.5 -44t-37.5 -25q5 -15 5 -28q0 -35 -29 -59q18 -21 18 -49 q0 -19 -10 -37q41 -21 41 -67q0 -7 -1 -11q23 -2 41 -17.5t24 -38.5q10 2 16 2q40 0 64 -36q20 15 45 15q24 0 43 -14q23 30 61 30q14 0 25 -4q6 22 25 38q-23 21 -23 52q0 33 25 55l-7 7q-22 -24 -55 -24t-54 24q-22 -24 -54 -24q-29 0 -50.5 21t-21.5 50q0 30 21.5 51 t50.5 21q31 0 54 -25q22 25 54 25z" />
<glyph unicode="H" horiz-adv-x="703" d="M528 575h1q-26 23 -26 56q0 31 22 53t53 22t53 -22t22 -53q0 -33 -26 -56q26 -23 26 -56q0 -34 -26 -57q26 -23 26 -56q0 -34 -26 -57q26 -23 26 -56t-26 -56q26 -23 26 -56q0 -36 -26 -57q26 -23 26 -56q0 -31 -22 -53t-53 -22t-53 22t-22 53q0 33 26 56q-26 21 -26 57 q0 33 25 56q-22 19 -25 49q-17 -11 -39 -11q-35 0 -57 25q-23 -25 -55 -25q-35 0 -57 25q-23 -25 -56 -25q-23 0 -40 11q-3 -30 -25 -49q25 -23 25 -56q0 -36 -26 -57q26 -23 26 -56q0 -32 -21.5 -53.5t-53.5 -21.5q-31 0 -52.5 22t-21.5 53q0 33 25 56q-25 22 -25 57 q0 34 25 56q-25 22 -25 56q0 33 25 56q-25 23 -25 57q0 33 25 56q-25 23 -25 57t25 56q-25 23 -25 56q0 31 21.5 53t52.5 22q32 0 53.5 -22t21.5 -53q0 -33 -25 -56q25 -23 25 -56q0 -34 -26 -57q23 -20 26 -49q17 11 40 11q33 0 56 -26q21 26 57 26q32 0 55 -26 q21 26 57 26q22 0 39 -11q3 29 26 49q-26 23 -26 57q0 33 25 56z" />
<glyph unicode="I" horiz-adv-x="434" d="M327 557q-34 0 -56 24l-5 -6q25 -23 25 -56q0 -34 -26 -57q26 -23 26 -56q0 -34 -26 -57q26 -23 26 -56t-25 -56q25 -23 25 -56q0 -36 -26 -57l6 -7q23 25 56 25q31 0 52.5 -22t21.5 -52q0 -31 -21.5 -53t-52.5 -22q-34 0 -56 24q-21 -24 -54 -24t-55 24q-22 -24 -55 -24 q-31 0 -52.5 22t-21.5 53q0 30 21.5 52t52.5 22t55 -24l6 6q-26 21 -26 57q0 34 25 56q-25 22 -25 56q0 33 25 56q-25 23 -25 57q0 33 25 56q-25 23 -25 57q0 33 25 56l-5 5q-23 -23 -55 -23q-31 0 -52.5 21.5t-21.5 52.5t21.5 53t52.5 22q33 0 55 -24q21 24 55 24 q33 0 54 -24q22 24 56 24q31 0 52.5 -22t21.5 -53t-21.5 -52.5t-52.5 -21.5z" />
<glyph unicode="J" horiz-adv-x="536" d="M411 706q31 0 53 -22t22 -53q0 -33 -25 -56q25 -22 25 -56q0 -35 -27 -56q27 -24 27 -57q0 -32 -25 -57q25 -22 25 -55q0 -38 -28 -58q26 -23 26 -55q0 -26 -16 -46.5t-40 -26.5q1 -4 1 -10q0 -31 -22 -53t-53 -22q-20 0 -38 10q-23 -40 -66 -40q-42 0 -64 38 q-14 -7 -33 -7q-31 0 -52.5 22t-21.5 53q0 9 1 13q-24 7 -39.5 27t-15.5 45q0 31 22 53t53 22t53 -22t22 -53q0 -2 -0.5 -6.5t-0.5 -6.5q30 -8 44 -35q18 7 32 7q21 0 38 -11q14 31 47 39v10q0 35 27 56q-26 23 -26 57q0 35 26 55q-26 23 -26 57q0 33 27 57q-27 21 -27 56 q0 36 26 56q-1 1 -3 2.5t-3 2.5q-21 -23 -54 -23t-56 23q-20 -23 -53 -23q-31 0 -53 21.5t-22 52.5t22 53t53 22q32 0 53 -24q24 24 56 24t54 -24q22 24 55 24z" />
<glyph unicode="K" horiz-adv-x="632" d="M448 217q31 0 52.5 -22t21.5 -53h3q31 0 52.5 -22t21.5 -52q0 -31 -21.5 -53t-52.5 -22t-52.5 22t-21.5 53h-3q-31 0 -53 21.5t-22 52.5h-2q-31 0 -53 22t-22 53h-5q-26 0 -45.5 16.5t-24.5 40.5q-16 4 -23 8q-3 -27 -24 -46q25 -23 25 -56q0 -34 -26 -57q26 -21 26 -55 q0 -32 -21.5 -53.5t-53.5 -21.5q-31 0 -52.5 22t-21.5 53q0 35 25 55q-25 22 -25 57q0 34 25 56q-25 22 -25 56q0 33 25 56q-25 23 -25 57q0 33 25 56q-25 23 -25 57q0 33 25 56q-25 22 -25 57q0 31 21.5 53t52.5 22q32 0 53.5 -22t21.5 -53q0 -35 -26 -56q26 -23 26 -57 t-26 -57q26 -23 26 -56v-1q10 7 20 8q1 28 22 47t49 19h6q2 29 23 49.5t52 20.5h2v4q0 31 22 52.5t53 21.5h3v5q0 31 21.5 53t52.5 22t52.5 -22t21.5 -53t-21.5 -52.5t-52.5 -21.5h-3v-5q0 -31 -21.5 -52.5t-52.5 -21.5h-2v-4q0 -31 -22 -53t-53 -22h-11q-3 -34 -30 -51 q30 -20 32 -57q3 1 9 1q31 0 53 -22t22 -53h2z" />
<glyph unicode="L" horiz-adv-x="537" d="M124 706q32 0 53.5 -22t21.5 -53q0 -33 -25 -56q25 -23 25 -56q0 -34 -26 -57q26 -23 26 -56q0 -34 -26 -57q26 -23 26 -56t-25 -56q25 -23 25 -56q0 -34 -26 -57q2 -1 6 -5q22 24 55 24q32 0 54 -25q23 25 56 25q30 0 54 -24q22 24 55 24q31 0 52.5 -22t21.5 -52 q0 -31 -21.5 -53t-52.5 -22q-34 0 -55 23q-23 -23 -54 -23q-34 0 -56 24q-21 -24 -54 -24q-34 0 -55 24q-22 -24 -55 -24q-31 0 -52.5 22t-21.5 53q0 35 25 55q-25 22 -25 57q0 34 25 56q-25 22 -25 56q0 33 25 56q-25 23 -25 57q0 33 25 56q-25 23 -25 57t25 56 q-25 20 -25 56q0 31 21.5 53t52.5 22z" />
<glyph unicode="M" horiz-adv-x="822" d="M408 377q8 21 27 35t43 14q-4 11 -4 29q0 30 21 51t51 22q-2 12 -2 19q0 31 21.5 53t52.5 22h4v9q0 31 22 53t53 22t53 -22t22 -53q0 -34 -25 -56q25 -23 25 -56q0 -35 -26 -56q26 -24 26 -57q0 -34 -26 -57q26 -23 26 -56t-25 -56q25 -23 25 -56q0 -36 -26 -57 q26 -23 26 -56q0 -32 -22 -53.5t-53 -21.5t-53 22t-22 53q0 33 26 56q-26 21 -26 57q0 35 26 56q-26 21 -26 56q0 33 26 56q-26 23 -26 57q0 33 26 57q-7 5 -11 12q-7 -2 -18 -2q2 -12 2 -18q0 -31 -22 -52.5t-52 -21.5q5 -11 5 -28q0 -31 -22.5 -52.5t-53.5 -21.5 q6 -13 6 -28q0 -31 -21.5 -52.5t-52.5 -21.5q-30 0 -51.5 21.5t-21.5 52.5q0 13 5 28q-31 0 -53 21.5t-22 52.5q0 13 5 28q-30 0 -52.5 22t-22.5 52q0 12 2 18q-3 0 -7 0.5t-6 0.5q-5 -6 -11 -11q26 -24 26 -57q0 -34 -26 -57q26 -23 26 -56q0 -32 -25 -57q25 -22 25 -55 q0 -36 -26 -57q26 -23 26 -56q0 -32 -21.5 -53.5t-53.5 -21.5q-31 0 -52.5 22t-21.5 53q0 33 25 56q-25 22 -25 57q0 34 25 56q-25 22 -25 56q0 33 25 56q-25 23 -25 57q0 32 25 57q-25 22 -25 56t25 56q-25 20 -25 56q0 31 21.5 53t52.5 22q32 0 53.5 -22t21.5 -53 q0 -2 -1 -5v-4q32 -1 53.5 -22.5t21.5 -52.5q0 -10 -3 -19q31 -1 52 -22t21 -51q0 -17 -6 -29h2q23 0 42 -14t27 -35z" />
<glyph unicode="N" horiz-adv-x="711" d="M200 473q-14 0 -29 5l-5 -4q32 -24 32 -60q0 -37 -28 -58q28 -23 28 -58t-28 -58q28 -21 28 -57q0 -37 -28 -58q28 -23 28 -58q0 -31 -22 -52.5t-52 -21.5q-31 0 -52.5 21.5t-21.5 52.5q0 36 27 58q-27 21 -27 58q0 36 27 57q-27 22 -27 58t27 58q-27 21 -27 58 q0 35 28 58q-28 21 -28 57q0 34 26 55q-20 20 -20 50t21 51t51 21q29 0 50.5 -21t21.5 -51q0 -5 -2 -15h2q30 0 51.5 -21t21.5 -52q0 -12 -5 -25h7q31 0 52.5 -21.5t21.5 -52.5q0 -13 -5 -26h7q31 0 52.5 -21.5t21.5 -52.5q0 -13 -5 -26h7q31 0 52.5 -21.5t21.5 -52.5 q0 -13 -5 -26h6q14 0 32 -7l10 10q-31 23 -31 61q0 36 27 57q-27 22 -27 58t27 58q-27 22 -27 57q0 37 28 58q-28 23 -28 59q0 31 21.5 52.5t52.5 21.5t52.5 -21.5t21.5 -52.5q0 -36 -28 -59q28 -21 28 -58q0 -35 -28 -58q28 -21 28 -57q0 -34 -27 -58q27 -22 27 -57 q0 -36 -28 -59q28 -21 28 -56t-26 -56q20 -22 20 -49q0 -30 -21 -51t-51 -21t-51 21t-21 51q0 8 1 11h-10q-30 0 -51.5 21t-21.5 52q0 15 4 24h-6q-31 0 -52.5 22t-21.5 52q0 15 4 26h-6q-31 0 -52.5 22t-21.5 52q0 15 4 26h-6q-31 0 -52.5 22t-21.5 52q0 15 4 26h-5z" />
<glyph unicode="O" horiz-adv-x="798" d="M292 699q25 0 44 -16q23 34 63 34q41 0 62 -34q21 16 46 16q27 0 47.5 -17.5t25.5 -43.5q9 3 19 3q31 0 53 -22t22 -52q0 -9 -1 -14q28 -3 47 -24.5t19 -49.5q0 -21 -11 -40q40 -20 40 -65q0 -36 -29 -60q19 -21 19 -49q0 -25 -15 -45t-38 -27q4 -16 4 -24 q0 -31 -22 -52.5t-53 -21.5h-6q-1 -30 -22.5 -51.5t-51.5 -21.5q-19 0 -32 7q-20 -43 -67 -43q-32 0 -56 24q-22 -24 -54 -24q-48 0 -68 43q-14 -7 -31 -7q-31 0 -52.5 21.5t-22.5 51.5h-6q-31 0 -53 21.5t-22 52.5q0 13 4 24q-24 7 -39 26.5t-15 45.5q0 28 19 49 q-29 23 -29 60q0 44 40 66q-10 18 -10 39q0 29 18.5 50t46.5 24q-1 5 -1 14q0 30 22 52t53 22q10 0 19 -3q5 26 26 43.5t48 17.5zM554 172h6q1 24 15.5 42.5t36.5 25.5q-4 16 -4 25q0 36 29 59q-19 21 -19 50q0 21 11 38q-39 22 -39 67q0 9 1 13q-24 3 -42.5 19t-23.5 40 q-6 -2 -18 -2q-40 0 -63 34q-18 -15 -45 -15q-26 0 -45 14q-23 -33 -62 -33q-8 0 -20 2q-5 -23 -22.5 -39.5t-41.5 -19.5q1 -4 1 -13q0 -44 -40 -67q11 -17 11 -38q0 -29 -19 -50q29 -23 29 -59q0 -9 -4 -25q22 -7 37 -26t16 -43q1 0 3 0.5t4 0.5q21 0 39.5 -12.5 t27.5 -31.5q16 7 32 7q32 0 54 -25q23 25 56 25q13 0 31 -7q21 44 68 44z" />
<glyph unicode="P" horiz-adv-x="633" d="M238 706q33 0 55 -25q23 25 57 25q42 0 63 -36q22 22 54 22q31 0 53 -22t22 -53q0 -11 -3 -20q29 -2 49 -23.5t20 -51.5q0 -36 -28 -59q28 -23 28 -58q0 -29 -20 -51t-49 -24q3 -9 3 -19q0 -31 -22 -53t-53 -22q-30 0 -53 21q-20 -39 -65 -39q-35 0 -58 26 q-21 -26 -56 -26q-34 0 -56 24l-6 -6q26 -23 26 -56q0 -34 -26 -57q26 -21 26 -55q0 -32 -21.5 -53.5t-53.5 -21.5q-31 0 -52.5 22t-21.5 53q0 35 25 55q-25 22 -25 57q0 33 25 56q-25 23 -25 57t25 56q-25 22 -25 56q0 33 25 56q-25 23 -25 57t25 57q-25 22 -25 56 q0 31 21.5 53t52.5 22q34 0 57 -26q21 26 57 26zM459 522q0 6 2 20q-39 3 -59 36q-21 -21 -52 -21q-35 0 -57 25q-20 -25 -55 -25t-57 25l-8 -7q26 -23 26 -57t-26 -57q26 -23 26 -56t-25 -56q4 -4 5 -6q23 25 56 25q34 0 56 -27q22 27 58 27q30 0 52 -22q20 37 60 40 q-2 12 -2 19q0 35 28 58q-28 23 -28 59z" />
<glyph unicode="Q" horiz-adv-x="798" d="M556 172h4q1 24 15.5 42.5t36.5 25.5q-4 16 -4 25q0 36 29 59q-19 21 -19 50q0 21 11 38q-39 22 -39 67q0 9 1 13q-24 3 -42.5 19t-23.5 40q-6 -2 -18 -2q-40 0 -63 34q-18 -15 -45 -15q-26 0 -45 14q-23 -33 -62 -33q-8 0 -20 2q-5 -23 -22.5 -39.5t-41.5 -19.5 q1 -4 1 -13q0 -44 -40 -67q11 -17 11 -38q0 -29 -19 -50q29 -23 29 -59q0 -9 -4 -25q22 -7 37 -26t16 -43q1 0 3 0.5t4 0.5q22 0 41 -13.5t27 -34.5q14 6 28 6q33 0 54 -23q23 28 59 28q18 0 33 -9q9 20 27 33t41 13zM544 24q25 0 44 -14.5t25 -36.5q18 8 35 8 q31 0 52.5 -22t21.5 -53t-21.5 -53t-52.5 -22q-26 0 -46.5 16t-26.5 41q-17 -7 -31 -7q-26 0 -46 16.5t-25 41.5q-16 -8 -33 -8q-25 0 -44.5 16t-24.5 40q-13 -6 -29 -6q-23 0 -42 13t-27 33q-13 -5 -27 -5q-31 0 -52.5 21.5t-22.5 51.5h-6q-31 0 -53 21.5t-22 52.5 q0 13 4 24q-24 7 -39 26.5t-15 45.5q0 28 19 49q-29 23 -29 60q0 44 40 66q-10 18 -10 39q0 29 18.5 50t46.5 24q-1 5 -1 14q0 30 22 52t53 22q10 0 19 -3q5 26 26 43.5t48 17.5q25 0 44 -16q23 34 63 34q41 0 62 -34q21 16 46 16q27 0 47.5 -17.5t25.5 -43.5q9 3 19 3 q31 0 53 -22t22 -52q0 -9 -1 -14q28 -3 47 -24.5t19 -49.5q0 -21 -11 -40q40 -20 40 -65q0 -36 -29 -60q19 -21 19 -49q0 -25 -15 -45t-38 -27q4 -16 4 -24q0 -31 -22 -52.5t-53 -21.5h-6q-1 -28 -23 -48t-51 -20q-19 0 -31 6q-2 -7 -7 -14q13 5 28 5z" />
<glyph unicode="R" horiz-adv-x="652" d="M446 229q30 0 51 -21t21 -51q0 -7 -2 -17q12 2 18 2q31 0 52.5 -22t21.5 -52q0 -31 -21.5 -53t-52.5 -22q-32 0 -53.5 21.5t-21.5 53.5q0 12 2 17q-5 -1 -15 -1q-30 0 -51.5 21t-21.5 52q0 10 1 15q-4 -1 -12 -1q-30 0 -50.5 21t-20.5 50v6q-21 -27 -56 -27q-33 0 -54 23 l-8 -8q26 -23 26 -56q0 -34 -26 -57q26 -21 26 -55q0 -32 -21.5 -53.5t-53.5 -21.5q-31 0 -52.5 22t-21.5 53q0 35 25 55q-25 22 -25 57q0 33 25 56q-25 23 -25 57t25 56q-25 22 -25 56q0 33 25 56q-25 23 -25 57t25 57q-25 22 -25 56q0 31 21.5 53t52.5 22q34 0 57 -26 q21 26 57 26q33 0 55 -25q23 25 57 25q42 0 63 -36q22 22 54 22q31 0 53 -22t22 -53q0 -11 -3 -20q29 -2 49 -23.5t20 -51.5q0 -36 -28 -59q28 -23 28 -58q0 -30 -22 -52.5t-52 -22.5q2 -10 2 -16q0 -29 -21.5 -50.5t-50.5 -21.5q-16 0 -30 6v-6q0 -5 -2 -15q10 2 14 2z M459 522q0 6 2 20q-39 3 -59 36q-21 -21 -52 -21q-35 0 -57 25q-20 -25 -55 -25t-57 25l-8 -7q26 -23 26 -57t-26 -57q26 -23 26 -56t-25 -56l7 -8q22 24 54 24q34 0 56 -29q21 29 58 29q29 0 50 -21q19 40 62 42q-2 12 -2 19q0 35 28 58q-28 23 -28 59z" />
<glyph unicode="S" horiz-adv-x="636" d="M103 99h-1q-30 0 -52.5 22t-22.5 53q0 30 22.5 52t52.5 22q31 0 53 -21.5t22 -52.5h1q22 0 40.5 -12t27.5 -32q16 7 31 7q31 0 52 -21q23 21 53 21q17 0 30 -6q13 33 47 42q-2 6 -2 19q0 18 6 31q-24 14 -33 42q-10 -3 -21 -3q-41 0 -62 32q-19 -11 -40 -11q-45 0 -66 38 q-17 -12 -40 -12q-30 0 -52.5 22t-22.5 52h-1q-31 0 -52.5 22t-21.5 53q0 33 24 55q-14 19 -14 45q0 31 21.5 52.5t52.5 21.5h6q4 28 25.5 47t49.5 19q22 0 42 -13q23 30 60 30t61 -32q17 12 40 12q29 0 50 -19t24 -48q4 1 11 1q31 0 53 -21.5t22 -52.5t-22 -53t-53 -22 q-28 0 -49.5 18.5t-25.5 46.5h-10q-39 0 -61 32q-19 -11 -40 -11q-24 0 -42 12q-22 -30 -60 -30h-7q-3 -27 -24 -46q15 -20 15 -43h1q43 0 65 -39q18 12 41 12q40 0 62 -32q19 11 40 11q25 0 44.5 -14.5t26.5 -37.5q14 4 22 4q31 0 53 -22t22 -53q0 -16 -7 -32 q36 -21 36 -64q0 -24 -14.5 -44t-37.5 -28q2 -12 2 -18q0 -31 -22 -53t-53 -22q-17 0 -30 6q-20 -45 -69 -45q-28 0 -53 21q-23 -21 -52 -21q-48 0 -68 43q-14 -7 -31 -7q-31 0 -53 22t-22 53z" />
<glyph unicode="T" horiz-adv-x="641" d="M434 706q33 0 56 -26q21 26 56 26q32 0 53.5 -22t21.5 -53t-22 -52.5t-53 -21.5q-34 0 -56 25q-23 -25 -56 -25q-34 0 -56 25l-8 -7q26 -23 26 -57t-26 -57q26 -23 26 -56t-25 -56q25 -23 25 -56q0 -34 -26 -57q26 -23 26 -56q0 -34 -26 -57q26 -21 26 -55 q0 -32 -22 -53.5t-53 -21.5t-53 22t-22 53q0 34 26 55q-26 23 -26 57q0 33 26 56q-26 23 -26 57q0 33 25 56q-25 23 -25 56t26 56q-26 23 -26 57t26 57q-5 3 -8 8q-23 -26 -56 -26q-34 0 -57 25q-23 -25 -56 -25q-31 0 -53 21.5t-22 52.5t22 53t53 22q33 0 56 -26 q23 26 57 26q33 0 56 -26q23 26 57 26t57 -26q21 26 56 26z" />
<glyph unicode="U" horiz-adv-x="727" d="M48 631q0 31 21.5 53t52.5 22q32 0 53.5 -22t21.5 -53q0 -33 -25 -56q25 -22 25 -56t-26 -57q26 -23 26 -56t-25 -56q25 -23 25 -56q0 -22 -11 -39q36 -23 36 -64v-8q44 -5 61 -47q13 5 26 5q33 0 54 -23q23 23 54 23q12 0 27 -5q15 42 60 47v8q0 43 36 64q-11 17 -11 39 q0 33 25 56q-25 23 -25 56t26 56q-26 23 -26 57t25 56q-25 23 -25 56q0 31 22.5 53t52.5 22q32 0 53.5 -22t21.5 -53q0 -33 -25 -56q25 -22 25 -56t-26 -57q26 -23 26 -56t-25 -56q25 -23 25 -56q0 -43 -36 -64q11 -19 11 -39q0 -28 -19 -49.5t-47 -25.5v-7q0 -31 -22 -53 t-53 -22q-14 0 -27 5q-19 -46 -69 -46q-32 0 -54 22q-20 -22 -54 -22q-23 0 -42.5 13t-27.5 33q-13 -5 -26 -5q-30 0 -52 22t-22 53v7q-28 4 -47 25t-19 50q0 22 10 39q-35 22 -35 64q0 34 25 56q-25 22 -25 56q0 33 25 56q-25 23 -25 57q0 36 25 56q-25 22 -25 56z" />
<glyph unicode="V" horiz-adv-x="704" d="M349 -7q-30 0 -52 22t-22 53q0 21 11 38q-27 5 -44 26t-17 49q0 20 11 39q-26 5 -43.5 26t-17.5 48q0 21 11 38q-27 5 -44 26t-17 48q0 20 11 39q-26 5 -43 25.5t-17 48.5q0 19 10 39q-26 5 -43.5 25.5t-17.5 47.5q0 31 22 53t53 22t53 -22t22 -53q0 -22 -11 -39 q26 -5 43 -25.5t17 -47.5q0 -22 -11 -39q26 -5 44 -26t18 -48q0 -22 -11 -39q26 -5 43 -25.5t17 -47.5q0 -22 -11 -39q21 -4 37 -19q18 15 38 19q-11 17 -11 39q0 27 17 48t43 26q-10 18 -10 38q0 27 17.5 48.5t44.5 25.5q-11 17 -11 39q0 27 17.5 48t43.5 26q-10 18 -10 38 q0 31 22 53t53 22q30 0 52.5 -22t22.5 -53q0 -27 -18 -47.5t-45 -25.5q11 -19 11 -39q0 -28 -17.5 -48.5t-43.5 -25.5q11 -19 11 -39q0 -28 -18 -48.5t-44 -25.5q11 -17 11 -38q0 -28 -18 -48.5t-44 -25.5q12 -21 12 -39q0 -28 -18 -49t-45 -26q11 -17 11 -38 q0 -32 -22 -53.5t-53 -21.5z" />
<glyph unicode="W" horiz-adv-x="951" d="M694 -7q-31 0 -52.5 22t-21.5 53q0 21 11 40q-24 6 -39.5 26t-15.5 47q0 23 12 40q-25 7 -40.5 27t-15.5 46q0 22 11 39q-24 7 -39.5 27t-15.5 46q0 24 12 40q-15 5 -25 12q-11 -8 -25 -12q13 -18 13 -40q0 -26 -16 -46t-40 -27q12 -19 12 -39q0 -26 -15.5 -46t-39.5 -27 q12 -19 12 -40q0 -26 -15.5 -46t-40.5 -27q12 -16 12 -40q0 -31 -21.5 -53t-52.5 -22q-32 0 -53.5 21.5t-21.5 53.5q0 24 13 44q-20 8 -32.5 27t-12.5 42q0 24 15 44q-21 8 -33.5 27t-12.5 42q0 25 13 42q-45 20 -45 70q0 25 14 44q-45 20 -45 69q0 23 13 44 q-20 8 -32.5 26.5t-12.5 41.5q0 31 22 53t53 22t53 -22t22 -53q0 -24 -14 -43q20 -9 32.5 -28t12.5 -41q0 -25 -14 -44q20 -9 32.5 -28t12.5 -41q0 -24 -14 -43q45 -23 45 -69q0 -24 -14 -43l10 -6l18 9q-11 17 -11 40q0 26 15 46t38 26q-11 19 -11 40q0 26 15.5 46t40.5 27 q-12 17 -12 40q0 26 15.5 46t39.5 26q-11 19 -11 40q0 31 21.5 53t53.5 22q30 0 52 -22t22 -53q0 -22 -12 -40q25 -6 40.5 -26t15.5 -46q0 -20 -12 -41q24 -6 39.5 -26.5t15.5 -45.5q0 -21 -11 -40q24 -6 39.5 -26.5t15.5 -45.5q0 -21 -12 -40q2 -1 19 -9l9 4q-13 21 -13 45 q0 48 43 69q-13 19 -13 43q0 49 46 69q-15 18 -15 44q0 22 12.5 41t32.5 28q-13 20 -13 43q0 31 21.5 53t52.5 22t53 -22t22 -53q0 -23 -12.5 -41.5t-32.5 -26.5q14 -20 14 -44q0 -23 -12.5 -41.5t-33.5 -27.5q15 -20 15 -44q0 -23 -13 -42t-33 -27q14 -19 14 -43 q0 -23 -13 -42.5t-33 -27.5q15 -20 15 -43t-13 -42.5t-34 -27.5q15 -18 15 -43q0 -31 -22 -53t-53 -22z" />
<glyph unicode="X" horiz-adv-x="662" d="M110 706q31 0 53 -22t22 -53q0 -10 -3 -19h2q31 0 53 -22t22 -53q0 -10 -3 -19h2q28 0 48 -18t25 -45q5 27 25.5 45t48.5 18h1q-2 12 -2 19q0 31 22 53t53 22h1q-2 12 -2 19q0 31 21.5 53t52.5 22t53 -22t22 -53q0 -30 -22 -52t-53 -22h-2q3 -11 3 -20q0 -30 -21.5 -52 t-52.5 -22h-2q3 -11 3 -20q0 -30 -22 -52t-53 -22h-2q3 -10 3 -20t-3 -19h2q31 0 53 -21.5t22 -52.5q0 -11 -3 -20h2q31 0 52.5 -21.5t21.5 -52.5q0 -11 -3 -20h2q31 0 53 -21.5t22 -52.5t-22 -53t-53 -22t-52.5 22t-21.5 53q0 7 2 19h-1q-31 0 -53 21.5t-22 53.5q0 7 2 19 h-1q-28 0 -48.5 17.5t-25.5 44.5q-5 -27 -25 -44.5t-48 -17.5h-2q3 -9 3 -19q0 -31 -22 -53t-53 -22h-2q3 -9 3 -19q0 -31 -22 -53t-53 -22t-53 22t-22 53t22 52.5t53 21.5h1q-2 12 -2 20q0 31 22 52.5t53 21.5h1q-2 12 -2 20q0 31 22 52.5t53 21.5h1q-2 12 -2 19q0 6 2 20 h-1q-31 0 -53 22t-22 52q0 6 2 20h-1q-31 0 -53 22t-22 52q0 6 2 20h-1q-31 0 -53 22t-22 52q0 31 22 53t53 22z" />
<glyph unicode="Y" horiz-adv-x="707" d="M238 546q0 -7 -1 -10q30 -1 50 -22.5t20 -50.5q0 -7 -1 -10q28 -3 48 -26q18 23 46 26v10q0 29 20 50.5t49 22.5v10q0 29 20 51t49 23q-1 3 -1 11q0 31 22 53t53 22t53 -22t22 -53q0 -29 -21.5 -51t-50.5 -23q0 -2 0.5 -5.5t0.5 -5.5q0 -29 -20.5 -50.5t-50.5 -22.5 q1 -3 1 -10q0 -29 -19.5 -50t-47.5 -23q1 -3 1 -9q0 -26 -16 -45.5t-40 -24.5q4 -14 4 -24q0 -32 -23 -55q23 -21 23 -54q0 -34 -24 -56q24 -22 24 -54t-22 -53.5t-53 -21.5t-52.5 22t-21.5 53q0 33 24 54q-24 22 -24 56t23 54q-23 21 -23 55q0 14 4 25q-24 5 -40 24t-16 45 v9q-28 2 -47 23t-19 50v10q-29 2 -49.5 23t-20.5 50q0 7 1 11q-30 1 -51 23t-21 51q0 31 22 53t53 22t53 -22t22 -53q0 -2 -0.5 -6t-0.5 -5q29 -1 49 -23t20 -51z" />
<glyph unicode="Z" horiz-adv-x="559" d="M449 706q31 0 53 -22t22 -53q0 -26 -16.5 -46.5t-42.5 -26.5q3 -10 3 -21q0 -26 -17 -47t-43 -26q3 -10 3 -21q0 -26 -16.5 -46.5t-42.5 -26.5q3 -10 3 -21q0 -27 -17 -47.5t-43 -25.5q3 -9 3 -20q0 -27 -17 -48t-43 -26q3 -9 3 -20q0 -12 -3 -22q26 -5 41 -23 q23 26 57 26q36 0 57 -26q23 25 56 25q31 0 53 -21.5t22 -52.5q0 -32 -22 -53.5t-53 -21.5q-34 0 -57 26q-22 -25 -56 -25q-33 0 -56 25q-21 -26 -57 -26q-35 0 -56 26q-23 -26 -57 -26q-31 0 -53 22t-22 53q0 27 17 47t43 25q-3 10 -3 22q0 27 17 47.5t43 24.5q-3 10 -3 22 q0 27 16.5 47t42.5 25q-3 10 -3 21q0 28 17 48t43 25q-3 10 -3 21q0 27 16.5 47.5t42.5 25.5q-3 10 -3 21t3 21q-25 6 -41 25q-23 -26 -57 -26q-35 0 -56 26q-23 -26 -57 -26q-31 0 -53 22t-22 52q0 31 22 53t53 22q34 0 57 -26q21 26 56 26q34 0 57 -26q21 26 56 26 q34 0 57 -26q21 26 56 26z" />
<glyph unicode="[" horiz-adv-x="347" d="M102 200v1q-28 21 -28 59q0 37 28 58q-28 23 -28 59q0 37 28 58q-28 23 -28 59t28 59q-28 23 -28 59q0 35 28 58q-28 23 -28 59q0 31 21.5 53t52.5 22q33 0 55 -24q21 24 55 24q31 0 52.5 -22t21.5 -53t-21.5 -52.5t-52.5 -21.5q-34 0 -55 23l-9 -8q29 -23 29 -58 q0 -36 -29 -59q29 -23 29 -59t-28 -59q28 -23 28 -58q0 -36 -28 -59q28 -23 28 -58q0 -37 -28 -60q28 -23 28 -58q0 -38 -28 -58q28 -23 28 -59q0 -37 -29 -58l9 -8q21 23 55 23q31 0 52.5 -22t21.5 -53t-21.5 -53t-52.5 -22q-34 0 -55 24q-24 -24 -55 -24t-52.5 22 t-21.5 53q0 37 28 60q-28 21 -28 58q0 35 28 58q-28 21 -28 59q0 37 28 58z" />
<glyph unicode="\" horiz-adv-x="381" d="M65 729q31 0 53 -21.5t22 -52.5q0 -17 -8 -33q22 -8 36 -27t14 -43q0 -14 -7 -32q21 -8 34.5 -27t13.5 -43q0 -15 -7 -31q22 -8 36 -27.5t14 -43.5q0 -14 -7 -32q21 -8 34.5 -27t13.5 -43q0 -15 -7 -31q22 -8 36 -27.5t14 -43.5q0 -18 -8 -32q49 -19 49 -70 q0 -31 -22 -52.5t-53 -21.5t-52.5 21.5t-21.5 52.5q0 18 7 32q-49 19 -49 70q0 18 7 32q-22 8 -35.5 27t-13.5 43q0 18 7 32q-49 19 -49 70q0 18 7 32q-49 19 -49 70q0 18 7 32q-49 19 -49 70q0 14 7 32q-22 8 -35.5 27t-13.5 44q0 31 22 52.5t53 21.5z" />
<glyph unicode="]" horiz-adv-x="347" d="M152 81q-28 20 -28 59q0 35 28 58q-28 20 -28 59q0 35 28 58q-28 23 -28 59q0 35 28 58q-28 23 -28 59t28 59q-28 23 -28 59q0 35 28 58l-8 8q-23 -23 -55 -23q-31 0 -52.5 21.5t-21.5 52.5t21.5 53t52.5 22q33 0 55 -24q21 24 55 24q31 0 52.5 -22t21.5 -53 q0 -36 -28 -59q28 -23 28 -58q0 -36 -29 -59q29 -23 29 -59t-28 -59q28 -21 28 -58q0 -36 -28 -59q28 -21 28 -58q0 -38 -28 -59q28 -21 28 -58q0 -38 -28 -59q28 -23 28 -59q0 -37 -29 -58q29 -23 29 -60q0 -31 -21.5 -53t-52.5 -22q-34 0 -55 24q-24 -24 -55 -24t-52.5 22 t-21.5 53t21.5 53t52.5 22q32 0 55 -23l8 8q-28 21 -28 58q0 36 28 59z" />
<glyph unicode="^" horiz-adv-x="588" d="M179 325q0 -31 -22 -52.5t-53 -21.5t-52.5 21.5t-21.5 52.5t20.5 52t49.5 23q-6 14 -6 30q0 30 20.5 51.5t50.5 23.5q-6 13 -6 30q0 30 20 51.5t50 23.5q-9 15 -9 36q0 31 21.5 53t52.5 22q32 0 53.5 -21.5t21.5 -53.5q0 -14 -7 -30q30 -2 51 -23t21 -52q0 -19 -10 -36 q29 -2 49.5 -23.5t20.5 -51.5q0 -14 -7 -30q30 -2 50.5 -23.5t20.5 -51.5q0 -31 -22 -52.5t-53 -21.5t-52.5 21.5t-21.5 52.5q0 16 6 31q-29 2 -49.5 23t-20.5 51q0 20 9 37q-34 2 -56 30q-20 -34 -61 -36q7 -18 7 -31q0 -30 -21 -51t-51 -23q7 -18 7 -31z" />
<glyph unicode="_" horiz-adv-x="339" d="M-18 -80q0 31 22 53t53 22q33 0 56 -26q23 26 57 26q33 0 56 -26q21 26 56 26q31 0 53 -22t22 -53t-22 -53t-53 -22q-35 0 -56 26q-23 -26 -56 -26q-34 0 -57 26q-23 -26 -56 -26q-31 0 -53 22t-22 53z" />
<glyph unicode="`" horiz-adv-x="325" d="M112 899q22 0 39 -13t24 -33q14 8 29 8q27 0 46.5 -19.5t19.5 -46.5t-19.5 -46.5t-46.5 -19.5q-21 0 -38.5 13t-23.5 33q-13 -7 -30 -7q-26 0 -45.5 19t-19.5 46t19.5 46.5t45.5 19.5z" />
<glyph unicode="a" horiz-adv-x="497" d="M138 335q-30 0 -51 21.5t-21 51.5t21 51.5t51 21.5q26 0 44 -15q21 33 61 33q44 0 64 -38q22 15 45 15q30 0 51.5 -22t21.5 -52q0 -19 -9 -34q39 -16 39 -65q0 -30 -23 -51q23 -21 23 -52t-23 -52q23 -21 23 -52q0 -29 -21 -50.5t-50 -21.5q-16 0 -30 6q-22 -37 -63 -37 q-31 0 -52 23q-21 -23 -52 -23q-24 0 -43 15t-26 38q-5 -2 -16 -2q-27 0 -46.5 20t-19.5 48q0 26 17 45q-17 19 -17 46t19.5 47t46.5 20q11 0 23 -5q7 19 24 31.5t38 12.5q32 0 52 -28q20 28 54 28q13 0 24 -4q0 15 9 28q-25 9 -40 35q-19 -14 -43 -14q-25 0 -44 14 q-21 -33 -61 -33zM187 177q-13 0 -22 4q-4 -13 -14 -24q11 -13 15 -26q10 3 21 3q30 0 51 -23q21 24 53 24q14 0 30 -7q7 13 17 22q-15 15 -19 32q-10 -5 -26 -5q-34 0 -54 27q-20 -27 -52 -27z" />
<glyph unicode="b" horiz-adv-x="567" d="M119 729q31 0 53 -21.5t22 -52.5q0 -32 -23 -55q23 -21 23 -54q0 -31 -23 -54q8 -8 11 -13q12 2 17 2q27 0 46 -16q22 34 63 34q47 0 68 -43q16 8 33 8q31 0 53 -22t22 -53q0 -4 -2 -14q26 -5 43 -26t17 -47q0 -33 -25 -56q25 -23 25 -55q0 -27 -17.5 -48t-43.5 -26 q2 -10 2 -15q0 -31 -22 -53t-53 -22q-19 0 -33 7q-20 -41 -67 -41q-34 0 -56 25q-18 -15 -45 -15q-46 0 -66 40q-11 -3 -22 -3q-30 0 -52 22.5t-22 52.5t21 53q-21 21 -21 53q0 34 23 55q-23 20 -23 54t22 54q-22 22 -22 54q0 34 22 54q-22 22 -22 54q0 33 23 54 q-23 21 -23 55q0 31 21.5 52.5t52.5 21.5zM207 153q35 0 56 -26q22 15 45 15q17 0 33 -8q17 35 52 41q-1 5 -1 16q0 32 25 55q-25 23 -25 56q0 9 1 13q-36 8 -51 42q-13 -8 -34 -8q-27 0 -46 16q-24 -34 -63 -34h-5v-1q0 -33 -24 -54q24 -22 24 -55q0 -31 -22 -53 q8 -7 13 -18q11 3 22 3z" />
<glyph unicode="c" horiz-adv-x="463" d="M368 162q31 0 52.5 -22t21.5 -53t-21.5 -53t-52.5 -22q-26 0 -46 15q-23 -34 -62 -34q-48 0 -68 42q-14 -6 -29 -6q-31 0 -53 22t-22 53q0 8 1 12q-27 4 -45.5 25t-18.5 49q0 33 24 55q-24 22 -24 56q0 28 18.5 48.5t45.5 25.5q-1 4 -1 12q0 31 22 53t53 22q15 0 29 -6 q21 43 68 43q38 0 62 -34q19 16 46 16q30 0 52 -22.5t22 -52.5q0 -31 -21.5 -53t-52.5 -22q-42 0 -63 34q-21 -16 -45 -16q-16 0 -30 6q-18 -36 -56 -42q0 -2 0.5 -6t0.5 -6q0 -33 -25 -56q25 -23 25 -55q0 -2 -0.5 -6t-0.5 -6q38 -6 56 -42q14 6 30 6q24 0 44 -15 q22 35 64 35z" />
<glyph unicode="d" horiz-adv-x="567" d="M448 729q31 0 52.5 -21.5t21.5 -52.5q0 -32 -23 -55q23 -21 23 -54q0 -31 -23 -54q23 -21 23 -54q0 -31 -23 -54q23 -21 23 -54t-23 -54q23 -23 23 -55q0 -33 -22 -53q22 -24 22 -53q0 -30 -22 -52.5t-52 -22.5q-12 0 -22 3q-22 -40 -66 -40q-26 0 -46 15 q-20 -25 -55 -25q-48 0 -68 41q-14 -7 -32 -7q-31 0 -53 22t-22 53q0 10 1 15q-26 5 -43 26t-17 48q0 33 24 55q-24 22 -24 56q0 26 17 47t42 26q-1 5 -1 14q0 31 22 53t53 22q17 0 33 -8q21 43 68 43q40 0 62 -34q21 16 47 16q6 0 16 -2q1 3 12 13q-23 23 -23 54 q0 33 23 54q-23 23 -23 55q0 31 22 52.5t53 21.5zM360 153q12 0 21 -3q4 6 14 18q-22 20 -22 53q0 32 23 55q-23 21 -23 54v1h-5q-41 0 -63 34q-21 -16 -46 -16q-21 0 -34 8q-16 -34 -52 -42q2 -8 2 -13q0 -33 -25 -56q25 -23 25 -55q0 -6 -2 -16q36 -6 53 -41q16 8 33 8 q24 0 44 -15q23 26 57 26z" />
<glyph unicode="e" horiz-adv-x="510" d="M372 146q29 0 49.5 -20.5t20.5 -49.5t-20.5 -50t-49.5 -21q-28 0 -49 19q-20 -31 -59 -31q-22 0 -39.5 12t-25.5 32q-17 -11 -38 -11q-29 0 -49.5 20.5t-20.5 49.5q0 12 2 18q-26 2 -44.5 22t-18.5 48q0 38 32 60q-32 20 -32 59q0 28 19 48.5t45 22.5q-3 10 -3 23 q0 29 20.5 49.5t49.5 20.5q18 0 36 -10q8 19 25.5 30.5t39.5 11.5q20 0 37.5 -11t25.5 -29q16 8 34 8q29 0 49.5 -20.5t20.5 -49.5v-1q20 -5 34 -21.5t14 -38.5q0 -23 -16 -41q24 -21 24 -53q0 -28 -20 -48.5t-48 -20.5q-33 0 -54 27q-18 -29 -52 -29q-31 0 -49 24 q-19 -24 -49 -24q-24 0 -42 16v-3q0 -10 -3 -19q41 -3 58 -43q17 11 38 11q27 0 49 -20q20 33 59 33zM311 301q29 0 48 -22q3 6 13 16q-11 14 -14 32q-45 0 -63 40q-16 -8 -33 -8q-21 0 -37 10q-16 -39 -58 -42q4 -16 4 -24q0 -13 -4 -22q20 20 46 20q30 0 49 -24 q18 24 49 24z" />
<glyph unicode="f" horiz-adv-x="411" d="M73 499q17 0 36 -12l3 3q-33 21 -33 62q0 28 17.5 48.5t44.5 25.5q-1 5 -1 16q0 31 22 53t53 22q27 0 47 -17q23 29 59 29q31 0 53 -21.5t22 -52.5t-22 -53t-53 -22q-26 0 -47 16q-16 -22 -48 -27q2 -12 2 -17q0 -40 -34 -62l4 -3q19 12 38 12q28 0 48 -22q20 22 49 22 q28 0 48 -20.5t20 -49.5t-19.5 -48.5t-48.5 -19.5q-30 0 -49 21q-19 -21 -48 -21q-20 0 -35 9l-3 -2q30 -23 30 -60t-30 -60q30 -23 30 -60q0 -38 -30 -61q30 -22 30 -59q0 -31 -21.5 -53t-52.5 -22q-32 0 -53.5 21.5t-21.5 53.5q0 38 30 59q-30 22 -30 61q0 37 30 60 q-30 22 -30 60q0 37 30 60q-1 0 -3 2q-15 -9 -33 -9q-29 0 -48.5 19.5t-19.5 48.5t20 49.5t48 20.5z" />
<glyph unicode="g" horiz-adv-x="562" d="M146 -198q-31 0 -52.5 22t-21.5 53t21.5 53t52.5 22q25 0 44.5 -15t26.5 -39q13 7 32 7q26 0 46 -17q22 35 64 35h2v8q0 38 29 61l-8 9q-12 -2 -17 -2q-25 0 -46 16q-22 -27 -55 -27q-44 0 -64 39q-15 -9 -35 -9q-30 0 -50.5 21t-20.5 51q0 8 1 12q-26 3 -44.5 23.5 t-18.5 48.5q0 31 22 50q-29 21 -29 58q0 22 13 40.5t34 26.5q-6 13 -6 30q0 30 20.5 50.5t49.5 20.5q16 0 29 -6q5 24 24 39.5t44 15.5q38 0 60 -32q22 25 55 25q40 0 60 -35q14 6 29 6q31 0 53 -22t22 -53q0 -34 -24 -56q29 -22 29 -58t-27 -58q27 -22 27 -56 q0 -36 -27 -58q27 -21 27 -57q0 -37 -30 -59q23 -23 23 -55q0 -31 -22 -52.5t-53 -21.5h-3q1 -2 1 -8q0 -31 -21.5 -53t-52.5 -22q-28 0 -48 17q-22 -35 -62 -35q-26 0 -45.5 15t-26.5 38q-17 -7 -31 -7zM233 357q-16 0 -28 6q-8 -38 -44 -51q7 -16 7 -30q0 -30 -22 -52 q29 -19 29 -56q0 -4 -2 -14q39 -5 55 -39q18 10 36 10q25 0 44 -16q22 27 57 27h5q-2 6 -2 18q0 35 26 56q-26 23 -26 58q0 33 23 54q-13 12 -20 25q-9 -4 -23 -4q-40 0 -60 33q-20 -25 -55 -25z" />
<glyph unicode="h" horiz-adv-x="578" d="M400 484q30 0 52 -22t22 -53q0 -9 -4 -23q29 -2 48.5 -23.5t19.5 -51.5q0 -38 -30 -61q30 -22 30 -60q0 -39 -31 -62q31 -21 31 -60q0 -31 -21.5 -53t-52.5 -22q-32 0 -53.5 21.5t-21.5 53.5q0 39 31 60q-31 23 -31 62q0 38 30 60q-30 23 -30 61q0 13 3 23q-37 5 -55 34 q-21 -19 -49 -19q-18 0 -34 8q-17 -40 -60 -43q0 -2 0.5 -6t0.5 -6q0 -36 -28 -59q28 -23 28 -58q0 -38 -28 -59q28 -23 28 -58q0 -32 -21.5 -53.5t-53.5 -21.5q-31 0 -53 22t-22 53q0 35 28 58q-28 21 -28 59q0 35 28 58q-28 23 -28 59q0 35 28 58q-28 23 -28 59 q0 38 29 59q-29 23 -29 59t29 59q-29 21 -29 59q0 31 22 52.5t53 21.5t53 -21.5t22 -52.5q0 -38 -28 -59q28 -23 28 -59t-29 -59q12 -9 19 -22h4q15 0 28 -6q8 22 27.5 35.5t43.5 13.5q41 0 62 -34q22 19 50 19z" />
<glyph unicode="i" horiz-adv-x="240" d="M120 499q32 0 53.5 -21.5t21.5 -53.5q0 -36 -29 -60q29 -24 29 -59q0 -36 -29 -59q29 -23 29 -59q0 -38 -30 -60q30 -23 30 -59q0 -32 -21.5 -53.5t-53.5 -21.5q-31 0 -53 22t-22 53q0 36 30 59q-30 22 -30 60q0 36 29 59q-29 23 -29 59t29 59q-29 23 -29 60q0 31 22 53 t53 22zM120 706q32 0 53.5 -22t21.5 -53t-22 -52.5t-53 -21.5t-53 21.5t-22 52.5t22 53t53 22z" />
<glyph unicode="j" horiz-adv-x="250" d="M125 499q31 0 53 -21.5t22 -53.5q0 -39 -32 -61q32 -24 32 -61q0 -38 -31 -61q31 -23 31 -60q0 -40 -32 -62q32 -24 32 -61q0 -50 -46 -69q23 -21 23 -54q0 -30 -21.5 -51t-51.5 -23q6 -13 6 -29q0 -31 -22 -52.5t-53 -21.5t-52.5 21.5t-21.5 52.5t21 52.5t50 22.5 q-5 15 -5 28q0 50 46 69q-23 21 -23 54q0 37 32 61q-32 22 -32 62q0 37 31 60q-31 23 -31 61t31 61q-31 21 -31 61q0 31 22 53t53 22zM125 706q31 0 53 -22t22 -53t-22 -52.5t-53 -21.5t-53 21.5t-22 52.5t22 53t53 22z" />
<glyph unicode="k" horiz-adv-x="502" d="M120 729q31 0 53 -21.5t22 -52.5q0 -38 -28 -59q28 -23 28 -59t-29 -59q29 -21 29 -59q0 -36 -28 -59q26 -20 28 -57q19 16 46 16h3q-1 4 -1 12q0 31 22 53t53 22q6 0 16 -2q-2 12 -2 20q0 31 22 53t53 22t53 -22t22 -53t-22 -53t-53 -22q-5 0 -17 2q3 -11 3 -20 q0 -31 -22 -52.5t-53 -21.5h-3q0 -2 0.5 -6.5t0.5 -6.5t-0.5 -6t-0.5 -6h3q31 0 53 -21.5t22 -52.5q0 -6 -2 -18q10 2 16 2q31 0 53 -21.5t22 -52.5t-22 -53t-53 -22t-53 22t-22 53q0 6 2 16q-5 -1 -16 -1q-31 0 -53 22t-22 53q0 8 1 12h-3q-28 0 -46 15q0 -38 -28 -59 q28 -23 28 -58q0 -32 -21.5 -53.5t-53.5 -21.5q-31 0 -53 22t-22 53q0 35 28 58q-28 21 -28 59q0 35 28 58q-28 23 -28 59q0 35 28 58q-28 23 -28 59q0 38 29 59q-29 23 -29 59t29 59q-29 21 -29 59q0 31 22 52.5t53 21.5z" />
<glyph unicode="l" horiz-adv-x="240" d="M120 729q31 0 53 -21.5t22 -52.5q0 -38 -28 -59q28 -23 28 -59t-29 -59q29 -21 29 -59q0 -36 -28 -59q28 -23 28 -58q0 -36 -28 -59q28 -23 28 -58q0 -38 -28 -59q28 -23 28 -58q0 -32 -21.5 -53.5t-53.5 -21.5q-31 0 -53 22t-22 53q0 35 28 58q-28 21 -28 59q0 35 28 58 q-28 23 -28 59q0 35 28 58q-28 23 -28 59q0 38 29 59q-29 23 -29 59t29 59q-29 21 -29 59q0 31 22 52.5t53 21.5z" />
<glyph unicode="m" horiz-adv-x="811" d="M664 462q30 0 52 -22.5t22 -52.5q0 -19 -9 -36q42 -21 42 -66q0 -33 -24 -54q24 -22 24 -54q0 -33 -25 -55q25 -23 25 -54t-22.5 -53t-52.5 -22q-31 0 -53 22t-22 53t23 54q-23 21 -23 55q0 31 23 54q-23 21 -23 54q0 19 9 35q-23 11 -34 34q-13 -5 -25 -5q-21 0 -40 11 q-22 -20 -51 -20q-16 0 -30 6q33 -23 33 -61q0 -33 -24 -54q24 -22 24 -54q0 -33 -25 -55q25 -23 25 -54t-22.5 -53t-52.5 -22q-31 0 -53 22t-22 53q0 33 23 54q-23 23 -23 55q0 31 23 54q-23 21 -23 54q0 19 9 35q-22 11 -32 30q-5 -1 -15 -1q-24 0 -42 12q-20 -22 -53 -22 q-14 0 -25 4l-4 -4q24 -21 24 -54t-24 -55q24 -22 24 -53q0 -34 -24 -55q24 -24 24 -54q0 -31 -22 -53t-53 -22t-53 22t-22 53t23 54q-23 21 -23 55q0 30 23 53q-23 21 -23 55q0 33 23 54q-23 23 -23 55q0 31 22 53t53 22q12 0 25 -5q23 25 55 25q22 0 41 -13q23 23 54 23 q43 0 65 -39q10 2 16 2q21 0 38 -11q22 39 66 39q22 0 39 -11q23 20 52 20q46 0 66 -42q13 5 27 5z" />
<glyph unicode="n" d="M408 462q31 0 53 -22.5t22 -52.5q0 -16 -9 -36q41 -21 41 -66q0 -33 -23 -54q23 -23 23 -54q0 -34 -24 -55q24 -24 24 -54q0 -31 -22 -53t-53 -22t-52.5 22t-21.5 53q0 33 23 54q-23 20 -23 55q0 32 22 54q-22 20 -22 54q0 17 8 35q-21 11 -34 33q-11 -4 -25 -4 q-31 0 -51 20q-23 -23 -54 -23q-14 0 -28 6q-3 -5 -11 -13q24 -21 24 -54t-24 -55q24 -22 24 -53q0 -34 -24 -55q24 -24 24 -54q0 -31 -22 -53t-53 -22t-53 22t-22 53t23 54q-23 21 -23 55q0 30 23 53q-23 21 -23 55q0 33 23 54q-23 23 -23 55q0 31 22 53t53 22q14 0 28 -6 q23 33 62 33q28 0 51 -20q21 23 54 23q47 0 67 -42q13 5 26 5z" />
<glyph unicode="o" d="M177 477q21 0 39 -13q20 35 62 35q39 0 61 -34q19 12 40 12q29 0 50 -21.5t21 -50.5v-6q27 -2 46.5 -23t19.5 -49q0 -27 -18 -48q32 -20 32 -59q0 -44 -41 -65q7 -16 7 -30q0 -29 -20.5 -50t-50.5 -21q-7 0 -19 2q-2 -27 -22.5 -45t-48.5 -18q-38 0 -57 29 q-21 -29 -58 -29q-28 0 -48 18t-23 45q-12 -2 -19 -2q-29 0 -49.5 21t-20.5 50q0 17 6 30q-41 19 -41 65q0 39 32 59q-18 21 -18 48q0 28 20 49t47 23v6q0 30 20.5 51t50.5 21zM335 135q10 0 19 -3q5 41 40 57q-6 15 -6 31q0 27 18 47q-32 21 -32 60v6q-38 2 -57 35 q-17 -11 -39 -11t-39 11q-20 -33 -57 -35v-6q0 -39 -33 -60q19 -19 19 -47q0 -14 -7 -31q37 -17 40 -57q9 3 19 3q36 0 58 -30q20 30 57 30z" />
<glyph unicode="p" horiz-adv-x="562" d="M301 -12q-37 0 -59 30q-20 -17 -47 -17q-11 0 -20 3l-6 -6q26 -21 26 -57q0 -32 -24 -54q24 -21 24 -55q0 -31 -22 -52.5t-53 -21.5t-53 21.5t-22 52.5q0 34 23 55q-23 23 -23 54q0 36 26 57q-26 21 -26 57q0 35 26 56q-26 23 -26 58t26 56q-26 23 -26 58q0 33 26 56 q-22 22 -22 54q0 31 21.5 53t52.5 22q19 0 40 -12q19 43 64 43q32 0 53 -24q21 24 53 24q24 0 43 -15t25 -38q13 5 26 5q30 0 50.5 -20.5t20.5 -50.5q0 -15 -7 -31q20 -8 33 -26.5t13 -40.5q0 -36 -29 -58q22 -19 22 -50q0 -27 -17.5 -47t-42.5 -24q0 -2 0.5 -6t0.5 -6 q0 -29 -21 -50.5t-50 -21.5q-20 0 -35 9q-20 -40 -64 -40zM227 357q-18 0 -34 8q-8 -17 -21 -29q23 -21 23 -53q0 -36 -27 -58q27 -22 27 -56q0 -9 -4 -25h4q38 0 59 -31q20 18 47 18q16 0 34 -9q18 33 54 39q-1 4 -1 13q0 35 29 56q-22 20 -22 52q0 15 7 31q-35 13 -43 49 q-13 -5 -26 -5q-32 0 -53 23q-21 -23 -53 -23z" />
<glyph unicode="q" horiz-adv-x="562" d="M261 -12q-46 0 -64 40q-17 -9 -35 -9q-29 0 -50 21.5t-21 50.5q0 8 1 12q-26 4 -43 24t-17 47q0 29 21 50q-28 21 -28 58q0 22 12.5 40.5t32.5 26.5q-6 13 -6 31q0 30 20.5 50.5t50.5 20.5q12 0 25 -5q6 23 25 38t44 15q32 0 53 -24q21 24 53 24q45 0 64 -43q19 12 40 12 q31 0 52.5 -22t21.5 -53q0 -30 -22 -54q26 -23 26 -56q0 -36 -27 -58q27 -22 27 -56q0 -36 -27 -58q27 -22 27 -56q0 -36 -26 -57q26 -21 26 -57q0 -32 -24 -54q24 -21 24 -55q0 -31 -22 -52.5t-53 -21.5t-53 21.5t-22 52.5q0 34 23 55q-23 23 -23 54q0 36 26 57l-6 6 q-11 -3 -20 -3q-28 0 -47 17q-22 -30 -59 -30zM335 357q-33 0 -54 23q-21 -23 -52 -23q-13 0 -26 5q-10 -36 -44 -49q8 -14 8 -31q0 -30 -22 -52q29 -22 29 -56q0 -3 -0.5 -7t-0.5 -6q37 -6 53 -39q18 9 35 9q26 0 47 -18q21 31 59 31h4q-4 11 -4 25q0 35 26 56 q-26 23 -26 58q0 33 22 53q-14 12 -20 29q-16 -8 -34 -8z" />
<glyph unicode="r" horiz-adv-x="377" d="M302 496q31 0 53 -22t22 -53t-22 -53t-53 -22q-33 0 -56 25q-20 -13 -42 -13q-6 0 -16 2q-6 -13 -15 -22q22 -24 22 -53q0 -33 -24 -55q24 -22 24 -53q0 -34 -24 -55q24 -24 24 -54q0 -31 -22 -53t-53 -22t-53 22t-22 53t23 54q-23 21 -23 55q0 30 23 53q-23 21 -23 55 q0 31 22 53q-22 20 -22 53q0 31 22 53t53 22q8 0 22 -4q20 37 62 37q29 0 50 -21q21 18 48 18z" />
<glyph unicode="s" horiz-adv-x="497" d="M123 466q8 0 22 -4q20 37 61 37q29 0 49 -23q20 20 46 20q35 0 55 -31q15 9 34 9q26 0 44.5 -19.5t18.5 -47.5q0 -27 -18.5 -46.5t-44.5 -19.5q-37 0 -55 30q-15 -9 -34 -9q-28 0 -47 19q-20 -20 -48 -20q-13 0 -25 5q-8 -14 -21 -23q10 -11 14 -24q12 5 25 5 q31 0 53 -27q19 21 48 21q21 0 38 -12.5t24 -33.5q13 7 29 7q28 0 47.5 -20t19.5 -49q0 -31 -25 -53q25 -20 25 -52q0 -28 -19.5 -48t-47.5 -20q-11 0 -21 3q-7 -21 -24 -34t-39 -13q-34 0 -55 28q-19 -24 -51 -24q-22 0 -39 13t-24 33q-15 -9 -34 -9q-28 0 -48 20.5 t-20 49.5t20 49.5t48 20.5q22 0 39.5 -13.5t24.5 -34.5q15 9 33 9q34 0 54 -28q22 25 52 25q8 0 22 -4q7 19 20 29q-14 12 -20 29q-13 -7 -29 -7q-34 0 -53 26q-22 -20 -48 -20q-23 0 -41 14t-25 36q-14 -4 -22 -4q-27 0 -46.5 19.5t-19.5 47.5q0 37 29 56q-16 19 -16 45 q0 28 19 47.5t46 19.5z" />
<glyph unicode="t" horiz-adv-x="407" d="M209 499q26 0 46 -20q20 20 47 20q28 0 47.5 -20.5t19.5 -49.5q0 -28 -19.5 -48t-47.5 -20q-27 0 -47 18q-20 -18 -46 -18q-14 0 -23 4q9 -17 9 -35q0 -35 -28 -58q28 -21 28 -58q0 -25 -16 -46q20 -16 25 -36q10 2 14 2q22 0 40 -13q22 27 56 27q29 0 50 -20.5t21 -49.5 q0 -30 -21 -50.5t-50 -20.5q-24 0 -40 12q-21 -26 -56 -26q-22 0 -40.5 13t-26.5 34q-5 -1 -16 -1q-28 0 -49 21t-21 50q0 24 12 42q-32 24 -32 62q0 37 28 58q-28 23 -28 58q0 32 23 55q-23 21 -23 54q0 34 25 56q-23 21 -23 52t21.5 52t51.5 21t51.5 -21t21.5 -52t-23 -52 l5 -5q15 9 34 9z" />
<glyph unicode="u" d="M148 30q-31 0 -53 22.5t-22 52.5q0 17 8 35q-18 9 -29.5 27.5t-11.5 39.5q0 30 23 53q-23 23 -23 55q0 33 24 54q-24 22 -24 55q0 31 22.5 53t52.5 22q31 0 53 -21.5t22 -53.5t-23 -55q23 -21 23 -54t-23 -54q23 -23 23 -54q0 -20 -9 -35q24 -13 34 -35q13 5 25 5 q31 0 51 -20q23 23 54 23q15 0 29 -6q4 8 10 13q-23 23 -23 55q0 31 23 54q-23 23 -23 54q0 33 23 54q-23 23 -23 55q0 31 22 53t52 22q31 0 53 -21.5t22 -53.5t-23 -55q23 -21 23 -54q0 -31 -23 -54q23 -23 23 -54q0 -32 -23 -55q23 -21 23 -54q0 -31 -22 -53t-53 -22 q-16 0 -28 6q-23 -33 -62 -33q-31 0 -51 20q-21 -23 -54 -23q-46 0 -67 41q-11 -4 -25 -4z" />
<glyph unicode="v" horiz-adv-x="531" d="M446 499q29 0 49.5 -20.5t20.5 -50.5q0 -23 -13.5 -41t-35.5 -25q5 -13 5 -26q0 -24 -14.5 -42.5t-37.5 -24.5q6 -12 6 -28q0 -23 -14 -41.5t-35 -24.5q5 -13 5 -25q0 -46 -44 -64q2 -12 2 -18q0 -31 -21.5 -53t-52.5 -22q-32 0 -53.5 21.5t-21.5 53.5q0 12 2 18 q-44 17 -44 64q0 12 5 25q-22 7 -35.5 25t-13.5 41q0 15 5 28q-22 6 -36 24.5t-14 42.5q0 15 4 26q-22 6 -35.5 24.5t-13.5 41.5q0 30 20.5 50.5t49.5 20.5t50 -20.5t21 -50.5q0 -12 -5 -25q22 -7 35.5 -25t13.5 -42q0 -15 -6 -27q23 -6 37 -24.5t14 -43.5q0 -16 -6 -28 q17 -7 26 -16q11 10 27 16q-6 12 -6 28q0 24 14 43t36 25q-5 13 -5 27q0 24 14 42.5t35 25.5q-4 9 -4 24q0 30 20.5 50.5t49.5 20.5z" />
<glyph unicode="w" horiz-adv-x="740" d="M650 499q29 0 49.5 -20.5t20.5 -50.5q0 -43 -39 -62q8 -16 8 -33q0 -45 -40 -63q9 -18 9 -34q0 -20 -11 -36.5t-29 -24.5q8 -16 8 -32q0 -38 -34 -57q4 -9 4 -22q0 -30 -20.5 -50.5t-50.5 -20.5q-29 0 -49.5 20.5t-20.5 50.5q0 6 2 18q-42 15 -42 60q0 18 7 31 q-20 7 -32.5 24.5t-12.5 39.5q0 20 9 35q-8 3 -16 9q-8 -6 -16 -9q10 -17 10 -35q0 -22 -13 -40t-34 -25q8 -14 8 -30q0 -45 -42 -60q3 -9 3 -18q0 -30 -20.5 -50.5t-50.5 -20.5q-29 0 -50 20.5t-21 50.5q0 12 3 23q-33 18 -33 56q0 20 8 32q-39 19 -39 61q0 19 9 34 q-40 18 -40 63q0 19 7 33q-39 19 -39 62q0 30 20.5 50.5t49.5 20.5t50 -20.5t21 -50.5q0 -16 -8 -32q39 -19 39 -63q0 -18 -10 -36q37 -19 37 -61q0 -18 -10 -35q7 -3 13 -9q9 7 14 9q-10 17 -10 36q0 22 12.5 39.5t32.5 24.5q-9 15 -9 34q0 22 12 39.5t32 24.5q-6 13 -6 29 q0 30 20.5 50.5t50.5 20.5q29 0 49 -20.5t20 -50.5q0 -16 -6 -29q20 -7 32.5 -24.5t12.5 -39.5q0 -19 -9 -34q44 -17 44 -64q0 -19 -10 -36q6 -2 14 -9q6 6 13 9q-10 17 -10 35q0 42 37 61q-10 16 -10 36q0 44 39 63q-7 14 -7 32q0 30 20.5 50.5t49.5 20.5z" />
<glyph unicode="x" horiz-adv-x="532" d="M343 409h5q-1 5 -1 15q0 31 22 53t53 22t53 -22t22 -53t-22 -53t-53 -22h-6q2 -10 2 -15q0 -30 -22 -52t-53 -22h-5q2 -10 2 -15q0 -3 -0.5 -7t-0.5 -6h5q31 0 53 -22t22 -52q0 -6 -2 -16h5q31 0 53 -21.5t22 -52.5q0 -32 -21.5 -53.5t-53.5 -21.5q-31 0 -53 22t-22 53 q0 10 1 15h-4q-31 0 -52.5 22t-21.5 53q0 9 1 14h-5h-5q2 -10 2 -14q0 -31 -22 -53t-53 -22h-5q2 -10 2 -15q0 -31 -22 -53t-53 -22t-53 22t-22 53t22 52.5t53 21.5h4q-1 5 -1 16q0 30 22 52t53 22h4q-1 4 -1 13q0 10 1 15h-4q-31 0 -53 22t-22 52q0 10 1 15h-4 q-31 0 -53 22t-22 53t22 53t53 22t53 -22t22 -53q0 -5 -2 -15h5q31 0 53 -22t22 -53q0 -6 -2 -14h5h4q-1 4 -1 14q0 31 22 53t52 22z" />
<glyph unicode="y" horiz-adv-x="543" d="M121 -94q8 0 12 -1q3 24 19.5 42t39.5 23q-3 10 -3 22q0 18 8 34q-36 21 -36 65q0 21 10 37q-26 6 -42.5 26.5t-16.5 47.5q0 21 10 37q-26 6 -42 26.5t-16 47.5q0 21 9 37q-26 6 -42 26.5t-16 47.5q0 32 21.5 53.5t53.5 21.5q31 0 53 -22t22 -53q0 -21 -11 -38 q26 -5 42.5 -25.5t16.5 -47.5q0 -20 -10 -38q25 -5 42 -26t17 -47q0 -21 -11 -38q3 0 21 -8q14 7 21 8q-10 16 -10 38q0 26 16 46.5t41 26.5q-10 18 -10 38q0 27 16.5 47.5t42.5 25.5q-10 16 -10 38q0 31 21.5 53t52.5 22t53 -21.5t22 -53.5q0 -26 -16.5 -47t-41.5 -26 q10 -18 10 -38q0 -26 -16.5 -46.5t-41.5 -26.5q10 -18 10 -38q0 -27 -16.5 -47.5t-42.5 -26.5q11 -17 11 -37q0 -24 -14.5 -43.5t-36.5 -27.5q5 -15 5 -28q0 -26 -17 -47t-42 -26q4 -9 4 -23q0 -31 -22 -53t-53 -22q-3 0 -7 0.5t-6 0.5q-3 -27 -24 -46t-50 -19 q-31 0 -53 21.5t-22 52.5t22 53t53 22z" />
<glyph unicode="z" horiz-adv-x="521" d="M300 -9q-31 0 -53 22q-20 -22 -49 -22q-23 0 -43 15q-20 -15 -45 -15q-31 0 -53 22.5t-22 53.5t22 52.5t53 21.5h1q-1 5 -1 15q0 31 22 53t54 22h1q-1 4 -1 14q0 31 22 53t53 22h1q-1 5 -1 15q0 17 6 30q-21 -16 -47 -16q-33 0 -55 24q-22 -24 -55 -24q-31 0 -53 22 t-22 53t22 53t53 22q33 0 55 -24q22 24 55 24q31 0 53 -22q20 22 50 22q24 0 42 -15q22 15 45 15q31 0 53.5 -22t22.5 -53t-22.5 -53t-53.5 -22h-2q2 -10 2 -14q0 -30 -22 -52t-53 -22h-2q2 -10 2 -16q0 -30 -21.5 -52t-52.5 -22h-2q2 -10 2 -15q0 -16 -6 -30q20 15 45 15 q33 0 55 -24q22 24 55 24q31 0 53.5 -21.5t22.5 -52.5t-22.5 -53.5t-53.5 -22.5q-33 0 -55 24q-22 -24 -55 -24z" />
<glyph unicode="{" horiz-adv-x="415" d="M325 804q31 0 53 -22t22 -53t-22 -52.5t-53 -21.5q-34 0 -55 23q-3 -5 -8 -8q29 -23 29 -58q0 -36 -29 -59q29 -23 29 -59q0 -24 -13.5 -43.5t-35.5 -27.5q7 -17 7 -32q0 -24 -14 -43.5t-36 -27.5q22 -8 36 -27.5t14 -43.5q0 -21 -9 -36q22 -8 36.5 -27.5t14.5 -43.5 q0 -37 -28 -58q28 -23 28 -59q0 -37 -29 -58l8 -8q21 23 55 23q31 0 53 -22t22 -53t-22 -53t-53 -22q-33 0 -55 24q-21 -24 -54 -24q-31 0 -53 22t-22 53q0 37 29 60q-29 21 -29 58q0 36 29 59q-29 21 -29 58q0 20 9 37q-21 7 -35 25t-15 41h-10q-31 0 -53 22.5t-22 52.5 q0 32 21.5 53.5t53.5 21.5q6 0 10 -1q2 48 48 67q-7 14 -7 33q0 36 29 59q-29 23 -29 59q0 35 29 58q-29 23 -29 59q0 31 22 53t53 22q33 0 54 -23q23 23 55 23z" />
<glyph unicode="|" horiz-adv-x="311" d="M109 226q-28 20 -28 59q0 35 28 58q-28 22 -28 59q0 35 28 58q-28 23 -28 59q0 38 28 59q-28 23 -28 59t28 59q-28 21 -28 58q0 32 21.5 53.5t53.5 21.5q31 0 52.5 -22t21.5 -53q0 -36 -28 -59q28 -23 28 -58q0 -36 -29 -59q29 -21 29 -59q0 -36 -28 -59q28 -23 28 -58 q0 -36 -28 -59q28 -23 28 -58q0 -38 -28 -59q28 -23 28 -58q0 -38 -28 -59q28 -23 28 -58q0 -38 -29 -59q29 -23 29 -60q0 -31 -21.5 -52.5t-52.5 -21.5t-53 21.5t-22 52.5q0 37 28 60q-28 21 -28 59q0 35 28 58q-28 20 -28 59q0 35 28 58z" />
<glyph unicode="}" horiz-adv-x="415" d="M90 804q33 0 54 -23q23 23 55 23q31 0 53 -22t22 -53q0 -36 -29 -59q29 -23 29 -58t-29 -59q29 -24 29 -59q0 -17 -8 -33q46 -18 49 -67q3 1 10 1q31 0 53 -21.5t22 -53.5q0 -30 -22 -52.5t-53 -22.5h-10q-2 -23 -15.5 -41t-35.5 -25q10 -18 10 -37q0 -36 -29 -58 q29 -24 29 -59q0 -36 -29 -58q29 -24 29 -60q0 -31 -22 -53t-53 -22q-33 0 -55 24q-21 -24 -54 -24q-31 0 -53 22t-22 53t21.5 53t53.5 22q34 0 54 -23l8 8q-28 21 -28 58q0 36 28 59q-28 21 -28 58q0 25 14 44t37 27q-9 15 -9 36q0 24 14 43.5t36 27.5q-22 8 -36 27.5 t-14 43.5q0 18 7 32q-22 8 -35.5 27.5t-13.5 43.5q0 36 28 59q-28 23 -28 59q0 35 28 58l-8 8q-20 -23 -54 -23q-31 0 -53 21.5t-22 52.5t21.5 53t53.5 22z" />
<glyph unicode="~" horiz-adv-x="622" d="M507 460q31 0 53 -22t22 -53t-22 -53t-53 -22q-12 0 -22 3q-19 -46 -69 -46q-40 0 -62 32q-18 -12 -42 -12q-41 0 -64 35q-18 -12 -41 -12q-13 0 -23 3q-19 -46 -69 -46q-31 0 -53 21.5t-22 52.5t22 53t53 22q8 0 22 -4q8 21 27 34.5t43 13.5q40 0 64 -36q21 12 41 12 q39 0 62 -33q20 13 42 13q10 0 21 -3q8 21 27.5 34t42.5 13z" />
<glyph unicode="&#xa1;" horiz-adv-x="234" d="M166 124q26 -23 26 -57q0 -30 -22 -52.5t-53 -22.5t-53 22.5t-22 52.5q0 34 26 57q-26 21 -26 57q0 34 26 55q-26 23 -26 57q0 33 26 56q-26 23 -26 57q0 30 22 52.5t53 22.5t53 -22.5t22 -52.5q0 -34 -26 -57q26 -23 26 -56q0 -34 -26 -57q26 -21 26 -55q0 -36 -26 -57z M117 557q-31 0 -53 21.5t-22 52.5t22 53t53 22t53 -22t22 -53t-22 -52.5t-53 -21.5z" />
<glyph unicode="&#xa2;" horiz-adv-x="583" d="M207 292q0 -14 -7 -32q33 -13 44 -47q11 4 24 4q30 0 53 -23q20 22 53 22q6 0 10 -1q5 27 25.5 44.5t48.5 17.5q31 0 52.5 -22t21.5 -53t-21.5 -53t-52.5 -22q-8 0 -11 1q-5 -26 -25 -43.5t-47 -17.5q20 -23 20 -52q0 -31 -22 -53t-53 -22t-53 22t-22 53q0 30 21 53 q-24 0 -43 14t-27 36q-10 -3 -22 -3q-32 0 -53.5 21.5t-21.5 53.5q0 18 7 32q-21 8 -34.5 27t-13.5 43q0 30 21 51q-21 23 -21 53q0 23 13.5 42t34.5 27q-7 13 -7 32q0 31 22 53t53 22q9 0 23 -4q8 22 27 36t43 15q-22 20 -22 53q0 31 22 52.5t53 21.5t53 -21.5t22 -52.5 t-21 -52q27 0 47 -17.5t25 -43.5q2 0 6 0.5t6 0.5q31 0 52.5 -22t21.5 -53t-21.5 -53t-52.5 -22q-28 0 -48.5 17t-25.5 44h-10q-32 0 -53 21q-22 -22 -53 -22q-12 0 -24 3q-11 -33 -44 -46q7 -17 7 -31q0 -30 -21 -53q21 -21 21 -51z" />
<glyph unicode="&#xa3;" horiz-adv-x="619" d="M321 400q27 0 49 -20q23 20 52 20q30 0 51.5 -21t21.5 -52q0 -30 -21.5 -51t-51.5 -21t-52 19q-21 -19 -49 -19q-17 0 -30 6q-8 -29 -30 -43q10 -17 10 -35q0 -29 -19 -48q18 7 33 7q33 0 56 -26q23 26 57 26q33 0 56 -25q23 25 56 25q31 0 53 -21.5t22 -52.5t-22 -53 t-53 -22q-34 0 -56 25q-22 -25 -56 -25t-57 25q-23 -25 -56 -25q-34 0 -54 22q-22 -22 -53 -22q-32 0 -53.5 21.5t-21.5 53.5q0 48 44 67q-18 21 -18 48q0 34 27 55q-11 16 -13 36q-21 -19 -51 -19t-51.5 21t-21.5 51t21.5 51.5t51.5 21.5q13 0 28 -5q1 26 22 47 q-32 24 -32 62q0 24 14 43.5t36 27.5q-2 12 -2 19q0 31 21.5 53t52.5 22q18 0 35 -9q19 46 68 46q34 0 58 -27q22 17 47 17q28 0 49.5 -19t24.5 -48q3 1 10 1q31 0 53 -21.5t22 -52.5t-22 -53t-53 -22q-28 0 -49.5 19t-25.5 46h-9q-36 0 -58 27q-21 -16 -47 -16q-18 0 -34 8 q-12 -31 -44 -42q3 -9 3 -19q0 -31 -23 -54q33 -21 33 -61q0 -7 -1 -10q23 21 52 21z" />
<glyph unicode="&#xa4;" horiz-adv-x="677" d="M641 97q0 -31 -21.5 -53t-52.5 -22t-53 22t-22 53q0 10 1 14h-8q-14 0 -25 4q-7 -23 -26.5 -37.5t-44.5 -14.5q-32 0 -54 22q-21 -21 -52 -21q-25 0 -44 14t-27 36q-10 -3 -23 -3h-6q2 -10 2 -14q0 -31 -22 -53t-53 -22t-53 22t-22 53t22 53t53 22h5q-1 4 -1 14 q0 18 7 31q-21 8 -34.5 27.5t-13.5 43.5q0 30 21 51q-21 23 -21 53q0 23 13.5 42t34.5 27q-7 13 -7 32q0 10 1 15h-5q-31 0 -53 22t-22 53t22 53t53 22t53 -22t22 -53q0 -5 -2 -15h6q14 0 23 -4q8 23 27 37t44 14q31 0 52 -21q22 22 54 22q25 0 44.5 -14.5t26.5 -37.5 q16 4 25 4q5 0 8 -1q-1 5 -1 16q0 31 22 53t53 22t52.5 -22t21.5 -53t-21.5 -53t-52.5 -22h-9q2 -10 2 -15q0 -16 -7 -32q21 -8 34.5 -27t13.5 -42q0 -30 -21 -53q21 -21 21 -51q0 -24 -13.5 -43.5t-34.5 -27.5q7 -16 7 -31q0 -5 -2 -15q3 1 9 1q31 0 52.5 -22t21.5 -53z M222 288q0 -16 -7 -32q34 -13 45 -47q9 4 23 4q33 0 53 -22q23 21 53 21q8 0 24 -4q9 33 45 48q-7 13 -7 32q0 30 21 51q-21 23 -21 53q0 17 7 31q-35 13 -45 48q-11 -4 -24 -4q-30 0 -53 21q-20 -22 -53 -22q-13 0 -23 3q-11 -34 -45 -47q7 -13 7 -30q0 -30 -21 -53 q21 -21 21 -51z" />
<glyph unicode="&#xa5;" horiz-adv-x="707" d="M238 546q0 -7 -1 -10q30 -1 50 -22.5t20 -50.5q0 -7 -1 -10q28 -3 48 -26q18 23 46 26v10q0 29 20 50.5t49 22.5v10q0 29 20 51t49 23q-1 3 -1 11q0 31 22 53t53 22q32 0 53.5 -22t21.5 -53q0 -29 -21 -51t-51 -23q0 -2 0.5 -5.5t0.5 -5.5q0 -29 -20.5 -50.5t-50.5 -22.5 q1 -3 1 -10q0 -29 -19.5 -50t-47.5 -23q1 -3 1 -9q0 -26 -16 -45.5t-40 -24.5q4 -14 4 -24q21 19 50 19q31 0 53 -22t22 -53t-22 -52.5t-53 -21.5q-29 0 -50 18q-2 -32 -24 -53q24 -22 24 -54q0 -31 -21.5 -53t-52.5 -22q-32 0 -53.5 21.5t-21.5 53.5q0 33 24 54 q-24 21 -24 53q-21 -18 -50 -18q-31 0 -52.5 21.5t-21.5 52.5t21.5 53t52.5 22q29 0 50 -19q0 14 4 25q-24 5 -40 24t-16 45v9q-28 2 -47 23t-19 50v10q-29 2 -49.5 23t-20.5 50q0 7 1 11q-30 1 -51 23t-21 51q0 31 22 53t53 22t53 -22t22 -53q0 -2 -0.5 -6t-0.5 -5 q29 -1 49 -23t20 -51z" />
<glyph unicode="&#xa6;" horiz-adv-x="311" d="M156 829q31 0 52.5 -22t21.5 -53q0 -36 -28 -59q28 -23 28 -58q0 -36 -29 -59q29 -21 29 -59q0 -31 -21.5 -53t-52.5 -22t-53 22t-22 53q0 38 28 59q-28 23 -28 59t28 59q-28 21 -28 58q0 32 21.5 53.5t53.5 21.5zM202 108v1q28 -23 28 -58q0 -38 -29 -59q29 -23 29 -60 q0 -31 -21.5 -52.5t-52.5 -21.5t-53 21.5t-22 52.5q0 37 28 60q-28 21 -28 59q0 35 28 58q-28 21 -28 58q0 31 21.5 53t53.5 22q31 0 52.5 -22t21.5 -53q0 -36 -28 -59z" />
<glyph unicode="&#xa7;" horiz-adv-x="525" d="M137 677q12 0 24 -5q21 36 59 36q30 0 50 -23q20 20 47 20q36 0 56 -31q15 9 34 9q28 0 48 -20.5t20 -49.5t-20 -49.5t-48 -20.5q-37 0 -57 32q-16 -8 -33 -8q-30 0 -50 22q-19 -19 -47 -19q-13 0 -24 4q-6 -11 -17 -21q7 -11 12 -24q9 4 22 4q24 0 42.5 -15.5 t23.5 -38.5q17 10 35 10q26 0 45.5 -19t21.5 -46q14 4 23 4q28 0 48 -20.5t20 -48.5q0 -41 -34 -61q16 -19 16 -44q0 -44 -38 -63q24 -5 40 -24.5t16 -44.5q0 -31 -23 -51q23 -21 23 -51q0 -28 -20 -48.5t-48 -20.5q-11 0 -20 3q-7 -21 -24 -34.5t-39 -13.5q-35 0 -55 29 q-20 -25 -51 -25q-22 0 -39 13t-24 34q-18 -9 -34 -9q-28 0 -48 20.5t-20 48.5q0 29 20 49.5t48 20.5q22 0 39.5 -13t24.5 -34q13 9 33 9q35 0 54 -29q22 25 52 25q9 0 18 -3q6 16 19 29q-12 10 -18 26q-13 -5 -26 -5q-23 0 -41.5 14t-24.5 37q-14 -10 -35 -10 q-28 0 -48 20.5t-20 48.5q-12 -2 -19 -2q-27 0 -46.5 20t-19.5 49q0 47 44 65q-16 19 -16 46q0 40 35 60q-26 1 -44.5 21t-18.5 48q0 35 25 55q-15 18 -15 44q0 29 19.5 49t47.5 20zM314 231q6 0 9 -1q-4 11 -4 24q0 40 34 59q-16 17 -17 40q-9 -4 -22 -4q-24 0 -43 16 t-24 39q-14 -9 -26 -10q2 -8 2 -14q0 -23 -12.5 -41t-32.5 -25q16 -19 16 -44q9 3 19 3q23 0 41.5 -15t24.5 -37q17 10 35 10z" />
<glyph unicode="&#xa8;" horiz-adv-x="325" d="M240 871q28 0 48 -20t20 -48t-20 -48t-48 -20t-47.5 20t-19.5 48t19.5 48t47.5 20zM88 871q28 0 48 -20t20 -48t-20 -48t-48 -20t-48 20t-20 48t20 48t48 20z" />
<glyph unicode="&#xa9;" horiz-adv-x="818" d="M302 699q25 0 44 -16q23 34 63 34q41 0 62 -34q21 16 46 16q27 0 47.5 -17.5t25.5 -43.5q9 3 19 3q31 0 53 -22t22 -52q0 -9 -1 -14q28 -3 47 -24.5t19 -49.5q0 -21 -11 -40q40 -20 40 -65q0 -36 -29 -60q19 -21 19 -49q0 -25 -15 -45t-38 -27q4 -16 4 -24 q0 -31 -22 -52.5t-53 -21.5h-6q-1 -30 -22.5 -51.5t-51.5 -21.5q-19 0 -32 7q-20 -43 -67 -43q-34 0 -56 24q-22 -24 -54 -24q-48 0 -68 43q-14 -7 -31 -7q-31 0 -52.5 21.5t-22.5 51.5h-6q-31 0 -53 21.5t-22 52.5q0 13 4 24q-24 7 -39 26.5t-15 45.5q0 28 19 49 q-29 23 -29 60q0 44 40 66q-10 18 -10 39q0 29 18.5 50t46.5 24q-1 5 -1 14q0 30 22 52t53 22q10 0 19 -3q5 26 26 43.5t48 17.5zM564 172q1 0 3 -0.5t3 -0.5q1 24 15.5 43t36.5 26q-4 16 -4 25q0 36 29 59q-19 21 -19 50q0 21 11 38q-39 22 -39 67q0 9 1 13q-24 3 -42.5 19 t-23.5 40q-6 -2 -18 -2q-40 0 -63 34q-18 -15 -45 -15q-26 0 -45 14q-23 -33 -62 -33q-8 0 -20 2q-5 -23 -22.5 -39.5t-41.5 -19.5q1 -4 1 -13q0 -44 -40 -67q11 -17 11 -38q0 -29 -19 -50q29 -23 29 -59q0 -9 -4 -25q22 -7 37 -26t16 -43q1 0 3 0.5t4 0.5q21 0 39.5 -12.5 t27.5 -31.5q16 7 32 7q32 0 54 -25q23 25 56 25q13 0 31 -7q21 44 68 44zM498 505q28 0 48 -20t20 -49q0 -28 -20 -48.5t-48 -20.5q-43 0 -62 41q-12 -6 -28 -6q-17 0 -30 7q-11 -26 -35 -37q5 -13 5 -26q0 -12 -5 -25q26 -11 35 -35q16 7 30 7q17 0 34 -10q20 32 56 32 q28 0 48 -20t20 -49q0 -28 -20 -48.5t-48 -20.5q-19 0 -34 9q-20 -31 -56 -31q-44 0 -62 40q-14 -6 -29 -6q-28 0 -48 20.5t-20 49.5q0 15 4 24q-39 19 -39 63q0 45 40 63q-5 13 -5 27q0 29 20 49t48 20q14 0 28 -7q18 42 63 42q44 0 61 -42q16 7 29 7z" />
<glyph unicode="&#xaa;" horiz-adv-x="533" d="M328 699q27 0 46.5 -18t21.5 -45q27 -2 46 -22t19 -47q0 -25 -17 -47q17 -20 17 -45q0 -29 -20 -49q19 -21 19 -48q0 -6 -1 -9q21 -7 34.5 -25t13.5 -41q0 -29 -20 -49t-48 -20q-25 0 -44 17.5t-22 43.5q-16 -31 -53 -31q-14 0 -24 6q-20 -36 -59 -36q-44 0 -61 40 q-13 -7 -30 -7q-28 0 -47.5 20.5t-19.5 49.5q0 11 3 20q-21 7 -34 25t-13 41q0 31 22 51q-18 20 -18 47q0 23 13.5 41t34.5 25q-4 9 -4 23q0 29 19.5 49t47.5 20q12 0 28 -7q19 34 58 34q29 0 50 -23q18 16 42 16zM320 387h5q3 23 20 40q-19 19 -19 48q0 26 17 45 q-16 17 -17 41q-29 0 -47 23q-19 -16 -43 -16q-15 0 -27 6q-13 -23 -39 -31q4 -9 4 -22q0 -31 -22 -51q18 -20 18 -47q0 -8 -4 -22q29 -10 41 -36q16 7 30 7q19 0 36 -11q16 26 47 26z" />
<glyph unicode="&#xab;" horiz-adv-x="604" d="M429 185v6h-5q-31 0 -53 22t-22 53v5h-4q-31 0 -52.5 21.5t-21.5 52.5t21.5 53t52.5 22h4v4q0 31 22 53t53 22h3v5q0 31 22 53t53 22t53 -22t22 -53t-22 -53t-53 -22h-3v-5q0 -31 -22 -53t-53 -22h-4v-4v-5h4q31 0 53 -21.5t22 -52.5v-6h5q31 0 53 -22t22 -53t-22 -53 t-53 -22t-53 22t-22 53zM184 185v6h-5q-31 0 -53 21.5t-22 53.5v5h-4q-31 0 -53 21.5t-22 52.5t22 53t53 22h4v4q0 32 22 53.5t53 21.5h3v5q0 31 22 53t53 22t52.5 -22t21.5 -53t-21.5 -53t-52.5 -22h-3v-5q0 -31 -22 -53t-53 -22h-4v-4v-5h4q31 0 53 -21.5t22 -52.5v-6h5 q31 0 52.5 -22t21.5 -53t-21.5 -53t-52.5 -22t-53 22t-22 53z" />
<glyph unicode="&#xac;" horiz-adv-x="538" d="M508 331q0 -33 -25 -56q25 -22 25 -56q0 -33 -25 -56q25 -23 25 -56q0 -31 -22 -53t-53 -22t-52.5 22t-21.5 53q0 34 25 56q-25 22 -25 56q0 36 25 56l-5 5q-23 -23 -55 -23q-33 0 -55 24q-21 -24 -55 -24q-32 0 -55 23q-21 -23 -54 -23q-31 0 -53 22t-22 52q0 31 22 53 t53 22q33 0 54 -23q23 23 55 23q34 0 55 -24q24 24 55 24q33 0 55 -24q21 24 54 24q31 0 53 -22t22 -53z" />
<glyph unicode="&#xae;" horiz-adv-x="473" d="M50 516q0 79 54.5 134.5t131.5 55.5q78 0 132.5 -55.5t54.5 -134.5q0 -77 -54.5 -132t-132.5 -55q-77 0 -131.5 55t-54.5 132zM279 477h-4l1 1v3h9q9 0 15.5 6.5t6.5 15.5q0 4 -1 5q9 0 16 7t7 17q0 12 -9 18q9 6 9 18q0 9 -6.5 15.5t-15.5 7.5q1 2 1 6q0 9 -6.5 16.5 t-15.5 7.5q-11 0 -18 -8q-6 12 -20 12q-8 0 -17 -7q-7 7 -17 7t-17 -7q-9 7 -18 7q-10 0 -17 -7t-7 -17q0 -11 8 -17q-8 -8 -8 -17q0 -12 8 -18q-8 -6 -8 -17q0 -10 8 -18q-8 -8 -8 -17q0 -12 8 -18q-8 -6 -8 -17t8 -17q-8 -8 -8 -17q0 -10 7 -17.5t17 -7.5t16.5 7.5 t6.5 17.5q0 8 -7 17q7 7 7 17q0 11 -8 17q1 0 3 2q8 -6 16 -6q12 0 17 8q0 -10 6.5 -17t15.5 -7h4v-4q0 -10 6.5 -16.5t16.5 -6.5q3 0 5 1q-1 -2 -1 -5q0 -10 6.5 -17.5t16.5 -7.5q9 0 16 7.5t7 17.5q0 8 -7 15t-16 7q-3 0 -6 -1q1 2 1 6q0 9 -6.5 15.5t-15.5 6.5zM283 568 q0 -12 8 -18q-8 -6 -8 -18q0 -4 1 -6q-15 0 -20 -14q-7 7 -16 7q-10 0 -18 -9q-4 9 -17 9q-11 0 -16 -8l-2 3q7 9 7 18q0 11 -8 17q8 6 8 18q0 9 -8 17l3 3q6 -9 17 -9t17 9q8 -9 17 -9q8 0 17 7q4 -9 19 -11q-1 -2 -1 -6z" />
<glyph unicode="&#xaf;" horiz-adv-x="325" d="M67 729q-25 0 -43.5 18.5t-18.5 43.5t18.5 43.5t43.5 18.5q30 0 48 -23q18 23 49 23q28 0 47 -24q19 24 50 24q25 0 42.5 -18t17.5 -44q0 -25 -17.5 -43.5t-42.5 -18.5q-29 0 -50 24q-19 -24 -47 -24q-30 0 -50 23q-18 -23 -47 -23z" />
<glyph unicode="&#xb0;" horiz-adv-x="390" d="M57 567q0 57 40.5 98t97.5 41t97.5 -41t40.5 -98q0 -56 -40.5 -97t-97.5 -41t-97.5 41t-40.5 97zM137 567q0 -25 17 -41.5t41 -16.5t41 16.5t17 41.5q0 24 -17 41t-41 17t-41 -17t-17 -41z" />
<glyph unicode="&#xb1;" horiz-adv-x="661" d="M218 423q35 0 56 -26l7 7q-24 21 -24 56q0 33 25 56q-25 22 -25 57q0 31 21.5 52.5t52.5 21.5t53 -21.5t22 -52.5q0 -36 -26 -57q26 -23 26 -56q0 -36 -25 -56l7 -7q21 26 56 26q33 0 56 -26q21 26 57 26q31 0 52.5 -21.5t21.5 -52.5t-21.5 -53t-52.5 -22q-36 0 -57 26 q-23 -26 -56 -26q-35 0 -56 26l-8 -8q26 -23 26 -57q0 -35 -26 -56q23 -20 26 -51q17 11 38 11q33 0 56 -26q21 26 57 26q31 0 52.5 -21.5t21.5 -52.5t-21.5 -53t-52.5 -22q-36 0 -57 26q-23 -26 -56 -26q-35 0 -56 26q-23 -26 -57 -26t-57 26q-21 -26 -56 -26q-34 0 -57 25 q-23 -25 -56 -25q-31 0 -53 22t-22 53t22 52.5t53 21.5q33 0 56 -26q23 26 57 26q20 0 39 -11q1 29 25 51q-25 22 -25 56t25 57l-8 8q-21 -26 -56 -26q-34 0 -57 25q-23 -25 -56 -25q-31 0 -53 22t-22 53t22 52.5t53 21.5q33 0 56 -26q23 26 57 26z" />
<glyph unicode="&#xb2;" horiz-adv-x="474" d="M120 658q14 0 23 -4q6 26 26.5 42t46.5 16q40 0 63 -34q19 14 43 14q32 0 53.5 -22t21.5 -53q0 -21 -13 -41q39 -22 39 -65q0 -31 -22 -53t-53 -22h-1v-1q0 -31 -21.5 -52.5t-52.5 -21.5h-1q16 -8 26 -21q23 28 58 28q31 0 52.5 -22t21.5 -53q0 -30 -22 -52.5t-52 -22.5 q-35 0 -58 28q-23 -28 -58 -28q-36 0 -57 28q-23 -28 -58 -28q-30 0 -52.5 22.5t-22.5 52.5q0 28 20 50t48 24v1q0 30 22.5 52t52.5 22h5q3 29 24.5 48.5t50.5 19.5h1v1q0 23 12 41q-15 8 -27 25q-19 -14 -43 -14q-14 0 -23 4q-5 -26 -25.5 -42t-47.5 -16q-31 0 -53 21.5 t-22 52.5t22 53t53 22z" />
<glyph unicode="&#xb3;" horiz-adv-x="465" d="M110 528q-28 0 -49 21t-21 49t21 49t49 21q16 0 29 -7q9 21 28 34t42 13q38 0 60 -30q22 15 45 15q32 0 53.5 -21.5t21.5 -53.5q0 -10 -3 -19q41 -19 41 -64q0 -27 -17.5 -46.5t-43.5 -22.5v-3v-5q26 -3 43.5 -23t17.5 -46q0 -45 -41 -64q3 -9 3 -19q0 -31 -22 -53 t-53 -22q-24 0 -44 14q-21 -33 -62 -33q-24 0 -43.5 14t-27.5 36q-13 -5 -27 -5q-28 0 -49 20.5t-21 48.5q0 29 21 49.5t49 20.5q21 0 38.5 -12t25.5 -31q16 8 34 8q24 0 44 -14q14 20 37 28q-1 5 -1 14v4q-24 3 -41 20q-20 -20 -49 -20q-28 0 -49 20.5t-21 49.5 q0 28 21 48.5t49 20.5q27 0 49 -20q18 16 41 19v4q0 9 1 13q-21 8 -35 26q-18 -15 -45 -15q-19 0 -36 9q-8 -18 -25.5 -29t-37.5 -11z" />
<glyph unicode="&#xb4;" horiz-adv-x="325" d="M112 729q-26 0 -45.5 19.5t-19.5 46.5t19.5 46.5t45.5 19.5q16 0 30 -8q6 20 23.5 33t38.5 13q27 0 46.5 -19t19.5 -47q0 -27 -19.5 -46t-46.5 -19q-16 0 -29 7q-7 -20 -24 -33t-39 -13z" />
<glyph unicode="&#xb6;" horiz-adv-x="691" d="M301 180q0 20 10 38q-40 5 -59 39q-23 -21 -52 -21q-31 0 -53 22t-22 53q0 7 2 19q-28 2 -48 24t-20 51q0 36 27 58q-27 22 -27 59q0 30 19.5 51.5t48.5 23.5q-2 6 -2 20q0 31 22 53t53 22t53 -22q21 36 64 36q33 0 56 -26q23 26 56 26q34 0 57 -26q21 26 56 26 q32 0 53.5 -22t21.5 -53q0 -35 -26 -56q26 -23 26 -57t-26 -57q26 -23 26 -56t-25 -56q25 -23 25 -56q0 -34 -26 -57q26 -23 26 -56q0 -34 -26 -57q26 -21 26 -55q0 -36 -27 -58q27 -22 27 -56q0 -35 -26 -56q26 -23 26 -57q0 -31 -22 -52.5t-53 -21.5t-52.5 21.5 t-21.5 52.5q0 35 25 57q-25 20 -25 56q0 35 26 56q-26 23 -26 58t25 55q-25 22 -25 57q0 33 25 56q-25 23 -25 57t25 56q-25 22 -25 56q0 33 25 56q-25 23 -25 57t25 57l-7 7q-19 -21 -47 -25q11 -17 11 -39q0 -34 -26 -57q26 -23 26 -56t-25 -56q25 -23 25 -56 q0 -34 -26 -57q26 -23 26 -56q0 -34 -26 -57q26 -21 26 -55q0 -35 -26 -58q26 -21 26 -56t-26 -56q26 -23 26 -57q0 -31 -21.5 -52.5t-52.5 -21.5t-53 21.5t-22 52.5q0 34 25 57q-25 22 -25 56q0 35 26 56q-26 23 -26 58q0 33 25 55q-25 23 -25 57zM208 522q0 -36 -28 -59 q28 -23 28 -58q0 -10 -3 -19q40 -3 60 -40q20 20 46 21q-10 16 -10 38q0 33 25 56q-25 23 -25 57q0 19 10 39q-28 2 -47 21q-21 -33 -59 -36q3 -10 3 -20z" />
<glyph unicode="&#xb7;" horiz-adv-x="258" d="M129 449q31 0 52.5 -21.5t21.5 -52.5t-21.5 -53t-52.5 -22t-52.5 22t-21.5 53t21.5 52.5t52.5 21.5z" />
<glyph unicode="&#xb8;" horiz-adv-x="325" d="M100 -233q-26 0 -45.5 19t-19.5 46q0 28 19.5 47t45.5 19q11 0 20 -3q3 22 18 37q-27 19 -27 53q0 27 19 46.5t46 19.5t46 -19.5t19 -46.5q0 -25 -18 -45q27 -20 27 -54q0 -27 -19 -46.5t-46 -19.5q-11 0 -20 3q-3 -23 -21.5 -39.5t-43.5 -16.5z" />
<glyph unicode="&#xb9;" horiz-adv-x="323" d="M115 648q5 26 25.5 42t47.5 16q31 0 53 -22t22 -53q0 -33 -26 -56q26 -23 26 -57q0 -33 -26 -56q26 -23 26 -56q0 -34 -26 -57q26 -23 26 -56q0 -30 -22 -52.5t-53 -22.5t-53 22.5t-22 52.5q0 33 26 56q-26 23 -26 57q0 33 26 56q-26 23 -26 55q-18 -8 -35 -8 q-31 0 -53 21.5t-22 52.5t22 53t53 22q19 0 37 -10z" />
<glyph unicode="&#xba;" horiz-adv-x="496" d="M338 671q29 0 48.5 -20t19.5 -49q0 -10 -3 -19q24 -4 41 -23t17 -45q0 -29 -22 -51q22 -20 22 -50q0 -26 -17 -45t-41 -23q3 -11 3 -20q0 -29 -20 -49t-48 -20q-19 0 -34 9q-20 -31 -56 -31q-37 0 -57 31q-15 -9 -33 -9q-28 0 -48 20t-20 49q0 13 2 20q-24 4 -40.5 23 t-16.5 45q0 31 21 50q-21 21 -21 51q0 26 16.5 45t40.5 23q-2 12 -2 19q0 29 19.5 49t48.5 20q14 0 28 -7q17 42 62 42q44 0 61 -42q16 7 29 7zM248 373q17 0 34 -10q15 26 47 31q-3 9 -3 20q0 31 21 50q-21 21 -21 51q0 7 2 19q-36 5 -51 41q-13 -7 -29 -7t-29 7 q-15 -36 -52 -41q3 -9 3 -19q0 -29 -22 -51q22 -20 22 -50q0 -11 -3 -20q31 -5 46 -31q17 10 35 10z" />
<glyph unicode="&#xbb;" horiz-adv-x="604" d="M102 429q-31 0 -53 22t-22 53t22 53t53 22t53 -22t22 -53v-5h3q31 0 53 -22t22 -53v-4h4q31 0 52.5 -22t21.5 -53t-21.5 -52.5t-52.5 -21.5h-4v-5q0 -31 -22 -53t-53 -22h-6q0 -1 0.5 -3t0.5 -3q0 -31 -22 -53t-53 -22t-53 22t-22 53t22 53t53 22h5v6q0 31 22 52.5 t53 21.5h4v5v4h-4q-31 0 -53 22t-22 53v5h-3zM420 185q0 -31 -22 -53t-53 -22t-52.5 22t-21.5 53t21.5 53t52.5 22h5v6q0 31 22 52.5t53 21.5h4v5v4h-4q-31 0 -53 22t-22 53v5h-3q-31 0 -52.5 22t-21.5 53t21.5 53t52.5 22t53 -22t22 -53v-5h3q31 0 53 -21.5t22 -53.5v-4h4 q31 0 53 -22t22 -53t-22 -52.5t-53 -21.5h-4v-5q0 -32 -22 -53.5t-53 -21.5h-5v-6z" />
<glyph unicode="&#xbc;" horiz-adv-x="939" d="M533 745q31 0 53 -21.5t22 -52.5q0 -24 -14 -43.5t-36 -27.5q8 -16 8 -34q0 -24 -14 -43.5t-36 -27.5q9 -20 9 -35q0 -24 -14 -43t-37 -27q9 -16 9 -36q0 -24 -14 -43t-36 -27q9 -17 9 -35q0 -24 -14 -43t-37 -27q9 -17 9 -36q0 -24 -14 -42.5t-36 -26.5q9 -20 9 -36 q0 -31 -22 -52.5t-53 -21.5q-30 0 -52 21.5t-22 52.5q0 24 14 43.5t35 27.5q-8 16 -8 34q0 25 13.5 44t36.5 27q-9 15 -9 35q0 24 14 43.5t36 27.5q-8 13 -8 34q0 25 13.5 44t36.5 27q-9 15 -9 35q0 24 14 43t36 27q-8 16 -8 36q0 24 13.5 43t35.5 27q-8 16 -8 35 q0 31 22 52.5t53 21.5zM115 648q5 26 25.5 42t47.5 16q31 0 53 -22t22 -53q0 -33 -26 -56q26 -23 26 -57q0 -33 -26 -56q26 -23 26 -56q0 -34 -26 -57q26 -23 26 -56q0 -30 -22 -52.5t-53 -22.5t-53 22.5t-22 52.5q0 33 26 56q-26 23 -26 57q0 33 26 56q-26 23 -26 55 q-18 -8 -35 -8q-31 0 -53 21.5t-22 52.5t22 53t53 22q19 0 37 -10zM823 405q0 -33 -26 -56q26 -23 26 -56t-26 -56l5 -4q20 17 45 17q29 0 49.5 -20t20.5 -49t-20.5 -49.5t-49.5 -20.5q-26 0 -46 17l-4 -4q26 -23 26 -56q0 -31 -22 -53t-53 -22q-30 0 -52 22t-22 53 q0 33 26 56q-6 5 -13 15q-20 -27 -53 -27q-32 0 -51 26q-21 -26 -54 -26q-28 0 -48.5 20.5t-20.5 49.5q0 28 20 48.5t48 21.5q-2 10 -2 15q0 26 18.5 44.5t44.5 18.5h6v6q0 29 20.5 49.5t49.5 20.5q6 0 9 -1q0 31 22 53t52 22q31 0 53 -22t22 -53zM665 267q-9 0 -13 1v-1 q0 -14 -7 -28q24 -5 38 -22q6 11 16 20q-14 14 -21 31q-4 -1 -13 -1z" />
<glyph unicode="&#xbd;" horiz-adv-x="916" d="M592 410q14 0 23 -4q6 26 26.5 42t46.5 16q40 0 63 -34q19 14 43 14q32 0 53.5 -22t21.5 -53q0 -21 -13 -41q39 -22 39 -65q0 -31 -22 -53t-53 -22h-1v-1q0 -31 -21.5 -52.5t-52.5 -21.5h-1q16 -8 26 -21q23 28 58 28q31 0 52.5 -22t21.5 -53q0 -30 -22 -52.5t-52 -22.5 q-35 0 -58 28q-23 -28 -58 -28q-36 0 -57 28q-23 -28 -58 -28q-30 0 -52.5 22.5t-22.5 52.5q0 28 20 50t48 24v1q0 30 22.5 52t52.5 22h5q3 29 24.5 48.5t50.5 19.5h1v1q0 23 12 41q-15 8 -27 25q-19 -14 -43 -14q-14 0 -23 4q-5 -26 -25.5 -42t-47.5 -16q-31 0 -53 21.5 t-22 52.5t22 53t53 22zM536 741q31 0 53 -21.5t22 -52.5q0 -24 -14 -43.5t-36 -27.5q8 -16 8 -34q0 -24 -14 -43.5t-36 -27.5q9 -20 9 -35q0 -24 -14 -43t-37 -27q9 -16 9 -36q0 -24 -14 -43t-36 -27q9 -16 9 -35q0 -24 -14 -43t-37 -27q9 -17 9 -36q0 -24 -14 -42.5 t-36 -26.5q9 -20 9 -36q0 -31 -22 -52.5t-53 -21.5q-30 0 -52 21.5t-22 52.5q0 24 14 43.5t35 27.5q-8 16 -8 34q0 25 13.5 44t36.5 27q-9 15 -9 35q0 24 14 43.5t36 27.5q-8 13 -8 34q0 25 13.5 44t36.5 27q-9 15 -9 35q0 24 14 43t36 27q-8 16 -8 36q0 24 13.5 43t35.5 27 q-8 16 -8 35q0 31 22 52.5t53 21.5zM115 648q5 26 25.5 42t47.5 16q31 0 53 -22t22 -53q0 -33 -26 -56q26 -23 26 -57q0 -33 -26 -56q26 -23 26 -56q0 -34 -26 -57q26 -23 26 -56q0 -30 -22 -52.5t-53 -22.5t-53 22.5t-22 52.5q0 33 26 56q-26 23 -26 57q0 33 26 56 q-26 23 -26 55q-18 -8 -35 -8q-31 0 -53 21.5t-22 52.5t22 53t53 22q19 0 37 -10z" />
<glyph unicode="&#xbe;" horiz-adv-x="1031" d="M95 528q-28 0 -49 21t-21 49t21 49t49 21q16 0 28 -6q8 22 27.5 36t43.5 14q22 0 39 -11l7 -5l11 -10l5 -7q19 14 43 14q31 0 53 -21.5t22 -53.5q0 -10 -3 -19q41 -19 41 -64q0 -27 -17.5 -46.5t-43.5 -22.5v-3v-5q26 -3 43.5 -23t17.5 -46q0 -45 -41 -64q3 -9 3 -19 q0 -31 -22 -53t-53 -22q-24 0 -43 14l-5 -7l-6 -6l-5 -4l-5 -4q-18 -12 -41 -12q-24 0 -42 12l-4 4q-17 13 -25 35q-14 -6 -28 -6q-28 0 -49 20.5t-21 48.5q0 29 21 49.5t49 20.5q45 0 64 -43q17 9 35 9q19 0 34 -9q3 -1 9 -5q15 20 37 27q-1 5 -1 14v4q-24 3 -41 20 q-20 -20 -49 -20q-28 0 -49 20.5t-21 49.5q0 28 21 48.5t49 20.5q27 0 49 -20q18 16 41 19v4q0 9 1 13q-24 10 -37 28l-4 -2q-17 -11 -39 -11q-21 0 -34 8h-1q-19 -43 -64 -43zM637 741q31 0 53 -21.5t22 -52.5q0 -24 -14 -43.5t-36 -27.5q8 -16 8 -34q0 -24 -14 -43.5 t-36 -27.5q9 -20 9 -35q0 -24 -14 -43t-37 -27q9 -16 9 -36q0 -24 -14 -43t-36 -27q9 -16 9 -35q0 -24 -14 -43t-37 -27q9 -17 9 -36q0 -24 -14 -42.5t-36 -26.5q9 -20 9 -36q0 -31 -22 -52.5t-53 -21.5q-30 0 -52 21.5t-22 52.5q0 24 14 43.5t35 27.5q-8 16 -8 34 q0 25 13.5 44t36.5 27q-9 15 -9 35q0 24 14 43.5t36 27.5q-8 13 -8 34q0 25 13.5 44t36.5 27q-9 15 -9 35q0 24 14 43t36 27q-8 16 -8 36q0 24 13.5 43t35.5 27q-8 16 -8 35q0 31 22 52.5t53 21.5zM922 405q0 -33 -26 -56q26 -23 26 -56t-26 -56l5 -4q20 17 45 17 q29 0 49.5 -20t20.5 -49t-20.5 -49.5t-49.5 -20.5q-26 0 -46 17l-4 -4q26 -23 26 -56q0 -31 -22 -53t-53 -22q-30 0 -52 22t-22 53q0 33 26 56q-6 5 -13 15q-20 -27 -53 -27q-31 0 -51 26q-21 -26 -54 -26q-28 0 -48.5 20.5t-20.5 49.5q0 28 20 48.5t48 21.5q-2 10 -2 15 q0 26 18.5 44.5t44.5 18.5h6v6q0 29 20.5 49.5t49.5 20.5q6 0 9 -1q0 31 22 53t52 22q31 0 53 -22t22 -53zM764 267q-9 0 -13 1v-1q0 -14 -7 -28q24 -5 38 -22q6 11 16 20q-14 14 -21 31q-4 -1 -13 -1z" />
<glyph unicode="&#xbf;" horiz-adv-x="521" d="M115 68q-31 0 -53 21.5t-22 52.5q0 34 26 57q-26 21 -26 56q0 29 20.5 51t50.5 23q-1 4 -1 13q0 32 22 53.5t53 21.5q5 0 17 -2q6 24 26 40.5t46 16.5q31 0 53 -22t22 -53t-22 -53t-53 -22q-12 0 -17 2q-6 -23 -24.5 -39t-43.5 -17q1 -4 1 -13q0 -35 -26 -56 q26 -23 26 -57v-2q10 2 16 2q33 0 55 -24q22 24 56 24q13 0 26 -5q6 24 26 40t47 16q31 0 53 -21.5t22 -52.5t-22 -53t-53 -22q-14 0 -27 5q-6 -25 -26 -40.5t-46 -15.5q-34 0 -56 24q-22 -24 -55 -24q-32 0 -53.5 21.5t-21.5 53.5v1q-5 -1 -16 -1zM274 557 q-31 0 -52.5 21.5t-21.5 52.5t21.5 53t52.5 22q32 0 53.5 -22t21.5 -53t-22 -52.5t-53 -21.5z" />
<glyph unicode="&#xc0;" horiz-adv-x="703" d="M352 153q-34 0 -55 24q-22 -24 -56 -24q-12 0 -21 3q-14 -41 -57 -49q12 -21 12 -39q0 -31 -22.5 -53t-52.5 -22q-31 0 -53 22t-22 53q0 27 17 47.5t44 24.5q-11 20 -11 41q0 27 17.5 48t43.5 26q-11 17 -11 38q0 27 17 48t44 25q-11 19 -11 40q0 27 17.5 48.5t43.5 25.5 q-11 17 -11 39q0 27 17 48t44 25q-11 17 -11 39q0 31 22 53t52 22q31 0 53 -22t22 -53q0 -21 -11 -38q27 -5 45 -26t18 -48q0 -20 -12 -39q26 -5 44 -26t18 -48q0 -22 -11 -39q26 -5 44 -26t18 -48q0 -21 -11 -38q26 -5 43.5 -26t17.5 -48q0 -21 -11 -40q26 -5 44 -25.5 t18 -47.5q0 -31 -22 -53t-53 -22t-53 22t-22 53q0 20 11 39q-42 6 -57 48q-12 -2 -19 -2q-33 0 -56 23q-21 -23 -55 -23zM260 898q22 0 39 -13t24 -33q14 8 29 8q27 0 46.5 -19.5t19.5 -46.5t-19.5 -46.5t-46.5 -19.5q-21 0 -38.5 13t-23.5 33q-13 -7 -30 -7q-26 0 -45.5 19 t-19.5 46q0 28 19.5 47t45.5 19zM264 332q11 -17 11 -39q12 -6 22 -16q21 24 55 24t55 -24q8 8 20 15v1q0 20 11 39q-26 5 -43.5 25.5t-17.5 48.5q0 20 11 39q-18 3 -38 19q-18 -16 -37 -19q11 -19 11 -39q0 -27 -17 -48t-43 -26z" />
<glyph unicode="&#xc1;" horiz-adv-x="703" d="M352 153q-34 0 -55 24q-22 -24 -56 -24q-12 0 -21 3q-14 -41 -57 -49q12 -21 12 -39q0 -31 -22.5 -53t-52.5 -22q-31 0 -53 22t-22 53q0 27 17 47.5t44 24.5q-11 20 -11 41q0 27 17.5 48t43.5 26q-11 17 -11 38q0 27 17 48t44 25q-11 19 -11 40q0 27 17.5 48.5t43.5 25.5 q-11 17 -11 39q0 27 17 48t44 25q-11 17 -11 39q0 31 22 53t52 22q31 0 53 -22t22 -53q0 -21 -11 -38q27 -5 45 -26t18 -48q0 -20 -12 -39q26 -5 44 -26t18 -48q0 -22 -11 -39q26 -5 44 -26t18 -48q0 -21 -11 -38q26 -5 43.5 -26t17.5 -48q0 -21 -11 -40q26 -5 44 -25.5 t18 -47.5q0 -31 -22 -53t-53 -22t-53 22t-22 53q0 20 11 39q-42 6 -57 48q-12 -2 -19 -2q-33 0 -56 23q-21 -23 -55 -23zM331 728q-26 0 -45.5 19.5t-19.5 46.5t19.5 46.5t45.5 19.5q16 0 30 -8q6 20 23.5 33t38.5 13q27 0 46.5 -19t19.5 -47q0 -27 -19.5 -46t-46.5 -19 q-16 0 -29 7q-7 -20 -24 -33t-39 -13zM264 332q11 -17 11 -39q12 -6 22 -16q21 24 55 24t55 -24q8 8 20 15v1q0 20 11 39q-26 5 -43.5 25.5t-17.5 48.5q0 20 11 39q-18 3 -38 19q-18 -16 -37 -19q11 -19 11 -39q0 -27 -17 -48t-43 -26z" />
<glyph unicode="&#xc2;" horiz-adv-x="703" d="M352 153q-34 0 -55 24q-22 -24 -56 -24q-12 0 -21 3q-14 -41 -57 -49q12 -21 12 -39q0 -31 -22.5 -53t-52.5 -22q-31 0 -53 22t-22 53q0 27 17 47.5t44 24.5q-11 20 -11 41q0 27 17.5 48t43.5 26q-11 17 -11 38q0 27 17 48t44 25q-11 19 -11 40q0 27 17.5 48.5t43.5 25.5 q-11 17 -11 39q0 27 17 48t44 25q-11 17 -11 39q0 31 22 53t52 22q31 0 53 -22t22 -53q0 -21 -11 -38q27 -5 45 -26t18 -48q0 -20 -12 -39q26 -5 44 -26t18 -48q0 -22 -11 -39q26 -5 44 -26t18 -48q0 -21 -11 -38q26 -5 43.5 -26t17.5 -48q0 -21 -11 -40q26 -5 44 -25.5 t18 -47.5q0 -31 -22 -53t-53 -22t-53 22t-22 53q0 20 11 39q-42 6 -57 48q-12 -2 -19 -2q-33 0 -56 23q-21 -23 -55 -23zM267 735q-25 0 -43.5 18.5t-18.5 43.5t18.5 43.5t43.5 18.5q8 0 22 -4v5q0 26 18.5 44t44.5 18q25 0 42.5 -18t17.5 -44v-6q12 5 24 5q25 0 42.5 -18 t17.5 -44q0 -25 -17.5 -43.5t-42.5 -18.5q-26 0 -44.5 18.5t-18.5 43.5v5q-9 -4 -21 -4q-15 0 -24 4v-5q0 -25 -18 -43.5t-43 -18.5zM264 332q11 -17 11 -39q12 -6 22 -16q21 24 55 24t55 -24q8 8 20 15v1q0 20 11 39q-26 5 -43.5 25.5t-17.5 48.5q0 20 11 39q-18 3 -38 19 q-18 -16 -37 -19q11 -19 11 -39q0 -27 -17 -48t-43 -26z" />
<glyph unicode="&#xc3;" horiz-adv-x="703" d="M352 153q-34 0 -55 24q-22 -24 -56 -24q-12 0 -21 3q-14 -41 -57 -49q12 -21 12 -39q0 -31 -22.5 -53t-52.5 -22q-31 0 -53 22t-22 53q0 27 17 47.5t44 24.5q-11 20 -11 41q0 27 17.5 48t43.5 26q-11 17 -11 38q0 27 17 48t44 25q-11 19 -11 40q0 27 17.5 48.5t43.5 25.5 q-11 17 -11 39q0 27 17 48t44 25q-11 17 -11 39q0 31 22 53t52 22q31 0 53 -22t22 -53q0 -21 -11 -38q27 -5 45 -26t18 -48q0 -20 -12 -39q26 -5 44 -26t18 -48q0 -22 -11 -39q26 -5 44 -26t18 -48q0 -21 -11 -38q26 -5 43.5 -26t17.5 -48q0 -21 -11 -40q26 -5 44 -25.5 t18 -47.5q0 -31 -22 -53t-53 -22t-53 22t-22 53q0 20 11 39q-42 6 -57 48q-12 -2 -19 -2q-33 0 -56 23q-21 -23 -55 -23zM388 733q-21 0 -38 13t-23 32q-4 -1 -13 -1t-14 1q-5 -19 -21 -32t-37 -13q-25 0 -43.5 18.5t-18.5 43.5t18 43.5t44 18.5q4 0 14 -2q5 20 21 32.5 t37 12.5q22 0 38.5 -12.5t21.5 -32.5q8 2 14 2q5 0 13 -2q6 20 22 32.5t37 12.5q26 0 43.5 -18t17.5 -44t-17.5 -43.5t-43.5 -17.5q-9 0 -14 1q-5 -19 -21.5 -32t-36.5 -13zM264 332q11 -17 11 -39q12 -6 22 -16q21 24 55 24t55 -24q8 8 20 15v1q0 20 11 39 q-26 5 -43.5 25.5t-17.5 48.5q0 20 11 39q-18 3 -38 19q-18 -16 -37 -19q11 -19 11 -39q0 -27 -17 -48t-43 -26z" />
<glyph unicode="&#xc4;" horiz-adv-x="703" d="M352 153q-34 0 -55 24q-22 -24 -56 -24q-12 0 -21 3q-14 -41 -57 -49q12 -21 12 -39q0 -31 -22.5 -53t-52.5 -22q-31 0 -53 22t-22 53q0 27 17 47.5t44 24.5q-11 20 -11 41q0 27 17.5 48t43.5 26q-11 17 -11 38q0 27 17 48t44 25q-11 19 -11 40q0 27 17.5 48.5t43.5 25.5 q-11 17 -11 39q0 27 17 48t44 25q-11 17 -11 39q0 31 22 53t52 22q31 0 53 -22t22 -53q0 -21 -11 -38q27 -5 45 -26t18 -48q0 -20 -12 -39q26 -5 44 -26t18 -48q0 -22 -11 -39q26 -5 44 -26t18 -48q0 -21 -11 -38q26 -5 43.5 -26t17.5 -48q0 -21 -11 -40q26 -5 44 -25.5 t18 -47.5q0 -31 -22 -53t-53 -22t-53 22t-22 53q0 20 11 39q-42 6 -57 48q-12 -2 -19 -2q-33 0 -56 23q-21 -23 -55 -23zM264 332q11 -17 11 -39q12 -6 22 -16q21 24 55 24t55 -24q8 8 20 15v1q0 20 11 39q-26 5 -43.5 25.5t-17.5 48.5q0 20 11 39q-18 3 -38 19 q-18 -16 -37 -19q11 -19 11 -39q0 -27 -17 -48t-43 -26zM425 871q28 0 48 -20t20 -48t-20 -48t-48 -20t-47.5 20t-19.5 48t19.5 48t47.5 20zM273 871q28 0 48 -20t20 -48t-20 -48t-48 -20t-48 20t-20 48t20 48t48 20z" />
<glyph unicode="&#xc5;" horiz-adv-x="703" d="M225 522q0 30 20.5 51.5t49.5 23.5q-6 12 -6 27q-5 -2 -16 -2q-26 0 -43.5 18t-17.5 44q0 41 37 56q-7 11 -7 30q0 25 18 42.5t44 17.5q27 0 45 -21q19 21 46 21q25 0 43.5 -17.5t18.5 -42.5q0 -14 -9 -30q18 -6 29 -21.5t11 -34.5q0 -26 -17.5 -44t-43.5 -18q-7 0 -17 2 q-2 -16 -7 -27q30 -1 51.5 -22.5t21.5 -52.5q0 -20 -12 -39q26 -5 44 -26t18 -48q0 -22 -11 -39q26 -5 44 -26t18 -48q0 -21 -11 -38q26 -5 43.5 -26t17.5 -48q0 -21 -11 -40q26 -5 44 -25.5t18 -47.5q0 -31 -22 -53t-53 -22t-53 22t-22 53q0 20 11 39q-42 6 -57 48 q-12 -2 -19 -2q-33 0 -56 23q-21 -23 -55 -23t-55 24q-22 -24 -56 -24q-12 0 -21 3q-14 -41 -57 -49q12 -21 12 -39q0 -31 -22.5 -53t-52.5 -22q-31 0 -53 22t-22 53q0 27 17 47.5t44 24.5q-11 20 -11 41q0 27 17.5 48t43.5 26q-11 17 -11 38q0 27 17 48t44 25 q-11 19 -11 40q0 27 17.5 48.5t43.5 25.5q-11 17 -11 39zM264 335q11 -17 11 -39q12 -6 22 -16q21 24 55 24t55 -24q8 8 20 15v1q0 20 11 39q-26 5 -43.5 25.5t-17.5 48.5q0 20 11 39q-18 3 -38 19q-18 -16 -37 -19q11 -19 11 -39q0 -27 -17 -48t-43 -26zM373 712 q-12 4 -24 16q-7 -9 -22 -16q7 -14 7 -27q10 2 15 2q9 0 18 -3q0 16 6 28z" />
<glyph unicode="&#xc6;" horiz-adv-x="977" d="M655 559q-34 0 -54 23l-5 -5q25 -23 25 -56q0 -34 -26 -57q18 -15 24 -38h5q34 0 55 -24q24 24 55 24q33 0 55 -24q21 24 54 24q31 0 53 -22t22 -53t-22 -52.5t-53 -21.5q-34 0 -55 23q-20 -23 -54 -23q-32 0 -55 23q-21 -23 -55 -23h-5q-6 -23 -23 -38q25 -23 25 -56 q0 -34 -26 -57q2 -1 6 -5q21 24 54 24t55 -25q23 25 56 25q30 0 54 -24q22 24 55 24q31 0 52.5 -22t21.5 -52q0 -31 -21.5 -53t-52.5 -22q-34 0 -55 23q-23 -23 -54 -23q-34 0 -56 24q-21 -24 -55 -24q-33 0 -54 23q-23 -23 -55 -23q-31 0 -52.5 22t-21.5 53q0 35 25 55 q-25 22 -25 57q0 34 25 56q-1 0 -1 1q-22 -25 -56 -25q-32 0 -55 23q-21 -23 -54 -23q-40 0 -61 32q-4 -24 -21.5 -41t-41.5 -21q3 -11 3 -20q0 -29 -18.5 -49.5t-45.5 -24.5q3 -11 3 -20q0 -31 -21.5 -53t-52.5 -22t-53 22t-22 53q0 27 18 48t46 25q-3 9 -3 21q0 28 18 48 t45 25q-3 9 -3 21q0 27 18 47.5t45 25.5q-2 6 -2 20q0 28 17.5 48.5t44.5 25.5q-2 12 -2 19q0 28 18 48.5t45 25.5q-2 6 -2 20q0 28 18 49t46 25q-2 12 -2 20q0 31 21.5 53t52.5 22q32 0 54 -22q20 22 53 22t55 -24q21 24 54 24q34 0 55 -24q22 24 56 24q32 0 54 -24 q21 24 55 24q31 0 52.5 -22t21.5 -53t-21.5 -52.5t-52.5 -21.5q-35 0 -55 23q-21 -23 -54 -23q-34 0 -56 24q-21 -24 -55 -24zM472 521q0 34 25 56q-3 1 -4 4q-19 -19 -44 -22q3 -9 3 -20q0 -27 -18 -48t-45 -25q3 -10 3 -21q0 -28 -18 -48.5t-46 -24.5l2 -7h1q32 0 54 -24 q22 24 55 24q28 0 51 -20l6 6q-25 23 -25 57q0 33 25 56q-25 23 -25 57z" />
<glyph unicode="&#xc7;" horiz-adv-x="628" d="M308 -237q-26 0 -45.5 19t-19.5 46q0 28 19.5 47t45.5 19q11 0 20 -3q3 22 18 37q-27 19 -27 53q0 10 1 14q-1 0 -5 -0.5t-6 -0.5q-25 0 -44 14t-27 37q-16 -4 -25 -4q-30 0 -51.5 22t-21.5 53v6q-31 1 -52 22.5t-21 52.5q0 17 7 31q-44 20 -44 68q0 33 24 55 q-24 22 -24 55q0 48 44 68q-7 13 -7 31q0 30 21 52t52 23v6q0 31 21.5 53t51.5 22q10 0 24 -4q8 23 28 37.5t44 14.5q30 0 53 -21q21 26 56 26q42 0 64 -35q16 12 41 12q31 0 53 -21.5t22 -53.5q0 -30 -22 -52.5t-53 -22.5q-42 0 -63 36q-18 -12 -42 -12q-31 0 -52 21 q-23 -26 -57 -26q-15 0 -24 4q-7 -23 -26 -37.5t-44 -15.5q0 -1 0.5 -3t0.5 -3q0 -46 -43 -68q7 -16 7 -31q0 -33 -24 -55q24 -22 24 -55q0 -15 -7 -31q43 -21 43 -68q0 -1 -0.5 -3t-0.5 -3q24 -1 43 -15.5t26 -37.5q13 5 25 5q33 0 57 -27q22 22 52 22q22 0 42 -13 q21 36 63 36q31 0 53 -22t22 -53q0 -32 -22 -53.5t-53 -21.5q-24 0 -42 12q-13 -19 -34 -28q2 -8 2 -14q0 -25 -18 -45q27 -20 27 -54q0 -27 -19 -46.5t-46 -19.5q-11 0 -20 3q-3 -23 -21.5 -39.5t-43.5 -16.5z" />
<glyph unicode="&#xc8;" d="M234 557q-34 0 -55 23l-5 -5q25 -23 25 -56q0 -34 -26 -57q18 -15 24 -38h5q34 0 55 -24q24 24 55 24q33 0 55 -24q21 24 54 24q31 0 53 -22t22 -53t-22 -52.5t-53 -21.5q-34 0 -55 23q-20 -23 -54 -23q-32 0 -55 23q-21 -23 -55 -23h-5q-6 -23 -23 -38q25 -23 25 -56 q0 -36 -26 -57l6 -6q22 24 55 24q32 0 54 -25q23 25 56 25q30 0 54 -24q22 24 55 24q31 0 52.5 -22t21.5 -52q0 -31 -21.5 -53t-52.5 -22q-34 0 -55 23q-23 -23 -54 -23q-34 0 -56 24q-21 -24 -54 -24q-34 0 -55 24q-22 -24 -55 -24q-31 0 -52.5 22t-21.5 53q0 33 26 56 q-26 21 -26 57q0 34 25 56q-25 22 -25 56q0 33 25 56q-25 23 -25 57q0 33 25 56q-25 23 -25 57t25 56q-25 20 -25 56q0 31 21.5 53t52.5 22q33 0 55 -24q21 24 55 24q33 0 54 -24q22 24 56 24q32 0 54 -24q21 24 55 24q31 0 52.5 -22t21.5 -53t-21.5 -52.5t-52.5 -21.5 q-35 0 -55 23q-21 -23 -54 -23q-34 0 -56 24q-21 -24 -54 -24zM268 898q22 0 39 -13t24 -33q14 8 29 8q27 0 46.5 -19.5t19.5 -46.5t-19.5 -46.5t-46.5 -19.5q-21 0 -38.5 13t-23.5 33q-13 -7 -30 -7q-26 0 -45.5 19t-19.5 46q0 28 19.5 47t45.5 19z" />
<glyph unicode="&#xc9;" d="M234 557q-34 0 -55 23l-5 -5q25 -23 25 -56q0 -34 -26 -57q18 -15 24 -38h5q34 0 55 -24q24 24 55 24q33 0 55 -24q21 24 54 24q31 0 53 -22t22 -53t-22 -52.5t-53 -21.5q-34 0 -55 23q-20 -23 -54 -23q-32 0 -55 23q-21 -23 -55 -23h-5q-6 -23 -23 -38q25 -23 25 -56 q0 -36 -26 -57l6 -6q22 24 55 24q32 0 54 -25q23 25 56 25q30 0 54 -24q22 24 55 24q31 0 52.5 -22t21.5 -52q0 -31 -21.5 -53t-52.5 -22q-34 0 -55 23q-23 -23 -54 -23q-34 0 -56 24q-21 -24 -54 -24q-34 0 -55 24q-22 -24 -55 -24q-31 0 -52.5 22t-21.5 53q0 33 26 56 q-26 21 -26 57q0 34 25 56q-25 22 -25 56q0 33 25 56q-25 23 -25 57q0 33 25 56q-25 23 -25 57t25 56q-25 20 -25 56q0 31 21.5 53t52.5 22q33 0 55 -24q21 24 55 24q33 0 54 -24q22 24 56 24q32 0 54 -24q21 24 55 24q31 0 52.5 -22t21.5 -53t-21.5 -52.5t-52.5 -21.5 q-35 0 -55 23q-21 -23 -54 -23q-34 0 -56 24q-21 -24 -54 -24zM237 728q-26 0 -45.5 19.5t-19.5 46.5t19.5 46.5t45.5 19.5q16 0 30 -8q6 20 23.5 33t38.5 13q27 0 46.5 -19t19.5 -47q0 -27 -19.5 -46t-46.5 -19q-16 0 -29 7q-7 -20 -24 -33t-39 -13z" />
<glyph unicode="&#xca;" d="M234 557q-34 0 -55 23l-5 -5q25 -23 25 -56q0 -34 -26 -57q18 -15 24 -38h5q34 0 55 -24q24 24 55 24q33 0 55 -24q21 24 54 24q31 0 53 -22t22 -53t-22 -52.5t-53 -21.5q-34 0 -55 23q-20 -23 -54 -23q-32 0 -55 23q-21 -23 -55 -23h-5q-6 -23 -23 -38q25 -23 25 -56 q0 -36 -26 -57l6 -6q22 24 55 24q32 0 54 -25q23 25 56 25q30 0 54 -24q22 24 55 24q31 0 52.5 -22t21.5 -52q0 -31 -21.5 -53t-52.5 -22q-34 0 -55 23q-23 -23 -54 -23q-34 0 -56 24q-21 -24 -54 -24q-34 0 -55 24q-22 -24 -55 -24q-31 0 -52.5 22t-21.5 53q0 33 26 56 q-26 21 -26 57q0 34 25 56q-25 22 -25 56q0 33 25 56q-25 23 -25 57q0 33 25 56q-25 23 -25 57t25 56q-25 20 -25 56q0 31 21.5 53t52.5 22q33 0 55 -24q21 24 55 24q33 0 54 -24q22 24 56 24q32 0 54 -24q21 24 55 24q31 0 52.5 -22t21.5 -53t-21.5 -52.5t-52.5 -21.5 q-35 0 -55 23q-21 -23 -54 -23q-34 0 -56 24q-21 -24 -54 -24zM204 735q-25 0 -43.5 18.5t-18.5 43.5t18 43.5t44 18.5q8 0 22 -4v5q0 26 18.5 44t44.5 18q25 0 42.5 -18t17.5 -44v-6q12 5 24 5q25 0 42.5 -18t17.5 -44q0 -25 -17.5 -43.5t-42.5 -18.5q-26 0 -44.5 18.5 t-18.5 43.5v5q-9 -4 -21 -4q-15 0 -24 4v-5q0 -25 -18 -43.5t-43 -18.5z" />
<glyph unicode="&#xcb;" d="M234 557q-34 0 -55 23l-5 -5q25 -23 25 -56q0 -34 -26 -57q18 -15 24 -38h5q34 0 55 -24q24 24 55 24q33 0 55 -24q21 24 54 24q31 0 53 -22t22 -53t-22 -52.5t-53 -21.5q-34 0 -55 23q-20 -23 -54 -23q-32 0 -55 23q-21 -23 -55 -23h-5q-6 -23 -23 -38q25 -23 25 -56 q0 -36 -26 -57l6 -6q22 24 55 24q32 0 54 -25q23 25 56 25q30 0 54 -24q22 24 55 24q31 0 52.5 -22t21.5 -52q0 -31 -21.5 -53t-52.5 -22q-34 0 -55 23q-23 -23 -54 -23q-34 0 -56 24q-21 -24 -54 -24q-34 0 -55 24q-22 -24 -55 -24q-31 0 -52.5 22t-21.5 53q0 33 26 56 q-26 21 -26 57q0 34 25 56q-25 22 -25 56q0 33 25 56q-25 23 -25 57q0 33 25 56q-25 23 -25 57t25 56q-25 20 -25 56q0 31 21.5 53t52.5 22q33 0 55 -24q21 24 55 24q33 0 54 -24q22 24 56 24q32 0 54 -24q21 24 55 24q31 0 52.5 -22t21.5 -53t-21.5 -52.5t-52.5 -21.5 q-35 0 -55 23q-21 -23 -54 -23q-34 0 -56 24q-21 -24 -54 -24zM213 870q28 0 48 -20t20 -48t-20 -48t-48 -20t-48 20t-20 48t20 48t48 20zM365 870q28 0 48 -20t20 -48t-20 -48t-48 -20t-47.5 20t-19.5 48t19.5 48t47.5 20z" />
<glyph unicode="&#xcc;" horiz-adv-x="434" d="M327 557q-34 0 -56 24l-5 -6q25 -23 25 -56q0 -34 -26 -57q26 -23 26 -56q0 -34 -26 -57q26 -23 26 -56t-25 -56q25 -23 25 -56q0 -36 -26 -57l6 -7q23 25 56 25q31 0 52.5 -22t21.5 -52q0 -31 -21.5 -53t-52.5 -22q-34 0 -56 24q-21 -24 -54 -24t-55 24q-22 -24 -55 -24 q-31 0 -52.5 22t-21.5 53q0 30 21.5 52t52.5 22t55 -24l6 6q-26 21 -26 57q0 34 25 56q-25 22 -25 56q0 33 25 56q-25 23 -25 57q0 33 25 56q-25 23 -25 57q0 33 25 56l-5 5q-23 -23 -55 -23q-31 0 -52.5 21.5t-21.5 52.5t21.5 53t52.5 22q33 0 55 -24q21 24 55 24 q33 0 54 -24q22 24 56 24q31 0 52.5 -22t21.5 -53t-21.5 -52.5t-52.5 -21.5zM121 898q22 0 39 -13t24 -33q14 8 29 8q27 0 46.5 -19.5t19.5 -46.5t-19.5 -46.5t-46.5 -19.5q-21 0 -38.5 13t-23.5 33q-13 -7 -30 -7q-26 0 -45.5 19t-19.5 46q0 28 19 47t46 19z" />
<glyph unicode="&#xcd;" horiz-adv-x="434" d="M327 557q-34 0 -56 24l-5 -6q25 -23 25 -56q0 -34 -26 -57q26 -23 26 -56q0 -34 -26 -57q26 -23 26 -56t-25 -56q25 -23 25 -56q0 -36 -26 -57l6 -7q23 25 56 25q31 0 52.5 -22t21.5 -52q0 -31 -21.5 -53t-52.5 -22q-34 0 -56 24q-21 -24 -54 -24t-55 24q-22 -24 -55 -24 q-31 0 -52.5 22t-21.5 53q0 30 21.5 52t52.5 22t55 -24l6 6q-26 21 -26 57q0 34 25 56q-25 22 -25 56q0 33 25 56q-25 23 -25 57q0 33 25 56q-25 23 -25 57q0 33 25 56l-5 5q-23 -23 -55 -23q-31 0 -52.5 21.5t-21.5 52.5t21.5 53t52.5 22q33 0 55 -24q21 24 55 24 q33 0 54 -24q22 24 56 24q31 0 52.5 -22t21.5 -53t-21.5 -52.5t-52.5 -21.5zM219 728q-26 0 -45.5 19.5t-19.5 46.5t19.5 46.5t45.5 19.5q16 0 30 -8q6 20 23.5 33t38.5 13q27 0 46.5 -19t19.5 -47q0 -27 -19.5 -46t-46.5 -19q-16 0 -29 7q-7 -20 -24 -33t-39 -13z" />
<glyph unicode="&#xce;" horiz-adv-x="434" d="M327 557q-34 0 -56 24l-5 -6q25 -23 25 -56q0 -34 -26 -57q26 -23 26 -56q0 -34 -26 -57q26 -23 26 -56t-25 -56q25 -23 25 -56q0 -36 -26 -57l6 -7q23 25 56 25q31 0 52.5 -22t21.5 -52q0 -31 -21.5 -53t-52.5 -22q-34 0 -56 24q-21 -24 -54 -24t-55 24q-22 -24 -55 -24 q-31 0 -52.5 22t-21.5 53q0 30 21.5 52t52.5 22t55 -24l6 6q-26 21 -26 57q0 34 25 56q-25 22 -25 56q0 33 25 56q-25 23 -25 57q0 33 25 56q-25 23 -25 57q0 33 25 56l-5 5q-23 -23 -55 -23q-31 0 -52.5 21.5t-21.5 52.5t21.5 53t52.5 22q33 0 55 -24q21 24 55 24 q33 0 54 -24q22 24 56 24q31 0 52.5 -22t21.5 -53t-21.5 -52.5t-52.5 -21.5zM133 735q-25 0 -43.5 18.5t-18.5 43.5t18.5 43.5t43.5 18.5q8 0 22 -4v5q0 26 18.5 44t44.5 18q25 0 42.5 -18t17.5 -44v-6q12 5 24 5q25 0 42.5 -18t17.5 -44q0 -25 -17.5 -43.5t-42.5 -18.5 q-26 0 -44.5 18.5t-18.5 43.5v5q-9 -4 -21 -4q-15 0 -24 4v-5q0 -25 -18 -43.5t-43 -18.5z" />
<glyph unicode="&#xcf;" horiz-adv-x="434" d="M327 557q-34 0 -56 24l-5 -6q25 -23 25 -56q0 -34 -26 -57q26 -23 26 -56q0 -34 -26 -57q26 -23 26 -56t-25 -56q25 -23 25 -56q0 -36 -26 -57l6 -7q23 25 56 25q31 0 52.5 -22t21.5 -52q0 -31 -21.5 -53t-52.5 -22q-34 0 -56 24q-21 -24 -54 -24t-55 24q-22 -24 -55 -24 q-31 0 -52.5 22t-21.5 53q0 30 21.5 52t52.5 22t55 -24l6 6q-26 21 -26 57q0 34 25 56q-25 22 -25 56q0 33 25 56q-25 23 -25 57q0 33 25 56q-25 23 -25 57q0 33 25 56l-5 5q-23 -23 -55 -23q-31 0 -52.5 21.5t-21.5 52.5t21.5 53t52.5 22q33 0 55 -24q21 24 55 24 q33 0 54 -24q22 24 56 24q31 0 52.5 -22t21.5 -53t-21.5 -52.5t-52.5 -21.5zM142 871q28 0 48 -20t20 -48t-20 -48t-48 -20t-48 20t-20 48t20 48t48 20zM294 871q28 0 48 -20t20 -48t-20 -48t-48 -20t-47.5 20t-19.5 48t19.5 48t47.5 20z" />
<glyph unicode="&#xd0;" horiz-adv-x="704" d="M74 68q0 33 26 56q-26 21 -26 57q0 34 25 56q-24 22 -25 50q-20 -10 -39 -10q-31 0 -52.5 21.5t-21.5 52.5t21.5 53t52.5 22q22 0 39 -11q4 28 25 47q-25 23 -25 57t25 56q-25 20 -25 56q0 31 21.5 53t52.5 22q33 0 55 -24q21 24 55 24q35 0 58 -28q21 28 59 28 q24 0 43 -14t27 -36q16 8 33 8q31 0 52.5 -22t21.5 -53v-5h5q31 0 52.5 -22t21.5 -53q0 -18 -8 -34q22 -8 36.5 -27t14.5 -43q0 -34 -26 -55q26 -23 26 -56q0 -24 -14 -43.5t-36 -27.5q7 -17 7 -32q0 -31 -21.5 -53t-52.5 -22h-5v-6q0 -31 -21.5 -53t-52.5 -22q-19 0 -33 7 q-8 -22 -27 -35.5t-43 -13.5q-35 0 -58 26q-21 -26 -55 -26q-36 0 -57 26q-23 -26 -57 -26q-31 0 -52.5 22t-21.5 53zM375 277q-35 0 -58 26q-21 -26 -56 -26q-22 0 -38 10q-3 -31 -25 -50q25 -23 25 -56q0 -36 -26 -57l8 -8q21 26 57 26q32 0 56 -27q21 26 57 26 q15 0 32 -7q8 22 27 36.5t44 14.5h4v6q0 24 13.5 43t35.5 27q-7 14 -7 33q0 34 25 56q-25 20 -25 55q0 17 8 33q-23 8 -36.5 27t-13.5 44v5h-4q-25 0 -44 13.5t-27 36.5q-14 -7 -32 -7q-38 0 -59 28q-23 -28 -58 -28q-34 0 -55 23l-5 -5q25 -23 25 -56q0 -34 -26 -57 q22 -17 25 -46q18 10 39 10q35 0 56 -27q22 27 58 27q30 0 51.5 -22t21.5 -53t-21.5 -52.5t-51.5 -21.5z" />
<glyph unicode="&#xd1;" horiz-adv-x="711" d="M200 473q-14 0 -29 5l-5 -4q32 -24 32 -60q0 -37 -28 -58q28 -23 28 -58t-28 -58q28 -21 28 -57q0 -37 -28 -58q28 -23 28 -58q0 -31 -22 -52.5t-52 -21.5q-31 0 -52.5 21.5t-21.5 52.5q0 36 27 58q-27 21 -27 58q0 36 27 57q-27 22 -27 58t27 58q-27 21 -27 58 q0 35 28 58q-28 21 -28 57q0 34 26 55q-20 20 -20 50t21 51t51 21q29 0 50.5 -21t21.5 -51q0 -5 -2 -15h2q30 0 51.5 -21t21.5 -52q0 -12 -5 -25h7q31 0 52.5 -21.5t21.5 -52.5q0 -13 -5 -26h7q31 0 52.5 -21.5t21.5 -52.5q0 -13 -5 -26h7q31 0 52.5 -21.5t21.5 -52.5 q0 -13 -5 -26h6q14 0 32 -7l10 10q-31 23 -31 61q0 36 27 57q-27 22 -27 58t27 58q-27 22 -27 57q0 37 28 58q-28 23 -28 59q0 31 21.5 52.5t52.5 21.5t52.5 -21.5t21.5 -52.5q0 -36 -28 -59q28 -21 28 -58q0 -35 -28 -58q28 -21 28 -57q0 -34 -27 -58q27 -22 27 -57 q0 -36 -28 -59q28 -21 28 -56t-26 -56q20 -22 20 -49q0 -30 -21 -51t-51 -21t-51 21t-21 51q0 8 1 11h-10q-30 0 -51.5 21t-21.5 52q0 15 4 24h-6q-31 0 -52.5 22t-21.5 52q0 15 4 26h-6q-31 0 -52.5 22t-21.5 52q0 15 4 26h-6q-31 0 -52.5 22t-21.5 52q0 15 4 26h-5z M395 735q-21 0 -38 13t-23 32q-4 -1 -13 -1t-14 1q-5 -19 -21 -32t-37 -13q-25 0 -43.5 18.5t-18.5 43.5t18.5 43.5t43.5 18.5q4 0 14 -2q5 20 21 32.5t37 12.5q22 0 38.5 -12.5t21.5 -32.5q8 2 14 2q5 0 13 -2q6 20 22 32.5t37 12.5q26 0 43.5 -18t17.5 -44t-18 -43.5 t-43 -17.5q-9 0 -14 1q-5 -19 -21.5 -32t-36.5 -13z" />
<glyph unicode="&#xd2;" horiz-adv-x="798" d="M292 699q25 0 44 -16q23 34 63 34q41 0 62 -34q21 16 46 16q27 0 47.5 -17.5t25.5 -43.5q9 3 19 3q31 0 53 -22t22 -52q0 -9 -1 -14q28 -3 47 -24.5t19 -49.5q0 -21 -11 -40q40 -20 40 -65q0 -36 -29 -60q19 -21 19 -49q0 -25 -15 -45t-38 -27q4 -16 4 -24 q0 -31 -22 -52.5t-53 -21.5h-6q-1 -30 -22.5 -51.5t-51.5 -21.5q-19 0 -32 7q-20 -43 -67 -43q-32 0 -56 24q-22 -24 -54 -24q-48 0 -68 43q-14 -7 -31 -7q-31 0 -52.5 21.5t-22.5 51.5h-6q-31 0 -53 21.5t-22 52.5q0 13 4 24q-24 7 -39 26.5t-15 45.5q0 28 19 49 q-29 23 -29 60q0 44 40 66q-10 18 -10 39q0 29 18.5 50t46.5 24q-1 5 -1 14q0 30 22 52t53 22q10 0 19 -3q5 26 26 43.5t48 17.5zM554 172h6q1 24 15.5 42.5t36.5 25.5q-4 16 -4 25q0 36 29 59q-19 21 -19 50q0 21 11 38q-39 22 -39 67q0 9 1 13q-24 3 -42.5 19t-23.5 40 q-6 -2 -18 -2q-40 0 -63 34q-18 -15 -45 -15q-26 0 -45 14q-23 -33 -62 -33q-8 0 -20 2q-5 -23 -22.5 -39.5t-41.5 -19.5q1 -4 1 -13q0 -44 -40 -67q11 -17 11 -38q0 -29 -19 -50q29 -23 29 -59q0 -9 -4 -25q22 -7 37 -26t16 -43q1 0 3 0.5t4 0.5q21 0 39.5 -12.5 t27.5 -31.5q16 7 32 7q32 0 54 -25q23 25 56 25q13 0 31 -7q21 44 68 44zM305 898q22 0 39 -13t24 -33q14 8 29 8q27 0 46.5 -19.5t19.5 -46.5t-19.5 -46.5t-46.5 -19.5q-21 0 -38.5 13t-23.5 33q-13 -7 -30 -7q-26 0 -45.5 19t-19.5 46q0 28 19 47t46 19z" />
<glyph unicode="&#xd3;" horiz-adv-x="798" d="M292 699q25 0 44 -16q23 34 63 34q41 0 62 -34q21 16 46 16q27 0 47.5 -17.5t25.5 -43.5q9 3 19 3q31 0 53 -22t22 -52q0 -9 -1 -14q28 -3 47 -24.5t19 -49.5q0 -21 -11 -40q40 -20 40 -65q0 -36 -29 -60q19 -21 19 -49q0 -25 -15 -45t-38 -27q4 -16 4 -24 q0 -31 -22 -52.5t-53 -21.5h-6q-1 -30 -22.5 -51.5t-51.5 -21.5q-19 0 -32 7q-20 -43 -67 -43q-32 0 -56 24q-22 -24 -54 -24q-48 0 -68 43q-14 -7 -31 -7q-31 0 -52.5 21.5t-22.5 51.5h-6q-31 0 -53 21.5t-22 52.5q0 13 4 24q-24 7 -39 26.5t-15 45.5q0 28 19 49 q-29 23 -29 60q0 44 40 66q-10 18 -10 39q0 29 18.5 50t46.5 24q-1 5 -1 14q0 30 22 52t53 22q10 0 19 -3q5 26 26 43.5t48 17.5zM554 172h6q1 24 15.5 42.5t36.5 25.5q-4 16 -4 25q0 36 29 59q-19 21 -19 50q0 21 11 38q-39 22 -39 67q0 9 1 13q-24 3 -42.5 19t-23.5 40 q-6 -2 -18 -2q-40 0 -63 34q-18 -15 -45 -15q-26 0 -45 14q-23 -33 -62 -33q-8 0 -20 2q-5 -23 -22.5 -39.5t-41.5 -19.5q1 -4 1 -13q0 -44 -40 -67q11 -17 11 -38q0 -29 -19 -50q29 -23 29 -59q0 -9 -4 -25q22 -7 37 -26t16 -43q1 0 3 0.5t4 0.5q21 0 39.5 -12.5 t27.5 -31.5q16 7 32 7q32 0 54 -25q23 25 56 25q13 0 31 -7q21 44 68 44zM396 728q-26 0 -45.5 19.5t-19.5 46.5t19.5 46.5t45.5 19.5q16 0 30 -8q6 20 23.5 33t38.5 13q27 0 46.5 -19t19.5 -47q0 -27 -19.5 -46t-46.5 -19q-16 0 -29 7q-7 -20 -24 -33t-39 -13z" />
<glyph unicode="&#xd4;" horiz-adv-x="798" d="M292 699q25 0 44 -16q23 34 63 34q41 0 62 -34q21 16 46 16q27 0 47.5 -17.5t25.5 -43.5q9 3 19 3q31 0 53 -22t22 -52q0 -9 -1 -14q28 -3 47 -24.5t19 -49.5q0 -21 -11 -40q40 -20 40 -65q0 -36 -29 -60q19 -21 19 -49q0 -25 -15 -45t-38 -27q4 -16 4 -24 q0 -31 -22 -52.5t-53 -21.5h-6q-1 -30 -22.5 -51.5t-51.5 -21.5q-19 0 -32 7q-20 -43 -67 -43q-32 0 -56 24q-22 -24 -54 -24q-48 0 -68 43q-14 -7 -31 -7q-31 0 -52.5 21.5t-22.5 51.5h-6q-31 0 -53 21.5t-22 52.5q0 13 4 24q-24 7 -39 26.5t-15 45.5q0 28 19 49 q-29 23 -29 60q0 44 40 66q-10 18 -10 39q0 29 18.5 50t46.5 24q-1 5 -1 14q0 30 22 52t53 22q10 0 19 -3q5 26 26 43.5t48 17.5zM554 172h6q1 24 15.5 42.5t36.5 25.5q-4 16 -4 25q0 36 29 59q-19 21 -19 50q0 21 11 38q-39 22 -39 67q0 9 1 13q-24 3 -42.5 19t-23.5 40 q-6 -2 -18 -2q-40 0 -63 34q-18 -15 -45 -15q-26 0 -45 14q-23 -33 -62 -33q-8 0 -20 2q-5 -23 -22.5 -39.5t-41.5 -19.5q1 -4 1 -13q0 -44 -40 -67q11 -17 11 -38q0 -29 -19 -50q29 -23 29 -59q0 -9 -4 -25q22 -7 37 -26t16 -43q1 0 3 0.5t4 0.5q21 0 39.5 -12.5 t27.5 -31.5q16 7 32 7q32 0 54 -25q23 25 56 25q13 0 31 -7q21 44 68 44zM317 735q-25 0 -43.5 18.5t-18.5 43.5t18.5 43.5t43.5 18.5q8 0 22 -4v5q0 26 18.5 44t44.5 18q25 0 42.5 -18t17.5 -44v-6q12 5 24 5q25 0 42.5 -18t17.5 -44q0 -25 -17.5 -43.5t-42.5 -18.5 q-26 0 -44.5 18.5t-18.5 43.5v5q-9 -4 -21 -4q-15 0 -24 4v-5q0 -25 -18 -43.5t-43 -18.5z" />
<glyph unicode="&#xd5;" horiz-adv-x="798" d="M292 699q25 0 44 -16q23 34 63 34q41 0 62 -34q21 16 46 16q27 0 47.5 -17.5t25.5 -43.5q9 3 19 3q31 0 53 -22t22 -52q0 -9 -1 -14q28 -3 47 -24.5t19 -49.5q0 -21 -11 -40q40 -20 40 -65q0 -36 -29 -60q19 -21 19 -49q0 -25 -15 -45t-38 -27q4 -16 4 -24 q0 -31 -22 -52.5t-53 -21.5h-6q-1 -30 -22.5 -51.5t-51.5 -21.5q-19 0 -32 7q-20 -43 -67 -43q-32 0 -56 24q-22 -24 -54 -24q-48 0 -68 43q-14 -7 -31 -7q-31 0 -52.5 21.5t-22.5 51.5h-6q-31 0 -53 21.5t-22 52.5q0 13 4 24q-24 7 -39 26.5t-15 45.5q0 28 19 49 q-29 23 -29 60q0 44 40 66q-10 18 -10 39q0 29 18.5 50t46.5 24q-1 5 -1 14q0 30 22 52t53 22q10 0 19 -3q5 26 26 43.5t48 17.5zM554 172h6q1 24 15.5 42.5t36.5 25.5q-4 16 -4 25q0 36 29 59q-19 21 -19 50q0 21 11 38q-39 22 -39 67q0 9 1 13q-24 3 -42.5 19t-23.5 40 q-6 -2 -18 -2q-40 0 -63 34q-18 -15 -45 -15q-26 0 -45 14q-23 -33 -62 -33q-8 0 -20 2q-5 -23 -22.5 -39.5t-41.5 -19.5q1 -4 1 -13q0 -44 -40 -67q11 -17 11 -38q0 -29 -19 -50q29 -23 29 -59q0 -9 -4 -25q22 -7 37 -26t16 -43q1 0 3 0.5t4 0.5q21 0 39.5 -12.5 t27.5 -31.5q16 7 32 7q32 0 54 -25q23 25 56 25q13 0 31 -7q21 44 68 44zM437 731q-21 0 -38 13t-23 32q-4 -1 -13 -1t-14 1q-5 -19 -21 -32t-37 -13q-25 0 -43.5 18.5t-18.5 43.5t18.5 43.5t43.5 18.5q4 0 14 -2q5 20 21 32.5t37 12.5q22 0 38.5 -12.5t21.5 -32.5q8 2 14 2 q5 0 13 -2q6 20 22 32.5t37 12.5q26 0 43.5 -18t17.5 -44t-18 -43.5t-43 -17.5q-9 0 -14 1q-5 -19 -21.5 -32t-36.5 -13z" />
<glyph unicode="&#xd6;" horiz-adv-x="798" d="M292 699q25 0 44 -16q23 34 63 34q41 0 62 -34q21 16 46 16q27 0 47.5 -17.5t25.5 -43.5q9 3 19 3q31 0 53 -22t22 -52q0 -9 -1 -14q28 -3 47 -24.5t19 -49.5q0 -21 -11 -40q40 -20 40 -65q0 -36 -29 -60q19 -21 19 -49q0 -25 -15 -45t-38 -27q4 -16 4 -24 q0 -31 -22 -52.5t-53 -21.5h-6q-1 -30 -22.5 -51.5t-51.5 -21.5q-19 0 -32 7q-20 -43 -67 -43q-32 0 -56 24q-22 -24 -54 -24q-48 0 -68 43q-14 -7 -31 -7q-31 0 -52.5 21.5t-22.5 51.5h-6q-31 0 -53 21.5t-22 52.5q0 13 4 24q-24 7 -39 26.5t-15 45.5q0 28 19 49 q-29 23 -29 60q0 44 40 66q-10 18 -10 39q0 29 18.5 50t46.5 24q-1 5 -1 14q0 30 22 52t53 22q10 0 19 -3q5 26 26 43.5t48 17.5zM554 172h6q1 24 15.5 42.5t36.5 25.5q-4 16 -4 25q0 36 29 59q-19 21 -19 50q0 21 11 38q-39 22 -39 67q0 9 1 13q-24 3 -42.5 19t-23.5 40 q-6 -2 -18 -2q-40 0 -63 34q-18 -15 -45 -15q-26 0 -45 14q-23 -33 -62 -33q-8 0 -20 2q-5 -23 -22.5 -39.5t-41.5 -19.5q1 -4 1 -13q0 -44 -40 -67q11 -17 11 -38q0 -29 -19 -50q29 -23 29 -59q0 -9 -4 -25q22 -7 37 -26t16 -43q1 0 3 0.5t4 0.5q21 0 39.5 -12.5 t27.5 -31.5q16 7 32 7q32 0 54 -25q23 25 56 25q13 0 31 -7q21 44 68 44zM323 871q28 0 48 -20t20 -48t-20 -48t-48 -20t-48 20t-20 48t20 48t48 20zM475 871q28 0 48 -20t20 -48t-20 -48t-48 -20t-47.5 20t-19.5 48t19.5 48t47.5 20z" />
<glyph unicode="&#xd7;" horiz-adv-x="528" d="M105 436q-31 0 -52.5 22t-21.5 53t21.5 53t52.5 22t53 -22t22 -53v-5h6q32 0 53.5 -22t21.5 -53v-4h4h4v4q0 31 21.5 53t53.5 22h3v5q0 31 21.5 53t52.5 22t53 -22t22 -53t-22 -53t-53 -22h-3v-5q0 -31 -21.5 -52.5t-52.5 -21.5h-4v-4v-6h4q31 0 52.5 -21.5t21.5 -52.5 v-6h5q31 0 53 -22t22 -53t-22 -53t-53 -22t-52.5 22t-21.5 53v6h-5q-32 0 -53.5 22t-21.5 53v5h-4h-6v-5q0 -31 -21.5 -53t-53.5 -22h-5v-6q0 -31 -22 -53t-53 -22t-52.5 22t-21.5 53t21.5 53t52.5 22h5v6q0 31 22 52.5t53 21.5h6v6v4h-4q-31 0 -53 21.5t-22 52.5v5h-6z" />
<glyph unicode="&#xd8;" horiz-adv-x="806" d="M758 462q0 -25 -16 -46q34 -22 34 -61q0 -41 -34 -63q16 -21 16 -46q0 -27 -17.5 -47.5t-43.5 -25.5q3 -9 3 -18q0 -31 -22 -53t-53 -22q-9 0 -14 1q-3 -29 -24 -48t-50 -19q-22 0 -39 11q-21 -39 -66 -39q-38 0 -59 29q-21 -19 -50 -19q-24 0 -43.5 14.5t-27.5 37.5 q-11 -4 -25 -4q-30 0 -51 21q-8 -23 -27 -37t-44 -14q-31 0 -53 22t-22 53q0 26 17 47t43 26q-9 17 -9 38q0 17 7 31q-43 20 -43 68q0 32 23 55q-23 23 -23 55q0 48 43 68q-7 13 -7 31q0 30 21 52t52 23v6q0 31 21.5 53t51.5 22q12 0 25 -5q7 24 26.5 39t44.5 15 q29 0 50 -19q24 29 59 29q46 0 66 -40q17 11 39 11q29 0 50 -19t24 -47h1q7 24 26.5 39t45.5 15q31 0 53 -22t22 -53q0 -26 -16.5 -46.5t-41.5 -26.5q24 -6 40.5 -26.5t16.5 -45.5zM339 229q0 -23 -13.5 -42.5t-35.5 -27.5q5 -6 9 -18q14 4 24 4q37 0 59 -29q21 19 50 19 q22 0 39 -11q23 40 66 40q6 0 14 -2q3 24 19 42.5t40 22.5q-2 6 -2 19q0 40 33 63q-15 18 -15 46q0 26 15 44q-31 20 -33 60q-7 -23 -27 -38t-45 -15q-12 0 -17 2q0 -2 0.5 -6t0.5 -5q0 -31 -21.5 -53t-52.5 -22q-12 0 -17 2q0 -2 0.5 -6t0.5 -5q0 -31 -21.5 -53t-52.5 -22 q-12 0 -18 2q0 -2 0.5 -5.5t0.5 -5.5zM194 299q0 -15 -7 -31q9 -6 10 -7q21 43 68 43q5 0 17 -2q-1 3 -1 11q0 30 22 52.5t53 22.5q6 0 16 -2q-1 4 -1 11q0 30 22 52.5t53 22.5q6 0 16 -2v11q0 22 13 41t34 27q-25 11 -38 35q-16 -10 -39 -10q-29 0 -50 18q-21 -28 -59 -28 q-15 0 -24 4q-7 -23 -26 -38t-44 -16q0 -1 0.5 -3t0.5 -3q0 -46 -43 -68q7 -16 7 -31q0 -33 -24 -55q24 -22 24 -55z" />
<glyph unicode="&#xd9;" horiz-adv-x="727" d="M48 631q0 31 21.5 53t52.5 22q32 0 53.5 -22t21.5 -53q0 -33 -25 -56q25 -22 25 -56t-26 -57q26 -23 26 -56t-25 -56q25 -23 25 -56q0 -22 -11 -39q36 -23 36 -64v-8q44 -5 61 -47q13 5 26 5q33 0 54 -23q23 23 54 23q12 0 27 -5q15 42 60 47v8q0 43 36 64q-11 17 -11 39 q0 33 25 56q-25 23 -25 56t26 56q-26 23 -26 57t25 56q-25 23 -25 56q0 31 22.5 53t52.5 22q32 0 53.5 -22t21.5 -53q0 -33 -25 -56q25 -22 25 -56t-26 -57q26 -23 26 -56t-25 -56q25 -23 25 -56q0 -43 -36 -64q11 -19 11 -39q0 -28 -19 -49.5t-47 -25.5v-7q0 -31 -22 -53 t-53 -22q-14 0 -27 5q-19 -46 -69 -46q-32 0 -54 22q-20 -22 -54 -22q-23 0 -42.5 13t-27.5 33q-13 -5 -26 -5q-30 0 -52 22t-22 53v7q-28 4 -47 25t-19 50q0 22 10 39q-35 22 -35 64q0 34 25 56q-25 22 -25 56q0 33 25 56q-25 23 -25 57q0 36 25 56q-25 22 -25 56zM265 898 q22 0 39 -13t24 -33q14 8 29 8q27 0 46.5 -19.5t19.5 -46.5t-19.5 -46.5t-46.5 -19.5q-21 0 -38.5 13t-23.5 33q-13 -7 -30 -7q-26 0 -45.5 19t-19.5 46q0 28 19 47t46 19z" />
<glyph unicode="&#xda;" horiz-adv-x="727" d="M48 631q0 31 21.5 53t52.5 22q32 0 53.5 -22t21.5 -53q0 -33 -25 -56q25 -22 25 -56t-26 -57q26 -23 26 -56t-25 -56q25 -23 25 -56q0 -22 -11 -39q36 -23 36 -64v-8q44 -5 61 -47q13 5 26 5q33 0 54 -23q23 23 54 23q12 0 27 -5q15 42 60 47v8q0 43 36 64q-11 17 -11 39 q0 33 25 56q-25 23 -25 56t26 56q-26 23 -26 57t25 56q-25 23 -25 56q0 31 22.5 53t52.5 22q32 0 53.5 -22t21.5 -53q0 -33 -25 -56q25 -22 25 -56t-26 -57q26 -23 26 -56t-25 -56q25 -23 25 -56q0 -43 -36 -64q11 -19 11 -39q0 -28 -19 -49.5t-47 -25.5v-7q0 -31 -22 -53 t-53 -22q-14 0 -27 5q-19 -46 -69 -46q-32 0 -54 22q-20 -22 -54 -22q-23 0 -42.5 13t-27.5 33q-13 -5 -26 -5q-30 0 -52 22t-22 53v7q-28 4 -47 25t-19 50q0 22 10 39q-35 22 -35 64q0 34 25 56q-25 22 -25 56q0 33 25 56q-25 23 -25 57q0 36 25 56q-25 22 -25 56zM362 728 q-26 0 -45.5 19.5t-19.5 46.5t19.5 46.5t45.5 19.5q16 0 30 -8q6 20 23.5 33t38.5 13q27 0 46.5 -19t19.5 -47q0 -27 -19.5 -46t-46.5 -19q-16 0 -29 7q-7 -20 -24 -33t-39 -13z" />
<glyph unicode="&#xdb;" horiz-adv-x="727" d="M48 631q0 31 21.5 53t52.5 22q32 0 53.5 -22t21.5 -53q0 -33 -25 -56q25 -22 25 -56t-26 -57q26 -23 26 -56t-25 -56q25 -23 25 -56q0 -22 -11 -39q36 -23 36 -64v-8q44 -5 61 -47q13 5 26 5q33 0 54 -23q23 23 54 23q12 0 27 -5q15 42 60 47v8q0 43 36 64q-11 17 -11 39 q0 33 25 56q-25 23 -25 56t26 56q-26 23 -26 57t25 56q-25 23 -25 56q0 31 22.5 53t52.5 22q32 0 53.5 -22t21.5 -53q0 -33 -25 -56q25 -22 25 -56t-26 -57q26 -23 26 -56t-25 -56q25 -23 25 -56q0 -43 -36 -64q11 -19 11 -39q0 -28 -19 -49.5t-47 -25.5v-7q0 -31 -22 -53 t-53 -22q-14 0 -27 5q-19 -46 -69 -46q-32 0 -54 22q-20 -22 -54 -22q-23 0 -42.5 13t-27.5 33q-13 -5 -26 -5q-30 0 -52 22t-22 53v7q-28 4 -47 25t-19 50q0 22 10 39q-35 22 -35 64q0 34 25 56q-25 22 -25 56q0 33 25 56q-25 23 -25 57q0 36 25 56q-25 22 -25 56zM280 735 q-25 0 -43.5 18.5t-18.5 43.5t18 43.5t44 18.5q8 0 22 -4v5q0 26 18.5 44t44.5 18q25 0 42.5 -18t17.5 -44v-6q12 5 24 5q25 0 42.5 -18t17.5 -44q0 -25 -17.5 -43.5t-42.5 -18.5q-26 0 -44.5 18.5t-18.5 43.5v5q-9 -4 -21 -4q-15 0 -24 4v-5q0 -25 -18 -43.5t-43 -18.5z " />
<glyph unicode="&#xdc;" horiz-adv-x="727" d="M48 631q0 31 21.5 53t52.5 22q32 0 53.5 -22t21.5 -53q0 -33 -25 -56q25 -22 25 -56t-26 -57q26 -23 26 -56t-25 -56q25 -23 25 -56q0 -22 -11 -39q36 -23 36 -64v-8q44 -5 61 -47q13 5 26 5q33 0 54 -23q23 23 54 23q12 0 27 -5q15 42 60 47v8q0 43 36 64q-11 17 -11 39 q0 33 25 56q-25 23 -25 56t26 56q-26 23 -26 57t25 56q-25 23 -25 56q0 31 22.5 53t52.5 22q32 0 53.5 -22t21.5 -53q0 -33 -25 -56q25 -22 25 -56t-26 -57q26 -23 26 -56t-25 -56q25 -23 25 -56q0 -43 -36 -64q11 -19 11 -39q0 -28 -19 -49.5t-47 -25.5v-7q0 -31 -22 -53 t-53 -22q-14 0 -27 5q-19 -46 -69 -46q-32 0 -54 22q-20 -22 -54 -22q-23 0 -42.5 13t-27.5 33q-13 -5 -26 -5q-30 0 -52 22t-22 53v7q-28 4 -47 25t-19 50q0 22 10 39q-35 22 -35 64q0 34 25 56q-25 22 -25 56q0 33 25 56q-25 23 -25 57q0 36 25 56q-25 22 -25 56zM288 871 q28 0 48 -20t20 -48t-20 -48t-48 -20t-48 20t-20 48t20 48t48 20zM440 871q28 0 48 -20t20 -48t-20 -48t-48 -20t-47.5 20t-19.5 48t19.5 48t47.5 20z" />
<glyph unicode="&#xdd;" horiz-adv-x="707" d="M238 546q0 -7 -1 -10q30 -1 50 -22.5t20 -50.5q0 -7 -1 -10q28 -3 48 -26q18 23 46 26v10q0 29 20 50.5t49 22.5v10q0 29 20 51t49 23q-1 3 -1 11q0 31 22 53t53 22t53 -22t22 -53q0 -29 -21.5 -51t-50.5 -23q0 -2 0.5 -5.5t0.5 -5.5q0 -29 -20.5 -50.5t-50.5 -22.5 q1 -3 1 -10q0 -29 -19.5 -50t-47.5 -23q1 -3 1 -9q0 -26 -16 -45.5t-40 -24.5q4 -14 4 -24q0 -32 -23 -55q23 -21 23 -54q0 -34 -24 -56q24 -22 24 -54t-22 -53.5t-53 -21.5t-52.5 22t-21.5 53q0 33 24 54q-24 22 -24 56t23 54q-23 21 -23 55q0 14 4 25q-24 5 -40 24t-16 45 v9q-28 2 -47 23t-19 50v10q-29 2 -49.5 23t-20.5 50q0 7 1 11q-30 1 -51 23t-21 51q0 31 22 53t53 22t53 -22t22 -53q0 -2 -0.5 -6t-0.5 -5q29 -1 49 -23t20 -51zM374 728q-26 0 -45.5 19.5t-19.5 46.5t19.5 46.5t45.5 19.5q16 0 30 -8q6 20 23.5 33t38.5 13q27 0 46.5 -19 t19.5 -47q0 -27 -19.5 -46t-46.5 -19q-16 0 -29 7q-7 -20 -24 -33t-39 -13z" />
<glyph unicode="&#xde;" horiz-adv-x="633" d="M238 591q33 0 55 -25q23 25 57 25q41 0 63 -37q23 23 54 23t53 -22t22 -53q0 -11 -3 -20q29 -2 49 -24t20 -51q0 -36 -28 -59q28 -23 28 -58q0 -29 -20 -51t-49 -24q3 -9 3 -19q0 -31 -22 -53t-53 -22q-30 0 -53 21q-20 -39 -65 -39q-35 0 -58 26q-21 -26 -56 -26 q-34 0 -57 25l-5 -5q26 -21 26 -55q0 -32 -21.5 -53.5t-53.5 -21.5q-31 0 -52.5 22t-21.5 53q0 35 25 55q-25 22 -25 57q0 33 25 56q-25 23 -25 57t25 56q-25 22 -25 56q0 33 25 56q-25 23 -25 57t25 57q-25 22 -25 56q0 31 21.5 53t52.5 22q32 0 53.5 -22t21.5 -53 q0 -35 -26 -56l9 -9q22 25 56 25zM459 407q0 6 2 20q-39 3 -59 36q-20 -22 -52 -22q-34 0 -57 25q-22 -25 -55 -25q-37 0 -58 27l-7 -7q26 -23 26 -56t-25 -56q25 -23 25 -56q0 -34 -26 -57q4 -3 7 -7q22 24 55 24q34 0 56 -27q22 27 58 27q30 0 52 -22q20 37 60 40 q-2 12 -2 19q0 35 28 58q-28 23 -28 59z" />
<glyph unicode="&#xdf;" horiz-adv-x="603" d="M417 132q11 0 23 -5q6 20 21 32q-15 17 -18 37q-11 -3 -21 -3q-28 0 -47 19.5t-20 48.5h-5q-28 0 -48 20t-20 49q0 42 34 61q-7 13 -7 31q0 27 17 46.5t42 22.5q-1 5 -1 14q0 16 6 28q-43 12 -54 53q-13 -6 -29 -6q-33 0 -55 24q-16 -28 -47 -36q7 -14 7 -31 q0 -36 -29 -59q29 -21 29 -59q0 -36 -28 -59q28 -23 28 -58q0 -36 -28 -59q28 -23 28 -58q0 -38 -28 -59q28 -23 28 -58q0 -32 -21.5 -53.5t-53.5 -21.5q-31 0 -53 22t-22 53q0 35 28 58q-28 21 -28 59q0 35 28 58q-28 23 -28 59q0 35 28 58q-28 23 -28 59q0 38 29 59 q-29 23 -29 59q0 25 16 45.5t40 27.5q-6 14 -6 30q0 32 21.5 53.5t53.5 21.5q33 0 54 -24q22 38 66 38q25 0 45.5 -15.5t26.5 -39.5q16 7 30 7q31 0 53 -22t22 -53q0 -16 -9 -36q20 -8 32 -25.5t12 -39.5q0 -27 -17.5 -46.5t-43.5 -22.5q2 -8 2 -14q0 -40 -34 -59 q6 -11 8 -31h5q25 0 43.5 -16.5t22.5 -41.5q9 4 22 4q28 0 48 -20.5t20 -49.5q0 -31 -24 -53q19 -21 19 -48q0 -29 -20 -49.5t-48 -20.5q-15 0 -24 4q-7 -21 -24.5 -34.5t-39.5 -13.5q-36 0 -56 31q-18 -13 -40 -13q-28 0 -47 20.5t-19 49.5t19 49t47 20q37 0 57 -31 q18 13 39 13z" />
<glyph unicode="&#xe0;" horiz-adv-x="497" d="M138 335q-30 0 -51 21.5t-21 51.5t21 51.5t51 21.5q26 0 44 -15q21 33 61 33q44 0 64 -38q22 15 45 15q30 0 51.5 -22t21.5 -52q0 -19 -9 -34q39 -16 39 -65q0 -30 -23 -51q23 -21 23 -52t-23 -52q23 -21 23 -52q0 -29 -21 -50.5t-50 -21.5q-16 0 -30 6q-22 -37 -63 -37 q-31 0 -52 23q-21 -23 -52 -23q-24 0 -43 15t-26 38q-5 -2 -16 -2q-27 0 -46.5 20t-19.5 48q0 26 17 45q-17 19 -17 46t19.5 47t46.5 20q11 0 23 -5q7 19 24 31.5t38 12.5q32 0 52 -28q20 28 54 28q13 0 24 -4q0 15 9 28q-25 9 -40 35q-19 -14 -43 -14q-25 0 -44 14 q-21 -33 -61 -33zM160 715q22 0 39 -13t24 -33q14 8 29 8q27 0 46.5 -19.5t19.5 -46.5t-19.5 -46.5t-46.5 -19.5q-21 0 -38.5 13t-23.5 33q-13 -7 -30 -7q-26 0 -45.5 19t-19.5 46t19.5 46.5t45.5 19.5zM187 177q-13 0 -22 4q-4 -13 -14 -24q11 -13 15 -26q10 3 21 3 q30 0 51 -23q21 24 53 24q14 0 30 -7q7 13 17 22q-15 15 -19 32q-10 -5 -26 -5q-34 0 -54 27q-20 -27 -52 -27z" />
<glyph unicode="&#xe1;" horiz-adv-x="497" d="M138 335q-30 0 -51 21.5t-21 51.5t21 51.5t51 21.5q26 0 44 -15q21 33 61 33q44 0 64 -38q22 15 45 15q30 0 51.5 -22t21.5 -52q0 -19 -9 -34q39 -16 39 -65q0 -30 -23 -51q23 -21 23 -52t-23 -52q23 -21 23 -52q0 -29 -21 -50.5t-50 -21.5q-16 0 -30 6q-22 -37 -63 -37 q-31 0 -52 23q-21 -23 -52 -23q-24 0 -43 15t-26 38q-5 -2 -16 -2q-27 0 -46.5 20t-19.5 48q0 26 17 45q-17 19 -17 46t19.5 47t46.5 20q11 0 23 -5q7 19 24 31.5t38 12.5q32 0 52 -28q20 28 54 28q13 0 24 -4q0 15 9 28q-25 9 -40 35q-19 -14 -43 -14q-25 0 -44 14 q-21 -33 -61 -33zM242 546q-26 0 -45.5 19.5t-19.5 46.5t19.5 46.5t45.5 19.5q16 0 30 -8q6 20 23.5 33t38.5 13q27 0 46.5 -19t19.5 -47q0 -27 -19.5 -46t-46.5 -19q-16 0 -29 7q-7 -20 -24 -33t-39 -13zM187 177q-13 0 -22 4q-4 -13 -14 -24q11 -13 15 -26q10 3 21 3 q30 0 51 -23q21 24 53 24q14 0 30 -7q7 13 17 22q-15 15 -19 32q-10 -5 -26 -5q-34 0 -54 27q-20 -27 -52 -27z" />
<glyph unicode="&#xe2;" horiz-adv-x="497" d="M138 335q-30 0 -51 21.5t-21 51.5t21 51.5t51 21.5q26 0 44 -15q21 33 61 33q44 0 64 -38q22 15 45 15q30 0 51.5 -22t21.5 -52q0 -19 -9 -34q39 -16 39 -65q0 -30 -23 -51q23 -21 23 -52t-23 -52q23 -21 23 -52q0 -29 -21 -50.5t-50 -21.5q-16 0 -30 6q-22 -37 -63 -37 q-31 0 -52 23q-21 -23 -52 -23q-24 0 -43 15t-26 38q-5 -2 -16 -2q-27 0 -46.5 20t-19.5 48q0 26 17 45q-17 19 -17 46t19.5 47t46.5 20q11 0 23 -5q7 19 24 31.5t38 12.5q32 0 52 -28q20 28 54 28q13 0 24 -4q0 15 9 28q-25 9 -40 35q-19 -14 -43 -14q-25 0 -44 14 q-21 -33 -61 -33zM165 529q-25 0 -43.5 18.5t-18.5 43.5t18.5 43.5t43.5 18.5q8 0 22 -4v5q0 26 18.5 44t44.5 18q25 0 42.5 -18t17.5 -44v-6q12 5 24 5q25 0 42.5 -18t17.5 -44q0 -25 -17.5 -43.5t-42.5 -18.5q-26 0 -44.5 18.5t-18.5 43.5v5q-9 -4 -21 -4q-15 0 -24 4v-5 q0 -25 -18 -43.5t-43 -18.5zM187 177q-13 0 -22 4q-4 -13 -14 -24q11 -13 15 -26q10 3 21 3q30 0 51 -23q21 24 53 24q14 0 30 -7q7 13 17 22q-15 15 -19 32q-10 -5 -26 -5q-34 0 -54 27q-20 -27 -52 -27z" />
<glyph unicode="&#xe3;" horiz-adv-x="497" d="M138 335q-30 0 -51 21.5t-21 51.5t21 51.5t51 21.5q26 0 44 -15q21 33 61 33q44 0 64 -38q22 15 45 15q30 0 51.5 -22t21.5 -52q0 -19 -9 -34q39 -16 39 -65q0 -30 -23 -51q23 -21 23 -52t-23 -52q23 -21 23 -52q0 -29 -21 -50.5t-50 -21.5q-16 0 -30 6q-22 -37 -63 -37 q-31 0 -52 23q-21 -23 -52 -23q-24 0 -43 15t-26 38q-5 -2 -16 -2q-27 0 -46.5 20t-19.5 48q0 26 17 45q-17 19 -17 46t19.5 47t46.5 20q11 0 23 -5q7 19 24 31.5t38 12.5q32 0 52 -28q20 28 54 28q13 0 24 -4q0 15 9 28q-25 9 -40 35q-19 -14 -43 -14q-25 0 -44 14 q-21 -33 -61 -33zM287 534q-21 0 -38 13t-23 32q-4 -1 -13 -1t-14 1q-5 -19 -21 -32t-37 -13q-25 0 -43.5 18.5t-18.5 43.5q0 26 18.5 44t43.5 18q4 0 14 -2q5 20 21 32.5t37 12.5q22 0 38.5 -12.5t21.5 -32.5q8 2 14 2q5 0 13 -2q6 20 22 32.5t37 12.5q26 0 43.5 -18 t17.5 -44q0 -25 -18 -43t-43 -18q-9 0 -14 1q-5 -19 -21.5 -32t-36.5 -13zM187 177q-13 0 -22 4q-4 -13 -14 -24q11 -13 15 -26q10 3 21 3q30 0 51 -23q21 24 53 24q14 0 30 -7q7 13 17 22q-15 15 -19 32q-10 -5 -26 -5q-34 0 -54 27q-20 -27 -52 -27z" />
<glyph unicode="&#xe4;" horiz-adv-x="497" d="M138 335q-30 0 -51 21.5t-21 51.5t21 51.5t51 21.5q26 0 44 -15q21 33 61 33q44 0 64 -38q22 15 45 15q30 0 51.5 -22t21.5 -52q0 -19 -9 -34q39 -16 39 -65q0 -30 -23 -51q23 -21 23 -52t-23 -52q23 -21 23 -52q0 -29 -21 -50.5t-50 -21.5q-16 0 -30 6q-22 -37 -63 -37 q-31 0 -52 23q-21 -23 -52 -23q-24 0 -43 15t-26 38q-5 -2 -16 -2q-27 0 -46.5 20t-19.5 48q0 26 17 45q-17 19 -17 46t19.5 47t46.5 20q11 0 23 -5q7 19 24 31.5t38 12.5q32 0 52 -28q20 28 54 28q13 0 24 -4q0 15 9 28q-25 9 -40 35q-19 -14 -43 -14q-25 0 -44 14 q-21 -33 -61 -33zM176 683q28 0 48 -20t20 -48t-20 -48t-48 -20t-48 20t-20 48t20 48t48 20zM328 683q28 0 48 -20t20 -48t-20 -48t-48 -20t-47.5 20t-19.5 48t19.5 48t47.5 20zM187 177q-13 0 -22 4q-4 -13 -14 -24q11 -13 15 -26q10 3 21 3q30 0 51 -23q21 24 53 24 q14 0 30 -7q7 13 17 22q-15 15 -19 32q-10 -5 -26 -5q-34 0 -54 27q-20 -27 -52 -27z" />
<glyph unicode="&#xe5;" horiz-adv-x="497" d="M138 335q-30 0 -51 21.5t-21 51.5t21 51.5t51 21.5q26 0 44 -15q21 33 61 33q44 0 64 -38q22 15 45 15q30 0 51.5 -22t21.5 -52q0 -19 -9 -34q39 -16 39 -65q0 -30 -23 -51q23 -21 23 -52t-23 -52q23 -21 23 -52q0 -29 -21 -50.5t-50 -21.5q-16 0 -30 6q-22 -37 -63 -37 q-31 0 -52 23q-21 -23 -52 -23q-24 0 -43 15t-26 38q-5 -2 -16 -2q-27 0 -46.5 20t-19.5 48q0 26 17 45q-17 19 -17 46t19.5 47t46.5 20q11 0 23 -5q7 19 24 31.5t38 12.5q32 0 52 -28q20 28 54 28q13 0 24 -4q0 15 9 28q-25 9 -40 35q-19 -14 -43 -14q-25 0 -44 14 q-21 -33 -61 -33zM327 736q26 0 43.5 -17.5t17.5 -43.5q0 -43 -39 -58q8 -13 8 -28q0 -25 -18.5 -43t-43.5 -18q-27 0 -45 20q-18 -20 -46 -20q-25 0 -43 18t-18 43q0 16 7 29q-38 15 -38 57q0 25 18 43t43 18q6 0 16 -2q0 25 17.5 42.5t43.5 17.5q25 0 42 -17.5t18 -43.5 q8 3 17 3zM187 177q-13 0 -22 4q-4 -13 -14 -24q11 -13 15 -26q10 3 21 3q30 0 51 -23q21 24 53 24q14 0 30 -7q7 13 17 22q-15 15 -19 32q-10 -5 -26 -5q-34 0 -54 27q-20 -27 -52 -27zM250 623q11 14 29 22q-8 18 -8 35q-10 -3 -21 -3q-14 0 -20 3q0 -17 -9 -37 q15 -5 29 -20z" />
<glyph unicode="&#xe6;" horiz-adv-x="789" d="M482 500q35 0 56 -28q22 32 60 32q29 0 50 -21t21 -52q0 -7 -1 -10q10 2 14 2q30 0 51 -21.5t21 -51.5q0 -27 -18 -48q28 -20 28 -55q0 -28 -20 -48.5t-48 -20.5q-31 0 -52 24q-19 -24 -49 -24q-32 0 -52 25q-20 -25 -50 -25q-20 0 -35 9q-6 -14 -18 -25q14 -11 20 -26 q12 2 18 2q36 0 56 -31q22 25 53 25q20 0 36 -11q20 34 59 34q28 0 47.5 -20.5t19.5 -49.5t-19.5 -49.5t-47.5 -20.5q-21 0 -37 11q-20 -33 -58 -33q-35 0 -55 28q-21 -27 -54 -27q-45 0 -63 40q-9 -3 -19 -3q-18 0 -35 10q-8 -21 -26.5 -34.5t-41.5 -13.5q-31 0 -52 23 q-21 -23 -52 -23q-24 0 -43 15t-26 38q-5 -2 -16 -2q-27 0 -46.5 20t-19.5 48q0 26 17 45q-17 19 -17 46t19.5 47t46.5 20q11 0 23 -5q7 19 24 31.5t38 12.5q32 0 52 -28q20 28 54 28q17 0 31 -8q-1 4 -1 13q0 5 2 17q-27 9 -40 36q-19 -13 -42 -13q-25 0 -44 14 q-21 -33 -61 -33q-30 0 -51 21.5t-21 51.5t21 51.5t51 21.5q26 0 44 -15q21 33 61 33q43 0 64 -38q18 15 45 15q36 0 59 -30q6 24 25 39t44 15zM189 177q-13 0 -22 4q-4 -13 -14 -24q11 -13 15 -26q10 3 21 3q30 0 51 -23q21 24 53 24q19 0 35 -9q6 19 20 33q-15 13 -20 26 q-16 -8 -33 -8q-34 0 -54 27q-20 -27 -52 -27zM595 311q19 0 35 -11q-19 21 -19 50v9q-4 -1 -13 -1q-36 0 -57 28q-22 -32 -59 -32q-18 0 -32 7q17 -19 17 -47q0 -6 -1 -9q12 6 27 6q30 0 50 -25q20 25 52 25z" />
<glyph unicode="&#xe7;" horiz-adv-x="463" d="M190 -237q-26 0 -45.5 19t-19.5 46q0 28 19.5 47t45.5 19q11 0 20 -3q3 22 18 37q-27 19 -27 53q0 19 8 32q-12 10 -17 22q-14 -6 -29 -6q-31 0 -53 22t-22 53q0 8 1 12q-27 4 -45.5 25t-18.5 49q0 33 24 55q-24 22 -24 56q0 28 18.5 48.5t45.5 25.5q-1 4 -1 12 q0 31 22 53t53 22q15 0 29 -6q21 43 68 43q38 0 62 -34q19 16 46 16q30 0 52 -22.5t22 -52.5q0 -31 -21.5 -53t-52.5 -22q-42 0 -63 34q-21 -16 -45 -16q-16 0 -30 6q-18 -36 -56 -42q0 -2 0.5 -6t0.5 -6q0 -33 -25 -56q25 -23 25 -55q0 -2 -0.5 -6t-0.5 -6q38 -6 56 -42 q14 6 30 6q24 0 44 -15q22 35 64 35q31 0 52.5 -22t21.5 -53t-21.5 -53t-52.5 -22q-26 0 -46 15l-5 -6q14 -17 14 -40q0 -25 -18 -45q27 -20 27 -54q0 -27 -19 -46.5t-46 -19.5q-11 0 -20 3q-3 -23 -21.5 -39.5t-43.5 -16.5z" />
<glyph unicode="&#xe8;" horiz-adv-x="519" d="M381 146q29 0 49.5 -20.5t20.5 -49.5t-20.5 -50t-49.5 -21q-28 0 -49 19q-20 -31 -59 -31q-22 0 -39.5 12t-25.5 32q-17 -11 -38 -11q-29 0 -49.5 20.5t-20.5 49.5q0 12 2 18q-26 2 -44.5 22t-18.5 48q0 38 32 60q-32 20 -32 59q0 28 19 48.5t45 22.5q-3 10 -3 23 q0 29 20.5 49.5t49.5 20.5q18 0 36 -10q8 19 25.5 30.5t39.5 11.5q20 0 37.5 -11t25.5 -29q16 8 34 8q29 0 49.5 -20.5t20.5 -49.5v-1q20 -5 34 -21.5t14 -38.5q0 -23 -16 -41q24 -21 24 -53q0 -28 -20 -48.5t-48 -20.5q-33 0 -54 27q-18 -29 -52 -29q-31 0 -49 24 q-19 -24 -49 -24q-24 0 -42 16v-3q0 -10 -3 -19q41 -3 58 -43q17 11 38 11q27 0 49 -20q20 33 59 33zM208 715q22 0 39 -13t24 -33q14 8 29 8q27 0 46.5 -19.5t19.5 -46.5t-19.5 -46.5t-46.5 -19.5q-21 0 -38.5 13t-23.5 33q-13 -7 -30 -7q-26 0 -45.5 19t-19.5 46 t19.5 46.5t45.5 19.5zM320 301q29 0 48 -22q3 6 13 16q-11 14 -14 32q-45 0 -63 40q-16 -8 -33 -8q-21 0 -37 10q-16 -39 -58 -42q4 -16 4 -24q0 -13 -4 -22q20 20 46 20q30 0 49 -24q18 24 49 24z" />
<glyph unicode="&#xe9;" horiz-adv-x="519" d="M381 146q29 0 49.5 -20.5t20.5 -49.5t-20.5 -50t-49.5 -21q-28 0 -49 19q-20 -31 -59 -31q-22 0 -39.5 12t-25.5 32q-17 -11 -38 -11q-29 0 -49.5 20.5t-20.5 49.5q0 12 2 18q-26 2 -44.5 22t-18.5 48q0 38 32 60q-32 20 -32 59q0 28 19 48.5t45 22.5q-3 10 -3 23 q0 29 20.5 49.5t49.5 20.5q18 0 36 -10q8 19 25.5 30.5t39.5 11.5q20 0 37.5 -11t25.5 -29q16 8 34 8q29 0 49.5 -20.5t20.5 -49.5v-1q20 -5 34 -21.5t14 -38.5q0 -23 -16 -41q24 -21 24 -53q0 -28 -20 -48.5t-48 -20.5q-33 0 -54 27q-18 -29 -52 -29q-31 0 -49 24 q-19 -24 -49 -24q-24 0 -42 16v-3q0 -10 -3 -19q41 -3 58 -43q17 11 38 11q27 0 49 -20q20 33 59 33zM229 544q-26 0 -45.5 19.5t-19.5 46.5t19.5 46.5t45.5 19.5q16 0 30 -8q6 20 23.5 33t38.5 13q27 0 46.5 -19t19.5 -47q0 -27 -19.5 -46t-46.5 -19q-16 0 -29 7 q-7 -20 -24 -33t-39 -13zM320 301q29 0 48 -22q3 6 13 16q-11 14 -14 32q-45 0 -63 40q-16 -8 -33 -8q-21 0 -37 10q-16 -39 -58 -42q4 -16 4 -24q0 -13 -4 -22q20 20 46 20q30 0 49 -24q18 24 49 24z" />
<glyph unicode="&#xea;" horiz-adv-x="519" d="M381 146q29 0 49.5 -20.5t20.5 -49.5t-20.5 -50t-49.5 -21q-28 0 -49 19q-20 -31 -59 -31q-22 0 -39.5 12t-25.5 32q-17 -11 -38 -11q-29 0 -49.5 20.5t-20.5 49.5q0 12 2 18q-26 2 -44.5 22t-18.5 48q0 38 32 60q-32 20 -32 59q0 28 19 48.5t45 22.5q-3 10 -3 23 q0 29 20.5 49.5t49.5 20.5q18 0 36 -10q8 19 25.5 30.5t39.5 11.5q20 0 37.5 -11t25.5 -29q16 8 34 8q29 0 49.5 -20.5t20.5 -49.5v-1q20 -5 34 -21.5t14 -38.5q0 -23 -16 -41q24 -21 24 -53q0 -28 -20 -48.5t-48 -20.5q-33 0 -54 27q-18 -29 -52 -29q-31 0 -49 24 q-19 -24 -49 -24q-24 0 -42 16v-3q0 -10 -3 -19q41 -3 58 -43q17 11 38 11q27 0 49 -20q20 33 59 33zM184 526q-25 0 -43.5 18.5t-18.5 43.5q0 26 18 44t44 18q8 0 22 -4v5q0 26 18.5 44t44.5 18q25 0 42.5 -18t17.5 -44v-6q12 5 24 5q25 0 42.5 -18t17.5 -44 q0 -25 -17.5 -43.5t-42.5 -18.5q-26 0 -44.5 18.5t-18.5 43.5v5q-9 -4 -21 -4q-15 0 -24 4v-5q0 -25 -18 -43.5t-43 -18.5zM320 301q29 0 48 -22q3 6 13 16q-11 14 -14 32q-45 0 -63 40q-16 -8 -33 -8q-21 0 -37 10q-16 -39 -58 -42q4 -16 4 -24q0 -13 -4 -22q20 20 46 20 q30 0 49 -24q18 24 49 24z" />
<glyph unicode="&#xeb;" horiz-adv-x="519" d="M381 146q29 0 49.5 -20.5t20.5 -49.5t-20.5 -50t-49.5 -21q-28 0 -49 19q-20 -31 -59 -31q-22 0 -39.5 12t-25.5 32q-17 -11 -38 -11q-29 0 -49.5 20.5t-20.5 49.5q0 12 2 18q-26 2 -44.5 22t-18.5 48q0 38 32 60q-32 20 -32 59q0 28 19 48.5t45 22.5q-3 10 -3 23 q0 29 20.5 49.5t49.5 20.5q18 0 36 -10q8 19 25.5 30.5t39.5 11.5q20 0 37.5 -11t25.5 -29q16 8 34 8q29 0 49.5 -20.5t20.5 -49.5v-1q20 -5 34 -21.5t14 -38.5q0 -23 -16 -41q24 -21 24 -53q0 -28 -20 -48.5t-48 -20.5q-33 0 -54 27q-18 -29 -52 -29q-31 0 -49 24 q-19 -24 -49 -24q-24 0 -42 16v-3q0 -10 -3 -19q41 -3 58 -43q17 11 38 11q27 0 49 -20q20 33 59 33zM191 686q28 0 48 -20t20 -48t-20 -48t-48 -20t-48 20t-20 48t20 48t48 20zM343 686q28 0 48 -20t20 -48t-20 -48t-48 -20t-47.5 20t-19.5 48t19.5 48t47.5 20zM320 301 q29 0 48 -22q3 6 13 16q-11 14 -14 32q-45 0 -63 40q-16 -8 -33 -8q-21 0 -37 10q-16 -39 -58 -42q4 -16 4 -24q0 -13 -4 -22q20 20 46 20q30 0 49 -24q18 24 49 24z" />
<glyph unicode="&#xec;" horiz-adv-x="250" d="M125 502q31 0 53 -22t22 -53q0 -36 -29 -60q29 -24 29 -59q0 -36 -29 -59q29 -23 29 -59q0 -38 -30 -60q30 -23 30 -59q0 -31 -22 -53t-53 -22t-53 22t-22 53q0 36 30 59q-30 22 -30 60q0 36 29 59q-29 23 -29 59t29 59q-29 23 -29 60q0 31 22 53t53 22zM33 712 q22 0 39 -13t24 -33q14 8 29 8q27 0 46.5 -19.5t19.5 -46.5t-19.5 -46.5t-46.5 -19.5q-21 0 -38.5 13t-23.5 33q-13 -7 -30 -7q-26 0 -45.5 19t-19.5 46q0 28 19 47t46 19z" />
<glyph unicode="&#xed;" horiz-adv-x="250" d="M125 499q31 0 53 -21.5t22 -53.5q0 -36 -29 -60q29 -24 29 -58q0 -36 -29 -59q29 -23 29 -58q0 -38 -30 -60q30 -23 30 -58q0 -31 -22 -53t-53 -22t-53 22t-22 53q0 35 30 58q-30 22 -30 60q0 35 29 58q-29 23 -29 59q0 35 29 58q-29 23 -29 60q0 31 22 53t53 22z M127 548q-26 0 -45.5 19.5t-19.5 46.5t19.5 46.5t45.5 19.5q16 0 30 -8q6 20 23.5 33t38.5 13q27 0 46.5 -19t19.5 -47q0 -27 -19.5 -46t-46.5 -19q-16 0 -29 7q-7 -20 -24 -33t-39 -13z" />
<glyph unicode="&#xee;" horiz-adv-x="250" d="M126 499q32 0 53.5 -21.5t21.5 -53.5q0 -36 -29 -60q29 -24 29 -58q0 -36 -29 -59q29 -23 29 -58q0 -38 -30 -60q30 -23 30 -58q0 -31 -21.5 -53t-53.5 -22q-31 0 -53 22t-22 53q0 35 30 58q-30 22 -30 60q0 35 29 58q-29 23 -29 59q0 35 29 58q-29 23 -29 60q0 31 22 53 t53 22zM41 530q-25 0 -43.5 18.5t-18.5 43.5q0 26 18.5 44t43.5 18q8 0 22 -4v5q0 26 18.5 44t44.5 18q25 0 42.5 -18t17.5 -44v-6q12 5 24 5q25 0 42.5 -18t17.5 -44q0 -25 -17.5 -43.5t-42.5 -18.5q-26 0 -44.5 18.5t-18.5 43.5v5q-9 -4 -21 -4q-15 0 -24 4v-5 q0 -25 -18 -43.5t-43 -18.5z" />
<glyph unicode="&#xef;" horiz-adv-x="250" d="M124 499q32 0 53.5 -21.5t21.5 -53.5q0 -36 -29 -60q29 -24 29 -58q0 -36 -29 -59q29 -23 29 -58q0 -38 -30 -60q30 -23 30 -58q0 -31 -21.5 -53t-53.5 -22q-31 0 -53 22t-22 53q0 35 30 58q-30 22 -30 60q0 35 29 58q-29 23 -29 59q0 35 29 58q-29 23 -29 60q0 31 22 53 t53 22zM49 689q28 0 48 -20t20 -48t-20 -48t-48 -20t-48 20t-20 48t20 48t48 20zM201 689q28 0 48 -20t20 -48t-20 -48t-48 -20t-47.5 20t-19.5 48t19.5 48t47.5 20z" />
<glyph unicode="&#xf0;" horiz-adv-x="584" d="M187 477q21 0 39 -13q20 35 62 35q39 0 61 -34q9 6 19 9q-5 13 -5 26q0 10 1 15q-45 2 -62 45q-4 -22 -21 -36.5t-39 -14.5q-26 0 -44 18.5t-18 43.5q0 40 38 57q-7 13 -7 31q0 29 20.5 49.5t50.5 20.5q24 0 43 -14.5t25 -37.5q3 22 20.5 37t39.5 15q26 0 44 -18t18 -43 q0 -42 -38 -58q4 -14 4 -23q0 -6 -2 -16q29 -1 48.5 -21.5t19.5 -49.5q0 -24 -15 -44q20 -8 33 -26t13 -40t-11 -39q24 -24 24 -54q0 -33 -27 -57q18 -20 18 -46q0 -22 -12.5 -40.5t-32.5 -26.5q4 -9 4 -23q0 -30 -20.5 -51t-50.5 -21q-13 0 -23 3q-18 -42 -66 -42 q-34 0 -54 25q-20 -25 -54 -25q-28 0 -48 18t-23 45q-12 -2 -19 -2q-29 0 -49.5 21t-20.5 50q0 17 6 30q-41 19 -41 65q0 39 32 59q-18 21 -18 48q0 28 20 49t47 23v6q0 30 20.5 51t50.5 21zM338 135q14 0 23 -4q13 28 40 39q-4 9 -4 24q0 34 27 55q-18 19 -18 48 q0 20 11 39l-2 2q-13 -5 -26 -5q-42 0 -62 35q-17 -11 -39 -11t-39 11q-20 -33 -57 -35v-6q0 -39 -33 -60q19 -19 19 -47q0 -14 -7 -31q37 -17 40 -57q9 3 19 3q33 0 54 -26q21 26 54 26z" />
<glyph unicode="&#xf1;" d="M408 462q31 0 53 -22.5t22 -52.5q0 -16 -9 -36q41 -21 41 -66q0 -33 -23 -54q23 -23 23 -54q0 -34 -24 -55q24 -24 24 -54q0 -31 -22 -53t-53 -22t-52.5 22t-21.5 53q0 33 23 54q-23 20 -23 55q0 32 22 54q-22 20 -22 54q0 17 8 35q-21 11 -34 33q-11 -4 -25 -4 q-31 0 -51 20q-23 -23 -54 -23q-14 0 -28 6q-3 -5 -11 -13q24 -21 24 -54t-24 -55q24 -22 24 -53q0 -34 -24 -55q24 -24 24 -54q0 -31 -22 -53t-53 -22t-53 22t-22 53t23 54q-23 21 -23 55q0 30 23 53q-23 21 -23 55q0 33 23 54q-23 23 -23 55q0 31 22 53t53 22q14 0 28 -6 q23 33 62 33q28 0 51 -20q21 23 54 23q47 0 67 -42q13 5 26 5zM302 545q-21 0 -38 13t-23 32q-4 -1 -13 -1t-14 1q-5 -19 -21 -32t-37 -13q-25 0 -43.5 18.5t-18.5 43.5t18 43.5t44 18.5q4 0 14 -2q5 20 21 32.5t37 12.5q22 0 38.5 -12.5t21.5 -32.5q8 2 14 2q5 0 13 -2 q6 20 22 32.5t37 12.5q26 0 43.5 -18t17.5 -44t-17.5 -43.5t-43.5 -17.5q-9 0 -14 1q-5 -19 -21.5 -32t-36.5 -13z" />
<glyph unicode="&#xf2;" d="M177 477q21 0 39 -13q20 35 62 35q39 0 61 -34q19 12 40 12q29 0 50 -21.5t21 -50.5v-6q27 -2 46.5 -23t19.5 -49q0 -27 -18 -48q32 -20 32 -59q0 -44 -41 -65q7 -16 7 -30q0 -29 -20.5 -50t-50.5 -21q-7 0 -19 2q-2 -27 -22.5 -45t-48.5 -18q-38 0 -57 29 q-21 -29 -58 -29q-28 0 -48 18t-23 45q-12 -2 -19 -2q-29 0 -49.5 21t-20.5 50q0 17 6 30q-41 19 -41 65q0 39 32 59q-18 21 -18 48q0 28 20 49t47 23v6q0 30 20.5 51t50.5 21zM335 135q10 0 19 -3q5 41 40 57q-6 15 -6 31q0 27 18 47q-32 21 -32 60v6q-38 2 -57 35 q-17 -11 -39 -11t-39 11q-20 -33 -57 -35v-6q0 -39 -33 -60q19 -19 19 -47q0 -14 -7 -31q37 -17 40 -57q9 3 19 3q36 0 58 -30q20 30 57 30zM257 706q22 0 39 -13t24 -33q14 8 29 8q27 0 46.5 -19.5t19.5 -46.5t-19.5 -46.5t-46.5 -19.5q-21 0 -38.5 13t-23.5 33 q-13 -7 -30 -7q-26 0 -45.5 19t-19.5 46q0 28 19 47t46 19z" />
<glyph unicode="&#xf3;" d="M177 477q21 0 39 -13q20 35 62 35q39 0 61 -34q19 12 40 12q29 0 50 -21.5t21 -50.5v-6q27 -2 46.5 -23t19.5 -49q0 -27 -18 -48q32 -20 32 -59q0 -44 -41 -65q7 -16 7 -30q0 -29 -20.5 -50t-50.5 -21q-7 0 -19 2q-2 -27 -22.5 -45t-48.5 -18q-38 0 -57 29 q-21 -29 -58 -29q-28 0 -48 18t-23 45q-12 -2 -19 -2q-29 0 -49.5 21t-20.5 50q0 17 6 30q-41 19 -41 65q0 39 32 59q-18 21 -18 48q0 28 20 49t47 23v6q0 30 20.5 51t50.5 21zM335 135q10 0 19 -3q5 41 40 57q-6 15 -6 31q0 27 18 47q-32 21 -32 60v6q-38 2 -57 35 q-17 -11 -39 -11t-39 11q-20 -33 -57 -35v-6q0 -39 -33 -60q19 -19 19 -47q0 -14 -7 -31q37 -17 40 -57q9 3 19 3q36 0 58 -30q20 30 57 30zM265 536q-26 0 -45.5 19.5t-19.5 46.5t19.5 46.5t45.5 19.5q16 0 30 -8q6 20 23.5 33t38.5 13q27 0 46.5 -19t19.5 -47 q0 -27 -19.5 -46t-46.5 -19q-16 0 -29 7q-7 -20 -24 -33t-39 -13z" />
<glyph unicode="&#xf4;" d="M177 477q21 0 39 -13q20 35 62 35q39 0 61 -34q19 12 40 12q29 0 50 -21.5t21 -50.5v-6q27 -2 46.5 -23t19.5 -49q0 -27 -18 -48q32 -20 32 -59q0 -44 -41 -65q7 -16 7 -30q0 -29 -20.5 -50t-50.5 -21q-7 0 -19 2q-2 -27 -22.5 -45t-48.5 -18q-38 0 -57 29 q-21 -29 -58 -29q-28 0 -48 18t-23 45q-12 -2 -19 -2q-29 0 -49.5 21t-20.5 50q0 17 6 30q-41 19 -41 65q0 39 32 59q-18 21 -18 48q0 28 20 49t47 23v6q0 30 20.5 51t50.5 21zM335 135q10 0 19 -3q5 41 40 57q-6 15 -6 31q0 27 18 47q-32 21 -32 60v6q-38 2 -57 35 q-17 -11 -39 -11t-39 11q-20 -33 -57 -35v-6q0 -39 -33 -60q19 -19 19 -47q0 -14 -7 -31q37 -17 40 -57q9 3 19 3q36 0 58 -30q20 30 57 30zM215 527q-25 0 -43.5 18.5t-18.5 43.5t18.5 43.5t43.5 18.5q8 0 22 -4v5q0 26 18.5 44t44.5 18q25 0 42.5 -18t17.5 -44v-6 q12 5 24 5q25 0 42.5 -18t17.5 -44q0 -25 -17.5 -43.5t-42.5 -18.5q-26 0 -44.5 18.5t-18.5 43.5v5q-9 -4 -21 -4q-15 0 -24 4v-5q0 -25 -18 -43.5t-43 -18.5z" />
<glyph unicode="&#xf5;" d="M177 477q21 0 39 -13q20 35 62 35q39 0 61 -34q19 12 40 12q29 0 50 -21.5t21 -50.5v-6q27 -2 46.5 -23t19.5 -49q0 -27 -18 -48q32 -20 32 -59q0 -44 -41 -65q7 -16 7 -30q0 -29 -20.5 -50t-50.5 -21q-7 0 -19 2q-2 -27 -22.5 -45t-48.5 -18q-38 0 -57 29 q-21 -29 -58 -29q-28 0 -48 18t-23 45q-12 -2 -19 -2q-29 0 -49.5 21t-20.5 50q0 17 6 30q-41 19 -41 65q0 39 32 59q-18 21 -18 48q0 28 20 49t47 23v6q0 30 20.5 51t50.5 21zM335 135q10 0 19 -3q5 41 40 57q-6 15 -6 31q0 27 18 47q-32 21 -32 60v6q-38 2 -57 35 q-17 -11 -39 -11t-39 11q-20 -33 -57 -35v-6q0 -39 -33 -60q19 -19 19 -47q0 -14 -7 -31q37 -17 40 -57q9 3 19 3q36 0 58 -30q20 30 57 30zM339 538q-21 0 -38 13t-23 32q-4 -1 -13 -1t-14 1q-5 -19 -21 -32t-37 -13q-25 0 -43.5 18.5t-18.5 43.5q0 26 18.5 44t43.5 18 q4 0 14 -2q5 20 21 32.5t37 12.5q22 0 38.5 -12.5t21.5 -32.5q8 2 14 2q5 0 13 -2q6 20 22 32.5t37 12.5q26 0 43.5 -18t17.5 -44q0 -25 -18 -43t-43 -18q-9 0 -14 1q-5 -19 -21.5 -32t-36.5 -13z" />
<glyph unicode="&#xf6;" d="M177 477q21 0 39 -13q20 35 62 35q39 0 61 -34q19 12 40 12q29 0 50 -21.5t21 -50.5v-6q27 -2 46.5 -23t19.5 -49q0 -27 -18 -48q32 -20 32 -59q0 -44 -41 -65q7 -16 7 -30q0 -29 -20.5 -50t-50.5 -21q-7 0 -19 2q-2 -27 -22.5 -45t-48.5 -18q-38 0 -57 29 q-21 -29 -58 -29q-28 0 -48 18t-23 45q-12 -2 -19 -2q-29 0 -49.5 21t-20.5 50q0 17 6 30q-41 19 -41 65q0 39 32 59q-18 21 -18 48q0 28 20 49t47 23v6q0 30 20.5 51t50.5 21zM335 135q10 0 19 -3q5 41 40 57q-6 15 -6 31q0 27 18 47q-32 21 -32 60v6q-38 2 -57 35 q-17 -11 -39 -11t-39 11q-20 -33 -57 -35v-6q0 -39 -33 -60q19 -19 19 -47q0 -14 -7 -31q37 -17 40 -57q9 3 19 3q36 0 58 -30q20 30 57 30zM222 707q28 0 48 -20t20 -48t-20 -48t-48 -20t-48 20t-20 48t20 48t48 20zM374 707q28 0 48 -20t20 -48t-20 -48t-48 -20t-47.5 20 t-19.5 48t19.5 48t47.5 20z" />
<glyph unicode="&#xf7;" horiz-adv-x="661" d="M218 426q35 0 56 -26q23 26 57 26t57 -26q21 26 56 26q33 0 56 -26q21 26 57 26q31 0 52.5 -21.5t21.5 -52.5t-21.5 -53t-52.5 -22q-36 0 -57 26q-23 -26 -56 -26q-35 0 -56 26q-23 -26 -57 -26t-57 26q-21 -26 -56 -26q-34 0 -57 25q-23 -25 -56 -25q-31 0 -53 22 t-22 53t22 52.5t53 21.5q33 0 56 -26q23 26 57 26zM331 484q-31 0 -52.5 22t-21.5 53t21.5 52.5t52.5 21.5t53 -21.5t22 -52.5t-22 -53t-53 -22zM331 67q-31 0 -52.5 22t-21.5 52q0 31 21.5 53t52.5 22t53 -22t22 -53q0 -30 -22 -52t-53 -22z" />
<glyph unicode="&#xf8;" horiz-adv-x="576" d="M187 477q21 0 39 -13q20 35 62 35q39 0 61 -34q10 6 16 8q-8 16 -8 33q0 29 21 50.5t50 21.5t50 -21.5t21 -50.5q0 -23 -13.5 -41t-34.5 -26q9 -15 9 -34v-6q27 -2 46.5 -23t19.5 -49q0 -27 -18 -48q32 -20 32 -59q0 -44 -41 -65q7 -16 7 -30q0 -29 -20.5 -50t-50.5 -21 q-7 0 -19 2q-2 -27 -22.5 -45t-48.5 -18q-38 0 -57 29q-13 -17 -35 -25q9 -15 9 -33q0 -30 -21 -50.5t-50 -20.5q-30 0 -51 20.5t-21 50.5q0 23 13.5 41t34.5 26q-7 13 -8 25q-12 -2 -19 -2q-29 0 -49.5 21t-20.5 50q0 17 6 30q-41 19 -41 65q0 39 32 59q-18 21 -18 48 q0 28 20 49t47 23v6q0 30 20.5 51t50.5 21zM345 135q10 0 19 -3q5 41 40 57q-6 15 -6 31q0 27 18 47q-32 21 -32 60v6q-38 2 -57 35q-17 -11 -39 -11t-39 11q-20 -33 -57 -35v-6q0 -39 -33 -60q19 -19 19 -47q0 -14 -7 -31q37 -17 40 -57q9 3 19 3q36 0 58 -30q20 30 57 30z " />
<glyph unicode="&#xf9;" d="M148 30q-31 0 -53 22.5t-22 52.5q0 17 8 35q-18 9 -29.5 27.5t-11.5 39.5q0 30 23 53q-23 23 -23 55q0 33 24 54q-24 22 -24 55q0 31 22.5 53t52.5 22q31 0 53 -21.5t22 -53.5t-23 -55q23 -21 23 -54t-23 -54q23 -23 23 -54q0 -20 -9 -35q24 -13 34 -35q13 5 25 5 q31 0 51 -20q23 23 54 23q15 0 29 -6q4 8 10 13q-23 23 -23 55q0 31 23 54q-23 23 -23 54q0 33 23 54q-23 23 -23 55q0 31 22 53t52 22q31 0 53 -21.5t22 -53.5t-23 -55q23 -21 23 -54q0 -31 -23 -54q23 -23 23 -54q0 -32 -23 -55q23 -21 23 -54q0 -31 -22 -53t-53 -22 q-16 0 -28 6q-23 -33 -62 -33q-31 0 -51 20q-21 -23 -54 -23q-46 0 -67 41q-11 -4 -25 -4zM178 732q22 0 39 -13t24 -33q14 8 29 8q27 0 46.5 -19.5t19.5 -46.5t-19.5 -46.5t-46.5 -19.5q-21 0 -38.5 13t-23.5 33q-13 -7 -30 -7q-26 0 -45.5 19t-19.5 46q0 28 19.5 47 t45.5 19z" />
<glyph unicode="&#xfa;" d="M148 30q-31 0 -53 22.5t-22 52.5q0 17 8 35q-18 9 -29.5 27.5t-11.5 39.5q0 30 23 53q-23 23 -23 55q0 33 24 54q-24 22 -24 55q0 31 22.5 53t52.5 22q31 0 53 -21.5t22 -53.5t-23 -55q23 -21 23 -54t-23 -54q23 -23 23 -54q0 -20 -9 -35q24 -13 34 -35q13 5 25 5 q31 0 51 -20q23 23 54 23q15 0 29 -6q4 8 10 13q-23 23 -23 55q0 31 23 54q-23 23 -23 54q0 33 23 54q-23 23 -23 55q0 31 22 53t52 22q31 0 53 -21.5t22 -53.5t-23 -55q23 -21 23 -54q0 -31 -23 -54q23 -23 23 -54q0 -32 -23 -55q23 -21 23 -54q0 -31 -22 -53t-53 -22 q-16 0 -28 6q-23 -33 -62 -33q-31 0 -51 20q-21 -23 -54 -23q-46 0 -67 41q-11 -4 -25 -4zM269 562q-26 0 -45.5 19.5t-19.5 46.5t19.5 46.5t45.5 19.5q16 0 30 -8q6 20 23.5 33t38.5 13q27 0 46.5 -19t19.5 -47q0 -27 -19.5 -46t-46.5 -19q-16 0 -29 7q-7 -20 -24 -33 t-39 -13z" />
<glyph unicode="&#xfb;" d="M148 30q-31 0 -53 22.5t-22 52.5q0 17 8 35q-18 9 -29.5 27.5t-11.5 39.5q0 30 23 53q-23 23 -23 55q0 33 24 54q-24 22 -24 55q0 31 22.5 53t52.5 22q31 0 53 -21.5t22 -53.5t-23 -55q23 -21 23 -54t-23 -54q23 -23 23 -54q0 -20 -9 -35q24 -13 34 -35q13 5 25 5 q31 0 51 -20q23 23 54 23q15 0 29 -6q4 8 10 13q-23 23 -23 55q0 31 23 54q-23 23 -23 54q0 33 23 54q-23 23 -23 55q0 31 22 53t52 22q31 0 53 -21.5t22 -53.5t-23 -55q23 -21 23 -54q0 -31 -23 -54q23 -23 23 -54q0 -32 -23 -55q23 -21 23 -54q0 -31 -22 -53t-53 -22 q-16 0 -28 6q-23 -33 -62 -33q-31 0 -51 20q-21 -23 -54 -23q-46 0 -67 41q-11 -4 -25 -4zM196 569q-25 0 -43.5 18.5t-18.5 43.5t18 43.5t44 18.5q8 0 22 -4v5q0 26 18.5 44t44.5 18q25 0 42.5 -18t17.5 -44v-6q12 5 24 5q25 0 42.5 -18t17.5 -44q0 -25 -17.5 -43.5 t-42.5 -18.5q-26 0 -44.5 18.5t-18.5 43.5v5q-9 -4 -21 -4q-15 0 -24 4v-5q0 -25 -18 -43.5t-43 -18.5z" />
<glyph unicode="&#xfc;" d="M148 30q-31 0 -53 22.5t-22 52.5q0 17 8 35q-18 9 -29.5 27.5t-11.5 39.5q0 30 23 53q-23 23 -23 55q0 33 24 54q-24 22 -24 55q0 31 22.5 53t52.5 22q31 0 53 -21.5t22 -53.5t-23 -55q23 -21 23 -54t-23 -54q23 -23 23 -54q0 -20 -9 -35q24 -13 34 -35q13 5 25 5 q31 0 51 -20q23 23 54 23q15 0 29 -6q4 8 10 13q-23 23 -23 55q0 31 23 54q-23 23 -23 54q0 33 23 54q-23 23 -23 55q0 31 22 53t52 22q31 0 53 -21.5t22 -53.5t-23 -55q23 -21 23 -54q0 -31 -23 -54q23 -23 23 -54q0 -32 -23 -55q23 -21 23 -54q0 -31 -22 -53t-53 -22 q-16 0 -28 6q-23 -33 -62 -33q-31 0 -51 20q-21 -23 -54 -23q-46 0 -67 41q-11 -4 -25 -4zM201 707q28 0 48 -20t20 -48t-20 -48t-48 -20t-48 20t-20 48t20 48t48 20zM353 707q28 0 48 -20t20 -48t-20 -48t-48 -20t-47.5 20t-19.5 48t19.5 48t47.5 20z" />
<glyph unicode="&#xfd;" horiz-adv-x="543" d="M121 -94q8 0 12 -1q3 24 19.5 42t39.5 23q-3 10 -3 22q0 18 8 34q-36 21 -36 65q0 21 10 37q-26 6 -42.5 26.5t-16.5 47.5q0 21 10 37q-26 6 -42 26.5t-16 47.5q0 21 9 37q-26 6 -42 26.5t-16 47.5q0 32 21.5 53.5t53.5 21.5q31 0 53 -22t22 -53q0 -21 -11 -38 q26 -5 42.5 -25.5t16.5 -47.5q0 -20 -10 -38q25 -5 42 -26t17 -47q0 -21 -11 -38q3 0 21 -8q14 7 21 8q-10 16 -10 38q0 26 16 46.5t41 26.5q-10 18 -10 38q0 27 16.5 47.5t42.5 25.5q-10 16 -10 38q0 31 21.5 53t52.5 22t53 -21.5t22 -53.5q0 -26 -16.5 -47t-41.5 -26 q10 -18 10 -38q0 -26 -16.5 -46.5t-41.5 -26.5q10 -18 10 -38q0 -27 -16.5 -47.5t-42.5 -26.5q11 -17 11 -37q0 -24 -14.5 -43.5t-36.5 -27.5q5 -15 5 -28q0 -26 -17 -47t-42 -26q4 -9 4 -23q0 -31 -22 -53t-53 -22q-3 0 -7 0.5t-6 0.5q-3 -27 -24 -46t-50 -19 q-31 0 -53 21.5t-22 52.5t22 53t53 22zM257 563q-26 0 -45.5 19.5t-19.5 46.5t19.5 46.5t45.5 19.5q16 0 30 -8q6 20 23.5 33t38.5 13q27 0 46.5 -19t19.5 -47q0 -27 -19.5 -46t-46.5 -19q-16 0 -29 7q-7 -20 -24 -33t-39 -13z" />
<glyph unicode="&#xfe;" horiz-adv-x="562" d="M195 5q-16 0 -26 5l-3 -3q29 -21 29 -58q0 -36 -28 -59q28 -21 28 -59q0 -31 -22 -52.5t-53 -21.5t-53 21.5t-22 52.5q0 38 28 59q-28 23 -28 59q0 37 29 58q-29 23 -29 60q0 35 28 58q-28 21 -28 59q0 36 29 59q-27 24 -27 59q0 34 27 58q-27 24 -27 59q0 38 28 59 q-28 23 -28 59q0 37 28 58q-28 23 -28 60q0 31 21.5 52.5t51.5 21.5q31 0 53 -21.5t22 -52.5q0 -37 -29 -60q29 -21 29 -58q0 -36 -29 -59l5 -4q19 29 56 29q32 0 53 -24q21 24 53 24q24 0 43 -14.5t25 -37.5q13 5 26 5q30 0 50.5 -21t20.5 -51q0 -15 -7 -31q20 -8 33 -26.5 t13 -40.5q0 -36 -29 -58q22 -19 22 -50q0 -27 -17.5 -47t-42.5 -24q0 -2 0.5 -6t0.5 -6q0 -29 -21 -50.5t-50 -21.5q-20 0 -35 9q-20 -40 -64 -40q-37 0 -59 30q-20 -17 -47 -17zM227 361q-26 0 -45 16q-7 -10 -15 -17q28 -23 28 -58q0 -36 -29 -59q29 -23 29 -59 q0 -20 -9 -37q3 1 9 1q38 0 59 -31q20 18 47 18q16 0 34 -9q18 33 54 39q-1 4 -1 13q0 35 29 56q-22 20 -22 52q0 15 7 31q-35 13 -43 49q-13 -5 -26 -5q-32 0 -53 23q-21 -23 -53 -23z" />
<glyph unicode="&#xff;" horiz-adv-x="543" d="M121 -94q8 0 12 -1q3 24 19.5 42t39.5 23q-3 10 -3 22q0 18 8 34q-36 21 -36 65q0 21 10 37q-26 6 -42.5 26.5t-16.5 47.5q0 21 10 37q-26 6 -42 26.5t-16 47.5q0 21 9 37q-26 6 -42 26.5t-16 47.5q0 32 21.5 53.5t53.5 21.5q31 0 53 -22t22 -53q0 -21 -11 -38 q26 -5 42.5 -25.5t16.5 -47.5q0 -20 -10 -38q25 -5 42 -26t17 -47q0 -21 -11 -38q3 0 21 -8q14 7 21 8q-10 16 -10 38q0 26 16 46.5t41 26.5q-10 18 -10 38q0 27 16.5 47.5t42.5 25.5q-10 16 -10 38q0 31 21.5 53t52.5 22t53 -21.5t22 -53.5q0 -26 -16.5 -47t-41.5 -26 q10 -18 10 -38q0 -26 -16.5 -46.5t-41.5 -26.5q10 -18 10 -38q0 -27 -16.5 -47.5t-42.5 -26.5q11 -17 11 -37q0 -24 -14.5 -43.5t-36.5 -27.5q5 -15 5 -28q0 -26 -17 -47t-42 -26q4 -9 4 -23q0 -31 -22 -53t-53 -22q-3 0 -7 0.5t-6 0.5q-3 -27 -24 -46t-50 -19 q-31 0 -53 21.5t-22 52.5t22 53t53 22zM196 707q28 0 48 -20t20 -48t-20 -48t-48 -20t-48 20t-20 48t20 48t48 20zM348 707q28 0 48 -20t20 -48t-20 -48t-48 -20t-47.5 20t-19.5 48t19.5 48t47.5 20z" />
<glyph unicode="&#x100;" horiz-adv-x="703" d="M352 153q-34 0 -55 24q-22 -24 -56 -24q-12 0 -21 3q-14 -41 -57 -49q12 -21 12 -39q0 -31 -22.5 -53t-52.5 -22q-31 0 -53 22t-22 53q0 27 17 47.5t44 24.5q-11 20 -11 41q0 27 17.5 48t43.5 26q-11 17 -11 38q0 27 17 48t44 25q-11 19 -11 40q0 27 17.5 48.5t43.5 25.5 q-11 17 -11 39q0 27 17 48t44 25q-11 17 -11 39q0 31 22 53t52 22q31 0 53 -22t22 -53q0 -21 -11 -38q27 -5 45 -26t18 -48q0 -20 -12 -39q26 -5 44 -26t18 -48q0 -22 -11 -39q26 -5 44 -26t18 -48q0 -21 -11 -38q26 -5 43.5 -26t17.5 -48q0 -21 -11 -40q26 -5 44 -25.5 t18 -47.5q0 -31 -22 -53t-53 -22t-53 22t-22 53q0 20 11 39q-42 6 -57 48q-12 -2 -19 -2q-33 0 -56 23q-21 -23 -55 -23zM255 733q-25 0 -43.5 18.5t-18.5 43.5t18.5 43.5t43.5 18.5q29 0 47 -23q20 23 50 23q28 0 47 -24q19 24 50 24q25 0 42.5 -18t17.5 -44 q0 -25 -17.5 -43.5t-42.5 -18.5q-31 0 -50 24q-19 -24 -47 -24q-30 0 -50 23q-18 -23 -47 -23zM264 332q11 -17 11 -39q12 -6 22 -16q21 24 55 24t55 -24q8 8 20 15v1q0 20 11 39q-26 5 -43.5 25.5t-17.5 48.5q0 20 11 39q-18 3 -38 19q-18 -16 -37 -19q11 -19 11 -39 q0 -27 -17 -48t-43 -26z" />
<glyph unicode="&#x101;" horiz-adv-x="497" d="M138 335q-30 0 -51 21.5t-21 51.5t21 51.5t51 21.5q26 0 44 -15q21 33 61 33q44 0 64 -38q22 15 45 15q30 0 51.5 -22t21.5 -52q0 -19 -9 -34q39 -16 39 -65q0 -30 -23 -51q23 -21 23 -52t-23 -52q23 -21 23 -52q0 -29 -21 -50.5t-50 -21.5q-16 0 -30 6q-22 -37 -63 -37 q-31 0 -52 23q-21 -23 -52 -23q-24 0 -43 15t-26 38q-5 -2 -16 -2q-27 0 -46.5 20t-19.5 48q0 26 17 45q-17 19 -17 46t19.5 47t46.5 20q11 0 23 -5q7 19 24 31.5t38 12.5q32 0 52 -28q20 28 54 28q13 0 24 -4q0 15 9 28q-25 9 -40 35q-19 -14 -43 -14q-25 0 -44 14 q-21 -33 -61 -33zM155 549q-25 0 -43.5 18.5t-18.5 43.5t18.5 43.5t43.5 18.5q29 0 47 -23q20 23 50 23q28 0 47 -24q19 24 50 24q25 0 42.5 -18t17.5 -44q0 -25 -17.5 -43.5t-42.5 -18.5q-31 0 -50 24q-19 -24 -47 -24q-30 0 -50 23q-18 -23 -47 -23zM187 177q-13 0 -22 4 q-4 -13 -14 -24q11 -13 15 -26q10 3 21 3q30 0 51 -23q21 24 53 24q14 0 30 -7q7 13 17 22q-15 15 -19 32q-10 -5 -26 -5q-34 0 -54 27q-20 -27 -52 -27z" />
<glyph unicode="&#x102;" horiz-adv-x="703" d="M352 153q-34 0 -55 24q-22 -24 -56 -24q-12 0 -21 3q-14 -41 -57 -49q12 -21 12 -39q0 -31 -22.5 -53t-52.5 -22q-31 0 -53 22t-22 53q0 27 17 47.5t44 24.5q-11 20 -11 41q0 27 17.5 48t43.5 26q-11 17 -11 38q0 27 17 48t44 25q-11 19 -11 40q0 27 17.5 48.5t43.5 25.5 q-11 17 -11 39q0 27 17 48t44 25q-11 17 -11 39q0 31 22 53t52 22q31 0 53 -22t22 -53q0 -21 -11 -38q27 -5 45 -26t18 -48q0 -20 -12 -39q26 -5 44 -26t18 -48q0 -22 -11 -39q26 -5 44 -26t18 -48q0 -21 -11 -38q26 -5 43.5 -26t17.5 -48q0 -21 -11 -40q26 -5 44 -25.5 t18 -47.5q0 -31 -22 -53t-53 -22t-53 22t-22 53q0 20 11 39q-42 6 -57 48q-12 -2 -19 -2q-33 0 -56 23q-21 -23 -55 -23zM388 736q-23 0 -39 16q-18 -16 -41 -16t-40 16.5t-18 39.5q-23 2 -38 18.5t-15 40.5t17 41t41 17q23 0 40 -16t18 -38q20 -1 36 -16q14 14 36 16 q2 23 18.5 38.5t39.5 15.5q24 0 41 -17t17 -41t-15 -40.5t-38 -18.5q-1 -23 -19 -39.5t-41 -16.5zM264 332q11 -17 11 -39q12 -6 22 -16q21 24 55 24t55 -24q8 8 20 15v1q0 20 11 39q-26 5 -43.5 25.5t-17.5 48.5q0 20 11 39q-18 3 -38 19q-18 -16 -37 -19q11 -19 11 -39 q0 -27 -17 -48t-43 -26z" />
<glyph unicode="&#x103;" horiz-adv-x="497" d="M138 335q-30 0 -51 21.5t-21 51.5t21 51.5t51 21.5q26 0 44 -15q21 33 61 33q44 0 64 -38q22 15 45 15q30 0 51.5 -22t21.5 -52q0 -19 -9 -34q39 -16 39 -65q0 -30 -23 -51q23 -21 23 -52t-23 -52q23 -21 23 -52q0 -29 -21 -50.5t-50 -21.5q-16 0 -30 6q-22 -37 -63 -37 q-31 0 -52 23q-21 -23 -52 -23q-24 0 -43 15t-26 38q-5 -2 -16 -2q-27 0 -46.5 20t-19.5 48q0 26 17 45q-17 19 -17 46t19.5 47t46.5 20q11 0 23 -5q7 19 24 31.5t38 12.5q32 0 52 -28q20 28 54 28q13 0 24 -4q0 15 9 28q-25 9 -40 35q-19 -14 -43 -14q-25 0 -44 14 q-21 -33 -61 -33zM288 543q-23 0 -39 16q-18 -16 -41 -16t-40 16.5t-18 39.5q-23 2 -38 18.5t-15 40.5t17 41t41 17q23 0 40 -16t18 -38q20 -1 36 -16q14 14 36 16q2 23 18.5 38.5t39.5 15.5q24 0 41 -17t17 -41t-15 -40.5t-38 -18.5q-1 -23 -19 -39.5t-41 -16.5zM187 177 q-13 0 -22 4q-4 -13 -14 -24q11 -13 15 -26q10 3 21 3q30 0 51 -23q21 24 53 24q14 0 30 -7q7 13 17 22q-15 15 -19 32q-10 -5 -26 -5q-34 0 -54 27q-20 -27 -52 -27z" />
<glyph unicode="&#x104;" horiz-adv-x="703" d="M524 -180q-27 0 -46.5 19.5t-19.5 46.5q0 34 28 54q-18 20 -18 45q0 26 18 45.5t44 20.5q-2 5 -2 17q0 20 11 39q-42 6 -57 48q-12 -2 -19 -2q-33 0 -56 23q-21 -23 -55 -23t-55 24q-22 -24 -56 -24q-12 0 -21 3q-14 -41 -57 -49q12 -21 12 -39q0 -31 -22.5 -53 t-52.5 -22q-31 0 -53 22t-22 53q0 27 17 47.5t44 24.5q-11 20 -11 41q0 27 17.5 48t43.5 26q-11 17 -11 38q0 27 17 48t44 25q-11 19 -11 40q0 27 17.5 48.5t43.5 25.5q-11 17 -11 39q0 27 17 48t44 25q-11 17 -11 39q0 31 22 53t52 22q31 0 53 -22t22 -53q0 -21 -11 -38 q27 -5 45 -26t18 -48q0 -20 -12 -39q26 -5 44 -26t18 -48q0 -22 -11 -39q26 -5 44 -26t18 -48q0 -21 -11 -38q26 -5 43.5 -26t17.5 -48q0 -21 -11 -40q26 -5 44 -25.5t18 -47.5q0 -31 -22 -53t-53 -22h-6q1 -2 1 -8q0 -33 -27 -53q14 -15 17 -37q10 3 21 3q27 0 46 -19 t19 -47q0 -27 -19.5 -46t-45.5 -19q-24 0 -43 16t-23 40q-9 -3 -19 -3zM264 332q11 -17 11 -39q12 -6 22 -16q21 24 55 24t55 -24q8 8 20 15v1q0 20 11 39q-26 5 -43.5 25.5t-17.5 48.5q0 20 11 39q-18 3 -38 19q-18 -16 -37 -19q11 -19 11 -39q0 -27 -17 -48t-43 -26z" />
<glyph unicode="&#x105;" horiz-adv-x="497" d="M292 -163q-27 0 -46.5 19.5t-19.5 46.5q0 34 28 54q-18 20 -18 45q0 8 1 13q-19 -22 -50 -22q-24 0 -43 15t-26 38q-5 -2 -16 -2q-27 0 -46.5 20t-19.5 48q0 26 17 45q-17 19 -17 46t19.5 47t46.5 20q11 0 23 -5q7 19 24 31.5t38 12.5q32 0 52 -28q20 28 54 28 q13 0 24 -4q0 15 9 28q-25 9 -40 35q-19 -14 -43 -14q-25 0 -44 14q-21 -33 -61 -33q-30 0 -51 21.5t-21 51.5t21 51.5t51 21.5q26 0 44 -15q21 33 61 33q44 0 64 -38q22 15 45 15q30 0 51.5 -22t21.5 -52q0 -19 -9 -34q39 -16 39 -65q0 -30 -23 -51q23 -21 23 -52t-23 -52 q23 -21 23 -52q0 -29 -21 -50.5t-50 -21.5q-12 0 -23 3q5 -13 5 -25q0 -33 -27 -53q14 -15 17 -37q10 3 21 3q27 0 46 -19.5t19 -46.5t-19.5 -46t-45.5 -19q-24 0 -43 16t-23 40q-9 -3 -19 -3zM187 177q-13 0 -22 4q-4 -13 -14 -24q11 -13 15 -26q10 3 21 3q30 0 51 -23 q21 24 53 24q14 0 30 -7q7 13 17 22q-15 15 -19 32q-10 -5 -26 -5q-34 0 -54 27q-20 -27 -52 -27z" />
<glyph unicode="&#x106;" horiz-adv-x="628" d="M598 86q0 -32 -22 -53.5t-53 -21.5q-24 0 -42 12q-21 -34 -63 -34q-34 0 -57 26q-21 -21 -52 -21q-25 0 -44 14t-27 37q-16 -4 -25 -4q-30 0 -51.5 22t-21.5 53v6q-31 1 -52 22.5t-21 52.5q0 17 7 31q-44 20 -44 68q0 33 24 55q-24 22 -24 55q0 48 44 68q-7 13 -7 31 q0 30 21 52t52 23v6q0 31 21.5 53t51.5 22q10 0 24 -4q8 23 28 37.5t44 14.5q30 0 53 -21q21 26 56 26q42 0 64 -35q16 12 41 12q31 0 53 -21.5t22 -53.5q0 -30 -22 -52.5t-53 -22.5q-42 0 -63 36q-18 -12 -42 -12q-31 0 -52 21q-23 -26 -57 -26q-15 0 -24 4 q-7 -23 -26 -37.5t-44 -15.5q0 -1 0.5 -3t0.5 -3q0 -46 -43 -68q7 -16 7 -31q0 -33 -24 -55q24 -22 24 -55q0 -15 -7 -31q43 -21 43 -68q0 -1 -0.5 -3t-0.5 -3q24 -1 43 -15.5t26 -37.5q13 5 25 5q33 0 57 -27q22 22 52 22q22 0 42 -13q21 36 63 36q31 0 53 -22t22 -53z M344 728q-26 0 -45.5 19.5t-19.5 46.5t19.5 46.5t45.5 19.5q16 0 30 -8q6 20 23.5 33t38.5 13q27 0 46.5 -19t19.5 -47q0 -27 -19.5 -46t-46.5 -19q-16 0 -29 7q-7 -20 -24 -33t-39 -13z" />
<glyph unicode="&#x107;" horiz-adv-x="463" d="M368 162q31 0 52.5 -22t21.5 -53t-21.5 -53t-52.5 -22q-26 0 -46 15q-23 -34 -62 -34q-48 0 -68 42q-14 -6 -29 -6q-31 0 -53 22t-22 53q0 8 1 12q-27 4 -45.5 25t-18.5 49q0 33 24 55q-24 22 -24 56q0 28 18.5 48.5t45.5 25.5q-1 4 -1 12q0 31 22 53t53 22q15 0 29 -6 q21 43 68 43q38 0 62 -34q19 16 46 16q30 0 52 -22.5t22 -52.5q0 -31 -21.5 -53t-52.5 -22q-42 0 -63 34q-21 -16 -45 -16q-16 0 -30 6q-18 -36 -56 -42q0 -2 0.5 -6t0.5 -6q0 -33 -25 -56q25 -23 25 -55q0 -2 -0.5 -6t-0.5 -6q38 -6 56 -42q14 6 30 6q24 0 44 -15 q22 35 64 35zM212 562q-26 0 -45.5 19.5t-19.5 46.5t19.5 46.5t45.5 19.5q16 0 30 -8q6 20 23.5 33t38.5 13q27 0 46.5 -19t19.5 -47q0 -27 -19.5 -46t-46.5 -19q-16 0 -29 7q-7 -20 -24 -33t-39 -13z" />
<glyph unicode="&#x10a;" horiz-adv-x="628" d="M598 86q0 -32 -22 -53.5t-53 -21.5q-24 0 -42 12q-21 -34 -63 -34q-34 0 -57 26q-21 -21 -52 -21q-25 0 -44 14t-27 37q-16 -4 -25 -4q-30 0 -51.5 22t-21.5 53v6q-31 1 -52 22.5t-21 52.5q0 17 7 31q-44 20 -44 68q0 33 24 55q-24 22 -24 55q0 48 44 68q-7 13 -7 31 q0 30 21 52t52 23v6q0 31 21.5 53t51.5 22q10 0 24 -4q8 23 28 37.5t44 14.5q30 0 53 -21q21 26 56 26q42 0 64 -35q16 12 41 12q31 0 53 -21.5t22 -53.5q0 -30 -22 -52.5t-53 -22.5q-42 0 -63 36q-18 -12 -42 -12q-31 0 -52 21q-23 -26 -57 -26q-15 0 -24 4 q-7 -23 -26 -37.5t-44 -15.5q0 -1 0.5 -3t0.5 -3q0 -46 -43 -68q7 -16 7 -31q0 -33 -24 -55q24 -22 24 -55q0 -15 -7 -31q43 -21 43 -68q0 -1 -0.5 -3t-0.5 -3q24 -1 43 -15.5t26 -37.5q13 5 25 5q33 0 57 -27q22 22 52 22q22 0 42 -13q21 36 63 36q31 0 53 -22t22 -53z M360 874q29 0 49.5 -21t20.5 -50t-20.5 -50t-49.5 -21q-30 0 -50.5 21t-20.5 50t20.5 50t50.5 21z" />
<glyph unicode="&#x10b;" horiz-adv-x="463" d="M368 162q31 0 52.5 -22t21.5 -53t-21.5 -53t-52.5 -22q-26 0 -46 15q-23 -34 -62 -34q-48 0 -68 42q-14 -6 -29 -6q-31 0 -53 22t-22 53q0 8 1 12q-27 4 -45.5 25t-18.5 49q0 33 24 55q-24 22 -24 56q0 28 18.5 48.5t45.5 25.5q-1 4 -1 12q0 31 22 53t53 22q15 0 29 -6 q21 43 68 43q38 0 62 -34q19 16 46 16q30 0 52 -22.5t22 -52.5q0 -31 -21.5 -53t-52.5 -22q-42 0 -63 34q-21 -16 -45 -16q-16 0 -30 6q-18 -36 -56 -42q0 -2 0.5 -6t0.5 -6q0 -33 -25 -56q25 -23 25 -55q0 -2 -0.5 -6t-0.5 -6q38 -6 56 -42q14 6 30 6q24 0 44 -15 q22 35 64 35zM264 710q29 0 49.5 -21t20.5 -50t-20.5 -50t-49.5 -21q-30 0 -50.5 21t-20.5 50t20.5 50t50.5 21z" />
<glyph unicode="&#x10c;" horiz-adv-x="628" d="M598 86q0 -32 -22 -53.5t-53 -21.5q-24 0 -42 12q-21 -34 -63 -34q-34 0 -57 26q-21 -21 -52 -21q-25 0 -44 14t-27 37q-16 -4 -25 -4q-30 0 -51.5 22t-21.5 53v6q-31 1 -52 22.5t-21 52.5q0 17 7 31q-44 20 -44 68q0 33 24 55q-24 22 -24 55q0 48 44 68q-7 13 -7 31 q0 30 21 52t52 23v6q0 31 21.5 53t51.5 22q10 0 24 -4q8 23 28 37.5t44 14.5q30 0 53 -21q21 26 56 26q42 0 64 -35q16 12 41 12q31 0 53 -21.5t22 -53.5q0 -30 -22 -52.5t-53 -22.5q-42 0 -63 36q-18 -12 -42 -12q-31 0 -52 21q-23 -26 -57 -26q-15 0 -24 4 q-7 -23 -26 -37.5t-44 -15.5q0 -1 0.5 -3t0.5 -3q0 -46 -43 -68q7 -16 7 -31q0 -33 -24 -55q24 -22 24 -55q0 -15 -7 -31q43 -21 43 -68q0 -1 -0.5 -3t-0.5 -3q24 -1 43 -15.5t26 -37.5q13 5 25 5q33 0 57 -27q22 22 52 22q22 0 42 -13q21 36 63 36q31 0 53 -22t22 -53z M276 922q25 0 43 -18.5t18 -43.5v-6q12 5 24 5q7 0 21 -4v5q0 25 18.5 43.5t44.5 18.5q25 0 42.5 -18.5t17.5 -43.5q0 -26 -17.5 -44t-42.5 -18q-15 0 -24 4v-5q0 -26 -17.5 -44t-42.5 -18q-26 0 -44.5 18t-18.5 44v5q-9 -4 -22 -4q-26 0 -44 18t-18 44q0 25 18.5 43.5 t43.5 18.5z" />
<glyph unicode="&#x10d;" horiz-adv-x="463" d="M368 162q31 0 52.5 -22t21.5 -53t-21.5 -53t-52.5 -22q-26 0 -46 15q-23 -34 -62 -34q-48 0 -68 42q-14 -6 -29 -6q-31 0 -53 22t-22 53q0 8 1 12q-27 4 -45.5 25t-18.5 49q0 33 24 55q-24 22 -24 56q0 28 18.5 48.5t45.5 25.5q-1 4 -1 12q0 31 22 53t53 22q15 0 29 -6 q21 43 68 43q38 0 62 -34q19 16 46 16q30 0 52 -22.5t22 -52.5q0 -31 -21.5 -53t-52.5 -22q-42 0 -63 34q-21 -16 -45 -16q-16 0 -30 6q-18 -36 -56 -42q0 -2 0.5 -6t0.5 -6q0 -33 -25 -56q25 -23 25 -55q0 -2 -0.5 -6t-0.5 -6q38 -6 56 -42q14 6 30 6q24 0 44 -15 q22 35 64 35zM180 756q25 0 43 -18.5t18 -43.5v-6q12 5 24 5q7 0 21 -4v5q0 25 18.5 43.5t44.5 18.5q25 0 42.5 -18.5t17.5 -43.5q0 -26 -17.5 -44t-42.5 -18q-15 0 -24 4v-5q0 -26 -17.5 -44t-42.5 -18q-26 0 -44.5 18t-18.5 44v5q-9 -4 -22 -4q-26 0 -44 18t-18 44 q0 25 18.5 43.5t43.5 18.5z" />
<glyph unicode="&#x10e;" horiz-adv-x="680" d="M50 68q0 33 26 56q-26 21 -26 57q0 34 25 56q-25 22 -25 56q0 33 25 56q-25 23 -25 57q0 33 25 56q-25 23 -25 57t25 56q-25 20 -25 56q0 31 21.5 53t52.5 22q33 0 55 -24q21 24 55 24q35 0 58 -28q21 28 59 28q24 0 43 -14t27 -36q16 8 33 8q31 0 52.5 -22t21.5 -53v-5 h5q31 0 52.5 -22t21.5 -53q0 -18 -8 -34q22 -8 36.5 -27t14.5 -43q0 -34 -26 -55q26 -23 26 -56q0 -24 -14 -43.5t-36 -27.5q7 -17 7 -32q0 -31 -21.5 -53t-52.5 -22h-5v-6q0 -31 -21.5 -53t-52.5 -22q-19 0 -33 7q-8 -22 -27 -35.5t-43 -13.5q-35 0 -58 26q-21 -26 -55 -26 q-36 0 -57 26q-23 -26 -57 -26q-31 0 -52.5 22t-21.5 53zM234 557q-34 0 -55 23l-5 -5q25 -23 25 -56q0 -34 -26 -57q26 -23 26 -56q0 -34 -26 -57q26 -23 26 -56t-25 -56q25 -23 25 -56q0 -36 -26 -57l8 -8q21 26 57 26q32 0 56 -27q21 26 57 26q15 0 32 -7q8 22 27 36.5 t44 14.5h4v6q0 24 13.5 43t35.5 27q-7 14 -7 33q0 34 25 56q-25 20 -25 55q0 17 8 33q-23 8 -36.5 27t-13.5 44v5h-4q-25 0 -44 13.5t-27 36.5q-14 -7 -32 -7q-38 0 -59 28q-23 -28 -58 -28zM246 922q25 0 43 -18.5t18 -43.5v-6q12 5 24 5q7 0 21 -4v5q0 25 18.5 43.5 t44.5 18.5q25 0 42.5 -18.5t17.5 -43.5q0 -26 -17.5 -44t-42.5 -18q-15 0 -24 4v-5q0 -26 -17.5 -44t-42.5 -18q-26 0 -44.5 18t-18.5 44v5q-9 -4 -22 -4q-26 0 -44 18t-18 44q0 25 18.5 43.5t43.5 18.5z" />
<glyph unicode="&#x10f;" horiz-adv-x="573" d="M448 729q31 0 52.5 -21.5t21.5 -52.5q0 -32 -23 -55q23 -21 23 -54q0 -31 -23 -54q23 -21 23 -54q0 -31 -23 -54q23 -21 23 -54t-23 -54q23 -23 23 -55q0 -33 -22 -53q22 -24 22 -53q0 -30 -22 -52.5t-52 -22.5q-12 0 -22 3q-22 -40 -66 -40q-26 0 -46 15 q-20 -25 -55 -25q-48 0 -68 41q-14 -7 -32 -7q-31 0 -53 22t-22 53q0 10 1 15q-26 5 -43 26t-17 48q0 33 24 55q-24 22 -24 56q0 26 17 47t42 26q-1 5 -1 14q0 31 22 53t53 22q17 0 33 -8q21 43 68 43q40 0 62 -34q21 16 47 16q6 0 16 -2q1 3 12 13q-23 23 -23 54 q0 33 23 54q-23 23 -23 55q0 31 22 52.5t53 21.5zM360 153q12 0 21 -3q4 6 14 18q-22 20 -22 53q0 32 23 55q-23 21 -23 54v1h-5q-41 0 -63 34q-21 -16 -46 -16q-21 0 -34 8q-16 -34 -52 -42q2 -8 2 -13q0 -33 -25 -56q25 -23 25 -55q0 -6 -2 -16q36 -6 53 -41q16 8 33 8 q24 0 44 -15q23 26 57 26zM660 729q30 0 50.5 -20.5t20.5 -50.5q0 -48 -45 -65q12 -19 12 -39q0 -29 -20.5 -49.5t-50.5 -20.5q-29 0 -49.5 20.5t-20.5 49.5q0 47 44 66q-11 17 -11 38q0 30 20.5 50.5t49.5 20.5z" />
<glyph unicode="&#x110;" horiz-adv-x="704" d="M74 68q0 33 26 56q-26 21 -26 57q0 34 25 56q-23 20 -25 51q-20 -10 -39 -10q-31 0 -52.5 21.5t-21.5 52.5t21.5 53t52.5 22q22 0 39 -11q5 29 25 46q-25 23 -25 57t25 56q-25 20 -25 56q0 31 21.5 53t52.5 22q33 0 55 -24q21 24 55 24q35 0 58 -28q21 28 59 28 q24 0 43 -14t27 -36q16 8 33 8q31 0 52.5 -22t21.5 -53v-5h5q31 0 52.5 -22t21.5 -53q0 -18 -8 -34q22 -8 36.5 -27t14.5 -43q0 -34 -26 -55q26 -23 26 -56q0 -24 -14 -43.5t-36 -27.5q7 -17 7 -32q0 -31 -21.5 -53t-52.5 -22h-5v-6q0 -31 -21.5 -53t-52.5 -22q-19 0 -33 7 q-8 -22 -27 -35.5t-43 -13.5q-35 0 -58 26q-21 -26 -55 -26q-36 0 -57 26q-23 -26 -57 -26q-31 0 -52.5 22t-21.5 53zM375 278q-35 0 -58 26q-21 -26 -56 -26q-22 0 -38 10q-3 -31 -25 -51q25 -23 25 -56q0 -36 -26 -57l8 -8q21 26 57 26q32 0 56 -27q21 26 57 26 q15 0 32 -7q8 22 27 36.5t44 14.5h4v6q0 24 13.5 43t35.5 27q-7 14 -7 33q0 34 25 56q-25 20 -25 55q0 17 8 33q-23 8 -36.5 27t-13.5 44v5h-4q-25 0 -44 13.5t-27 36.5q-14 -7 -32 -7q-38 0 -59 28q-23 -28 -58 -28q-34 0 -55 23l-5 -5q25 -23 25 -56q0 -34 -26 -57 q20 -17 25 -46q17 11 39 11q35 0 56 -27q22 27 58 27q30 0 51.5 -22t21.5 -53t-21.5 -52.5t-51.5 -21.5z" />
<glyph unicode="&#x111;" horiz-adv-x="573" d="M448 729q31 0 52.5 -21.5t21.5 -52.5v-3q17 10 35 10q25 0 42.5 -18t17.5 -44q0 -25 -17.5 -43.5t-42.5 -18.5q-18 0 -35 10v-2q0 -31 -23 -54q23 -21 23 -54q0 -31 -23 -54q23 -21 23 -54t-23 -54q23 -23 23 -55q0 -33 -22 -53q22 -24 22 -53q0 -30 -22 -52.5t-52 -22.5 q-12 0 -22 3q-22 -40 -66 -40q-26 0 -46 15q-20 -25 -55 -25q-48 0 -68 41q-14 -7 -32 -7q-31 0 -53 22t-22 53q0 10 1 15q-26 5 -43 26t-17 48q0 33 24 55q-24 22 -24 56q0 26 17 47t42 26q-1 5 -1 14q0 31 22 53t53 22q17 0 33 -8q21 43 68 43q40 0 62 -34q21 16 47 16 q6 0 16 -2q1 3 12 13q-23 23 -23 54v2q-14 -10 -33 -10q-25 0 -43.5 18.5t-18.5 43.5q0 26 18 44t44 18q16 0 33 -10v3q0 31 22 52.5t53 21.5zM360 153q12 0 21 -3q4 6 14 18q-22 20 -22 53q0 32 23 55q-23 21 -23 54v1h-5q-41 0 -63 34q-21 -16 -46 -16q-21 0 -34 8 q-16 -34 -52 -42q2 -8 2 -13q0 -33 -25 -56q25 -23 25 -55q0 -6 -2 -16q36 -6 53 -41q16 8 33 8q24 0 44 -15q23 26 57 26z" />
<glyph unicode="&#x112;" d="M234 557q-34 0 -55 23l-5 -5q25 -23 25 -56q0 -34 -26 -57q18 -15 24 -38h5q34 0 55 -24q24 24 55 24q33 0 55 -24q21 24 54 24q31 0 53 -22t22 -53t-22 -52.5t-53 -21.5q-34 0 -55 23q-20 -23 -54 -23q-32 0 -55 23q-21 -23 -55 -23h-5q-6 -23 -23 -38q25 -23 25 -56 q0 -36 -26 -57l6 -6q22 24 55 24q32 0 54 -25q23 25 56 25q30 0 54 -24q22 24 55 24q31 0 52.5 -22t21.5 -52q0 -31 -21.5 -53t-52.5 -22q-34 0 -55 23q-23 -23 -54 -23q-34 0 -56 24q-21 -24 -54 -24q-34 0 -55 24q-22 -24 -55 -24q-31 0 -52.5 22t-21.5 53q0 33 26 56 q-26 21 -26 57q0 34 25 56q-25 22 -25 56q0 33 25 56q-25 23 -25 57q0 33 25 56q-25 23 -25 57t25 56q-25 20 -25 56q0 31 21.5 53t52.5 22q33 0 55 -24q21 24 55 24q33 0 54 -24q22 24 56 24q32 0 54 -24q21 24 55 24q31 0 52.5 -22t21.5 -53t-21.5 -52.5t-52.5 -21.5 q-35 0 -55 23q-21 -23 -54 -23q-34 0 -56 24q-21 -24 -54 -24zM192 733q-25 0 -43.5 18.5t-18.5 43.5t18 43.5t44 18.5q29 0 47 -23q20 23 50 23q28 0 47 -24q19 24 50 24q25 0 42.5 -18t17.5 -44q0 -25 -17.5 -43.5t-42.5 -18.5q-31 0 -50 24q-19 -24 -47 -24q-30 0 -50 23 q-18 -23 -47 -23z" />
<glyph unicode="&#x113;" horiz-adv-x="519" d="M381 146q29 0 49.5 -20.5t20.5 -49.5t-20.5 -50t-49.5 -21q-28 0 -49 19q-20 -31 -59 -31q-22 0 -39.5 12t-25.5 32q-17 -11 -38 -11q-29 0 -49.5 20.5t-20.5 49.5q0 12 2 18q-26 2 -44.5 22t-18.5 48q0 38 32 60q-32 20 -32 59q0 28 19 48.5t45 22.5q-3 10 -3 23 q0 29 20.5 49.5t49.5 20.5q18 0 36 -10q8 19 25.5 30.5t39.5 11.5q20 0 37.5 -11t25.5 -29q16 8 34 8q29 0 49.5 -20.5t20.5 -49.5v-1q20 -5 34 -21.5t14 -38.5q0 -23 -16 -41q24 -21 24 -53q0 -28 -20 -48.5t-48 -20.5q-33 0 -54 27q-18 -29 -52 -29q-31 0 -49 24 q-19 -24 -49 -24q-24 0 -42 16v-3q0 -10 -3 -19q41 -3 58 -43q17 11 38 11q27 0 49 -20q20 33 59 33zM173 550q-25 0 -43.5 18.5t-18.5 43.5q0 26 18.5 44t43.5 18q29 0 47 -23q20 23 50 23q28 0 47 -24q19 24 50 24q25 0 42.5 -18t17.5 -44q0 -25 -17.5 -43.5t-42.5 -18.5 q-31 0 -50 24q-19 -24 -47 -24q-30 0 -50 23q-18 -23 -47 -23zM320 301q29 0 48 -22q3 6 13 16q-11 14 -14 32q-45 0 -63 40q-16 -8 -33 -8q-21 0 -37 10q-16 -39 -58 -42q4 -16 4 -24q0 -13 -4 -22q20 20 46 20q30 0 49 -24q18 24 49 24z" />
<glyph unicode="&#x116;" d="M234 557q-34 0 -55 23l-5 -5q25 -23 25 -56q0 -34 -26 -57q18 -15 24 -38h5q34 0 55 -24q24 24 55 24q33 0 55 -24q21 24 54 24q31 0 53 -22t22 -53t-22 -52.5t-53 -21.5q-34 0 -55 23q-20 -23 -54 -23q-32 0 -55 23q-21 -23 -55 -23h-5q-6 -23 -23 -38q25 -23 25 -56 q0 -36 -26 -57l6 -6q22 24 55 24q32 0 54 -25q23 25 56 25q30 0 54 -24q22 24 55 24q31 0 52.5 -22t21.5 -52q0 -31 -21.5 -53t-52.5 -22q-34 0 -55 23q-23 -23 -54 -23q-34 0 -56 24q-21 -24 -54 -24q-34 0 -55 24q-22 -24 -55 -24q-31 0 -52.5 22t-21.5 53q0 33 26 56 q-26 21 -26 57q0 34 25 56q-25 22 -25 56q0 33 25 56q-25 23 -25 57q0 33 25 56q-25 23 -25 57t25 56q-25 20 -25 56q0 31 21.5 53t52.5 22q33 0 55 -24q21 24 55 24q33 0 54 -24q22 24 56 24q32 0 54 -24q21 24 55 24q31 0 52.5 -22t21.5 -53t-21.5 -52.5t-52.5 -21.5 q-35 0 -55 23q-21 -23 -54 -23q-34 0 -56 24q-21 -24 -54 -24zM289 894q29 0 49.5 -21t20.5 -50t-20.5 -50t-49.5 -21q-30 0 -50.5 21t-20.5 50t20.5 50t50.5 21z" />
<glyph unicode="&#x117;" horiz-adv-x="519" d="M381 146q29 0 49.5 -20.5t20.5 -49.5t-20.5 -50t-49.5 -21q-28 0 -49 19q-20 -31 -59 -31q-22 0 -39.5 12t-25.5 32q-17 -11 -38 -11q-29 0 -49.5 20.5t-20.5 49.5q0 12 2 18q-26 2 -44.5 22t-18.5 48q0 38 32 60q-32 20 -32 59q0 28 19 48.5t45 22.5q-3 10 -3 23 q0 29 20.5 49.5t49.5 20.5q18 0 36 -10q8 19 25.5 30.5t39.5 11.5q20 0 37.5 -11t25.5 -29q16 8 34 8q29 0 49.5 -20.5t20.5 -49.5v-1q20 -5 34 -21.5t14 -38.5q0 -23 -16 -41q24 -21 24 -53q0 -28 -20 -48.5t-48 -20.5q-33 0 -54 27q-18 -29 -52 -29q-31 0 -49 24 q-19 -24 -49 -24q-24 0 -42 16v-3q0 -10 -3 -19q41 -3 58 -43q17 11 38 11q27 0 49 -20q20 33 59 33zM272 690q29 0 49.5 -21t20.5 -50t-20.5 -50t-49.5 -21q-30 0 -50.5 21t-20.5 50t20.5 50t50.5 21zM320 301q29 0 48 -22q3 6 13 16q-11 14 -14 32q-45 0 -63 40 q-16 -8 -33 -8q-21 0 -37 10q-16 -39 -58 -42q4 -16 4 -24q0 -13 -4 -22q20 20 46 20q30 0 49 -24q18 24 49 24z" />
<glyph unicode="&#x118;" d="M234 557q-34 0 -55 23l-5 -5q25 -23 25 -56q0 -34 -26 -57q18 -15 24 -38h5q34 0 55 -24q24 24 55 24q33 0 55 -24q21 24 54 24q31 0 53 -22t22 -53t-22 -52.5t-53 -21.5q-34 0 -55 23q-20 -23 -54 -23q-32 0 -55 23q-21 -23 -55 -23h-5q-6 -23 -23 -38q25 -23 25 -56 q0 -36 -26 -57l6 -6q22 24 55 24q32 0 54 -25q23 25 56 25q30 0 54 -24q22 24 55 24q31 0 52.5 -22t21.5 -52q0 -31 -21.5 -53t-52.5 -22h-5q2 -8 2 -12q0 -33 -27 -53q14 -15 17 -37q10 3 21 3q27 0 46 -19t19 -47q0 -27 -19.5 -46t-45.5 -19q-24 0 -43 16t-23 40 q-9 -3 -19 -3q-27 0 -46.5 19.5t-19.5 46.5q0 34 28 54q-18 20 -18 45q0 5 2 15q-21 6 -34 21q-21 -24 -54 -24q-34 0 -55 24q-22 -24 -55 -24q-31 0 -52.5 22t-21.5 53q0 33 26 56q-26 21 -26 57q0 34 25 56q-25 22 -25 56q0 33 25 56q-25 23 -25 57q0 33 25 56 q-25 23 -25 57t25 56q-25 20 -25 56q0 31 21.5 53t52.5 22q33 0 55 -24q21 24 55 24q33 0 54 -24q22 24 56 24q32 0 54 -24q21 24 55 24q31 0 52.5 -22t21.5 -53t-21.5 -52.5t-52.5 -21.5q-35 0 -55 23q-21 -23 -54 -23q-34 0 -56 24q-21 -24 -54 -24z" />
<glyph unicode="&#x119;" horiz-adv-x="519" d="M316 -164q-27 0 -46.5 19.5t-19.5 46.5q0 34 28 54q-16 16 -18 39q-37 6 -52 42q-17 -11 -38 -11q-29 0 -49.5 20.5t-20.5 49.5q0 12 2 18q-26 2 -44.5 22t-18.5 48q0 38 32 60q-32 20 -32 59q0 28 19 48.5t45 22.5q-3 10 -3 23q0 29 20.5 49.5t49.5 20.5q18 0 36 -10 q8 19 25.5 30.5t39.5 11.5q20 0 37.5 -11t25.5 -29q16 8 34 8q29 0 49.5 -20.5t20.5 -49.5v-1q20 -5 34 -21.5t14 -38.5q0 -23 -16 -41q24 -21 24 -53q0 -28 -20 -48.5t-48 -20.5q-33 0 -54 27q-18 -29 -52 -29q-31 0 -49 24q-19 -24 -49 -24q-24 0 -42 16v-3q0 -10 -3 -19 q41 -3 58 -43q17 11 38 11q27 0 49 -20q20 33 59 33q29 0 49.5 -20.5t20.5 -49.5q0 -27 -17.5 -47t-43.5 -24v-4q0 -33 -27 -53q14 -15 17 -37q10 3 21 3q27 0 46 -19t19 -47q0 -27 -19.5 -46t-45.5 -19q-24 0 -43 16t-23 40q-9 -3 -19 -3zM320 301q29 0 48 -22q3 6 13 16 q-11 14 -14 32q-45 0 -63 40q-16 -8 -33 -8q-21 0 -37 10q-16 -39 -58 -42q4 -16 4 -24q0 -13 -4 -22q20 20 46 20q30 0 49 -24q18 24 49 24z" />
<glyph unicode="&#x11a;" d="M234 557q-34 0 -55 23l-5 -5q25 -23 25 -56q0 -34 -26 -57q18 -15 24 -38h5q34 0 55 -24q24 24 55 24q33 0 55 -24q21 24 54 24q31 0 53 -22t22 -53t-22 -52.5t-53 -21.5q-34 0 -55 23q-20 -23 -54 -23q-32 0 -55 23q-21 -23 -55 -23h-5q-6 -23 -23 -38q25 -23 25 -56 q0 -36 -26 -57l6 -6q22 24 55 24q32 0 54 -25q23 25 56 25q30 0 54 -24q22 24 55 24q31 0 52.5 -22t21.5 -52q0 -31 -21.5 -53t-52.5 -22q-34 0 -55 23q-23 -23 -54 -23q-34 0 -56 24q-21 -24 -54 -24q-34 0 -55 24q-22 -24 -55 -24q-31 0 -52.5 22t-21.5 53q0 33 26 56 q-26 21 -26 57q0 34 25 56q-25 22 -25 56q0 33 25 56q-25 23 -25 57q0 33 25 56q-25 23 -25 57t25 56q-25 20 -25 56q0 31 21.5 53t52.5 22q33 0 55 -24q21 24 55 24q33 0 54 -24q22 24 56 24q32 0 54 -24q21 24 55 24q31 0 52.5 -22t21.5 -53t-21.5 -52.5t-52.5 -21.5 q-35 0 -55 23q-21 -23 -54 -23q-34 0 -56 24q-21 -24 -54 -24zM204 922q25 0 43 -18.5t18 -43.5v-6q12 5 24 5q7 0 21 -4v5q0 25 18.5 43.5t44.5 18.5q25 0 42.5 -18.5t17.5 -43.5q0 -26 -17.5 -44t-42.5 -18q-15 0 -24 4v-5q0 -26 -17.5 -44t-42.5 -18q-26 0 -44.5 18 t-18.5 44v5q-9 -4 -22 -4q-26 0 -44 18t-18 44q0 25 18.5 43.5t43.5 18.5z" />
<glyph unicode="&#x11b;" horiz-adv-x="519" d="M381 146q29 0 49.5 -20.5t20.5 -49.5t-20.5 -50t-49.5 -21q-28 0 -49 19q-20 -31 -59 -31q-22 0 -39.5 12t-25.5 32q-17 -11 -38 -11q-29 0 -49.5 20.5t-20.5 49.5q0 12 2 18q-26 2 -44.5 22t-18.5 48q0 38 32 60q-32 20 -32 59q0 28 19 48.5t45 22.5q-3 10 -3 23 q0 29 20.5 49.5t49.5 20.5q18 0 36 -10q8 19 25.5 30.5t39.5 11.5q20 0 37.5 -11t25.5 -29q16 8 34 8q29 0 49.5 -20.5t20.5 -49.5v-1q20 -5 34 -21.5t14 -38.5q0 -23 -16 -41q24 -21 24 -53q0 -28 -20 -48.5t-48 -20.5q-33 0 -54 27q-18 -29 -52 -29q-31 0 -49 24 q-19 -24 -49 -24q-24 0 -42 16v-3q0 -10 -3 -19q41 -3 58 -43q17 11 38 11q27 0 49 -20q20 33 59 33zM184 714q25 0 43 -18.5t18 -43.5v-6q12 5 24 5q7 0 21 -4v5q0 25 18.5 43.5t44.5 18.5q25 0 42.5 -18.5t17.5 -43.5q0 -26 -17.5 -44t-42.5 -18q-15 0 -24 4v-5 q0 -26 -17.5 -44t-42.5 -18q-26 0 -44.5 18t-18.5 44v5q-9 -4 -22 -4q-26 0 -44 18t-18 44q0 25 18.5 43.5t43.5 18.5zM320 301q29 0 48 -22q3 6 13 16q-11 14 -14 32q-45 0 -63 40q-16 -8 -33 -8q-21 0 -37 10q-16 -39 -58 -42q4 -16 4 -24q0 -13 -4 -22q20 20 46 20 q30 0 49 -24q18 24 49 24z" />
<glyph unicode="&#x11e;" horiz-adv-x="711" d="M493 413q32 0 55 -25q22 25 54 25q29 0 50.5 -21t21.5 -51q0 -33 -26 -54q26 -21 26 -55q0 -35 -28 -56q24 -21 24 -53q0 -29 -21.5 -50t-50.5 -21q-12 0 -22 3q-6 -26 -26.5 -42t-46.5 -16q-25 0 -44 14q-23 -30 -60 -30q-43 0 -64 36q-19 -15 -45 -15q-25 0 -45.5 16 t-26.5 41q-6 -2 -17 -2q-31 0 -53 21.5t-22 52.5v10q-28 4 -46.5 25.5t-18.5 49.5q0 21 9 37q-40 23 -40 67q0 36 28 59q-18 21 -18 49q0 26 15.5 46t39.5 26q-5 15 -5 27q0 31 22 53t53 22h5q1 30 22.5 51.5t52.5 21.5q16 0 32 -8q8 21 27 34t43 13q32 0 55 -25 q21 23 54 23q22 0 40.5 -12.5t27.5 -33.5q16 8 34 8q31 0 52.5 -22t21.5 -53t-21.5 -53t-52.5 -22q-51 0 -70 46q-14 -7 -32 -7q-34 0 -56 24q-20 -22 -53 -22q-20 0 -34 7q-8 -21 -27 -34t-41 -13h-7q-1 -25 -15.5 -44t-37.5 -25q5 -15 5 -28q0 -35 -29 -59q18 -21 18 -49 q0 -19 -10 -37q41 -21 41 -67q0 -7 -1 -11q23 -2 41 -17.5t24 -38.5q10 2 16 2q40 0 64 -36q20 15 45 15q24 0 43 -14q23 30 61 30q14 0 25 -4q6 22 25 38q-23 21 -23 52q0 33 25 55l-7 7q-22 -24 -55 -24t-54 24q-22 -24 -54 -24q-29 0 -50.5 21t-21.5 50q0 30 21.5 51 t50.5 21q31 0 54 -25q22 25 54 25zM436 736q-23 0 -39 16q-18 -16 -41 -16t-40 16.5t-18 39.5q-23 2 -38 18.5t-15 40.5t17 41t41 17q23 0 40 -16t18 -38q20 -1 36 -16q14 14 36 16q2 23 18.5 38.5t39.5 15.5q24 0 41 -17t17 -41t-15 -40.5t-38 -18.5q-1 -23 -19 -39.5 t-41 -16.5z" />
<glyph unicode="&#x11f;" horiz-adv-x="567" d="M146 -198q-31 0 -52.5 22t-21.5 53t21.5 53t52.5 22q25 0 44.5 -15t26.5 -39q13 7 32 7q26 0 46 -17q22 35 64 35h2v8q0 38 29 61l-8 9q-12 -2 -17 -2q-25 0 -46 16q-22 -27 -55 -27q-44 0 -64 39q-15 -9 -35 -9q-30 0 -50.5 21t-20.5 51q0 8 1 12q-26 3 -44.5 23.5 t-18.5 48.5q0 31 22 50q-29 21 -29 58q0 22 13 40.5t34 26.5q-6 13 -6 30q0 30 20.5 50.5t49.5 20.5q16 0 29 -6q5 24 24 39.5t44 15.5q38 0 60 -32q22 25 55 25q40 0 60 -35q14 6 29 6q31 0 53 -22t22 -53q0 -34 -24 -56q29 -22 29 -58t-27 -58q27 -22 27 -56 q0 -36 -27 -58q27 -21 27 -57q0 -37 -30 -59q23 -23 23 -55q0 -31 -22 -52.5t-53 -21.5h-3q1 -2 1 -8q0 -31 -21.5 -53t-52.5 -22q-28 0 -48 17q-22 -35 -62 -35q-26 0 -45.5 15t-26.5 38q-17 -7 -31 -7zM233 357q-16 0 -28 6q-8 -38 -44 -51q7 -16 7 -30q0 -30 -22 -52 q29 -19 29 -56q0 -4 -2 -14q39 -5 55 -39q18 10 36 10q25 0 44 -16q22 27 57 27h5q-2 6 -2 18q0 35 26 56q-26 23 -26 58q0 33 23 54q-13 12 -20 25q-9 -4 -23 -4q-40 0 -60 33q-20 -25 -55 -25zM335 543q-23 0 -39 16q-18 -16 -41 -16t-40 16.5t-18 39.5q-23 2 -38 18.5 t-15 40.5t17 41t41 17q23 0 40 -16t18 -38q20 -1 36 -16q14 14 36 16q2 23 18.5 38.5t39.5 15.5q24 0 41 -17t17 -41t-15 -40.5t-38 -18.5q-1 -23 -19 -39.5t-41 -16.5z" />
<glyph unicode="&#x120;" horiz-adv-x="711" d="M493 413q32 0 55 -25q22 25 54 25q29 0 50.5 -21t21.5 -51q0 -33 -26 -54q26 -21 26 -55q0 -35 -28 -56q24 -21 24 -53q0 -29 -21.5 -50t-50.5 -21q-12 0 -22 3q-6 -26 -26.5 -42t-46.5 -16q-25 0 -44 14q-23 -30 -60 -30q-43 0 -64 36q-19 -15 -45 -15q-25 0 -45.5 16 t-26.5 41q-6 -2 -17 -2q-31 0 -53 21.5t-22 52.5v10q-28 4 -46.5 25.5t-18.5 49.5q0 21 9 37q-40 23 -40 67q0 36 28 59q-18 21 -18 49q0 26 15.5 46t39.5 26q-5 15 -5 27q0 31 22 53t53 22h5q1 30 22.5 51.5t52.5 21.5q16 0 32 -8q8 21 27 34t43 13q32 0 55 -25 q21 23 54 23q22 0 40.5 -12.5t27.5 -33.5q16 8 34 8q31 0 52.5 -22t21.5 -53t-21.5 -53t-52.5 -22q-51 0 -70 46q-14 -7 -32 -7q-34 0 -56 24q-20 -22 -53 -22q-20 0 -34 7q-8 -21 -27 -34t-41 -13h-7q-1 -25 -15.5 -44t-37.5 -25q5 -15 5 -28q0 -35 -29 -59q18 -21 18 -49 q0 -19 -10 -37q41 -21 41 -67q0 -7 -1 -11q23 -2 41 -17.5t24 -38.5q10 2 16 2q40 0 64 -36q20 15 45 15q24 0 43 -14q23 30 61 30q14 0 25 -4q6 22 25 38q-23 21 -23 52q0 33 25 55l-7 7q-22 -24 -55 -24t-54 24q-22 -24 -54 -24q-29 0 -50.5 21t-21.5 50q0 30 21.5 51 t50.5 21q31 0 54 -25q22 25 54 25zM402 894q29 0 49.5 -21t20.5 -50t-20.5 -50t-49.5 -21q-30 0 -50.5 21t-20.5 50t20.5 50t50.5 21z" />
<glyph unicode="&#x121;" horiz-adv-x="567" d="M146 -198q-31 0 -52.5 22t-21.5 53t21.5 53t52.5 22q25 0 44.5 -15t26.5 -39q13 7 32 7q26 0 46 -17q22 35 64 35h2v8q0 38 29 61l-8 9q-12 -2 -17 -2q-25 0 -46 16q-22 -27 -55 -27q-44 0 -64 39q-15 -9 -35 -9q-30 0 -50.5 21t-20.5 51q0 8 1 12q-26 3 -44.5 23.5 t-18.5 48.5q0 31 22 50q-29 21 -29 58q0 22 13 40.5t34 26.5q-6 13 -6 30q0 30 20.5 50.5t49.5 20.5q16 0 29 -6q5 24 24 39.5t44 15.5q38 0 60 -32q22 25 55 25q40 0 60 -35q14 6 29 6q31 0 53 -22t22 -53q0 -34 -24 -56q29 -22 29 -58t-27 -58q27 -22 27 -56 q0 -36 -27 -58q27 -21 27 -57q0 -37 -30 -59q23 -23 23 -55q0 -31 -22 -52.5t-53 -21.5h-3q1 -2 1 -8q0 -31 -21.5 -53t-52.5 -22q-28 0 -48 17q-22 -35 -62 -35q-26 0 -45.5 15t-26.5 38q-17 -7 -31 -7zM233 357q-16 0 -28 6q-8 -38 -44 -51q7 -16 7 -30q0 -30 -22 -52 q29 -19 29 -56q0 -4 -2 -14q39 -5 55 -39q18 10 36 10q25 0 44 -16q22 27 57 27h5q-2 6 -2 18q0 35 26 56q-26 23 -26 58q0 33 23 54q-13 12 -20 25q-9 -4 -23 -4q-40 0 -60 33q-20 -25 -55 -25zM290 695q29 0 49.5 -21t20.5 -50t-20.5 -50t-49.5 -21q-30 0 -50.5 21 t-20.5 50t20.5 50t50.5 21z" />
<glyph unicode="&#x122;" horiz-adv-x="711" d="M493 413q32 0 55 -25q22 25 54 25q29 0 50.5 -21t21.5 -51q0 -33 -26 -54q26 -21 26 -55q0 -35 -28 -56q24 -21 24 -53q0 -29 -21.5 -50t-50.5 -21q-12 0 -22 3q-6 -26 -26.5 -42t-46.5 -16q-25 0 -44 14q-23 -30 -60 -30q-43 0 -64 36q-19 -15 -45 -15q-25 0 -45.5 16 t-26.5 41q-6 -2 -17 -2q-31 0 -53 21.5t-22 52.5v10q-28 4 -46.5 25.5t-18.5 49.5q0 21 9 37q-40 23 -40 67q0 36 28 59q-18 21 -18 49q0 26 15.5 46t39.5 26q-5 15 -5 27q0 31 22 53t53 22h5q1 30 22.5 51.5t52.5 21.5q16 0 32 -8q8 21 27 34t43 13q32 0 55 -25 q21 23 54 23q22 0 40.5 -12.5t27.5 -33.5q16 8 34 8q31 0 52.5 -22t21.5 -53t-21.5 -53t-52.5 -22q-51 0 -70 46q-14 -7 -32 -7q-34 0 -56 24q-20 -22 -53 -22q-20 0 -34 7q-8 -21 -27 -34t-41 -13h-7q-1 -25 -15.5 -44t-37.5 -25q5 -15 5 -28q0 -35 -29 -59q18 -21 18 -49 q0 -19 -10 -37q41 -21 41 -67q0 -7 -1 -11q23 -2 41 -17.5t24 -38.5q10 2 16 2q40 0 64 -36q20 15 45 15q24 0 43 -14q23 30 61 30q14 0 25 -4q6 22 25 38q-23 21 -23 52q0 33 25 55l-7 7q-22 -24 -55 -24t-54 24q-22 -24 -54 -24q-29 0 -50.5 21t-21.5 50q0 30 21.5 51 t50.5 21q31 0 54 -25q22 25 54 25zM321 -237q-26 0 -45 19t-19 46q0 28 19 47t45 19q8 0 12 -1q-1 4 -1 11q0 27 19.5 46.5t45.5 19.5q27 0 46.5 -19.5t19.5 -46.5t-19.5 -46.5t-46.5 -19.5q-2 0 -6 0.5t-5 0.5q0 -1 0.5 -5t0.5 -6q0 -27 -19 -46t-47 -19z" />
<glyph unicode="&#x123;" horiz-adv-x="567" d="M146 -198q-31 0 -52.5 22t-21.5 53t21.5 53t52.5 22q25 0 44.5 -15t26.5 -39q13 7 32 7q26 0 46 -17q22 35 64 35h2v8q0 38 29 61l-8 9q-12 -2 -17 -2q-25 0 -46 16q-22 -27 -55 -27q-44 0 -64 39q-15 -9 -35 -9q-30 0 -50.5 21t-20.5 51q0 8 1 12q-26 3 -44.5 23.5 t-18.5 48.5q0 31 22 50q-29 21 -29 58q0 22 13 40.5t34 26.5q-6 13 -6 30q0 30 20.5 50.5t49.5 20.5q16 0 29 -6q5 24 24 39.5t44 15.5q38 0 60 -32q22 25 55 25q40 0 60 -35q14 6 29 6q31 0 53 -22t22 -53q0 -34 -24 -56q29 -22 29 -58t-27 -58q27 -22 27 -56 q0 -36 -27 -58q27 -21 27 -57q0 -37 -30 -59q23 -23 23 -55q0 -31 -22 -52.5t-53 -21.5h-3q1 -2 1 -8q0 -31 -21.5 -53t-52.5 -22q-28 0 -48 17q-22 -35 -62 -35q-26 0 -45.5 15t-26.5 38q-17 -7 -31 -7zM233 357q-16 0 -28 6q-8 -38 -44 -51q7 -16 7 -30q0 -30 -22 -52 q29 -19 29 -56q0 -4 -2 -14q39 -5 55 -39q18 10 36 10q25 0 44 -16q22 27 57 27h5q-2 6 -2 18q0 35 26 56q-26 23 -26 58q0 33 23 54q-13 12 -20 25q-9 -4 -23 -4q-40 0 -60 33q-20 -25 -55 -25zM277 512q-26 0 -45 19t-19 46q0 28 19 47t45 19q2 0 6 -0.5t6 -0.5 q-1 3 -1 11q0 27 19.5 46.5t45.5 19.5q27 0 46.5 -19.5t19.5 -46.5t-19.5 -46.5t-46.5 -19.5q-8 0 -11 1q0 -2 0.5 -6t0.5 -5q0 -27 -19 -46t-47 -19z" />
<glyph unicode="&#x12a;" horiz-adv-x="434" d="M327 557q-34 0 -56 24l-5 -6q25 -23 25 -56q0 -34 -26 -57q26 -23 26 -56q0 -34 -26 -57q26 -23 26 -56t-25 -56q25 -23 25 -56q0 -36 -26 -57l6 -7q23 25 56 25q31 0 52.5 -22t21.5 -52q0 -31 -21.5 -53t-52.5 -22q-34 0 -56 24q-21 -24 -54 -24t-55 24q-22 -24 -55 -24 q-31 0 -52.5 22t-21.5 53q0 30 21.5 52t52.5 22t55 -24l6 6q-26 21 -26 57q0 34 25 56q-25 22 -25 56q0 33 25 56q-25 23 -25 57q0 33 25 56q-25 23 -25 57q0 33 25 56l-5 5q-23 -23 -55 -23q-31 0 -52.5 21.5t-21.5 52.5t21.5 53t52.5 22q33 0 55 -24q21 24 55 24 q33 0 54 -24q22 24 56 24q31 0 52.5 -22t21.5 -53t-21.5 -52.5t-52.5 -21.5zM121 733q-25 0 -43.5 18.5t-18.5 43.5t18.5 43.5t43.5 18.5q29 0 47 -23q20 23 50 23q28 0 47 -24q19 24 50 24q25 0 42.5 -18t17.5 -44q0 -25 -17.5 -43.5t-42.5 -18.5q-31 0 -50 24 q-19 -24 -47 -24q-31 0 -49 23q-18 -23 -48 -23z" />
<glyph unicode="&#x12b;" horiz-adv-x="250" d="M124 499q32 0 53.5 -21.5t21.5 -53.5q0 -36 -29 -60q29 -24 29 -58q0 -36 -29 -59q29 -23 29 -58q0 -38 -30 -60q30 -23 30 -58q0 -31 -21.5 -53t-53.5 -22q-31 0 -53 22t-22 53q0 35 30 58q-30 22 -30 60q0 35 29 58q-29 23 -29 59q0 35 29 58q-29 23 -29 60q0 31 22 53 t53 22zM29 577q-25 0 -43.5 18.5t-18.5 43.5t18.5 43.5t43.5 18.5q29 0 47 -23q20 23 50 23q28 0 47 -24q19 24 50 24q25 0 42.5 -18t17.5 -44q0 -25 -17.5 -43.5t-42.5 -18.5q-31 0 -50 24q-19 -24 -47 -24q-30 0 -50 23q-18 -23 -47 -23z" />
<glyph unicode="&#x12e;" horiz-adv-x="434" d="M327 557q-34 0 -56 24l-5 -6q25 -23 25 -56q0 -34 -26 -57q26 -23 26 -56q0 -34 -26 -57q26 -23 26 -56t-25 -56q25 -23 25 -56q0 -36 -26 -57l6 -7q23 25 56 25q31 0 52.5 -22t21.5 -52q0 -31 -21.5 -53t-52.5 -22h-7q1 -2 1 -8q0 -33 -27 -53q14 -15 17 -37q11 3 21 3 q26 0 45.5 -19t19.5 -47q0 -27 -19.5 -46t-45.5 -19q-24 0 -43 16t-23 40q-9 -3 -19 -3q-27 0 -46.5 19.5t-19.5 46.5q0 34 28 54q-18 20 -18 45q0 2 0.5 6t0.5 6q-18 7 -30 20q-22 -24 -55 -24q-31 0 -52.5 22t-21.5 53q0 30 21.5 52t52.5 22t55 -24l6 6q-26 21 -26 57 q0 34 25 56q-25 22 -25 56q0 33 25 56q-25 23 -25 57q0 33 25 56q-25 23 -25 57q0 33 25 56l-5 5q-23 -23 -55 -23q-31 0 -52.5 21.5t-21.5 52.5t21.5 53t52.5 22q33 0 55 -24q21 24 55 24q33 0 54 -24q22 24 56 24q31 0 52.5 -22t21.5 -53t-21.5 -52.5t-52.5 -21.5z" />
<glyph unicode="&#x12f;" horiz-adv-x="250" d="M46 -180q-27 0 -46.5 19.5t-19.5 46.5q0 34 28 54q-18 20 -18 45q0 26 18 45.5t44 20.5q-2 5 -2 17q0 36 30 59q-30 22 -30 60q0 36 29 59q-29 23 -29 59t29 59q-29 23 -29 60q0 31 22 53t53 22t53 -21.5t22 -53.5q0 -36 -29 -60q29 -24 29 -59q0 -36 -29 -59 q29 -23 29 -59q0 -38 -30 -60q30 -23 30 -59q0 -32 -22 -53.5t-53 -21.5h-6q1 -2 1 -8q0 -33 -27 -53q14 -15 17 -37q10 3 21 3q27 0 46 -19t19 -47q0 -27 -19.5 -46t-45.5 -19q-24 0 -43 16t-23 40q-9 -3 -19 -3zM125 706q31 0 53 -22t22 -53t-22 -52.5t-53 -21.5t-53 21.5 t-22 52.5t22 53t53 22z" />
<glyph unicode="&#x130;" horiz-adv-x="434" d="M327 557q-34 0 -56 24l-5 -6q25 -23 25 -56q0 -34 -26 -57q26 -23 26 -56q0 -34 -26 -57q26 -23 26 -56t-25 -56q25 -23 25 -56q0 -36 -26 -57l6 -7q23 25 56 25q31 0 52.5 -22t21.5 -52q0 -31 -21.5 -53t-52.5 -22q-34 0 -56 24q-21 -24 -54 -24t-55 24q-22 -24 -55 -24 q-31 0 -52.5 22t-21.5 53q0 30 21.5 52t52.5 22t55 -24l6 6q-26 21 -26 57q0 34 25 56q-25 22 -25 56q0 33 25 56q-25 23 -25 57q0 33 25 56q-25 23 -25 57q0 33 25 56l-5 5q-23 -23 -55 -23q-31 0 -52.5 21.5t-21.5 52.5t21.5 53t52.5 22q33 0 55 -24q21 24 55 24 q33 0 54 -24q22 24 56 24q31 0 52.5 -22t21.5 -53t-21.5 -52.5t-52.5 -21.5zM215 894q29 0 49.5 -21t20.5 -50t-20.5 -50t-49.5 -21q-30 0 -50.5 21t-20.5 50t20.5 50t50.5 21z" />
<glyph unicode="&#x131;" horiz-adv-x="250" d="M125 499q31 0 53 -21.5t22 -53.5q0 -36 -29 -60q29 -24 29 -58q0 -36 -29 -59q29 -23 29 -58q0 -38 -30 -60q30 -23 30 -58q0 -31 -22 -53t-53 -22t-53 22t-22 53q0 35 30 58q-30 22 -30 60q0 35 29 58q-29 23 -29 59q0 35 29 58q-29 23 -29 60q0 31 22 53t53 22z" />
<glyph unicode="&#x136;" horiz-adv-x="632" d="M448 217q31 0 52.5 -22t21.5 -53h3q31 0 52.5 -22t21.5 -52q0 -31 -21.5 -53t-52.5 -22t-52.5 22t-21.5 53h-3q-31 0 -53 21.5t-22 52.5h-2q-31 0 -53 22t-22 53h-5q-26 0 -45.5 16.5t-24.5 40.5q-16 4 -23 8q-3 -27 -24 -46q25 -23 25 -56q0 -34 -26 -57q26 -21 26 -55 q0 -32 -21.5 -53.5t-53.5 -21.5q-31 0 -52.5 22t-21.5 53q0 35 25 55q-25 22 -25 57q0 34 25 56q-25 22 -25 56q0 33 25 56q-25 23 -25 57q0 33 25 56q-25 23 -25 57q0 33 25 56q-25 22 -25 57q0 31 21.5 53t52.5 22q32 0 53.5 -22t21.5 -53q0 -35 -26 -56q26 -23 26 -57 t-26 -57q26 -23 26 -56v-1q10 7 20 8q1 28 22 47t49 19h6q2 29 23 49.5t52 20.5h2v4q0 31 22 52.5t53 21.5h3v5q0 31 21.5 53t52.5 22t52.5 -22t21.5 -53t-21.5 -52.5t-52.5 -21.5h-3v-5q0 -31 -21.5 -52.5t-52.5 -21.5h-2v-4q0 -31 -22 -53t-53 -22h-11q-3 -34 -30 -51 q30 -20 32 -57q3 1 9 1q31 0 53 -22t22 -53h2zM252 -237q-26 0 -45 19t-19 46q0 28 19 47t45 19q8 0 12 -1q-1 4 -1 11q0 27 19.5 46.5t45.5 19.5q27 0 46.5 -19.5t19.5 -46.5t-19.5 -46.5t-46.5 -19.5q-2 0 -6 0.5t-5 0.5q0 -1 0.5 -5t0.5 -6q0 -27 -19 -46t-47 -19z" />
<glyph unicode="&#x137;" horiz-adv-x="502" d="M120 729q31 0 53 -21.5t22 -52.5q0 -38 -28 -59q28 -23 28 -59t-29 -59q29 -21 29 -59q0 -36 -28 -59q26 -20 28 -57q19 16 46 16h3q-1 4 -1 12q0 31 22 53t53 22q6 0 16 -2q-2 12 -2 20q0 31 22 53t53 22t53 -22t22 -53t-22 -53t-53 -22q-5 0 -17 2q3 -11 3 -20 q0 -31 -22 -52.5t-53 -21.5h-3q0 -2 0.5 -6.5t0.5 -6.5t-0.5 -6t-0.5 -6h3q31 0 53 -21.5t22 -52.5q0 -6 -2 -18q10 2 16 2q31 0 53 -21.5t22 -52.5t-22 -53t-53 -22t-53 22t-22 53q0 6 2 16q-5 -1 -16 -1q-31 0 -53 22t-22 53q0 8 1 12h-3q-28 0 -46 15q0 -38 -28 -59 q28 -23 28 -58q0 -32 -21.5 -53.5t-53.5 -21.5q-31 0 -53 22t-22 53q0 35 28 58q-28 21 -28 59q0 35 28 58q-28 23 -28 59q0 35 28 58q-28 23 -28 59q0 38 29 59q-29 23 -29 59t29 59q-29 21 -29 59q0 31 22 52.5t53 21.5zM207 -234q-26 0 -45 19t-19 46q0 28 19 47t45 19 q8 0 12 -1q-1 4 -1 11q0 27 19.5 46.5t45.5 19.5q27 0 46.5 -19.5t19.5 -46.5t-19.5 -46.5t-46.5 -19.5q-2 0 -6 0.5t-5 0.5q0 -1 0.5 -5t0.5 -6q0 -27 -19 -46t-47 -19z" />
<glyph unicode="&#x139;" horiz-adv-x="537" d="M124 706q32 0 53.5 -22t21.5 -53q0 -33 -25 -56q25 -23 25 -56q0 -34 -26 -57q26 -23 26 -56q0 -34 -26 -57q26 -23 26 -56t-25 -56q25 -23 25 -56q0 -34 -26 -57q2 -1 6 -5q22 24 55 24q32 0 54 -25q23 25 56 25q30 0 54 -24q22 24 55 24q31 0 52.5 -22t21.5 -52 q0 -31 -21.5 -53t-52.5 -22q-34 0 -55 23q-23 -23 -54 -23q-34 0 -56 24q-21 -24 -54 -24q-34 0 -55 24q-22 -24 -55 -24q-31 0 -52.5 22t-21.5 53q0 35 25 55q-25 22 -25 57q0 34 25 56q-25 22 -25 56q0 33 25 56q-25 23 -25 57q0 33 25 56q-25 23 -25 57t25 56 q-25 20 -25 56q0 31 21.5 53t52.5 22zM122 731q-26 0 -45.5 19.5t-19.5 46.5t19.5 46.5t45.5 19.5q16 0 30 -8q6 20 23.5 33t38.5 13q27 0 46.5 -19t19.5 -47q0 -27 -19.5 -46t-46.5 -19q-16 0 -29 7q-7 -20 -24 -33t-39 -13z" />
<glyph unicode="&#x13a;" horiz-adv-x="250" d="M125 729q31 0 53 -21.5t22 -52.5q0 -38 -28 -59q28 -23 28 -59t-29 -59q29 -21 29 -59q0 -36 -28 -59q28 -23 28 -58q0 -36 -28 -59q28 -23 28 -58q0 -38 -28 -59q28 -23 28 -58q0 -32 -22 -53.5t-53 -21.5t-53 22t-22 53q0 35 28 58q-28 21 -28 59q0 35 28 58 q-28 23 -28 59q0 35 28 58q-28 23 -28 59q0 38 29 59q-29 23 -29 59t29 59q-29 21 -29 59q0 31 22 52.5t53 21.5zM121 749q-26 0 -45.5 19.5t-19.5 46.5t19.5 46.5t45.5 19.5q16 0 30 -8q6 20 23.5 33t38.5 13q27 0 46.5 -19t19.5 -47q0 -27 -19.5 -46t-46.5 -19 q-16 0 -29 7q-7 -20 -24 -33t-39 -13z" />
<glyph unicode="&#x13b;" horiz-adv-x="537" d="M124 706q32 0 53.5 -22t21.5 -53q0 -33 -25 -56q25 -23 25 -56q0 -34 -26 -57q26 -23 26 -56q0 -34 -26 -57q26 -23 26 -56t-25 -56q25 -23 25 -56q0 -34 -26 -57q2 -1 6 -5q22 24 55 24q32 0 54 -25q23 25 56 25q30 0 54 -24q22 24 55 24q31 0 52.5 -22t21.5 -52 q0 -31 -21.5 -53t-52.5 -22q-34 0 -55 23q-23 -23 -54 -23q-34 0 -56 24q-21 -24 -54 -24q-34 0 -55 24q-22 -24 -55 -24q-31 0 -52.5 22t-21.5 53q0 35 25 55q-25 22 -25 57q0 34 25 56q-25 22 -25 56q0 33 25 56q-25 23 -25 57q0 33 25 56q-25 23 -25 57t25 56 q-25 20 -25 56q0 31 21.5 53t52.5 22zM233 -237q-26 0 -45 19t-19 46q0 28 19 47t45 19q8 0 12 -1q-1 4 -1 11q0 27 19.5 46.5t45.5 19.5q27 0 46.5 -19.5t19.5 -46.5t-19.5 -46.5t-46.5 -19.5q-2 0 -6 0.5t-5 0.5q0 -1 0.5 -5t0.5 -6q0 -27 -19 -46t-47 -19z" />
<glyph unicode="&#x13c;" horiz-adv-x="250" d="M125 729q31 0 53 -21.5t22 -52.5q0 -38 -28 -59q28 -23 28 -59t-29 -59q29 -21 29 -59q0 -36 -28 -59q28 -23 28 -58q0 -36 -28 -59q28 -23 28 -58q0 -38 -28 -59q28 -23 28 -58q0 -32 -22 -53.5t-53 -21.5t-53 22t-22 53q0 35 28 58q-28 21 -28 59q0 35 28 58 q-28 23 -28 59q0 35 28 58q-28 23 -28 59q0 38 29 59q-29 23 -29 59t29 59q-29 21 -29 59q0 31 22 52.5t53 21.5zM50 -237q-26 0 -45 19t-19 46q0 28 19 47t45 19q8 0 12 -1q-1 4 -1 11q0 27 19.5 46.5t45.5 19.5q27 0 46.5 -19.5t19.5 -46.5t-19.5 -46.5t-46.5 -19.5 q-2 0 -6 0.5t-5 0.5q0 -1 0.5 -5t0.5 -6q0 -27 -19 -46t-47 -19z" />
<glyph unicode="&#x13d;" horiz-adv-x="609" d="M196 706q32 0 53.5 -22t21.5 -53q0 -33 -25 -56q25 -23 25 -56q0 -34 -26 -57q26 -23 26 -56q0 -34 -26 -57q26 -23 26 -56t-25 -56q25 -23 25 -56q0 -34 -26 -57q2 -1 6 -5q22 24 55 24q32 0 54 -25q23 25 56 25q30 0 54 -24q22 24 55 24q31 0 52.5 -22t21.5 -52 q0 -31 -21.5 -53t-52.5 -22q-34 0 -55 24q-22 -24 -54 -24q-34 0 -56 24q-21 -24 -54 -24q-34 0 -55 24q-22 -24 -55 -24q-31 0 -52.5 22t-21.5 53q0 35 25 55q-25 22 -25 57q0 34 25 56q-25 22 -25 56q0 33 25 56q-25 23 -25 57q0 33 25 56q-25 23 -25 57t25 56 q-25 20 -25 56q0 31 21.5 53t52.5 22zM112 920q25 0 43 -18.5t18 -43.5v-6q12 5 24 5q7 0 21 -4v5q0 25 18.5 43.5t44.5 18.5q25 0 42.5 -18.5t17.5 -43.5q0 -26 -17.5 -44t-42.5 -18q-15 0 -24 4v-5q0 -26 -17.5 -44t-42.5 -18q-26 0 -44.5 18t-18.5 44v5q-9 -4 -22 -4 q-26 0 -44 18t-18 44q0 25 18.5 43.5t43.5 18.5z" />
<glyph unicode="&#x13e;" horiz-adv-x="241" d="M120 729q31 0 53 -21.5t22 -52.5q0 -38 -28 -59q28 -23 28 -59t-29 -59q29 -21 29 -59q0 -36 -28 -59q28 -23 28 -58q0 -36 -28 -59q28 -23 28 -58q0 -38 -28 -59q28 -23 28 -58q0 -32 -21.5 -53.5t-53.5 -21.5q-31 0 -53 22t-22 53q0 35 28 58q-28 21 -28 59q0 35 28 58 q-28 23 -28 59q0 35 28 58q-28 23 -28 59q0 38 29 59q-29 23 -29 59t29 59q-29 21 -29 59q0 31 22 52.5t53 21.5zM332 731q30 0 50.5 -20.5t20.5 -50.5q0 -48 -44 -65q11 -17 11 -39q0 -29 -20.5 -49.5t-50.5 -20.5q-29 0 -49.5 20.5t-20.5 49.5q0 47 44 66q-11 17 -11 38 q0 30 20.5 50.5t49.5 20.5z" />
<glyph unicode="&#x141;" horiz-adv-x="561" d="M148 706q32 0 53.5 -22t21.5 -53q0 -33 -25 -56q25 -23 25 -56q0 -34 -26 -57l3 -2q23 21 52 21q31 0 53 -22t22 -53t-22 -53t-53 -22q-29 0 -52 21l-3 -3q26 -23 26 -56t-25 -56q25 -23 25 -56q0 -34 -26 -57q2 -1 6 -5q22 24 55 24q32 0 54 -25q23 25 56 25 q30 0 54 -24q22 24 55 24q31 0 52.5 -22t21.5 -52q0 -31 -21.5 -53t-52.5 -22q-34 0 -55 24q-22 -24 -54 -24q-34 0 -56 24q-21 -24 -54 -24q-34 0 -55 24q-22 -24 -55 -24q-31 0 -52.5 22t-21.5 53q0 35 25 55q-25 22 -25 57q0 34 25 56q-3 1 -4 4q-22 -22 -53 -22 t-52.5 22t-21.5 53t21.5 53t52.5 22t54 -23l3 3q-25 23 -25 57q0 33 25 56q-25 23 -25 57t25 56q-25 20 -25 56q0 31 21.5 53t52.5 22z" />
<glyph unicode="&#x142;" horiz-adv-x="310" d="M256 470q29 0 49 -20t20 -49t-20 -49t-49 -20q-21 0 -38 11q13 -20 13 -41q0 -36 -28 -59q28 -23 28 -58q0 -38 -28 -59q28 -23 28 -58q0 -32 -21.5 -53.5t-53.5 -21.5q-31 0 -52.5 22t-21.5 53q0 35 28 58q-28 21 -28 59q0 35 28 58q-13 12 -20 25q-17 -11 -37 -11 q-28 0 -48 20t-20 49t20 49t48 20q20 0 37 -11q-8 15 -8 35q0 38 28 59q-28 23 -28 59t28 59q-28 21 -28 59q0 31 21.5 52.5t52.5 21.5t53 -21.5t22 -52.5q0 -38 -28 -59q28 -23 28 -59t-29 -59q12 -8 17 -19q17 11 37 11z" />
<glyph unicode="&#x143;" horiz-adv-x="711" d="M200 473q-14 0 -29 5l-5 -4q32 -24 32 -60q0 -37 -28 -58q28 -23 28 -58t-28 -58q28 -21 28 -57q0 -37 -28 -58q28 -23 28 -58q0 -31 -22 -52.5t-52 -21.5q-31 0 -52.5 21.5t-21.5 52.5q0 36 27 58q-27 21 -27 58q0 36 27 57q-27 22 -27 58t27 58q-27 21 -27 58 q0 35 28 58q-28 21 -28 57q0 34 26 55q-20 20 -20 50t21 51t51 21q29 0 50.5 -21t21.5 -51q0 -5 -2 -15h2q30 0 51.5 -21t21.5 -52q0 -12 -5 -25h7q31 0 52.5 -21.5t21.5 -52.5q0 -13 -5 -26h7q31 0 52.5 -21.5t21.5 -52.5q0 -13 -5 -26h7q31 0 52.5 -21.5t21.5 -52.5 q0 -13 -5 -26h6q14 0 32 -7l10 10q-31 23 -31 61q0 36 27 57q-27 22 -27 58t27 58q-27 22 -27 57q0 37 28 58q-28 23 -28 59q0 31 21.5 52.5t52.5 21.5t52.5 -21.5t21.5 -52.5q0 -36 -28 -59q28 -21 28 -58q0 -35 -28 -58q28 -21 28 -57q0 -34 -27 -58q27 -22 27 -57 q0 -36 -28 -59q28 -21 28 -56t-26 -56q20 -22 20 -49q0 -30 -21 -51t-51 -21t-51 21t-21 51q0 8 1 11h-10q-30 0 -51.5 21t-21.5 52q0 15 4 24h-6q-31 0 -52.5 22t-21.5 52q0 15 4 26h-6q-31 0 -52.5 22t-21.5 52q0 15 4 26h-6q-31 0 -52.5 22t-21.5 52q0 15 4 26h-5z M355 728q-26 0 -45.5 19.5t-19.5 46.5t19.5 46.5t45.5 19.5q16 0 30 -8q6 20 23.5 33t38.5 13q27 0 46.5 -19t19.5 -47q0 -27 -19.5 -46t-46.5 -19q-16 0 -29 7q-7 -20 -24 -33t-39 -13z" />
<glyph unicode="&#x144;" d="M408 462q31 0 53 -22.5t22 -52.5q0 -16 -9 -36q41 -21 41 -66q0 -33 -23 -54q23 -23 23 -54q0 -34 -24 -55q24 -24 24 -54q0 -31 -22 -53t-53 -22t-52.5 22t-21.5 53q0 33 23 54q-23 20 -23 55q0 32 22 54q-22 20 -22 54q0 17 8 35q-21 11 -34 33q-11 -4 -25 -4 q-31 0 -51 20q-23 -23 -54 -23q-14 0 -28 6q-3 -5 -11 -13q24 -21 24 -54t-24 -55q24 -22 24 -53q0 -34 -24 -55q24 -24 24 -54q0 -31 -22 -53t-53 -22t-53 22t-22 53t23 54q-23 21 -23 55q0 30 23 53q-23 21 -23 55q0 33 23 54q-23 23 -23 55q0 31 22 53t53 22q14 0 28 -6 q23 33 62 33q28 0 51 -20q21 23 54 23q47 0 67 -42q13 5 26 5zM232 537q-26 0 -45.5 19.5t-19.5 46.5t19.5 46.5t45.5 19.5q16 0 30 -8q6 20 23.5 33t38.5 13q27 0 46.5 -19t19.5 -47q0 -27 -19.5 -46t-46.5 -19q-16 0 -29 7q-7 -20 -24 -33t-39 -13z" />
<glyph unicode="&#x145;" horiz-adv-x="711" d="M200 473q-14 0 -29 5l-5 -4q32 -24 32 -60q0 -37 -28 -58q28 -23 28 -58t-28 -58q28 -21 28 -57q0 -37 -28 -58q28 -23 28 -58q0 -31 -22 -52.5t-52 -21.5q-31 0 -52.5 21.5t-21.5 52.5q0 36 27 58q-27 21 -27 58q0 36 27 57q-27 22 -27 58t27 58q-27 21 -27 58 q0 35 28 58q-28 21 -28 57q0 34 26 55q-20 20 -20 50t21 51t51 21q29 0 50.5 -21t21.5 -51q0 -5 -2 -15h2q30 0 51.5 -21t21.5 -52q0 -12 -5 -25h7q31 0 52.5 -21.5t21.5 -52.5q0 -13 -5 -26h7q31 0 52.5 -21.5t21.5 -52.5q0 -13 -5 -26h7q31 0 52.5 -21.5t21.5 -52.5 q0 -13 -5 -26h6q14 0 32 -7l10 10q-31 23 -31 61q0 36 27 57q-27 22 -27 58t27 58q-27 22 -27 57q0 37 28 58q-28 23 -28 59q0 31 21.5 52.5t52.5 21.5t52.5 -21.5t21.5 -52.5q0 -36 -28 -59q28 -21 28 -58q0 -35 -28 -58q28 -21 28 -57q0 -34 -27 -58q27 -22 27 -57 q0 -36 -28 -59q28 -21 28 -56t-26 -56q20 -22 20 -49q0 -30 -21 -51t-51 -21t-51 21t-21 51q0 8 1 11h-10q-30 0 -51.5 21t-21.5 52q0 15 4 24h-6q-31 0 -52.5 22t-21.5 52q0 15 4 26h-6q-31 0 -52.5 22t-21.5 52q0 15 4 26h-6q-31 0 -52.5 22t-21.5 52q0 15 4 26h-5z M294 -237q-26 0 -45 19t-19 46q0 28 19 47t45 19q8 0 12 -1q-1 4 -1 11q0 27 19.5 46.5t45.5 19.5q27 0 46.5 -19.5t19.5 -46.5t-19.5 -46.5t-46.5 -19.5q-2 0 -6 0.5t-5 0.5q0 -1 0.5 -5t0.5 -6q0 -27 -19 -46t-47 -19z" />
<glyph unicode="&#x146;" d="M408 462q31 0 53 -22.5t22 -52.5q0 -16 -9 -36q41 -21 41 -66q0 -33 -23 -54q23 -23 23 -54q0 -34 -24 -55q24 -24 24 -54q0 -31 -22 -53t-53 -22t-52.5 22t-21.5 53q0 33 23 54q-23 20 -23 55q0 32 22 54q-22 20 -22 54q0 17 8 35q-21 11 -34 33q-11 -4 -25 -4 q-31 0 -51 20q-23 -23 -54 -23q-14 0 -28 6q-3 -5 -11 -13q24 -21 24 -54t-24 -55q24 -22 24 -53q0 -34 -24 -55q24 -24 24 -54q0 -31 -22 -53t-53 -22t-53 22t-22 53t23 54q-23 21 -23 55q0 30 23 53q-23 21 -23 55q0 33 23 54q-23 23 -23 55q0 31 22 53t53 22q14 0 28 -6 q23 33 62 33q28 0 51 -20q21 23 54 23q47 0 67 -42q13 5 26 5zM215 -234q-26 0 -45 19t-19 46q0 28 19 47t45 19q8 0 12 -1q-1 4 -1 11q0 27 19.5 46.5t45.5 19.5q27 0 46.5 -19.5t19.5 -46.5t-19.5 -46.5t-46.5 -19.5q-2 0 -6 0.5t-5 0.5q0 -1 0.5 -5t0.5 -6q0 -27 -19 -46 t-47 -19z" />
<glyph unicode="&#x147;" horiz-adv-x="711" d="M200 473q-14 0 -29 5l-5 -4q32 -24 32 -60q0 -37 -28 -58q28 -23 28 -58t-28 -58q28 -21 28 -57q0 -37 -28 -58q28 -23 28 -58q0 -31 -22 -52.5t-52 -21.5q-31 0 -52.5 21.5t-21.5 52.5q0 36 27 58q-27 21 -27 58q0 36 27 57q-27 22 -27 58t27 58q-27 21 -27 58 q0 35 28 58q-28 21 -28 57q0 34 26 55q-20 20 -20 50t21 51t51 21q29 0 50.5 -21t21.5 -51q0 -5 -2 -15h2q30 0 51.5 -21t21.5 -52q0 -12 -5 -25h7q31 0 52.5 -21.5t21.5 -52.5q0 -13 -5 -26h7q31 0 52.5 -21.5t21.5 -52.5q0 -13 -5 -26h7q31 0 52.5 -21.5t21.5 -52.5 q0 -13 -5 -26h6q14 0 32 -7l10 10q-31 23 -31 61q0 36 27 57q-27 22 -27 58t27 58q-27 22 -27 57q0 37 28 58q-28 23 -28 59q0 31 21.5 52.5t52.5 21.5t52.5 -21.5t21.5 -52.5q0 -36 -28 -59q28 -21 28 -58q0 -35 -28 -58q28 -21 28 -57q0 -34 -27 -58q27 -22 27 -57 q0 -36 -28 -59q28 -21 28 -56t-26 -56q20 -22 20 -49q0 -30 -21 -51t-51 -21t-51 21t-21 51q0 8 1 11h-10q-30 0 -51.5 21t-21.5 52q0 15 4 24h-6q-31 0 -52.5 22t-21.5 52q0 15 4 26h-6q-31 0 -52.5 22t-21.5 52q0 15 4 26h-6q-31 0 -52.5 22t-21.5 52q0 15 4 26h-5z M276 922q25 0 43 -18.5t18 -43.5v-6q12 5 24 5q7 0 21 -4v5q0 25 18.5 43.5t44.5 18.5q25 0 42.5 -18.5t17.5 -43.5q0 -26 -17.5 -44t-42.5 -18q-15 0 -24 4v-5q0 -26 -17.5 -44t-42.5 -18q-26 0 -44.5 18t-18.5 44v5q-9 -4 -22 -4q-26 0 -44 18t-18 44q0 25 18.5 43.5 t43.5 18.5z" />
<glyph unicode="&#x148;" d="M408 462q31 0 53 -22.5t22 -52.5q0 -16 -9 -36q41 -21 41 -66q0 -33 -23 -54q23 -23 23 -54q0 -34 -24 -55q24 -24 24 -54q0 -31 -22 -53t-53 -22t-52.5 22t-21.5 53q0 33 23 54q-23 20 -23 55q0 32 22 54q-22 20 -22 54q0 17 8 35q-21 11 -34 33q-11 -4 -25 -4 q-31 0 -51 20q-23 -23 -54 -23q-14 0 -28 6q-3 -5 -11 -13q24 -21 24 -54t-24 -55q24 -22 24 -53q0 -34 -24 -55q24 -24 24 -54q0 -31 -22 -53t-53 -22t-53 22t-22 53t23 54q-23 21 -23 55q0 30 23 53q-23 21 -23 55q0 33 23 54q-23 23 -23 55q0 31 22 53t53 22q14 0 28 -6 q23 33 62 33q28 0 51 -20q21 23 54 23q47 0 67 -42q13 5 26 5zM185 714q25 0 43 -18.5t18 -43.5v-6q12 5 24 5q7 0 21 -4v5q0 25 18.5 43.5t44.5 18.5q25 0 42.5 -18.5t17.5 -43.5q0 -26 -17.5 -44t-42.5 -18q-15 0 -24 4v-5q0 -26 -17.5 -44t-42.5 -18q-26 0 -44.5 18 t-18.5 44v5q-9 -4 -22 -4q-25 0 -43.5 18t-18.5 44q0 25 18.5 43.5t43.5 18.5z" />
</font>
</defs>
</svg>
