<?xml version="1.0" standalone="no"?>
<!DOCTYPE svg PUBLIC "-//W3C//DTD SVG 1.1//EN" "http://www.w3.org/Graphics/SVG/1.1/DTD/svg11.dtd" >
<svg xmlns="http://www.w3.org/2000/svg">
<metadata>
This is a custom SVG webfont generated by Font Squirrel.
Copyright   : Copyright c 2010 by Miles Newlyn All rights reserved
Designer    : Miles Newlyn
Foundry     : Miles Newlyn
Foundry URL : wwwnewlyncom
</metadata>
<defs>
<font id="RubrikLight" horiz-adv-x="1370" >
<font-face units-per-em="2048" ascent="1536" descent="-512" />
<missing-glyph horiz-adv-x="546" />
<glyph unicode=" "  horiz-adv-x="546" />
<glyph unicode="&#x09;" horiz-adv-x="546" />
<glyph unicode="&#xa0;" horiz-adv-x="546" />
<glyph unicode="!" horiz-adv-x="419" d="M143 47v113q0 27 20.5 46t45.5 19q29 0 48 -19.5t19 -45.5v-113q0 -27 -19 -46t-48 -19q-25 0 -45.5 19t-20.5 46zM150 1370q0 27 17 44.5t42 17.5q27 0 43 -17.5t18 -44.5l-6 -852q0 -25 -15.5 -41t-38 -16t-38.5 17.5t-16 39.5z" />
<glyph unicode="&#x22;" horiz-adv-x="677" d="M154 1102v266q0 27 17 45.5t42 18.5q27 0 43 -17.5t16 -46.5v-266q0 -29 -16 -47.5t-43 -18.5q-25 0 -42 19.5t-17 46.5zM406 1102v266q0 27 17 45.5t42 18.5q27 0 43 -17.5t16 -46.5v-266q0 -29 -16 -47.5t-43 -18.5q-25 0 -42 19.5t-17 46.5z" />
<glyph unicode="#" horiz-adv-x="1257" d="M106 508q0 25 17.5 41t44.5 16h168l106 330h-133q-27 0 -44 17.5t-17 43.5q0 25 17.5 41.5t43.5 16.5h172l131 395q18 41 55.5 41t51.5 -26.5t2 -59.5l-115 -350h230l131 395q12 41 55 41q37 0 50 -26.5t1 -59.5l-112 -350h129q27 0 44 -16.5t17 -41.5q0 -27 -18.5 -44 t-42.5 -17h-172l-105 -330h135q27 0 44.5 -16.5t17.5 -40.5q0 -27 -18.5 -44.5t-43.5 -17.5h-178l-137 -426q-10 -39 -55 -38q-37 0 -50.5 26.5t-1.5 59.5l123 378h-231l-137 -426q-14 -39 -58 -38q-35 0 -49 26.5t-2 59.5l123 378h-125q-27 0 -45.5 17.5t-18.5 44.5z M459 565h231l107 330h-232z" />
<glyph unicode="$" horiz-adv-x="1247" d="M152 229q0 27 16 44.5t40.5 17.5t49.5 -19q162 -123 365 -122q174 0 269 62t95 179q0 115 -80 172.5t-325 110.5q-223 47 -320.5 131t-97.5 229q0 158 110.5 255t292.5 108v157q0 25 16.5 42.5t39 17.5t39 -17.5t16.5 -42.5v-161q184 -18 295 -107q25 -20 24 -49 q0 -25 -16 -42t-41 -17q-16 0 -47 18q-135 86 -275 86q-184 0 -259.5 -70.5t-75.5 -177.5q0 -115 79.5 -163t284.5 -91q236 -49 347.5 -135t111.5 -254q0 -154 -123 -254t-305 -104v-158q0 -25 -16.5 -41t-39 -16t-39 17.5t-16.5 39.5v162q-223 20 -381 137q-34 24 -34 55z " />
<glyph unicode="%" horiz-adv-x="1449" d="M90 1049q-4 59 0 114q4 121 89 205t206 84t204 -84t89 -205q4 -57 0 -114q-8 -123 -90 -206t-203 -83t-205 83t-90 206zM203 1051q4 -78 54 -128.5t126 -50.5q78 0 129 50.5t55 130.5q4 47 0 106q-4 80 -55 131t-129 51q-74 0 -124 -51t-56 -131q-4 -55 0 -108z M261 241.5q-1 24.5 13 41.5l830 952q14 20 38.5 22.5t43.5 -12.5q18 -16 19 -40.5t-15 -41.5q-47 -53 -830 -952q-14 -18 -38.5 -20.5t-42.5 12.5q-17 14 -18 38.5zM772 268q-4 59 0 115q4 121 89 205t206 84t204 -84t89 -205q4 -57 0 -115q-8 -123 -90 -205.5t-203 -82.5 t-205 82.5t-90 205.5zM885 270q4 -78 54 -128t126 -50q78 0 129 50.5t55 129.5q4 47 0 107q-4 80 -55 131t-129 51q-74 0 -124 -51t-56 -131q-4 -56 0 -109z" />
<glyph unicode="&#x26;" horiz-adv-x="1404" d="M109 375q0 246 284 348q-98 68 -147 146.5t-49 189.5q0 166 120.5 271.5t313.5 105.5q199 0 317.5 -103.5t118.5 -265.5q0 -168 -104.5 -255t-327.5 -138q-229 -51 -318.5 -118t-89.5 -181q0 -127 107.5 -201t302.5 -74q190 0 301 104.5t117 270.5q0 127 114 127h164 q27 0 46.5 -17.5t19.5 -42t-18.5 -42t-45.5 -17.5h-157q-6 -233 -157 -367t-384 -134q-252 0 -390 109.5t-138 283.5zM315 1059q0 -55 19.5 -101.5t59.5 -82t71 -56t80 -47.5q231 47 317 108.5t86 184.5q0 104 -80 178t-235 74q-152 0 -235 -73.5t-83 -184.5z" />
<glyph unicode="'" horiz-adv-x="425" d="M154 1102v266q0 27 17 45.5t42 18.5q27 0 43 -17.5t16 -46.5v-266q0 -29 -16 -47.5t-43 -18.5q-25 0 -42 19.5t-17 46.5z" />
<glyph unicode="(" horiz-adv-x="710" d="M186 632.5q0 276.5 107.5 531.5t312.5 446q23 18 47.5 14t36.5 -22q29 -43 -10 -76q-186 -170 -282.5 -406.5t-96.5 -486.5t96.5 -486.5t282.5 -406.5q39 -33 10 -76q-12 -18 -36.5 -22t-47.5 14q-205 190 -312.5 445t-107.5 531.5z" />
<glyph unicode=")" horiz-adv-x="710" d="M11 -296.5q3 22.5 20 36.5q186 170 282.5 406.5t96.5 486.5t-96.5 486.5t-282.5 406.5q-16 14 -19.5 36.5t9 41t37 21.5t46.5 -15q205 -190 312.5 -445.5t107.5 -532t-107.5 -531.5t-312.5 -445q-23 -18 -47 -15t-36.5 21.5t-9.5 41z" />
<glyph unicode="*" horiz-adv-x="772" d="M86 1215.5q-8 19.5 2 46.5q10 20 33.5 26t44.5 -6l168 -100l-2 184q0 27 15 43t40 16t40 -16t15 -43l-2 -184l164 100q18 14 44 8t38 -28q10 -23 2 -43.5t-26 -30.5l-181 -96l176 -95q57 -31 29 -82q-29 -49 -82 -16l-164 100l2 -184q0 -27 -15 -43t-40 -16t-40 16 t-15 43l2 184l-164 -98q-18 -14 -44 -9t-38 28q-25 51 23 75l182 97l-180 94q-19 10 -27 29.5z" />
<glyph unicode="+" horiz-adv-x="1286" d="M129 717q0 27 18.5 43t45.5 16h393v400q0 27 17.5 45t41.5 18q27 0 43.5 -18.5t16.5 -44.5v-400h395q27 0 45 -16.5t18 -42.5q0 -25 -19.5 -42.5t-43.5 -17.5h-395v-399q0 -27 -16.5 -45t-43.5 -18t-43 18t-16 45v399h-393q-27 0 -45.5 17.5t-18.5 42.5z" />
<glyph unicode="," horiz-adv-x="421" d="M100 -117q0 18 21.5 61.5t21.5 114.5v99q0 29 19.5 47t48.5 18q27 0 47.5 -19.5t20.5 -45.5v-37q0 -160 -52 -252q-23 -47 -67 -47q-27 0 -43.5 19t-16.5 42z" />
<glyph unicode="-" horiz-adv-x="706" d="M121 588q0 27 17.5 42t43.5 15h342q27 0 44.5 -15.5t17.5 -42t-17.5 -43t-44.5 -16.5h-342q-27 0 -44 17.5t-17 42.5z" />
<glyph unicode="." horiz-adv-x="530" d="M143 51v111q0 29 19.5 49t48.5 20t48.5 -20.5t19.5 -48.5v-111q0 -31 -18.5 -50t-49.5 -19q-29 0 -48.5 20t-19.5 49z" />
<glyph unicode="/" horiz-adv-x="681" d="M2 14l571 1448q8 23 32 32t44 1q23 -8 32 -30.5t-1 -45.5l-571 -1448q-8 -20 -31 -30.5t-43 -1.5q-51 20 -33 75z" />
<glyph unicode="0" horiz-adv-x="1409" d="M184 532q-10 188 0 381q12 240 155.5 388.5t365 148.5t364.5 -148.5t156 -388.5q10 -193 0 -381q-12 -240 -155.5 -389t-365 -149t-365 149t-155.5 389zM305 528q12 -193 117.5 -304t282 -111t282 111.5t117.5 303.5q12 166 0 387q-12 193 -117.5 304.5t-282 111.5 t-282 -111.5t-117.5 -304.5q-12 -221 0 -387z" />
<glyph unicode="1" horiz-adv-x="897" d="M117 1155q-27 55 26 84l299 166q53 27 78 27q35 0 56.5 -21.5t21.5 -58.5v-1299q0 -27 -16.5 -44t-42.5 -17q-25 0 -43.5 17.5t-18.5 43.5v1229l-272 -149q-63 -31 -88 22z" />
<glyph unicode="2" horiz-adv-x="1187" d="M127 98q0 131 74.5 241t240.5 230q281 201 342 262q100 96 107 216v22q0 106 -81 186t-241 80q-205 0 -325 -159q-10 -16 -35 -27q-25 -8 -47.5 3t-30.5 34q-10 29 6 53q63 88 172 150.5t254 62.5q211 0 329 -109.5t118 -273.5q0 -160 -85 -258t-337 -281l-43 -30 q-174 -125 -236.5 -206t-62.5 -175h733q27 0 44 -18.5t17 -43t-17 -41t-44 -16.5h-754q-43 0 -70.5 26.5t-27.5 71.5z" />
<glyph unicode="3" horiz-adv-x="1198" d="M96 1372.5q0 24.5 18.5 42t43.5 17.5h671q43 0 74 -27t31 -68q0 -27 -21 -61l-338 -371q188 14 316.5 -98.5t128.5 -294.5q0 -258 -229.5 -397.5t-626.5 -118.5q-61 4 -66 57q-2 27 15.5 46.5t44.5 17.5q340 -25 540.5 79.5t200.5 315.5q0 129 -88 205t-227 76 q-51 0 -90 -6.5t-48 -6.5q-27 0 -45 17.5t-18 42t16 41.5l385 432h-626q-25 0 -43.5 17.5t-18.5 42z" />
<glyph unicode="4" horiz-adv-x="1353" d="M125 471q0 43 37 92l622 805q53 66 111 66q18 0 33.5 -3.5t27 -8.5t20.5 -14t14 -17.5t9.5 -19.5t6.5 -19.5t3 -20.5t1 -17v-16v-12v-805h174q25 0 41 -16t16 -41q0 -23 -17.5 -41t-39.5 -18h-174v-302q0 -25 -16.5 -44t-41.5 -19q-27 0 -44 18.5t-17 44.5v302h-645 q-49 0 -85 28.5t-36 77.5zM248 481h643v836z" />
<glyph unicode="5" horiz-adv-x="1228" d="M160 47q0 61 76 62q348 0 542.5 110.5t194.5 329.5q0 117 -90 193.5t-224 76.5q-33 0 -64.5 -3t-56 -7t-52 -12.5t-45 -14.5t-41 -16t-33 -15.5t-30 -15.5t-22.5 -12q-53 -25 -83.5 -5.5t-30.5 60.5v539q0 115 121 115h620q25 0 43.5 -17.5t18.5 -42t-18.5 -42 t-43.5 -17.5h-627v-467q160 88 338 88q193 0 316 -109.5t123 -279.5q0 -268 -225.5 -411.5t-643.5 -143.5q-27 0 -45 16t-18 41z" />
<glyph unicode="6" horiz-adv-x="1355" d="M182 745q20 342 194.5 528.5t463.5 186.5q113 0 200 -16q55 -10 56 -62q0 -23 -15.5 -40t-44.5 -17q-8 0 -73.5 8t-122.5 8q-229 0 -372.5 -143t-162.5 -395q201 96 400 96q223 0 357 -116.5t134 -325.5q0 -205 -129 -342.5t-367 -137.5q-289 0 -413.5 205t-104.5 563z M299 670q-16 -283 92.5 -427.5t315.5 -144.5q182 0 276 99.5t94 259.5q0 158 -94 240.5t-278 82.5q-209 1 -406 -110z" />
<glyph unicode="7" horiz-adv-x="1062" d="M78 1370q0 27 17.5 44.5t43.5 17.5h764q45 0 73 -25t28 -66q0 -33 -21 -69q-311 -520 -425 -747.5t-173 -483.5q-16 -63 -78 -45q-47 14 -31 88q70 256 195 509t408 720h-740q-27 0 -44 17t-17 40z" />
<glyph unicode="8" horiz-adv-x="1382" d="M170 389q0 141 73.5 236.5t190.5 126.5q-98 29 -164.5 108.5t-66.5 218.5q0 172 127 272.5t356 100.5q236 0 362 -100.5t126 -272.5q0 -240 -224 -327q123 -39 192.5 -130.5t69.5 -230.5q0 -188 -135 -298.5t-391 -110.5q-250 0 -383 109.5t-133 297.5zM289 391 q0 -131 99 -211t298 -80q205 0 306.5 82t101.5 207q0 139 -111 220t-297 81q-193 0 -295 -82t-102 -217zM324 1079q0 -127 97 -198.5t265 -71.5q174 0 269.5 71.5t95.5 196.5q0 258 -365 258q-186 0 -274 -69.5t-88 -186.5z" />
<glyph unicode="9" horiz-adv-x="1341" d="M160 979q0 213 129 345t362 132q274 0 392 -173t118 -513q0 -430 -200.5 -605t-651.5 -175q-59 0 -63 55q-2 25 15.5 44.5t45.5 19.5q125 0 212 8t185.5 36.5t161 82t109.5 148.5t61 230q-184 -92 -391 -92q-223 0 -354 120t-131 337zM279 977q0 -336 374 -336 q76 0 147.5 16.5t118 35t123.5 55.5q0 317 -82.5 453t-308.5 136q-186 0 -279 -96t-93 -264z" />
<glyph unicode=":" horiz-adv-x="579" d="M223 51v111q0 29 19.5 49t48 20t48 -20.5t19.5 -48.5v-111q0 -31 -18 -50t-49 -19q-29 0 -48.5 20t-19.5 49zM223 838v110q0 29 19.5 49.5t48 20.5t48 -20.5t19.5 -49.5v-110q0 -31 -18 -50.5t-49 -19.5q-29 0 -48.5 20.5t-19.5 49.5z" />
<glyph unicode=";" horiz-adv-x="579" d="M211 -113q0 14 4 27q2 6 11.5 21.5t14.5 25.5t10 37t5 61v99q0 29 19.5 47t48 18t48 -19.5t19.5 -45.5v-84q-2 -57 -11 -109.5t-38 -97.5t-70 -45q-29 0 -46 20t-15 45zM256 838v110q0 29 19.5 49.5t48 20.5t48 -20.5t19.5 -49.5v-110q0 -31 -18.5 -50.5t-48.5 -19.5 q-29 0 -48.5 20.5t-19.5 49.5z" />
<glyph unicode="&#x3c;" horiz-adv-x="1286" d="M225 716.5q0 67.5 88 141.5l574 465q49 39 88 -6q16 -20 12 -46t-24 -42l-598 -484q-18 -14 -18.5 -28.5t18.5 -28.5l600 -485q20 -16 23 -41t-13 -45q-39 -45 -88 -6l-574 464q-88 74 -88 141.5z" />
<glyph unicode="=" horiz-adv-x="1286" d="M137 543q0 27 17.5 43t44.5 16h888q27 0 44.5 -16.5t17.5 -42.5q0 -25 -18.5 -42.5t-43.5 -17.5h-888q-27 0 -44.5 17.5t-17.5 42.5zM137 891q0 27 17.5 44t44.5 17h888q27 0 44.5 -17t17.5 -44q0 -25 -18.5 -41t-43.5 -16h-888q-27 0 -44.5 16t-17.5 41z" />
<glyph unicode="&#x3e;" horiz-adv-x="1286" d="M294 161.5q3 24.5 23 41.5l601 485q18 14 18 28.5t-18 28.5l-599 484q-20 16 -24 41.5t12 46.5q39 45 88 6l574 -465q88 -74 88 -141.5t-88 -141.5l-574 -464q-49 -39 -88 6q-16 20 -13 44.5z" />
<glyph unicode="?" horiz-adv-x="1146" d="M129 1214q0 18 18 43q154 195 435 195q186 0 300.5 -108.5t114.5 -278.5q0 -190 -95 -290.5t-339 -217.5q-27 -10 -45 -10q-25 0 -43 17.5t-18 43.5q0 41 45 62q219 96 298 177t79 222q0 121 -80 193.5t-217 72.5q-119 0 -198 -36.5t-144 -120.5q-20 -25 -50 -25 q-25 0 -43 18t-18 43zM453 47v113q0 27 21.5 46t45.5 19q27 0 47.5 -19.5t20.5 -45.5v-113q0 -27 -20.5 -46t-47.5 -19q-25 0 -46 19t-21 46z" />
<glyph unicode="@" horiz-adv-x="1744" d="M156 752q20 293 222 486.5t496 193.5q303 0 513 -197t210 -504v-362q0 -98 -69.5 -168t-169.5 -70q-96 0 -167 68.5t-71 169.5v262q0 96 -67.5 165.5t-175.5 69.5q-102 0 -174 -70.5t-72 -187.5q-4 -59 0 -123q8 -145 118.5 -206.5t225.5 -12.5q37 12 61.5 1t30.5 -36 q14 -61 -55 -84q-61 -20 -129 -20q-156 0 -259.5 93t-111.5 255q-4 70 0 141q6 156 107.5 262.5t257.5 106.5q168 0 266 -100.5t98 -243.5v-281q0 -51 35 -84.5t84 -33.5t84 33.5t35 84.5v361q0 266 -175.5 429t-429.5 163q-246 0 -411.5 -159t-186.5 -417q-16 -178 3 -397 q23 -268 191.5 -408.5t389.5 -140.5q121 0 242 49q47 18 76 -18q12 -18 7 -45t-30 -39q-121 -63 -293 -64q-127 0 -243.5 40t-216 118t-165 207t-79.5 291q-20 221 -2 422z" />
<glyph unicode="A" d="M59 84l447 1225q51 143 178 143q129 0 180 -141l447 -1227q4 -10 3 -20q0 -13 -5 -27q-10 -25 -33 -33q-10 -4 -20 -4l-25 6q-23 10 -33 33l-172 469h-686l-168 -469q-10 -23 -33 -33q-13 -6 -25 -6q-11 0 -22 4q-23 8 -32 32q-5 12 -4 25q-1 11 3 23zM385 627h596 l-236 659q-16 51 -61 51q-41 0 -61 -53z" />
<glyph unicode="B" d="M225 115v1202q0 49 30 82t85 33h455q190 0 297.5 -105.5t107.5 -259.5q0 -256 -196 -324v-2q111 -25 174 -114.5t63 -220.5q0 -211 -116.5 -308.5t-303.5 -97.5h-481q-55 0 -85 33t-30 82zM344 121h459q313 0 313 280q0 131 -79 206t-206 75h-487v-561zM344 801h453 q281 0 280 258q0 254 -280 254h-453v-512z" />
<glyph unicode="C" horiz-adv-x="1357" d="M158 551q-6 82 -6 165t6 167q16 242 173.5 404.5t395.5 162.5q172 0 313.5 -96.5t200.5 -251.5q4 -12 4 -23q0 -25 -17.5 -41t-39.5 -16q-41 0 -58 41q-47 123 -157.5 196.5t-245.5 73.5q-186 0 -310 -126t-141 -320q-6 -85 -6 -170t6 -170q16 -197 139.5 -322 t311.5 -125q135 0 245.5 74t157.5 195q16 41 58 41q23 0 40 -16.5t17 -41.5q0 -10 -4 -22q-59 -156 -200.5 -252t-313.5 -96q-238 0 -395.5 161.5t-173.5 407.5z" />
<glyph unicode="D" horiz-adv-x="1472" d="M225 115v1202q0 49 30 82t83 33h354q293 0 454 -167t173 -440q3 -58 3 -114t-3 -109q-12 -268 -175 -435t-452 -167h-354q-53 0 -83 33t-30 82zM344 121h344q246 0 373 128t139 353q3 60 3 117.5t-3 111.5q-14 227 -140 354.5t-372 127.5h-344v-1192z" />
<glyph unicode="E" horiz-adv-x="1275" d="M225 115v1202q0 49 30 82t85 33h719q27 0 45 -16.5t18 -43.5q0 -25 -18.5 -42t-44.5 -17h-715v-531h700q29 0 47.5 -16t18.5 -43t-19.5 -45.5t-46.5 -18.5h-700v-538h719q27 0 45 -17.5t18 -42.5q0 -27 -18 -44t-45 -17h-723q-55 0 -85 33t-30 82z" />
<glyph unicode="F" horiz-adv-x="1208" d="M225 53v1264q0 49 30 82t85 33h721q27 0 44 -16.5t17 -43.5q0 -25 -17.5 -42t-43.5 -17h-717v-557h680q27 0 44 -16.5t17 -43.5q0 -25 -17 -42t-44 -17h-680v-584q0 -27 -17.5 -44t-42 -17t-42 18t-17.5 43z" />
<glyph unicode="G" horiz-adv-x="1435" d="M156 551q-6 82 -6 165t6 167q16 240 183 403.5t406 163.5q172 0 308.5 -88t203.5 -242q2 -8 3 -22q0 -25 -17.5 -43.5t-42.5 -18.5q-39 0 -57 39q-57 121 -161.5 188.5t-238.5 67.5q-186 0 -317 -126t-150 -318q-7 -86 -7 -171t7 -169q18 -193 148.5 -320t318.5 -127 q184 0 302 102.5t118 266.5v158h-338q-27 0 -44 16t-17 43t17.5 43t43.5 16h346q53 0 83 -30.5t30 -77.5v-154q0 -203 -148.5 -352t-390 -149t-407.5 162.5t-182 406.5z" />
<glyph unicode="H" horiz-adv-x="1550" d="M225 53v1325q0 27 17.5 44.5t42 17.5t42 -17.5t17.5 -44.5v-602h864v602q0 27 18.5 44.5t41.5 17.5q27 0 43 -17.5t16 -44.5v-1325q0 -27 -16.5 -44t-42.5 -17q-23 0 -41.5 18.5t-18.5 42.5v604h-864v-604q0 -27 -17.5 -44t-41.5 -17q-27 0 -43.5 17t-16.5 44z" />
<glyph unicode="I" horiz-adv-x="567" d="M225 53v1325q0 27 17.5 44.5t42 17.5t42 -17.5t17.5 -44.5v-1325q0 -27 -17.5 -44t-41.5 -17q-27 0 -43.5 17t-16.5 44z" />
<glyph unicode="J" horiz-adv-x="1028" d="M82 219q0 27 17.5 44.5t41.5 17.5q39 0 58 -37q74 -141 231 -142q113 0 189.5 78t76.5 223v975q0 27 17.5 44.5t42 17.5t42 -17.5t17.5 -44.5v-995q0 -176 -111.5 -288.5t-273.5 -112.5q-111 0 -205 59t-139 156q-4 8 -4 22z" />
<glyph unicode="K" horiz-adv-x="1280" d="M225 53v1325q0 27 17.5 44.5t42 17.5t42 -17.5t17.5 -44.5v-594h14q59 0 119 52l627 587q18 16 42.5 16.5t41.5 -18.5q19 -22 19 -43q0 -22 -21 -43l-656 -604l672 -635q21 -19 21 -40t-19 -44q-21 -21 -42 -21q-20 0 -42 19l-643 606q-51 49 -119 50h-14v-613 q0 -27 -17.5 -44t-42 -17t-42 18t-17.5 43z" />
<glyph unicode="L" horiz-adv-x="1130" d="M225 121v1257q0 27 17.5 44.5t42 17.5t42 -17.5t17.5 -44.5v-1257h715q23 0 42 -18.5t19 -43t-18.5 -42t-42.5 -17.5h-713q-57 0 -89 35t-32 86z" />
<glyph unicode="M" horiz-adv-x="1875" d="M137 59l191 1268q18 125 143 125q53 0 91 -29.5t50 -79.5l303 -1214q4 -23 25 -23t25 23l299 1214q12 49 50 79t91 30q55 0 94 -31.5t47 -93.5l195 -1270q1 -5 1 -10q0 -15 -9 -31q-12 -20 -35 -26q-8 -2 -16 -2q-18 0 -33 10q-23 14 -27 39l-192 1280q-4 25 -25 24 q-18 0 -25 -22l-299 -1186q-37 -133 -145.5 -133t-144.5 133l-295 1186q-6 23 -26.5 22.5t-25.5 -24.5l-188 -1272q-9 -55 -56 -55q-8 0 -16 2q-48 9 -48 53q0 7 1 14z" />
<glyph unicode="N" horiz-adv-x="1574" d="M225 53v1272q0 53 30 85t81 32q70 0 110 -64l789 -1251h4q-6 246 -6 291v960q0 27 17.5 44.5t42 17.5t42 -17.5t17.5 -44.5v-1272q0 -45 -29 -77.5t-70 -32.5q-72 0 -110 59l-797 1264h-6q4 -160 4 -301v-965q0 -25 -17.5 -43t-42 -18t-42 18t-17.5 43z" />
<glyph unicode="O" horiz-adv-x="1488" d="M156 551q-6 82 -6 165t6 167q16 242 181 404.5t404.5 162.5t407.5 -163t184 -404q6 -84 6 -167t-6 -165q-16 -244 -183 -406.5t-409 -162.5q-240 0 -404.5 161.5t-180.5 407.5zM276 547q18 -195 147.5 -321t317.5 -126q193 0 323 126t148 321q8 85 8.5 169.5t-8.5 168.5 q-18 195 -149 320.5t-322 125.5q-188 0 -317 -126t-148 -320q-7 -84 -7 -168.5t7 -169.5z" />
<glyph unicode="P" horiz-adv-x="1314" d="M225 53v1262q0 49 32 83t87 34h414q190 0 319 -117t129 -316q0 -205 -129 -321.5t-336 -116.5h-397v-508q0 -25 -18.5 -43t-40.5 -18q-25 0 -42.5 18t-17.5 43zM344 680h399q174 0 257 85t83 232q0 145 -84 230.5t-245 85.5h-410v-633z" />
<glyph unicode="Q" horiz-adv-x="1490" d="M156 551q-6 82 -6 165t6 167q16 242 181 404.5t404.5 162.5t407.5 -163t184 -404q6 -84 6 -167t-6 -165q-18 -266 -209 -430l205 -250q15 -18 15 -40q0 -29 -23 -48q-14 -11 -35 -11q-3 0 -7 1q-26 2 -40 20l-213 260q-127 -72 -285 -71q-240 0 -404.5 161.5 t-180.5 407.5zM276 547q18 -195 147.5 -321t317.5 -126q115 0 209 47l-219 269q-18 20 -15 44.5t21 41.5q16 14 41 12t41 -20l230 -281q141 123 163 334q8 85 8.5 169.5t-8.5 168.5q-18 195 -149 320.5t-322 125.5q-188 0 -317 -126t-148 -320q-7 -84 -7 -168.5t7 -169.5z " />
<glyph unicode="R" horiz-adv-x="1388" d="M225 53v1262q0 49 32 83t87 34h414q199 0 323.5 -113t124.5 -315q0 -178 -99 -278.5t-278 -125.5l410 -510q13 -16 13 -38q0 -30 -21 -46t-46.5 -13t-39.5 23l-402 504q-29 35 -52 50.5t-62 15.5h-285v-533q0 -25 -18.5 -43t-40.5 -18q-25 0 -42.5 18t-17.5 43zM344 705 h381q362 0 362 303q0 141 -84.5 223t-248.5 82h-410v-608z" />
<glyph unicode="S" horiz-adv-x="1253" d="M133 182q0 27 17.5 44.5t44.5 17.5q25 0 45 -17q92 -63 182 -96t231 -33q180 0 282.5 79t102.5 218q0 109 -87 168.5t-316 102.5q-248 45 -359.5 136t-111.5 253q0 184 126 289.5t351 105.5q250 0 391 -117q23 -18 23 -49q0 -25 -16.5 -42t-39.5 -17q-27 0 -49 18 q-147 88 -309 88q-186 0 -272 -76.5t-86 -197.5q0 -113 78.5 -170.5t297.5 -100.5q272 -51 386 -137t114 -254q0 -190 -134 -301.5t-370 -111.5q-281 0 -491 147q-31 22 -31 53z" />
<glyph unicode="T" horiz-adv-x="1212" d="M43 1372.5q0 24.5 18.5 42t44.5 17.5h1000q27 0 44 -17.5t17 -42t-18.5 -42t-42.5 -17.5h-438v-1260q0 -27 -16.5 -44t-43 -17t-43 17.5t-16.5 43.5v1260h-443q-27 0 -45 17.5t-18 42z" />
<glyph unicode="U" horiz-adv-x="1531" d="M203 565v813q0 27 17.5 44.5t41.5 17.5q27 0 43.5 -17.5t16.5 -44.5v-803q0 -215 124.5 -345t319.5 -130t319.5 130t124.5 345v803q0 27 17.5 44.5t42.5 17.5q27 0 43 -17.5t16 -44.5v-813q0 -258 -159.5 -420.5t-403.5 -162.5t-403.5 162.5t-159.5 420.5z" />
<glyph unicode="V" horiz-adv-x="1343" d="M57 1358q-4 11 -4 21q0 12 5 25q9 24 34 32q10 4 20 3q13 0 26 -5q24 -10 32 -31l473 -1280q8 -23 29 -23q18 0 26 23l473 1274q10 29 35 38q12 4 23 4q12 0 24 -5q25 -8 33 -33q4 -11 4 -22q0 -13 -6 -25l-465 -1252q-45 -121 -147.5 -120.5t-147.5 120.5z" />
<glyph unicode="W" horiz-adv-x="1875" d="M86 1366q-2 9 -2 17q0 15 7 30q11 23 36 29q10 3 19 3q16 0 30 -9q23 -14 27 -39l286 -1291q0 -6 5.5 -9t9.5 0t6 9l326 1231q27 102 125 103q96 0 124 -103l320 -1233q2 -6 6 -9t9 0t5 9l293 1289q6 29 28 42q15 9 32 9q8 0 16 -2q44 -10 44 -52q0 -11 -3 -24 l-295 -1286q-25 -98 -123 -98t-123 98l-325 1233q-2 10 -10.5 10t-10.5 -10l-330 -1233q-25 -98 -123 -98t-122 98z" />
<glyph unicode="X" horiz-adv-x="1304" d="M96 1425q17 14 38 14h7q25 -3 41 -24l469 -606l471 606q16 20 41 24h8q20 0 37 -14q18 -14 21 -39v-6q0 -21 -12 -39l-492 -628l487 -621q17 -21 17 -40q0 -23 -25 -44q-21 -17 -40 -17q-24 0 -46 27l-465 600l-467 -600q-22 -27 -46 -27q-19 0 -40 17q-25 20 -24 44 q0 19 16 40l486 623l-490 626q-13 18 -12 39q-1 27 20 45z" />
<glyph unicode="Y" horiz-adv-x="1312" d="M53 1341q-18 24 -18 44q0 23 24 42q17 14 37 14h7q24 -3 40 -22l514 -639l512 639q16 18 41 22h8q20 0 35 -14q24 -19 25 -42q0 -20 -18 -44l-488 -602q-4 -6 -13 -16t-12.5 -15.5t-9.5 -13.5t-9 -14t-6 -15.5t-4 -19.5t-1 -22v-570q0 -27 -17.5 -44t-42 -17t-42 18.5 t-17.5 42.5v570q0 16 -2 29.5t-10 26.5t-12.5 19.5t-17.5 21.5t-17 21z" />
<glyph unicode="Z" horiz-adv-x="1191" d="M121 115q0 41 29 82l792 1116h-752q-27 0 -45 17.5t-18 42t18.5 42t44.5 17.5h740q59 0 94 -33t35 -84q0 -37 -39 -94l-784 -1100h808q27 0 44.5 -18.5t17.5 -43t-17.5 -42t-44.5 -17.5h-796q-59 0 -93 32t-34 83z" />
<glyph unicode="[" horiz-adv-x="714" d="M209 -236v1737q0 53 32.5 88t92.5 35h297q27 0 44 -16.5t17 -42.5q0 -23 -18.5 -41.5t-42.5 -18.5h-303v-1745h303q25 0 43 -18t18 -41q0 -27 -17.5 -43t-43.5 -16h-297q-59 0 -92 35.5t-33 86.5z" />
<glyph unicode="\" horiz-adv-x="677" d="M-27.5 1522.5q9.5 25.5 33.5 33.5q23 8 46.5 -3t33.5 -35l619 -1561q10 -25 -0.5 -49.5t-34.5 -32.5q-23 -8 -46.5 2t-31.5 35l-619 1558q-10 27 -0.5 52.5z" />
<glyph unicode="]" horiz-adv-x="714" d="M23 -303.5q0 24.5 18 42t43 17.5h303v1747h-303q-23 0 -42 17.5t-19 40.5q0 27 17 44t44 17h299q57 0 90 -36t33 -87v-1737q0 -53 -32 -87.5t-91 -34.5h-299q-27 0 -44 16t-17 40.5z" />
<glyph unicode="^" horiz-adv-x="1320" d="M303 811l193 496q57 141 165.5 141t163.5 -141l193 -496q10 -23 0 -48.5t-35 -33.5q-23 -8 -46.5 2t-33.5 33l-215 551q-8 20 -26 20q-20 0 -29 -20l-213 -551q-27 -55 -82 -35q-23 8 -34 33.5t-1 48.5z" />
<glyph unicode="_" horiz-adv-x="966" d="M0 -274h967v-125h-967v125z" />
<glyph unicode="`" horiz-adv-x="696" d="M156 1741q0 23 15 38t38 15q18 0 31 -8l274 -144q29 -14 29 -47q0 -23 -15.5 -38t-38.5 -15q-12 0 -28 8l-277 142q-28 16 -28 49z" />
<glyph unicode="a" horiz-adv-x="1150" d="M139 319q0 145 105.5 238.5t298.5 93.5q133 0 307 -47v88q0 141 -67.5 205t-211.5 64q-121 0 -262 -60q-19 -8 -35 -8t-29 8q-26 16 -26 47q0 39 37 60q139 72 315 71q199 0 298.5 -89t99.5 -279v-561q0 -37 -27 -56q-55 -41 -164.5 -76.5t-245.5 -35.5 q-188 0 -290.5 89.5t-102.5 247.5zM258 317q0 -219 293 -219q80 0 165 26t134 62v301q-186 51 -299 52q-143 0 -218 -62t-75 -160z" />
<glyph unicode="b" horiz-adv-x="1230" d="M205 160v1226q0 27 17.5 44.5t43.5 17.5q23 0 40.5 -17.5t17.5 -44.5v-376q166 70 317 69q193 0 301.5 -103.5t124.5 -297.5q6 -73 6 -144.5t-6 -142.5q-16 -195 -129 -303t-311 -108q-115 0 -227.5 43t-166.5 81q-28 19 -28 56zM324 186q41 -33 133 -62.5t168 -29.5 q293 0 323 293q5 63 5 136t-5 155q-23 287 -301 287q-94 0 -185 -26t-138 -54v-699z" />
<glyph unicode="c" horiz-adv-x="1138" d="M162 391q-4 71 -4 142.5t4 144.5q8 180 133 290.5t317 110.5q96 0 178 -33.5t128.5 -83t71 -97.5t24.5 -83q0 -63 -58 -63q-45 0 -63 55q-33 92 -112 141.5t-171 49.5q-141 0 -231 -80t-96 -207q-5 -88 -5 -160.5t5 -128.5q10 -131 98 -213t229 -82q92 0 172 49.5 t115 143.5q18 55 68 55q23 0 38 -16.5t15 -44.5q0 -35 -25.5 -83t-73 -98.5t-129 -85t-178.5 -34.5q-195 0 -317.5 116.5t-132.5 294.5z" />
<glyph unicode="d" horiz-adv-x="1230" d="M164 391q-6 72 -6 143.5t6 143.5q16 195 125.5 298t300.5 103q152 0 317 -69v376q0 27 17.5 44.5t42 17.5t42 -17.5t17.5 -44.5v-1226q0 -37 -27 -56q-49 -39 -163.5 -81.5t-231.5 -42.5q-199 0 -311.5 108t-128.5 303zM285 387q31 -293 321 -293q78 0 169 30t132 62v699 q-47 29 -138 54.5t-185 25.5q-141 0 -213 -71t-86 -214q-7 -78 -7 -151t7 -142z" />
<glyph unicode="e" horiz-adv-x="1175" d="M164 426q-3 47 -3 98q0 67 5 140q14 193 135 304t307 111q197 0 312.5 -119.5t115.5 -308.5v-67q0 -109 -118 -109h-637v-41q0 -160 91 -250t244 -90q113 0 263 56q18 6 33 6q19 0 33 -10q26 -17 26 -46q0 -35 -35 -55q-109 -66 -317.5 -65.5t-326.5 121t-128 325.5z M281 590h606q29 0 31 28q2 19 1 38q0 130 -76 213q-87 95 -237 96q-164 0 -247 -99q-79 -94 -79 -260q1 -8 1 -16z" />
<glyph unicode="f" horiz-adv-x="763" d="M90 979q0 27 17.5 43t44.5 16h79v111q0 141 77 227t229 86q111 0 178 -24q39 -14 39 -56q0 -23 -15.5 -38t-42.5 -15q-12 0 -61 9.5t-107 9.5q-178 0 -178 -213v-97h309q25 0 42.5 -17t17.5 -42q0 -23 -18.5 -39t-41.5 -16h-309v-871q0 -27 -16.5 -44t-42.5 -17 q-25 0 -42.5 18.5t-17.5 42.5v871h-79q-27 0 -44.5 16t-17.5 39z" />
<glyph unicode="g" horiz-adv-x="1228" d="M162 414q-5 65 -5 129t5 129q14 193 126.5 300t303.5 107q236 0 403 -106q27 -16 27 -62v-831q0 -215 -122 -336t-376 -121q-94 0 -225 23q-57 10 -57 55q0 29 20.5 49.5t50.5 13.5q121 -25 219 -24q371 0 371 344q-164 -82 -309 -82q-197 0 -308.5 109.5t-123.5 302.5z M283 414q25 -293 311 -293q193 0 309 94v672q-6 6 -39 21.5t-110.5 36t-159.5 20.5q-285 0 -311 -293q-4 -52 -4 -116.5t4 -141.5z" />
<glyph unicode="h" horiz-adv-x="1253" d="M205 53v1333q0 27 16.5 44.5t42.5 17.5q23 0 41.5 -17.5t18.5 -44.5v-462q61 68 156 111.5t194 43.5q178 0 284.5 -104.5t106.5 -300.5v-621q0 -25 -16.5 -43t-41 -18t-43 18.5t-18.5 42.5v611q0 141 -71.5 221t-206.5 80q-100 0 -193.5 -54.5t-150.5 -132.5v-725 q0 -25 -17.5 -43t-42 -18t-42 18t-17.5 43z" />
<glyph unicode="i" horiz-adv-x="546" d="M190 1337.5q0 34.5 24 58t58.5 23.5t59 -23.5t24.5 -58t-24.5 -59.5t-59 -25t-58.5 25t-24 59.5zM215 53v951q0 27 16.5 44t41 17t43 -17.5t18.5 -43.5v-951q0 -27 -17.5 -44t-44.5 -17q-25 0 -41 17t-16 44z" />
<glyph unicode="j" horiz-adv-x="528" d="M37 -289q90 96 125 185.5t35 224.5v883q0 27 16 44t43 17q25 0 42 -17.5t17 -43.5v-893q0 -158 -44 -264.5t-142 -217.5q-16 -18 -44 -20h-7q-23 0 -35 12q-25 21 -25 45q0 21 19 45zM172 1337.5q0 34.5 23.5 58t60.5 23.5q35 0 58.5 -23.5t23.5 -58t-23.5 -59.5 t-58.5 -25q-37 0 -60.5 25t-23.5 59.5z" />
<glyph unicode="k" horiz-adv-x="1069" d="M205 53v1333q0 27 17.5 45.5t41.5 18.5q27 0 43.5 -18.5t16.5 -45.5v-780h43q68 0 118 51l408 398q18 16 44 16t42 -18q17 -20 17 -40q0 -24 -25 -46l-434 -416l450 -455q20 -17 20 -44q0 -23 -16 -40q-16 -18 -41.5 -18t-44.5 16l-420 426q-49 49 -120 49h-41v-432 q0 -27 -17.5 -44t-42 -17t-42 18t-17.5 43z" />
<glyph unicode="l" horiz-adv-x="528" d="M205 53v1333q0 27 16.5 45.5t42.5 18.5q25 0 42.5 -18.5t17.5 -45.5v-1333q0 -25 -17.5 -43t-42 -18t-42 18t-17.5 43z" />
<glyph unicode="m" horiz-adv-x="1804" d="M207 53v856q0 41 39 68q135 102 346 102q197 0 307 -121q51 35 82 53.5t105.5 43t150.5 24.5q193 0 286 -98t93 -276v-652q0 -27 -16.5 -44t-43.5 -17q-25 0 -42 17.5t-17 43.5v641q0 270 -262 271q-152 0 -283 -107q18 -78 19 -153v-652q0 -27 -16.5 -44t-43.5 -17 q-25 0 -42 17.5t-17 43.5v641q0 139 -62.5 205t-191.5 66q-41 0 -78 -4.5t-63.5 -11.5t-49 -15t-38 -15.5t-25.5 -14.5t-14 -11l-4 -4v-836q0 -27 -17.5 -44t-44.5 -17q-25 0 -41 17t-16 44z" />
<glyph unicode="n" horiz-adv-x="1255" d="M205 53v854q0 41 28 62q55 41 163 75.5t249 34.5q207 0 314.5 -107.5t107.5 -303.5v-615q0 -27 -16.5 -44t-42.5 -17q-25 0 -42.5 17.5t-17.5 43.5v611q0 150 -86 225.5t-221 75.5q-188 0 -317 -80v-832q0 -27 -16.5 -44t-43.5 -17q-25 0 -42 17t-17 44z" />
<glyph unicode="o" horiz-adv-x="1212" d="M162 391q-3 71 -3 142t3 143q8 178 133 290.5t311 112.5q184 0 309 -112.5t134 -290.5q3 -72 3 -143t-3 -142q-10 -178 -134 -294.5t-308.5 -116.5t-309.5 116.5t-135 294.5zM283 389q12 -133 100 -214t223 -81t222 81t100 214q5 56 5 128t-5 159q-8 127 -95.5 208 t-226.5 81t-227 -81t-96 -208q-5 -87 -5 -159t5 -128z" />
<glyph unicode="p" horiz-adv-x="1232" d="M207 -328v1227q0 39 29 59q53 37 168.5 79t234.5 42q195 0 304.5 -104.5t123.5 -298.5q6 -72 6 -145.5t-6 -149.5q-14 -195 -127 -298t-319 -103q-133 0 -295 71v-379q0 -27 -17.5 -44t-42.5 -17q-27 0 -43 17t-16 44zM326 178q45 -31 129 -57.5t170 -26.5q301 0 319 287 q5 82 5 155t-5 138q-25 291 -307 291q-80 0 -174 -30t-137 -63v-694z" />
<glyph unicode="q" horiz-adv-x="1230" d="M166 383q-6 74 -6 146t6 143q16 195 124.5 301t303.5 106q119 0 233.5 -41t167.5 -77q31 -20 31 -60v-1229q0 -27 -17.5 -44t-42 -17t-42 17.5t-17.5 43.5v379q-166 -72 -307 -71q-197 0 -307.5 104t-126.5 299zM285 379q18 -285 311 -285q90 0 178 25.5t133 54.5v698 q-43 33 -138 63t-175 30q-285 0 -309 -295q-5 -53 -5 -126t5 -165z" />
<glyph unicode="r" horiz-adv-x="753" d="M195 55v711q0 147 83.5 230t237.5 83q100 0 170 -20q49 -14 49 -60q0 -20 -16.5 -36.5t-46.5 -16.5q-18 0 -65.5 9.5t-88.5 9.5q-104 0 -154.5 -49.5t-50.5 -155.5v-705q0 -27 -16 -45t-43 -18q-25 0 -42 18t-17 45z" />
<glyph unicode="s" horiz-adv-x="985" d="M131 184q14 20 41 23.5t47 -12.5q51 -37 77 -52.5t84 -32t134 -16.5q115 0 180.5 55.5t65.5 143.5q0 63 -42 103t-138 65l-162 39q-268 66 -268 276q0 139 99 221t265 82t279 -84q23 -18 25.5 -44.5t-13.5 -45.5q-19 -20 -43 -20q-20 0 -43 14q-106 66 -205 66 q-246 0 -246 -185q0 -59 40 -98t136 -64q43 -10 101 -24l57 -12q276 -76 277 -283q0 -145 -99.5 -232t-265.5 -87q-229 0 -369 116q-27 26 -26 52q0 18 12 36z" />
<glyph unicode="t" horiz-adv-x="817" d="M193 295v919q0 27 17 45.5t40 18.5q27 0 44 -18.5t17 -45.5v-176h330q25 0 43 -17t18 -42q0 -23 -18 -39t-43 -16h-330v-639q0 -86 41 -138.5t125 -52.5q27 0 54.5 5t45 10.5t45 14.5t35.5 11q35 10 58.5 -5t23.5 -46q0 -45 -59 -68q-98 -37 -199 -36q-145 0 -216.5 87 t-71.5 228z" />
<glyph unicode="u" horiz-adv-x="1257" d="M188 387v617q0 27 17.5 44t44.5 17q23 0 40 -17.5t17 -43.5v-623q0 -133 82 -210t227 -77q176 0 316 88v822q0 27 16.5 44t42.5 17q25 0 42.5 -17.5t17.5 -43.5v-846q0 -39 -27 -56q-176 -123 -408 -122q-188 0 -308 108.5t-120 298.5z" />
<glyph unicode="v" horiz-adv-x="1030" d="M57 985q-5 14 -5 26q0 17 10 31q17 25 47 25q39 0 55 -39l344 -919q2 -10 10 -10.5t10 10.5l334 909q16 45 60 45q31 0 46 -26q9 -15 9 -32q0 -11 -4 -24l-336 -899q-35 -94 -119 -94q-86 0 -119 92z" />
<glyph unicode="w" horiz-adv-x="1667" d="M84 987q-3 11 -3 21q0 20 11 36q16 25 45 25q45 0 60 -47l262 -930q4 -10 10 -10t10 10l228 869q12 53 48 80.5t79 27.5q98 0 127 -111l229 -866q4 -10 10 -10t10 10l258 932q12 45 58 45q31 0 48 -26q11 -16 11 -34q0 -11 -4 -22l-262 -917q-29 -98 -121 -99 q-43 0 -77 26t-46 73l-231 882q-2 8 -10.5 8.5t-10.5 -8.5l-237 -880q-27 -100 -119 -101q-94 0 -121 99z" />
<glyph unicode="x" horiz-adv-x="1101" d="M112 48q0 22 15 42l350 451l-327 426q-16 20 -14.5 46.5t24.5 41.5q15 11 32 10q6 0 12 -1q24 -5 40 -26l307 -403l303 401q23 31 50 32q19 0 40 -15q20 -16 22.5 -43t-14.5 -47l-325 -424l348 -449q14 -19 14 -39q0 -4 -1 -8q-3 -25 -23 -41q-18 -14 -45 -9t-41 25 l-326 428l-330 -432q-14 -18 -40 -23q-6 -1 -12 -1q-19 0 -36 12q-23 18 -23 46z" />
<glyph unicode="y" horiz-adv-x="1028" d="M59 975q-7 15 -6 29q0 16 8 31q16 28 50 28q43 0 59 -39l350 -793q4 -8 8 -8t9 8l317 785q20 47 61 47q35 0 51 -29q8 -15 8 -31q0 -15 -7 -30l-387 -946q-53 -135 -133 -243t-156 -151q-31 -16 -62 -16q-25 0 -41 16.5t-16 40.5q0 39 39 58q154 76 254 331z" />
<glyph unicode="z" horiz-adv-x="1046" d="M129 102q0 47 35 88l659 738h-602q-25 0 -42 15t-17 40t16.5 42t42.5 17h590q59 0 92 -31.5t33 -82.5q0 -45 -51 -103l-641 -710h626q25 0 41.5 -17.5t16.5 -40.5q0 -25 -15.5 -41t-42.5 -16h-626q-51 0 -83 29.5t-32 72.5z" />
<glyph unicode="{" horiz-adv-x="729" d="M72 645q0 37 43 72q61 49 84.5 102t23.5 131v486q0 78 54.5 132t130.5 54h237q27 0 44.5 -16.5t17.5 -42.5q0 -23 -18.5 -41.5t-43.5 -18.5h-242q-27 0 -44 -17.5t-17 -43.5v-492q0 -213 -137 -305q137 -98 137 -305v-518q0 -27 18.5 -44.5t45.5 -17.5h239q25 0 43.5 -18 t18.5 -41q0 -27 -17.5 -44t-44.5 -17h-237q-76 0 -130.5 54t-54.5 132v512q0 78 -23.5 131t-84.5 102q-43 35 -43 74z" />
<glyph unicode="|" horiz-adv-x="626" d="M248 -225v1874q0 27 17.5 44t41.5 17q27 0 43.5 -17.5t16.5 -43.5v-1874q0 -27 -16.5 -44.5t-43.5 -17.5q-25 0 -42 18.5t-17 43.5z" />
<glyph unicode="}" horiz-adv-x="729" d="M25 -299q0 23 18 41t43 18h240q27 0 45 17.5t18 44.5v518q0 207 137 305q-137 92 -137 305v492q0 27 -17.5 44t-43.5 17h-242q-25 0 -43 18.5t-18 41.5q0 27 17 43t44 16h238q76 0 130 -54.5t54 -131.5v-486q0 -78 23.5 -131t84.5 -102q43 -35 43 -72q0 -39 -43 -74 q-61 -49 -84.5 -102t-23.5 -131v-512q0 -78 -54.5 -132t-129.5 -54h-238q-27 0 -44 17t-17 44z" />
<glyph unicode="~" horiz-adv-x="1275" d="M164 707q0 43 47 61q135 59 227 59q78 0 203 -53t201 -53q78 0 176 55q39 20 66.5 1t27.5 -48q0 -43 -47 -61q-133 -59 -227 -60q-78 0 -203 53.5t-201 53.5t-172 -51q-45 -20 -71.5 -4t-26.5 47z" />
<glyph unicode="&#xa1;" horiz-adv-x="419" d="M143 1274v112q0 27 20.5 46.5t45.5 19.5q29 0 48 -19.5t19 -46.5v-112q0 -27 -19 -46.5t-48 -19.5q-25 0 -45.5 19.5t-20.5 46.5zM150 63l6 852q0 23 16 40.5t38.5 17.5t38 -16.5t15.5 -41.5l6 -852q-2 -27 -18 -44t-43 -17q-25 0 -42 17t-17 44z" />
<glyph unicode="&#xa2;" horiz-adv-x="1052" d="M219 606q-6 111 0 221q8 141 101.5 242.5t228.5 122.5v201q0 25 16.5 42t38.5 17q25 0 41.5 -17.5t16.5 -41.5v-201q201 -27 280 -207q8 -16 8 -35q0 -27 -17.5 -44t-39.5 -17q-43 0 -55 37q-29 72 -91.5 114.5t-138.5 42.5q-121 0 -190.5 -71.5t-79.5 -188.5 q-10 -109 0 -215q10 -117 79.5 -186.5t190.5 -69.5q76 0 137.5 41t90.5 109q14 45 55 45q25 0 41 -16.5t16 -41.5q0 -18 -8 -34q-90 -184 -278 -215v-199q0 -25 -16.5 -42t-41.5 -17q-20 0 -37.5 18t-17.5 41v199q-137 23 -229.5 123t-100.5 243z" />
<glyph unicode="&#xa3;" horiz-adv-x="1134" d="M25 669.5q0 24.5 18 41t43 16.5h125q-55 248 -55 317q0 174 113.5 291t314.5 117q236 0 387 -160q29 -29 28 -57q0 -25 -16 -40t-41 -15q-29 0 -57 28q-72 68 -138.5 97.5t-162.5 29.5q-158 0 -234 -87t-76 -199q0 -41 8.5 -89.5t26 -122t25.5 -110.5h332q27 0 44 -16.5 t17 -40.5q0 -27 -18.5 -44.5t-42.5 -17.5h-320q14 -102 -18.5 -235t-100.5 -254h760q25 0 42.5 -17.5t17.5 -44.5q0 -25 -17.5 -41t-44.5 -16h-782q-49 0 -77 25.5t-28 64.5q0 31 33 96q121 231 96 422h-141q-23 0 -42 18.5t-19 43z" />
<glyph unicode="&#xa4;" horiz-adv-x="1275" d="M104 249.5q0 26.5 21 45.5l184 186q-37 72 -41 172q-2 63 0 127q4 102 41 174l-186 189q-18 18 -18.5 46t18.5 44q47 43 92 -2l174 -178q104 92 248 92q145 0 250 -92l174 178q41 45 92 2q16 -16 16 -44t-18 -46l-186 -189q39 -76 43 -174v-127q0 -90 -43 -172l186 -186 q18 -18 18 -45t-16 -45q-47 -41 -92 2l-172 174q-102 -92 -252 -92t-250 92l-172 -174q-49 -41 -92 -2q-19 18 -19 44.5zM391 651q4 -102 75 -171.5t171 -69.5q102 0 172 69.5t74 171.5q2 57 0 131q-4 104 -74 174t-172 70q-100 0 -170 -69.5t-76 -174.5q-4 -43 0 -131z" />
<glyph unicode="&#xa5;" horiz-adv-x="1312" d="M53 1341q-39 51 6 86q20 16 44 13.5t40 -21.5l514 -639l512 639q16 18 41 21.5t43 -13.5q45 -35 7 -86l-488 -602q-4 -6 -13 -16t-12.5 -15.5t-9.5 -13.5t-9 -14t-6 -15.5t-4 -19.5t-1 -22v-29h282q25 0 42.5 -16.5t17.5 -40.5q0 -20 -18.5 -37t-41.5 -17h-282v-430 q0 -27 -17.5 -44t-42 -17t-42 18.5t-17.5 42.5v430h-285q-25 0 -41 15.5t-16 38.5q0 25 16.5 41t40.5 16h285v29q0 16 -2 29.5t-10 26.5t-12.5 19.5t-17.5 21.5t-17 21z" />
<glyph unicode="&#xa6;" horiz-adv-x="626" d="M248 -225v800q0 27 17.5 44.5t41.5 17.5q27 0 43.5 -17.5t16.5 -44.5v-800q0 -27 -16.5 -44.5t-43.5 -17.5q-25 0 -42 18.5t-17 43.5zM248 848v801q0 27 17.5 44t41.5 17q27 0 43.5 -17.5t16.5 -43.5v-801q0 -25 -17.5 -43.5t-42 -18.5t-42 18.5t-17.5 43.5z" />
<glyph unicode="&#xa7;" horiz-adv-x="1196" d="M178 -45q0 25 15.5 41t42.5 16q20 0 51 -20q131 -84 311 -84q145 0 220 70.5t75 164.5q0 51 -16.5 90t-38 61.5t-71.5 44t-86 32t-114 30.5q-195 51 -272.5 116t-77.5 169q0 100 74 180q-84 82 -84 226q0 156 114.5 256t292.5 100q229 0 377 -117q23 -16 23 -45 q0 -27 -15.5 -44t-42.5 -17q-18 0 -51 18q-147 86 -284 86q-145 0 -220 -70.5t-75 -162.5q0 -121 73.5 -171.5t249.5 -90.5q197 -45 274.5 -110t77.5 -171q0 -96 -73 -180q84 -84 84 -228q0 -156 -115 -256t-295 -100q-125 0 -236.5 36t-164.5 81q-23 18 -23 49zM342 694 q0 -66 58.5 -105.5t220.5 -76.5q109 -27 210 -70l5 4q39 35 38 97q0 66 -57 102.5t-221 77.5q-147 37 -211 70l-4 -5q-39 -35 -39 -94z" />
<glyph unicode="&#xa8;" horiz-adv-x="696" d="M119 1638q0 31 22.5 53.5t53.5 22.5q33 0 54 -22.5t21 -53.5q0 -33 -21.5 -54t-53.5 -21q-31 0 -53.5 21t-22.5 54zM426 1638q0 31 21.5 53.5t54.5 22.5q31 0 53.5 -22.5t22.5 -53.5q0 -33 -23 -54t-53 -21q-33 0 -54.5 21t-21.5 54z" />
<glyph unicode="&#xa9;" horiz-adv-x="1667" d="M215 614q-2 104 0 209q8 276 184 450.5t435 174.5q256 0 432 -179t186 -446q2 -104 0 -209q-10 -266 -186 -447t-432 -181q-254 0 -432.5 181t-186.5 447zM313 629q10 -252 155.5 -396.5t365.5 -144.5q215 0 360 140.5t160 379.5q6 113 0 221q-18 242 -161.5 381.5 t-358.5 139.5q-219 0 -365.5 -142.5t-155.5 -390.5q-4 -100 0 -188zM492 629q-8 90 0 186q10 141 105 237.5t239 96.5q111 0 190.5 -49t114.5 -135q8 -16 8 -37q0 -23 -14.5 -36t-34.5 -13q-33 0 -45 30q-29 63 -87.5 101.5t-131.5 38.5q-102 0 -167 -65.5t-75 -172.5 q-6 -74 0 -182q8 -104 73.5 -171t168.5 -67q74 0 132 38t87 99q12 33 45 33q18 0 33.5 -13t15.5 -36q0 -16 -8 -35q-37 -88 -117 -138t-188 -50q-143 0 -237.5 97.5t-106.5 242.5z" />
<glyph unicode="&#xaa;" horiz-adv-x="983" d="M94 885q-8 123 0 221q8 162 102.5 252t252.5 90q104 0 196 -31t137 -63q20 -20 21 -47v-392q0 -98 16.5 -149t54.5 -104q18 -31 11.5 -56.5t-27.5 -38.5q-53 -33 -90 19q-31 35 -51 88q-139 -119 -268 -119q-160 0 -252.5 90t-102.5 240zM217 899q16 -219 232 -219 q63 0 129.5 32.5t109.5 84.5q-10 74 -10 266v199q-31 23 -96.5 42t-132.5 19q-215 0 -232 -217q-8 -103 0 -207z" />
<glyph unicode="&#xab;" horiz-adv-x="1101" d="M104 715q0 66 89 141l243 201q23 18 48.5 16t41.5 -24q18 -20 15.5 -46t-23.5 -42l-272 -218q-18 -14 -18.5 -28.5t18.5 -28.5l272 -219q20 -16 23.5 -43t-15.5 -47q-16 -20 -41.5 -22.5t-48.5 14.5l-243 204q-89 74 -89 142zM475 715q0 66 88 141l246 201q20 18 47 16 t43 -24q16 -20 13 -46t-23 -42l-273 -218q-18 -14 -18 -28.5t18 -28.5l273 -219q20 -16 23 -43t-13 -47.5t-43 -22.5t-47 15l-246 204q-88 74 -88 142z" />
<glyph unicode="&#xac;" horiz-adv-x="1286" d="M123 719q0 27 17.5 43t43.5 16h854q57 0 90 -33.5t33 -87.5v-401q0 -27 -16.5 -44t-42.5 -17q-25 0 -42.5 18t-17.5 43v403h-858q-27 0 -44 17.5t-17 42.5z" />
<glyph unicode="&#xad;" horiz-adv-x="706" d="M121 588q0 27 17.5 42t43.5 15h342q27 0 44.5 -15.5t17.5 -42t-17.5 -43t-44.5 -16.5h-342q-27 0 -44 17.5t-17 42.5z" />
<glyph unicode="&#xae;" horiz-adv-x="1257" d="M178 836q-4 88 0 176q8 193 134 315.5t311 122.5q186 0 312 -123t132 -315q8 -88 0 -176q-6 -193 -132 -316t-312 -123q-184 0 -310.5 123t-134.5 316zM256 834q14 -170 113.5 -264.5t253 -94.5t253 94.5t113.5 264.5q8 90 0 182q-14 168 -113.5 261t-253 93t-253 -93 t-113.5 -261q-8 -92 0 -182zM430 686v463q0 27 16.5 44t45.5 17h161q76 0 130.5 -47t54.5 -131q0 -125 -127 -160l131 -155q16 -16 16 -33q0 -14 -11 -25.5t-28 -11.5q-20 0 -37 21l-151 180q-14 16 -37 16h-86v-178q0 -37 -41 -37q-14 0 -25.5 11.5t-11.5 25.5zM508 938 h137q111 0 111 100q0 98 -107 99h-141v-199z" />
<glyph unicode="&#xaf;" horiz-adv-x="696" d="M129 1630q0 23 14.5 38t36.5 15h344q23 0 38.5 -15t15.5 -37.5t-15.5 -37t-38.5 -14.5h-344q-20 0 -35.5 15.5t-15.5 35.5z" />
<glyph unicode="&#xb0;" horiz-adv-x="722" d="M102 1190q0 106 77 183t181 77q106 0 183.5 -77t77.5 -183q0 -104 -77 -181t-184 -77q-104 0 -181 77t-77 181zM205 1189.5q0 -65.5 46 -111.5t109 -46q68 0 114 46t46 111.5t-46 113t-114 47.5q-63 0 -109 -47.5t-46 -113z" />
<glyph unicode="&#xb1;" horiz-adv-x="1286" d="M123 59q0 27 18.5 43.5t44.5 16.5h914q27 0 45 -16.5t18 -43.5q0 -25 -19.5 -42t-43.5 -17h-914q-27 0 -45 17t-18 42zM123 698q0 27 18.5 43.5t44.5 16.5h400v399q0 27 17.5 45.5t41.5 18.5q27 0 43.5 -17.5t16.5 -46.5v-399h395q27 0 45 -16.5t18 -43.5 q0 -25 -19.5 -42t-43.5 -17h-395v-397q0 -29 -16.5 -46.5t-43.5 -17.5q-25 0 -42 18.5t-17 45.5v397h-400q-27 0 -45 17t-18 42z" />
<glyph unicode="&#xb2;" horiz-adv-x="948" d="M162 596q0 154 211 307q14 10 76.5 51t96.5 68t67.5 74t33.5 94q0 59 -48 105t-136 46q-117 0 -191 -98q-25 -33 -53 -33q-27 0 -42 15.5t-15 40.5q0 23 14 43q100 143 287 143q137 0 216 -74.5t79 -187.5q0 -47 -14.5 -87t-31 -66.5t-66.5 -67.5t-83 -63.5t-119 -80.5 q-156 -109 -172 -211h445q25 0 42 -15t17 -39.5t-17.5 -40t-41.5 -15.5l-471 -2q-37 0 -60.5 25.5t-23.5 68.5z" />
<glyph unicode="&#xb3;" horiz-adv-x="892" d="M139 539q0 23 16.5 37t43.5 14h77q166 0 270.5 63.5t104.5 171.5q0 68 -51 113t-119 45q-33 0 -63.5 -4t-38.5 -4q-27 0 -45.5 15.5t-18.5 42t21 46.5l229 230h-366q-27 0 -43.5 17t-16.5 40q0 55 60 55h419q37 0 64 -22.5t27 -57.5q0 -39 -39 -79l-176 -172 q115 -8 190.5 -81t75.5 -182q0 -162 -132 -254t-360 -92q-49 0 -69 2q-60 5 -60 56z" />
<glyph unicode="&#xb4;" horiz-adv-x="696" d="M156 1595q0 31 28 47l277 144q16 8 28 8q23 0 38.5 -15.5t15.5 -37.5q0 -35 -29 -49l-278 -144q-18 -6 -27 -6q-23 0 -38 15t-15 38z" />
<glyph unicode="&#xb5;" horiz-adv-x="1269" d="M213 -299v1292q0 27 17.5 45.5t42 18.5t42 -18.5t17.5 -45.5v-612q0 -133 74.5 -211t211.5 -78q182 0 318 86v815q0 27 16.5 45.5t42.5 18.5q23 0 41.5 -18.5t18.5 -45.5v-837q0 -43 -31 -60q-158 -115 -410 -114q-186 0 -282 98v-379q0 -27 -17.5 -44t-42.5 -17 q-27 0 -43 17t-16 44z" />
<glyph unicode="&#x3bc;" horiz-adv-x="1269" d="M213 -299v1292q0 27 17.5 45.5t42 18.5t42 -18.5t17.5 -45.5v-612q0 -133 74.5 -211t211.5 -78q182 0 318 86v815q0 27 16.5 45.5t42.5 18.5q23 0 41.5 -18.5t18.5 -45.5v-837q0 -43 -31 -60q-158 -115 -410 -114q-186 0 -282 98v-379q0 -27 -17.5 -44t-42.5 -17 q-27 0 -43 17t-16 44z" />
<glyph unicode="&#xb6;" horiz-adv-x="1406" d="M233 999q0 197 129.5 315t333.5 118h371q117 0 117 -105v-1659q0 -25 -17.5 -43t-42 -18t-42 18.5t-17.5 42.5v1645h-176v-1645q0 -27 -16.5 -44t-43.5 -17q-25 0 -42 17.5t-17 43.5v895h-72q-207 0 -336 115.5t-129 320.5zM352 997.5q0 -143.5 84 -228.5t258 -85h76v629 h-76q-174 0 -258 -86t-84 -229.5z" />
<glyph unicode="&#xb7;" horiz-adv-x="530" d="M199 668v110q0 29 19.5 49.5t48 20.5t48 -20.5t19.5 -49.5v-110q0 -31 -18.5 -50.5t-49.5 -19.5q-29 0 -48 20.5t-19 49.5z" />
<glyph unicode="&#xb8;" horiz-adv-x="696" d="M217 -455q0 39 45 54q92 35 125 64.5t33 64.5q0 23 -17.5 43t-46.5 20q-14 0 -31.5 -4t-27.5 -4q-29 0 -46.5 24.5t-6.5 55.5l53 145q10 43 57 43q51 0 52 -51q0 -10 -5 -18l-28 -82q74 -4 121 -51.5t47 -118.5q0 -156 -246 -238q-29 -10 -53.5 4t-24.5 49z" />
<glyph unicode="&#xb9;" horiz-adv-x="667" d="M101.5 1264.5q7.5 25.5 29.5 35.5l221 125q20 8 33 9q25 0 41 -17.5t16 -42.5v-819q0 -25 -16 -41t-43 -16q-25 0 -42 17t-17 40v717l-136 -76q-53 -29 -82 21q-12 22 -4.5 47.5z" />
<glyph unicode="&#xba;" horiz-adv-x="974" d="M125 903q-10 100 0 205q12 147 114.5 244.5t248 97.5t247 -97.5t115.5 -244.5q10 -102 0 -205q-14 -150 -115.5 -248t-247 -98t-248 99.5t-114.5 246.5zM240 913q8 -102 77.5 -167.5t170 -65.5t169 65.5t76.5 167.5q8 109 0 185q-10 98 -78.5 163.5t-167 65.5t-168 -64.5 t-79.5 -164.5q-6 -95 0 -185z" />
<glyph unicode="&#xbb;" horiz-adv-x="1101" d="M189.5 424q3.5 27 23.5 43l272 219q18 14 18.5 28.5t-18.5 28.5l-272 218q-20 16 -23.5 41.5t13.5 46.5q16 23 42.5 24.5t47.5 -16.5l246 -201q88 -76 88 -141q0 -68 -88 -142l-246 -204q-20 -16 -47 -14.5t-43.5 22t-13 47.5zM560 424q3 27 24 43l272 219q18 14 18 28.5 t-18 28.5l-272 218q-20 16 -23.5 41.5t14.5 46.5q16 23 42 24.5t49 -16.5l243 -201q88 -76 88 -141q0 -68 -88 -142l-243 -204q-23 -16 -48.5 -14.5t-42.5 22.5q-18 20 -15 47z" />
<glyph unicode="&#xbc;" horiz-adv-x="1939" d="M101.5 1266.5q7.5 23.5 29.5 33.5l221 125q20 8 33 9q25 0 39 -17.5t14 -42.5v-819q0 -25 -15 -41t-40 -16t-40 17t-15 40v725l-140 -76q-55 -29 -82 17q-12 22 -4.5 45.5zM451 14l573 1444q8 23 31.5 33t44.5 2q25 -8 35 -31.5t0 -48.5l-572 -1442q-8 -23 -30.5 -32 t-45.5 0q-25 10 -34.5 31t-1.5 44zM1010 309q0 41 39 84l417 494q45 51 88 51t65.5 -26.5t22.5 -69.5v-512h89q25 0 43 -16.5t18 -41t-17.5 -40t-43.5 -15.5h-89v-156q0 -25 -14 -43t-39 -18q-57 0 -57 61v156h-420q-45 0 -73.5 25.5t-28.5 66.5zM1135 330h397v467z" />
<glyph unicode="&#xbd;" horiz-adv-x="1896" d="M101.5 1266.5q7.5 23.5 29.5 33.5l221 125q20 8 33 9q25 0 39 -17.5t14 -42.5v-819q0 -25 -15 -41t-40 -16t-40 17t-15 40v725l-140 -76q-55 -29 -82 17q-12 22 -4.5 45.5zM455.5 -29.5q-9.5 21.5 1.5 47.5l571 1440q8 23 30.5 33t45.5 2q25 -8 35 -31.5t0 -48.5 l-572 -1442q-8 -23 -31.5 -33t-46.5 1q-24 10 -33.5 31.5zM1112 92q0 154 211 307q14 10 76.5 51.5t96.5 68t67.5 73.5t33.5 94q0 59 -48 105.5t-136 46.5q-117 0 -190 -99q-25 -33 -54 -32q-27 0 -42 15t-15 40q0 23 14 43q100 143 287 143q137 0 216 -74.5t79 -187.5 q0 -47 -14.5 -87t-30.5 -66.5t-66.5 -67.5t-83 -63.5t-118.5 -79.5q-156 -109 -172 -211h444q25 0 42 -15.5t17 -40t-17 -40t-42 -15.5l-471 -2q-37 0 -60.5 25.5t-23.5 68.5z" />
<glyph unicode="&#xbe;" horiz-adv-x="2174" d="M139 539q0 23 16.5 37t43.5 14h77q166 0 270.5 63.5t104.5 171.5q0 68 -51 113t-119 45q-33 0 -63.5 -4t-38.5 -4q-27 0 -45.5 15.5t-18.5 42t21 46.5l229 230h-366q-27 0 -43.5 17t-16.5 40q0 55 60 55h419q37 0 64 -22.5t27 -57.5q0 -39 -39 -79l-176 -172 q115 -8 190.5 -81t75.5 -182q0 -162 -132 -254t-360 -92q-49 0 -69 2q-60 5 -60 56zM723 14l573 1444q8 23 32 33t46 2q23 -10 32 -32.5t1 -47.5l-571 -1442q-23 -57 -80 -34q-23 8 -33 31t0 46zM1280 309q0 41 39 84l418 494q45 51 88 51t65.5 -26.5t22.5 -69.5v-512h88 q25 0 43 -16.5t18 -41t-17 -40t-44 -15.5h-88v-156q0 -25 -14.5 -43t-38.5 -18q-57 0 -58 61v156h-420q-45 0 -73.5 25.5t-28.5 66.5zM1403 330h399v467z" />
<glyph unicode="&#xbf;" horiz-adv-x="1146" d="M127 369q0 190 95 290.5t339 217.5q27 10 45 10q25 0 43.5 -17.5t18.5 -44.5q0 -41 -45 -61q-219 -96 -298 -177t-79 -222q0 -121 80 -194t217 -73q119 0 197.5 37t144.5 121q20 25 49 25q25 0 43 -18.5t18 -43.5q0 -18 -18 -43q-154 -195 -434 -194q-186 0 -301 108.5 t-115 278.5zM537 1274v112q0 27 20.5 46.5t46.5 19.5q25 0 46.5 -19.5t21.5 -46.5v-112q0 -27 -21.5 -46.5t-46.5 -19.5q-27 0 -47 19.5t-20 46.5z" />
<glyph unicode="&#xc0;" d="M59 84l447 1225q51 143 178 143q129 0 180 -141l447 -1227q8 -23 -2.5 -47.5t-33 -32.5t-45 2t-32.5 33l-172 469h-686l-168 -469q-10 -23 -32.5 -33t-47.5 -2q-23 8 -32 31.5t-1 48.5zM385 627h596l-236 659q-16 51 -61 51q-41 0 -61 -53zM424 1739q0 23 15.5 38 t37.5 15q18 0 31 -8l274 -144q29 -14 29 -47q0 -23 -15.5 -38t-37.5 -15q-12 0 -29 8l-276 142q-29 16 -29 49z" />
<glyph unicode="&#xc1;" d="M59 84l447 1225q51 143 178 143q129 0 180 -141l447 -1227q8 -23 -2.5 -47.5t-33 -32.5t-45 2t-32.5 33l-172 469h-686l-168 -469q-10 -23 -32.5 -33t-47.5 -2q-23 8 -32 31.5t-1 48.5zM385 627h596l-236 659q-16 51 -61 51q-41 0 -61 -53zM553 1593q0 31 29 47l276 144 q16 8 29 8q23 0 38 -15.5t15 -37.5q0 -35 -29 -49l-278 -144q-18 -6 -27 -6q-23 0 -38 15t-15 38z" />
<glyph unicode="&#xc2;" d="M59 84l447 1225q51 143 178 143q129 0 180 -141l447 -1227q8 -23 -2.5 -47.5t-33 -32.5t-45 2t-32.5 33l-172 469h-686l-168 -469q-10 -23 -32.5 -33t-47.5 -2q-23 8 -32 31.5t-1 48.5zM385 627h596l-236 659q-16 51 -61 51q-41 0 -61 -53zM428 1593q0 29 25 45l178 131 q23 20 53 21q25 0 51 -21l180 -131q23 -14 23 -45q0 -23 -14.5 -38t-38.5 -15q-20 0 -35 12l-166 123l-166 -123q-14 -12 -37 -12q-25 0 -39 15t-14 38z" />
<glyph unicode="&#xc3;" d="M59 84l447 1225q51 143 178 143q129 0 180 -141l447 -1227q8 -23 -2.5 -47.5t-33 -32.5t-45 2t-32.5 33l-172 469h-686l-168 -469q-10 -23 -32.5 -33t-47.5 -2q-23 8 -32 31.5t-1 48.5zM385 627h596l-236 659q-16 51 -61 51q-41 0 -61 -53zM408 1620q0 29 24 47 q72 61 141 62q51 0 121 -37t99 -37q27 0 57.5 25.5t52.5 25.5q25 0 41.5 -15.5t16.5 -37.5q0 -27 -25 -47q-72 -61 -143 -62q-51 0 -121 37t-96.5 37t-58.5 -25.5t-54 -25.5q-25 0 -40 15t-15 38z" />
<glyph unicode="&#xc4;" d="M59 84l447 1225q51 143 178 143q129 0 180 -141l447 -1227q8 -23 -2.5 -47.5t-33 -32.5t-45 2t-32.5 33l-172 469h-686l-168 -469q-10 -23 -32.5 -33t-47.5 -2q-23 8 -32 31.5t-1 48.5zM385 627h596l-236 659q-16 51 -61 51q-41 0 -61 -53zM455 1638q0 31 22.5 53.5 t52.5 22.5q33 0 54.5 -22.5t21.5 -53.5q0 -33 -21.5 -54t-54.5 -21q-31 0 -53 21t-22 54zM762 1638q0 31 21.5 53.5t54.5 22.5q31 0 53 -22.5t22 -53.5q0 -33 -22.5 -54t-52.5 -21q-33 0 -54.5 21t-21.5 54z" />
<glyph unicode="&#xc5;" d="M59 84l447 1225q51 143 178 143q129 0 180 -141l447 -1227q8 -23 -2.5 -47.5t-33 -32.5t-45 2t-32.5 33l-172 469h-686l-168 -469q-10 -23 -32.5 -33t-47.5 -2q-23 8 -32 31.5t-1 48.5zM385 627h596l-236 659q-16 51 -61 51q-41 0 -61 -53zM500 1722.5q0 75.5 54 130 t130 54.5t130 -54.5t54 -130t-54 -130t-130 -54.5t-130 54.5t-54 130zM590 1722q0 -39 27.5 -65.5t66.5 -26.5t66.5 26.5t27.5 65.5t-27.5 67t-66.5 28q-41 0 -67.5 -28t-26.5 -67z" />
<glyph unicode="&#xc6;" horiz-adv-x="2111" d="M41 41q-6 27 6 47l838 1243q68 100 207 101h804q27 0 44.5 -17.5t17.5 -44.5q0 -25 -18.5 -43t-43.5 -18h-716v-527h700q29 0 47.5 -16t18.5 -43t-19.5 -45.5t-46.5 -18.5h-700v-536h721q25 0 43 -18.5t18 -43.5q0 -27 -17.5 -44t-43.5 -17h-725q-55 0 -85 33t-30 82v405 h-572l-333 -500q-14 -20 -40 -26t-46 8q-23 12 -29 39zM571 643h490v666q-43 0 -70 -41z" />
<glyph unicode="&#xc7;" horiz-adv-x="1351" d="M156 551q-12 164 0 332q16 242 174.5 404.5t396.5 162.5q172 0 313.5 -96.5t200.5 -251.5q4 -12 4 -23q0 -25 -17.5 -41t-39.5 -16q-41 0 -58 41q-47 123 -157.5 196.5t-245.5 73.5q-186 0 -310 -126t-141 -320q-12 -170 0 -340q16 -197 139.5 -322t311.5 -125 q135 0 245.5 74t157.5 195q16 41 58 41q23 0 40 -16.5t17 -41.5q0 -10 -4 -22q-51 -137 -173 -230.5t-273 -111.5l-29 -88q74 -4 121 -51.5t47 -118.5q0 -156 -248 -238q-27 -10 -51.5 4.5t-24.5 48.5q0 39 43 54q94 35 127 64.5t33 64.5q0 23 -17.5 43t-45.5 20 q-14 0 -32 -4t-28 -4q-29 0 -46 24.5t-7 55.5l43 123q-221 14 -364.5 171.5t-159.5 393.5z" />
<glyph unicode="&#xc8;" horiz-adv-x="1275" d="M225 115v1202q0 49 30 82t85 33h719q27 0 45 -16.5t18 -43.5q0 -25 -18.5 -42t-44.5 -17h-715v-531h700q29 0 47.5 -16t18.5 -43t-19.5 -45.5t-46.5 -18.5h-700v-538h719q27 0 45 -17.5t18 -42.5q0 -27 -18 -44t-45 -17h-723q-55 0 -85 33t-30 82zM453 1739q0 23 15 38 t38 15q18 0 31 -8l274 -144q29 -14 29 -47q0 -23 -15.5 -38t-38.5 -15q-12 0 -28 8l-277 142q-28 16 -28 49z" />
<glyph unicode="&#xc9;" horiz-adv-x="1275" d="M225 115v1202q0 49 30 82t85 33h719q27 0 45 -16.5t18 -43.5q0 -25 -18.5 -42t-44.5 -17h-715v-531h700q29 0 47.5 -16t18.5 -43t-19.5 -45.5t-46.5 -18.5h-700v-538h719q27 0 45 -17.5t18 -42.5q0 -27 -18 -44t-45 -17h-723q-55 0 -85 33t-30 82zM430 1593q0 31 29 47 l276 144q16 8 29 8q23 0 38 -15.5t15 -37.5q0 -35 -29 -49l-278 -144q-18 -6 -27 -6q-23 0 -38 15t-15 38z" />
<glyph unicode="&#xca;" horiz-adv-x="1275" d="M225 115v1202q0 49 30 82t85 33h719q27 0 45 -16.5t18 -43.5q0 -25 -18.5 -42t-44.5 -17h-715v-531h700q29 0 47.5 -16t18.5 -43t-19.5 -45.5t-46.5 -18.5h-700v-538h719q27 0 45 -17.5t18 -42.5q0 -27 -18 -44t-45 -17h-723q-55 0 -85 33t-30 82zM424 1593q0 29 25 45 l178 131q23 20 53 21q25 0 51 -21l180 -131q23 -14 23 -45q0 -23 -14.5 -38t-38.5 -15q-20 0 -35 12l-166 123l-166 -123q-14 -12 -37 -12q-25 0 -39 15t-14 38z" />
<glyph unicode="&#xcb;" horiz-adv-x="1275" d="M225 115v1202q0 49 30 82t85 33h719q27 0 45 -16.5t18 -43.5q0 -25 -18.5 -42t-44.5 -17h-715v-531h700q29 0 47.5 -16t18.5 -43t-19.5 -45.5t-46.5 -18.5h-700v-538h719q27 0 45 -17.5t18 -42.5q0 -27 -18 -44t-45 -17h-723q-55 0 -85 33t-30 82zM461 1636 q0 31 22.5 53.5t53.5 22.5q33 0 54 -22.5t21 -53.5q0 -33 -21.5 -54t-53.5 -21q-31 0 -53.5 21t-22.5 54zM768 1636q0 31 21.5 53.5t54.5 22.5q31 0 53.5 -22.5t22.5 -53.5q0 -33 -23 -54t-53 -21q-33 0 -54.5 21t-21.5 54z" />
<glyph unicode="&#xcc;" horiz-adv-x="569" d="M31 1739q0 23 15 38t38 15q18 0 31 -8l274 -144q29 -14 29 -47q0 -23 -15.5 -38t-37.5 -15q-12 0 -29 8l-277 142q-28 16 -28 49zM225 53v1325q0 27 17.5 44.5t42 17.5t42 -17.5t17.5 -44.5v-1325q0 -27 -17.5 -44t-41.5 -17q-27 0 -43.5 17t-16.5 44z" />
<glyph unicode="&#xcd;" horiz-adv-x="569" d="M143 1593q0 31 29 47l277 144q16 8 28 8q23 0 38 -15.5t15 -37.5q0 -35 -28 -49l-279 -144q-18 -6 -26 -6q-23 0 -38.5 15t-15.5 38zM225 53v1325q0 27 17.5 44.5t42 17.5t42 -17.5t17.5 -44.5v-1325q0 -27 -17.5 -44t-41.5 -17q-27 0 -43.5 17t-16.5 44z" />
<glyph unicode="&#xce;" horiz-adv-x="569" d="M31 1593q0 29 24 45l178 131q23 20 54 21q25 0 51 -21l180 -131q23 -14 23 -45q0 -23 -14.5 -38t-39.5 -15q-20 0 -34 12l-166 123l-166 -123q-14 -12 -37 -12q-25 0 -39 15t-14 38zM225 53v1325q0 27 17.5 44.5t42 17.5t42 -17.5t17.5 -44.5v-1325q0 -27 -17.5 -44 t-41.5 -17q-27 0 -43.5 17t-16.5 44z" />
<glyph unicode="&#xcf;" horiz-adv-x="569" d="M55 1638q0 31 22.5 53.5t53.5 22.5q33 0 54.5 -22.5t21.5 -53.5q0 -33 -21.5 -54t-54.5 -21q-31 0 -53.5 21t-22.5 54zM225 53v1325q0 27 17.5 44.5t42 17.5t42 -17.5t17.5 -44.5v-1325q0 -27 -17.5 -44t-41.5 -17q-27 0 -43.5 17t-16.5 44zM362 1638q0 31 22 53.5 t54 22.5q31 0 53.5 -22.5t22.5 -53.5q0 -33 -22.5 -54t-53.5 -21q-33 0 -54.5 21t-21.5 54z" />
<glyph unicode="&#xd0;" horiz-adv-x="1472" d="M6 709q0 27 16.5 43t43.5 16h159v549q0 49 30 82t83 33h354q293 0 454 -167t173 -440q6 -117 0 -223q-12 -268 -175 -435t-452 -167h-354q-53 0 -83 33t-30 82v534h-159q-27 0 -43.5 17.5t-16.5 42.5zM344 121h344q246 0 373 128t139 353q6 121 0 229q-14 227 -140 354.5 t-372 127.5h-344v-545h361q27 0 44 -16.5t17 -42.5q0 -25 -17.5 -42.5t-43.5 -17.5h-361v-528z" />
<glyph unicode="&#xd1;" horiz-adv-x="1574" d="M225 53v1272q0 53 30 85t81 32q70 0 110 -64l789 -1251h4q-6 246 -6 291v960q0 27 17.5 44.5t42 17.5t42 -17.5t17.5 -44.5v-1272q0 -45 -29 -77.5t-70 -32.5q-72 0 -110 59l-797 1264h-6q4 -160 4 -301v-965q0 -25 -17.5 -43t-42 -18t-42 18t-17.5 43zM508 1624 q0 29 24 47q72 61 142 62q51 0 120.5 -37t98.5 -37q27 0 57.5 25.5t53.5 25.5q25 0 41 -15.5t16 -37.5q0 -27 -25 -47q-72 -61 -143 -62q-49 0 -121 37t-96 37q-27 0 -58.5 -25.5t-54.5 -25.5q-25 0 -40 15t-15 38z" />
<glyph unicode="&#xd2;" horiz-adv-x="1488" d="M156 551q-12 164 0 332q16 242 181 404.5t404.5 162.5t407.5 -163t184 -404q12 -168 0 -332q-16 -244 -183 -406.5t-409 -162.5q-240 0 -404.5 161.5t-180.5 407.5zM276 547q18 -195 147.5 -321t317.5 -126q193 0 323 126t148 321q16 170 0 338q-18 195 -149 320.5 t-322 125.5q-188 0 -317 -126t-148 -320q-14 -168 0 -338zM504 1739q0 23 15.5 38t37.5 15q18 0 31 -8l274 -144q29 -14 29 -47q0 -23 -15.5 -38t-37.5 -15q-12 0 -29 8l-277 142q-28 16 -28 49z" />
<glyph unicode="&#xd3;" horiz-adv-x="1488" d="M156 551q-12 164 0 332q16 242 181 404.5t404.5 162.5t407.5 -163t184 -404q12 -168 0 -332q-16 -244 -183 -406.5t-409 -162.5q-240 0 -404.5 161.5t-180.5 407.5zM276 547q18 -195 147.5 -321t317.5 -126q193 0 323 126t148 321q16 170 0 338q-18 195 -149 320.5 t-322 125.5q-188 0 -317 -126t-148 -320q-14 -168 0 -338zM594 1593q0 31 29 47l276 144q16 8 29 8q23 0 38 -15.5t15 -37.5q0 -35 -29 -49l-278 -144q-18 -6 -27 -6q-23 0 -38 15t-15 38z" />
<glyph unicode="&#xd4;" horiz-adv-x="1488" d="M156 551q-12 164 0 332q16 242 181 404.5t404.5 162.5t407.5 -163t184 -404q12 -168 0 -332q-16 -244 -183 -406.5t-409 -162.5q-240 0 -404.5 161.5t-180.5 407.5zM276 547q18 -195 147.5 -321t317.5 -126q193 0 323 126t148 321q16 170 0 338q-18 195 -149 320.5 t-322 125.5q-188 0 -317 -126t-148 -320q-14 -168 0 -338zM487 1593q0 29 25 45l178 131q23 20 53 21q25 0 52 -21l180 -131q23 -14 22 -45q0 -23 -14 -38t-39 -15q-20 0 -35 12l-166 123l-165 -123q-14 -12 -37 -12q-25 0 -39.5 15t-14.5 38z" />
<glyph unicode="&#xd5;" horiz-adv-x="1488" d="M156 551q-12 164 0 332q16 242 181 404.5t404.5 162.5t407.5 -163t184 -404q12 -168 0 -332q-16 -244 -183 -406.5t-409 -162.5q-240 0 -404.5 161.5t-180.5 407.5zM276 547q18 -195 147.5 -321t317.5 -126q193 0 323 126t148 321q16 170 0 338q-18 195 -149 320.5 t-322 125.5q-188 0 -317 -126t-148 -320q-14 -168 0 -338zM469 1616q0 29 25 47q72 61 141 61q51 0 120.5 -36.5t98.5 -36.5q27 0 57.5 25.5t53.5 25.5q25 0 41 -15.5t16 -37.5q0 -27 -25 -47q-72 -61 -143 -62q-51 0 -120.5 37t-96.5 37t-58.5 -25.5t-54.5 -25.5 q-25 0 -40 15t-15 38z" />
<glyph unicode="&#xd6;" horiz-adv-x="1488" d="M156 551q-12 164 0 332q16 242 181 404.5t404.5 162.5t407.5 -163t184 -404q12 -168 0 -332q-16 -244 -183 -406.5t-409 -162.5q-240 0 -404.5 161.5t-180.5 407.5zM276 547q18 -195 147.5 -321t317.5 -126q193 0 323 126t148 321q16 170 0 338q-18 195 -149 320.5 t-322 125.5q-188 0 -317 -126t-148 -320q-14 -168 0 -338zM514 1638q0 31 22.5 53.5t53.5 22.5q33 0 54.5 -22.5t21.5 -53.5q0 -33 -21.5 -54t-54.5 -21q-31 0 -53.5 21t-22.5 54zM821 1638q0 31 21.5 53.5t54.5 22.5q31 0 53.5 -22.5t22.5 -53.5q0 -33 -22.5 -54t-53.5 -21 q-33 0 -54.5 21t-21.5 54z" />
<glyph unicode="&#xd7;" horiz-adv-x="1286" d="M174 310.5q0 25.5 19 43.5l366 367l-366 362q-18 18 -18.5 44t15.5 42q43 39 91 -4l362 -364l358 358q20 18 47 20.5t46 -16.5q16 -18 15 -42.5t-19 -41.5l-363 -358l363 -359q18 -16 19 -41.5t-15 -44.5q-18 -18 -45 -17t-48 20l-358 358l-362 -365q-47 -43 -91 -4 q-16 17 -16 42.5z" />
<glyph unicode="&#xd8;" horiz-adv-x="1486" d="M154 551q-12 164 0 332q16 242 181 404.5t404 162.5q164 0 303 -84l29 51q10 20 33.5 27.5t44.5 -2.5q43 -23 20 -76l-36 -66q180 -160 198 -417q12 -168 0 -332q-16 -244 -183 -406.5t-409 -162.5q-162 0 -295 77l-26 -47q-25 -47 -74 -24q-20 8 -26.5 31.5t4.5 43.5 l32 62q-182 162 -200 426zM274 547q18 -190 140 -316l571 1031q-109 70 -246 69q-188 0 -317 -126t-148 -320q-16 -168 0 -338zM502 164q104 -63 237 -64q193 0 323 126t148 321q14 170 0 338q-18 186 -137 307z" />
<glyph unicode="&#xd9;" horiz-adv-x="1531" d="M203 565v813q0 27 17.5 44.5t41.5 17.5q27 0 43.5 -17.5t16.5 -44.5v-803q0 -215 124.5 -345t319.5 -130t319.5 130t124.5 345v803q0 27 17.5 44.5t42.5 17.5q27 0 43 -17.5t16 -44.5v-813q0 -258 -159.5 -420.5t-403.5 -162.5t-403.5 162.5t-159.5 420.5zM584 1739 q0 23 15 38t38 15q18 0 31 -8l274 -144q29 -14 29 -47q0 -23 -15.5 -38t-37.5 -15q-12 0 -29 8l-277 142q-28 16 -28 49z" />
<glyph unicode="&#xda;" horiz-adv-x="1531" d="M203 565v813q0 27 17.5 44.5t41.5 17.5q27 0 43.5 -17.5t16.5 -44.5v-803q0 -215 124.5 -345t319.5 -130t319.5 130t124.5 345v803q0 27 17.5 44.5t42.5 17.5q27 0 43 -17.5t16 -44.5v-813q0 -258 -159.5 -420.5t-403.5 -162.5t-403.5 162.5t-159.5 420.5zM561 1593 q0 31 29 47l276 144q16 8 29 8q23 0 38 -15.5t15 -37.5q0 -35 -28 -49l-279 -144q-18 -6 -27 -6q-23 0 -38 15t-15 38z" />
<glyph unicode="&#xdb;" horiz-adv-x="1531" d="M203 565v813q0 27 17.5 44.5t41.5 17.5q27 0 43.5 -17.5t16.5 -44.5v-803q0 -215 124.5 -345t319.5 -130t319.5 130t124.5 345v803q0 27 17.5 44.5t42.5 17.5q27 0 43 -17.5t16 -44.5v-813q0 -258 -159.5 -420.5t-403.5 -162.5t-403.5 162.5t-159.5 420.5zM510 1593 q0 29 25 45l178 131q23 20 53 21q25 0 51 -21l180 -131q23 -14 23 -45q0 -23 -14.5 -38t-38.5 -15q-20 0 -35 12l-166 123l-166 -123q-14 -12 -37 -12q-25 0 -39 15t-14 38z" />
<glyph unicode="&#xdc;" horiz-adv-x="1531" d="M203 565v813q0 27 17.5 44.5t41.5 17.5q27 0 43.5 -17.5t16.5 -44.5v-803q0 -215 124.5 -345t319.5 -130t319.5 130t124.5 345v803q0 27 17.5 44.5t42.5 17.5q27 0 43 -17.5t16 -44.5v-813q0 -258 -159.5 -420.5t-403.5 -162.5t-403.5 162.5t-159.5 420.5zM537 1638 q0 31 22.5 53.5t52.5 22.5q33 0 54.5 -22.5t21.5 -53.5q0 -33 -21.5 -54t-54.5 -21q-31 0 -53 21t-22 54zM844 1638q0 31 21.5 53.5t54.5 22.5q31 0 53 -22.5t22 -53.5q0 -33 -22.5 -54t-52.5 -21q-33 0 -54.5 21t-21.5 54z" />
<glyph unicode="&#xdd;" horiz-adv-x="1312" d="M53 1341q-39 51 6 86q20 16 44 13.5t40 -21.5l514 -639l512 639q16 18 41 21.5t43 -13.5q45 -35 7 -86l-488 -602q-4 -6 -13 -16t-12.5 -15.5t-9.5 -13.5t-9 -14t-6 -15.5t-4 -19.5t-1 -22v-570q0 -27 -17.5 -44t-42 -17t-42 18.5t-17.5 42.5v570q0 16 -2 29.5t-10 26.5 t-12.5 19.5t-17.5 21.5t-17 21zM463 1593q0 31 29 47l276 144q16 8 29 8q23 0 38 -15.5t15 -37.5q0 -35 -29 -49l-278 -144q-18 -6 -27 -6q-23 0 -38 15t-15 38z" />
<glyph unicode="&#xde;" horiz-adv-x="1314" d="M225 53v1338q0 27 16.5 44t43.5 17q23 0 41 -17.5t18 -43.5v-240h414q190 0 319 -116.5t129 -315.5q0 -205 -129 -320.5t-336 -115.5h-397v-230q0 -27 -17.5 -44t-42 -17t-42 17t-17.5 44zM344 401h399q340 0 340 314q0 145 -82.5 231t-246.5 86h-410v-631z" />
<glyph unicode="&#xdf;" horiz-adv-x="1329" d="M205 53v979q0 197 108.5 301.5t307.5 104.5q160 0 262 -82t102 -211q0 -63 -27.5 -116.5t-61.5 -84.5t-61.5 -72t-27.5 -84q0 -55 32.5 -86.5t121.5 -58.5q152 -49 225.5 -128t73.5 -198q0 -154 -112 -245.5t-282 -91.5t-323 116q-16 16 -20.5 42t9.5 44q16 20 41 24.5 t48 -9.5q6 -4 34.5 -25.5t35.5 -27t33 -19.5t43 -17.5t47 -8.5t63 -5q119 0 190.5 56.5t71.5 162.5q0 80 -45 122t-156 81q-139 51 -196.5 110.5t-57.5 168.5q0 59 28.5 110t62.5 81t62.5 72t28.5 87q0 86 -63.5 135t-177.5 47q-301 -4 -301 -297v-977q0 -25 -17.5 -43 t-42 -18t-42 18t-17.5 43z" />
<glyph unicode="&#xe0;" horiz-adv-x="1155" d="M139 319q0 145 105.5 238.5t298.5 93.5q133 0 307 -47v88q0 141 -67.5 205t-211.5 64q-121 0 -262 -60q-39 -16 -64.5 0.5t-25.5 46.5q0 39 37 60q139 72 315 71q199 0 298.5 -89t99.5 -279v-561q0 -37 -27 -56q-55 -41 -164.5 -76.5t-245.5 -35.5q-188 0 -290.5 89.5 t-102.5 247.5zM258 317q0 -219 293 -219q80 0 165 26t134 62v301q-186 51 -299 52q-143 0 -218 -62t-75 -160zM395 1403q0 23 15.5 38t38.5 15q18 0 30 -8l275 -143q29 -14 28 -48q0 -23 -15 -38t-38 -15q-12 0 -29 8l-276 142q-29 16 -29 49z" />
<glyph unicode="&#xe1;" horiz-adv-x="1155" d="M139 319q0 145 105.5 238.5t298.5 93.5q133 0 307 -47v88q0 141 -67.5 205t-211.5 64q-121 0 -262 -60q-39 -16 -64.5 0.5t-25.5 46.5q0 39 37 60q139 72 315 71q199 0 298.5 -89t99.5 -279v-561q0 -37 -27 -56q-55 -41 -164.5 -76.5t-245.5 -35.5q-188 0 -290.5 89.5 t-102.5 247.5zM258 317q0 -219 293 -219q80 0 165 26t134 62v301q-186 51 -299 52q-143 0 -218 -62t-75 -160zM379 1257q0 31 29 48l276 143q16 8 29 8q23 0 38 -15.5t15 -37.5q0 -35 -29 -49l-278 -144q-18 -6 -27 -6q-23 0 -38 15t-15 38z" />
<glyph unicode="&#xe2;" horiz-adv-x="1155" d="M139 319q0 145 105.5 238.5t298.5 93.5q133 0 307 -47v88q0 141 -67.5 205t-211.5 64q-121 0 -262 -60q-39 -16 -64.5 0.5t-25.5 46.5q0 39 37 60q139 72 315 71q199 0 298.5 -89t99.5 -279v-561q0 -37 -27 -56q-55 -41 -164.5 -76.5t-245.5 -35.5q-188 0 -290.5 89.5 t-102.5 247.5zM258 317q0 -219 293 -219q80 0 165 26t134 62v301q-186 51 -299 52q-143 0 -218 -62t-75 -160zM326 1231q0 29 24 45l178 131q23 20 54 20q25 0 51 -20l180 -131q23 -14 23 -45q0 -23 -14.5 -38t-39.5 -15q-20 0 -34 12l-166 123l-166 -123q-14 -12 -37 -12 q-25 0 -39 15t-14 38z" />
<glyph unicode="&#xe3;" horiz-adv-x="1155" d="M139 319q0 145 105.5 238.5t298.5 93.5q133 0 307 -47v88q0 141 -67.5 205t-211.5 64q-121 0 -262 -60q-39 -16 -64.5 0.5t-25.5 46.5q0 39 37 60q139 72 315 71q199 0 298.5 -89t99.5 -279v-561q0 -37 -27 -56q-55 -41 -164.5 -76.5t-245.5 -35.5q-188 0 -290.5 89.5 t-102.5 247.5zM258 317q0 -219 293 -219q80 0 165 26t134 62v301q-186 51 -299 52q-143 0 -218 -62t-75 -160zM305 1288q0 29 25 47q72 61 141 62q51 0 121 -37t98 -37q27 0 57.5 25.5t53.5 25.5q25 0 41 -15.5t16 -37.5q0 -27 -24 -47q-72 -61 -144 -62q-51 0 -120.5 37 t-96.5 37t-58.5 -25.5t-54.5 -25.5q-25 0 -40 15t-15 38z" />
<glyph unicode="&#xe4;" horiz-adv-x="1155" d="M139 319q0 145 105.5 238.5t298.5 93.5q133 0 307 -47v88q0 141 -67.5 205t-211.5 64q-121 0 -262 -60q-39 -16 -64.5 0.5t-25.5 46.5q0 39 37 60q139 72 315 71q199 0 298.5 -89t99.5 -279v-561q0 -37 -27 -56q-55 -41 -164.5 -76.5t-245.5 -35.5q-188 0 -290.5 89.5 t-102.5 247.5zM258 317q0 -219 293 -219q80 0 165 26t134 62v301q-186 51 -299 52q-143 0 -218 -62t-75 -160zM352 1307q0 31 22.5 53t53.5 22q33 0 54.5 -22.5t21.5 -52.5q0 -33 -21.5 -54.5t-54.5 -21.5q-31 0 -53.5 21.5t-22.5 54.5zM659 1307q0 31 21.5 53t54.5 22 q31 0 53.5 -22.5t22.5 -52.5q0 -33 -22.5 -54.5t-53.5 -21.5q-33 0 -54.5 21.5t-21.5 54.5z" />
<glyph unicode="&#xe5;" horiz-adv-x="1155" d="M139 319q0 145 105.5 238.5t298.5 93.5q133 0 307 -47v88q0 141 -67.5 205t-211.5 64q-121 0 -262 -60q-39 -16 -64.5 0.5t-25.5 46.5q0 39 37 60q139 72 315 71q199 0 298.5 -89t99.5 -279v-561q0 -37 -27 -56q-55 -41 -164.5 -76.5t-245.5 -35.5q-188 0 -290.5 89.5 t-102.5 247.5zM258 317q0 -219 293 -219q80 0 165 26t134 62v301q-186 51 -299 52q-143 0 -218 -62t-75 -160zM397 1341.5q0 75.5 54.5 130t130 54.5t130 -54.5t54.5 -130t-54.5 -130t-130 -54.5t-130 54.5t-54.5 130zM487 1341.5q0 -38.5 28 -65.5t67 -27t66.5 27 t27.5 65.5t-27.5 66.5t-66.5 28q-41 0 -68 -28t-27 -66.5z" />
<glyph unicode="&#xe6;" horiz-adv-x="1150" d="M139 319q0 145 105.5 238.5t298.5 93.5q133 0 307 -47v88q0 141 -67.5 205t-211.5 64q-125 0 -262 -60q-39 -16 -64.5 0.5t-25.5 46.5q0 39 37 60q139 72 315 71q272 0 361 -174q131 174 364 174q195 0 310.5 -119.5t115.5 -308.5v-67q0 -109 -118 -109h-637v-41 q0 -160 91 -250t245 -90q109 0 262 56q41 14 66.5 -3.5t25.5 -46.5q0 -35 -35 -55q-109 -66 -317 -65q-225 0 -342 137q-61 -49 -179 -92t-252 -43q-188 0 -290.5 89.5t-102.5 247.5zM258 317q0 -219 293 -219q188 0 346 119q-51 117 -47 270q-186 51 -299 52 q-143 0 -218 -62t-75 -160zM967 590h606q29 0 31 28q12 156 -75 251.5t-237 95.5q-164 0 -247.5 -100.5t-77.5 -274.5z" />
<glyph unicode="&#xe7;" horiz-adv-x="1138" d="M162 391q-8 141 0 287q8 180 133 290.5t317 110.5q96 0 178 -33.5t128.5 -83t71 -97.5t24.5 -83q0 -63 -58 -63q-45 0 -63 55q-33 92 -112 141.5t-171 49.5q-141 0 -231 -80t-96 -207q-8 -201 0 -289q10 -131 98 -213t229 -82q92 0 171 49.5t116 143.5q18 55 68 55 q23 0 38 -16.5t15 -44.5q0 -80 -100.5 -183.5t-266.5 -115.5l-30 -84q74 -4 122 -50.5t48 -117.5q0 -156 -244 -236q-29 -12 -54.5 2.5t-25.5 48.5q0 41 43 54q160 51 160 129q0 27 -16.5 45t-45.5 18q-16 0 -33.5 -4t-29.5 -4q-31 0 -46.5 24.5t-4.5 55.5l45 123 q-164 20 -265.5 132.5t-111.5 272.5z" />
<glyph unicode="&#xe8;" horiz-adv-x="1175" d="M164 426q-6 111 2 238q14 193 135 304t307 111q197 0 312.5 -119.5t115.5 -308.5v-67q0 -109 -118 -109h-637v-41q0 -160 91 -250t244 -90q113 0 263 56q41 14 66.5 -3.5t25.5 -46.5q0 -35 -35 -55q-109 -66 -317.5 -65.5t-326.5 121t-128 325.5zM281 590h606q29 0 31 28 q12 156 -75 251.5t-237 95.5q-164 0 -246.5 -98.5t-78.5 -276.5zM389 1403q0 23 15.5 38t37.5 15q18 0 31 -8l275 -143q29 -14 28 -48q0 -23 -15.5 -38t-37.5 -15q-12 0 -29 8l-276 142q-29 16 -29 49z" />
<glyph unicode="&#xe9;" horiz-adv-x="1175" d="M164 426q-6 111 2 238q14 193 135 304t307 111q197 0 312.5 -119.5t115.5 -308.5v-67q0 -109 -118 -109h-637v-41q0 -160 91 -250t244 -90q113 0 263 56q41 14 66.5 -3.5t25.5 -46.5q0 -35 -35 -55q-109 -66 -317.5 -65.5t-326.5 121t-128 325.5zM281 590h606q29 0 31 28 q12 156 -75 251.5t-237 95.5q-164 0 -246.5 -98.5t-78.5 -276.5zM430 1257q0 31 29 48l276 143q16 8 29 8q23 0 38 -15.5t15 -37.5q0 -35 -29 -49l-278 -144q-18 -6 -27 -6q-23 0 -38 15t-15 38z" />
<glyph unicode="&#xea;" horiz-adv-x="1175" d="M164 426q-6 111 2 238q14 193 135 304t307 111q197 0 312.5 -119.5t115.5 -308.5v-67q0 -109 -118 -109h-637v-41q0 -160 91 -250t244 -90q113 0 263 56q41 14 66.5 -3.5t25.5 -46.5q0 -35 -35 -55q-109 -66 -317.5 -65.5t-326.5 121t-128 325.5zM281 590h606q29 0 31 28 q12 156 -75 251.5t-237 95.5q-164 0 -246.5 -98.5t-78.5 -276.5zM330 1257q0 29 24 46l178 131q23 20 54 20q25 0 51 -20l180 -131q23 -14 23 -46q0 -23 -14.5 -38t-39.5 -15q-20 0 -34 13l-166 122l-166 -122q-14 -12 -37 -13q-25 0 -39 15t-14 38z" />
<glyph unicode="&#xeb;" horiz-adv-x="1175" d="M164 426q-6 111 2 238q14 193 135 304t307 111q197 0 312.5 -119.5t115.5 -308.5v-67q0 -109 -118 -109h-637v-41q0 -160 91 -250t244 -90q113 0 263 56q41 14 66.5 -3.5t25.5 -46.5q0 -35 -35 -55q-109 -66 -317.5 -65.5t-326.5 121t-128 325.5zM281 590h606q29 0 31 28 q12 156 -75 251.5t-237 95.5q-164 0 -246.5 -98.5t-78.5 -276.5zM371 1307q0 31 22.5 53t52.5 22q33 0 54.5 -22.5t21.5 -52.5q0 -33 -21.5 -54.5t-54.5 -21.5q-31 0 -53 21.5t-22 54.5zM678 1307q0 31 21.5 53t54.5 22q31 0 53 -22.5t22 -52.5q0 -33 -22.5 -54.5 t-52.5 -21.5q-33 0 -54.5 21.5t-21.5 54.5z" />
<glyph unicode="&#xec;" horiz-adv-x="546" d="M31 1403q0 23 15 38t38 15q18 0 31 -8l274 -143q29 -14 29 -48q0 -23 -15.5 -38t-37.5 -15q-12 0 -29 8l-277 142q-28 16 -28 49zM217 53v951q0 27 16.5 44t42.5 17q23 0 41.5 -18.5t18.5 -42.5v-951q0 -25 -17.5 -43t-42 -18t-42 18t-17.5 43z" />
<glyph unicode="&#xed;" horiz-adv-x="546" d="M139 1257q0 31 29 48l276 143q16 8 29 8q23 0 38 -15.5t15 -37.5q0 -35 -28 -49l-279 -144q-18 -6 -26 -6q-23 0 -38.5 15t-15.5 38zM217 53v951q0 27 16.5 44t42.5 17q23 0 41.5 -18.5t18.5 -42.5v-951q0 -25 -17.5 -43t-42 -18t-42 18t-17.5 43z" />
<glyph unicode="&#xee;" horiz-adv-x="546" d="M29 1257q0 29 24 46l178 131q23 20 54 20q25 0 51 -20l180 -131q23 -14 23 -46q0 -23 -14.5 -38t-39.5 -15q-20 0 -34 13l-166 122l-166 -122q-14 -12 -37 -13q-25 0 -39 15t-14 38zM217 53v951q0 27 16.5 44t42.5 17q23 0 41.5 -18.5t18.5 -42.5v-951q0 -25 -17.5 -43 t-42 -18t-42 18t-17.5 43z" />
<glyph unicode="&#xef;" horiz-adv-x="546" d="M55 1307q0 31 22.5 53t53.5 22q33 0 54.5 -22.5t21.5 -52.5q0 -33 -21.5 -54.5t-54.5 -21.5q-31 0 -53.5 21.5t-22.5 54.5zM217 53v951q0 27 16.5 44t42.5 17q23 0 41.5 -18.5t18.5 -42.5v-951q0 -25 -17.5 -43t-42 -18t-42 18t-17.5 43zM362 1307q0 31 22 53t54 22 q31 0 53.5 -22.5t22.5 -52.5q0 -33 -22.5 -54.5t-53.5 -21.5q-33 0 -54.5 21.5t-21.5 54.5z" />
<glyph unicode="&#xf0;" horiz-adv-x="1212" d="M162 377q-6 123 0 248q12 172 132 279.5t298 107.5q182 0 301 -123q0 190 -107 307l-147 -70q-55 -25 -80 29q-20 49 33 76l100 47q-37 25 -80 49q-29 16 -37 42t7 44q10 20 34.5 26.5t55.5 -9.5q68 -39 139 -97l129 62q20 12 45 5t35 -32q10 -23 0 -45.5t-33 -32.5 l-90 -43q123 -152 123 -428v-416q0 -188 -124 -305.5t-306 -117.5q-176 0 -296 112.5t-132 284.5zM283 379q10 -125 94 -205t213 -80t212 79t93 206q8 94 0 242q-8 123 -90 199.5t-215 76.5q-131 0 -215 -78t-92 -198q-8 -148 0 -242z" />
<glyph unicode="&#xf1;" horiz-adv-x="1259" d="M207 53v854q0 41 29 62q55 41 162.5 75.5t248.5 34.5q207 0 314.5 -107.5t107.5 -303.5v-615q0 -27 -16.5 -44t-42.5 -17q-25 0 -42.5 17.5t-17.5 43.5v611q0 150 -86 225.5t-221 75.5q-188 0 -317 -80v-832q0 -27 -16.5 -44t-43.5 -17q-25 0 -42 17t-17 44zM352 1288 q0 29 25 47q72 61 141 62q51 0 121 -37t98 -37q27 0 57.5 25.5t53.5 25.5q25 0 41 -15.5t16 -37.5q0 -27 -24 -47q-72 -61 -144 -62q-49 0 -120.5 37t-96.5 37q-27 0 -58.5 -25.5t-53.5 -25.5q-25 0 -40.5 15t-15.5 38z" />
<glyph unicode="&#xf2;" horiz-adv-x="1212" d="M162 391q-6 141 0 285q8 178 133 290.5t311 112.5q184 0 309 -112.5t134 -290.5q6 -143 0 -285q-10 -178 -134 -294.5t-308.5 -116.5t-309.5 116.5t-135 294.5zM283 389q12 -133 100 -214t223 -81t222 81t100 214q10 113 0 287q-8 127 -95.5 208t-226.5 81t-227 -81 t-96 -208q-10 -174 0 -287zM420 1403q0 23 15.5 38t37.5 15q18 0 31 -8l274 -143q29 -14 29 -48q0 -23 -15.5 -38t-37.5 -15q-12 0 -29 8l-276 142q-29 16 -29 49z" />
<glyph unicode="&#xf3;" horiz-adv-x="1212" d="M162 391q-6 141 0 285q8 178 133 290.5t311 112.5q184 0 309 -112.5t134 -290.5q6 -143 0 -285q-10 -178 -134 -294.5t-308.5 -116.5t-309.5 116.5t-135 294.5zM283 389q12 -133 100 -214t223 -81t222 81t100 214q10 113 0 287q-8 127 -95.5 208t-226.5 81t-227 -81 t-96 -208q-10 -174 0 -287zM406 1257q0 31 28 48l277 143q16 8 28 8q23 0 38.5 -15.5t15.5 -37.5q0 -35 -29 -49l-279 -144q-18 -6 -26 -6q-23 0 -38 15t-15 38z" />
<glyph unicode="&#xf4;" horiz-adv-x="1212" d="M162 391q-6 141 0 285q8 178 133 290.5t311 112.5q184 0 309 -112.5t134 -290.5q6 -143 0 -285q-10 -178 -134 -294.5t-308.5 -116.5t-309.5 116.5t-135 294.5zM283 389q12 -133 100 -214t223 -81t222 81t100 214q10 113 0 287q-8 127 -95.5 208t-226.5 81t-227 -81 t-96 -208q-10 -174 0 -287zM350 1255q0 29 25 45l178 132q23 20 53 20q25 0 51 -20l181 -132q23 -14 22 -45q0 -23 -14.5 -38t-38.5 -15q-20 0 -35 12l-166 123l-166 -123q-14 -12 -37 -12q-25 0 -39 15t-14 38z" />
<glyph unicode="&#xf5;" horiz-adv-x="1212" d="M162 391q-6 141 0 285q8 178 133 290.5t311 112.5q184 0 309 -112.5t134 -290.5q6 -143 0 -285q-10 -178 -134 -294.5t-308.5 -116.5t-309.5 116.5t-135 294.5zM283 389q12 -133 100 -214t223 -81t222 81t100 214q10 113 0 287q-8 127 -95.5 208t-226.5 81t-227 -81 t-96 -208q-10 -174 0 -287zM330 1288q0 29 24 47q72 61 142 62q51 0 120.5 -37t98.5 -37q27 0 57.5 25.5t52.5 25.5q25 0 41.5 -15.5t16.5 -37.5q0 -27 -25 -47q-72 -61 -143 -62q-51 0 -121 37t-96.5 37t-58 -25.5t-54.5 -25.5q-25 0 -40 15t-15 38z" />
<glyph unicode="&#xf6;" horiz-adv-x="1212" d="M162 391q-6 141 0 285q8 178 133 290.5t311 112.5q184 0 309 -112.5t134 -290.5q6 -143 0 -285q-10 -178 -134 -294.5t-308.5 -116.5t-309.5 116.5t-135 294.5zM283 389q12 -133 100 -214t223 -81t222 81t100 214q10 113 0 287q-8 127 -95.5 208t-226.5 81t-227 -81 t-96 -208q-10 -174 0 -287zM377 1307q0 31 22.5 53t53.5 22q33 0 54 -22.5t21 -52.5q0 -33 -21.5 -54.5t-53.5 -21.5q-31 0 -53.5 21.5t-22.5 54.5zM684 1307q0 31 21.5 53t54.5 22q31 0 53.5 -22.5t22.5 -52.5q0 -33 -22.5 -54.5t-53.5 -21.5q-33 0 -54.5 21.5t-21.5 54.5z " />
<glyph unicode="&#xf7;" horiz-adv-x="1286" d="M123 717q0 27 18.5 43t44.5 16h914q27 0 45 -16.5t18 -42.5q0 -25 -19.5 -42.5t-43.5 -17.5h-914q-27 0 -45 17.5t-18 42.5zM555 356q0 35 26.5 61.5t61.5 26.5q37 0 62.5 -26.5t25.5 -61.5q0 -37 -25.5 -63.5t-62.5 -26.5q-35 0 -61.5 26.5t-26.5 63.5zM555 1079 q0 37 26.5 62.5t61.5 25.5q37 0 62.5 -25.5t25.5 -62.5q0 -35 -25.5 -61.5t-62.5 -26.5q-35 0 -61.5 26.5t-26.5 61.5z" />
<glyph unicode="&#xf8;" horiz-adv-x="1210" d="M136 56.5q-1 25.5 18 45.5l69 80q-57 96 -63 209q-6 141 0 285q8 178 133 290.5t311 112.5q178 0 301 -106l62 71q41 49 88 9q41 -39 2 -86l-74 -84q57 -92 64 -207q6 -143 0 -285q-10 -178 -134.5 -294.5t-308.5 -116.5q-182 0 -305 110l-57 -67q-16 -18 -40 -21.5 t-44.5 13t-21.5 42zM281 389q6 -63 26 -108l522 604q-86 80 -225 80t-227 -81t-96 -208q-10 -174 0 -287zM377 178q88 -84 227 -84q135 0 222 81t100 214q10 113 0 287q-2 53 -27 108z" />
<glyph unicode="&#xf9;" horiz-adv-x="1259" d="M188 387v617q0 27 17.5 44t44.5 17q23 0 40 -17.5t17 -43.5v-623q0 -133 82 -210t227 -77q176 0 316 88v822q0 27 16.5 44t42.5 17q25 0 42.5 -17.5t17.5 -43.5v-846q0 -39 -27 -56q-176 -123 -408 -122q-188 0 -308 108.5t-120 298.5zM444 1403q0 23 15.5 38t38.5 15 q18 0 30 -8l275 -143q29 -14 28 -48q0 -23 -15 -38t-38 -15q-12 0 -28 8l-277 142q-29 16 -29 49z" />
<glyph unicode="&#xfa;" horiz-adv-x="1259" d="M188 387v617q0 27 17.5 44t44.5 17q23 0 40 -17.5t17 -43.5v-623q0 -133 82 -210t227 -77q176 0 316 88v822q0 27 16.5 44t42.5 17q25 0 42.5 -17.5t17.5 -43.5v-846q0 -39 -27 -56q-176 -123 -408 -122q-188 0 -308 108.5t-120 298.5zM426 1257q0 31 29 48l276 143 q16 8 29 8q23 0 38 -15.5t15 -37.5q0 -35 -29 -49l-278 -144q-18 -6 -27 -6q-23 0 -38 15t-15 38z" />
<glyph unicode="&#xfb;" horiz-adv-x="1259" d="M188 387v617q0 27 17.5 44t44.5 17q23 0 40 -17.5t17 -43.5v-623q0 -133 82 -210t227 -77q176 0 316 88v822q0 27 16.5 44t42.5 17q25 0 42.5 -17.5t17.5 -43.5v-846q0 -39 -27 -56q-176 -123 -408 -122q-188 0 -308 108.5t-120 298.5zM377 1257q0 29 24 46l179 131 q23 20 53 20q25 0 51 -20l180 -131q23 -14 23 -46q0 -23 -14.5 -38t-38.5 -15q-20 0 -35 13l-166 122l-166 -122q-14 -12 -37 -13q-25 0 -39 15t-14 38z" />
<glyph unicode="&#xfc;" horiz-adv-x="1259" d="M188 387v617q0 27 17.5 44t44.5 17q23 0 40 -17.5t17 -43.5v-623q0 -133 82 -210t227 -77q176 0 316 88v822q0 27 16.5 44t42.5 17q25 0 42.5 -17.5t17.5 -43.5v-846q0 -39 -27 -56q-176 -123 -408 -122q-188 0 -308 108.5t-120 298.5zM401 1307q0 31 22.5 53t53.5 22 q33 0 54.5 -22.5t21.5 -52.5q0 -33 -21.5 -54.5t-54.5 -21.5q-31 0 -53.5 21.5t-22.5 54.5zM709 1307q0 31 21.5 53t53.5 22q31 0 53.5 -22.5t22.5 -52.5q0 -33 -22.5 -54.5t-53.5 -21.5q-33 0 -54 21.5t-21 54.5z" />
<glyph unicode="&#xfd;" horiz-adv-x="1028" d="M59 975q-14 33 2.5 60.5t49.5 27.5q43 0 59 -39l350 -793q4 -8 8 -8t9 8l317 785q20 47 61 47q35 0 50.5 -28.5t1.5 -61.5l-387 -946q-53 -135 -133 -243t-156 -151q-31 -16 -62 -16q-25 0 -41 16.5t-16 40.5q0 39 39 58q154 76 254 331zM414 1260q0 31 28 47l277 143 q16 8 29 8q23 0 38 -15.5t15 -37.5q0 -35 -29 -49l-278 -144q-18 -6 -27 -6q-23 0 -38 15.5t-15 38.5z" />
<glyph unicode="&#xfe;" horiz-adv-x="1230" d="M205 -328v1714q0 27 16.5 45.5t42.5 18.5q25 0 42.5 -18.5t17.5 -45.5v-380q170 74 323 73q188 0 295 -103.5t123 -295.5q12 -141 0 -299q-16 -193 -131 -297t-316 -104q-133 0 -294 71v-379q0 -27 -17.5 -44t-42 -17t-42 17t-17.5 44zM324 178q45 -31 130 -57.5 t171 -26.5q299 0 321 287q10 164 0 293q-27 291 -309 291q-80 0 -175 -30t-138 -63v-694z" />
<glyph unicode="&#xff;" horiz-adv-x="1028" d="M59 975q-14 33 2.5 60.5t49.5 27.5q43 0 59 -39l350 -793q4 -8 8 -8t9 8l317 785q20 47 61 47q35 0 50.5 -28.5t1.5 -61.5l-387 -946q-53 -135 -133 -243t-156 -151q-31 -16 -62 -16q-25 0 -41 16.5t-16 40.5q0 39 39 58q154 76 254 331zM299 1307q0 31 22.5 53t53.5 22 q33 0 54.5 -22.5t21.5 -52.5q0 -33 -21.5 -54.5t-54.5 -21.5q-31 0 -53.5 21.5t-22.5 54.5zM606 1307q0 31 21.5 53t54.5 22q31 0 53.5 -22.5t22.5 -52.5q0 -33 -22.5 -54.5t-53.5 -21.5q-33 0 -54.5 21.5t-21.5 54.5z" />
<glyph unicode="&#x152;" horiz-adv-x="2168" d="M154 596q-6 113 0 225q10 276 178 452.5t465 176.5q98 0 234 -9t183 -9h740q27 0 44 -16.5t17 -43.5q0 -25 -18.5 -42t-42.5 -17h-729v-533h712q29 0 46.5 -15t17.5 -42t-18.5 -44t-45.5 -17h-712v-541h733q25 0 43 -17.5t18 -42.5q0 -27 -17 -44t-44 -17h-803 q-10 0 -132 -9t-228 -9q-299 0 -464 169t-177 445zM272 590q14 -227 145.5 -358.5t379.5 -131.5q186 0 309 19v1194q-135 18 -309 18q-246 0 -378 -138t-147 -366q-6 -120 0 -237z" />
<glyph unicode="&#x153;" horiz-adv-x="1943" d="M162 391q-8 141 0 287q10 178 134 289.5t310 111.5q127 0 228.5 -56t158.5 -153q125 209 381 209q199 0 314.5 -119.5t115.5 -308.5v-67q0 -109 -118 -109h-635v-41q0 -162 91 -251t242 -89q109 0 263 56q41 14 66.5 -3.5t25.5 -46.5q0 -35 -35 -55q-104 -66 -318 -65 q-276 0 -393 210q-133 -211 -387 -210q-184 0 -309 116.5t-135 294.5zM283 389q12 -133 100 -214t223 -81t222 81t98 214q10 94 0 289q-8 127 -94.5 207t-225.5 80t-227 -81t-96 -208q-10 -174 0 -287zM1051 590h604q29 0 31 28q12 156 -75 251.5t-237 95.5 q-164 0 -246.5 -98.5t-76.5 -276.5z" />
<glyph unicode="&#x178;" horiz-adv-x="1312" d="M53 1341q-39 51 6 86q20 16 44 13.5t40 -21.5l514 -639l512 639q16 18 41 21.5t43 -13.5q45 -35 7 -86l-488 -602q-4 -6 -13 -16t-12.5 -15.5t-9.5 -13.5t-9 -14t-6 -15.5t-4 -19.5t-1 -22v-570q0 -27 -17.5 -44t-42 -17t-42 18.5t-17.5 42.5v570q0 16 -2 29.5t-10 26.5 t-12.5 19.5t-17.5 21.5t-17 21zM428 1534q0 31 22.5 53.5t53.5 22.5q33 0 54.5 -22.5t21.5 -53.5q0 -33 -21.5 -54.5t-54.5 -21.5q-31 0 -53.5 21.5t-22.5 54.5zM735 1534q0 31 21.5 53.5t54.5 22.5q31 0 53.5 -22.5t22.5 -53.5q0 -33 -22.5 -54.5t-53.5 -21.5 q-33 0 -54.5 21.5t-21.5 54.5z" />
<glyph unicode="&#x2c6;" horiz-adv-x="696" d="M90 1589q0 29 25 45l178 131q23 20 53 21q25 0 51 -21l181 -131q23 -14 22 -45q0 -23 -14.5 -38t-38.5 -15q-20 0 -35 12l-166 123l-166 -123q-14 -12 -37 -12q-25 0 -39 15t-14 38z" />
<glyph unicode="&#x2dc;" horiz-adv-x="696" d="M78 1612q0 29 24 47q72 61 142 61q51 0 120.5 -36.5t98.5 -36.5q27 0 57.5 25.5t52.5 25.5q25 0 41.5 -15.5t16.5 -37.5q0 -27 -25 -48q-72 -61 -143 -61q-49 0 -121 37t-96 37q-27 0 -58.5 -25.5t-54.5 -25.5q-25 0 -40 15t-15 38z" />
<glyph unicode="&#x2000;" horiz-adv-x="952" />
<glyph unicode="&#x2001;" horiz-adv-x="1906" />
<glyph unicode="&#x2002;" horiz-adv-x="952" />
<glyph unicode="&#x2003;" horiz-adv-x="1906" />
<glyph unicode="&#x2004;" horiz-adv-x="634" />
<glyph unicode="&#x2005;" horiz-adv-x="475" />
<glyph unicode="&#x2006;" horiz-adv-x="317" />
<glyph unicode="&#x2007;" horiz-adv-x="317" />
<glyph unicode="&#x2008;" horiz-adv-x="237" />
<glyph unicode="&#x2009;" horiz-adv-x="380" />
<glyph unicode="&#x200a;" horiz-adv-x="104" />
<glyph unicode="&#x2010;" horiz-adv-x="706" d="M121 588q0 27 17.5 42t43.5 15h342q27 0 44.5 -15.5t17.5 -42t-17.5 -43t-44.5 -16.5h-342q-27 0 -44 17.5t-17 42.5z" />
<glyph unicode="&#x2011;" horiz-adv-x="706" d="M121 588q0 27 17.5 42t43.5 15h342q27 0 44.5 -15.5t17.5 -42t-17.5 -43t-44.5 -16.5h-342q-27 0 -44 17.5t-17 42.5z" />
<glyph unicode="&#x2012;" horiz-adv-x="706" d="M121 588q0 27 17.5 42t43.5 15h342q27 0 44.5 -15.5t17.5 -42t-17.5 -43t-44.5 -16.5h-342q-27 0 -44 17.5t-17 42.5z" />
<glyph unicode="&#x2013;" horiz-adv-x="1234" d="M117 586q0 27 17.5 43t43.5 16h879q27 0 44 -16.5t17 -42.5q0 -25 -17.5 -42.5t-43.5 -17.5h-879q-27 0 -44 17.5t-17 42.5z" />
<glyph unicode="&#x2014;" horiz-adv-x="1980" d="M117 586q0 27 17.5 43t43.5 16h1624q27 0 45.5 -16.5t18.5 -42.5q0 -25 -19.5 -42.5t-44.5 -17.5h-1624q-27 0 -44 17.5t-17 42.5z" />
<glyph unicode="&#x2018;" horiz-adv-x="421" d="M133 1104v74q0 123 55 215q23 39 60 39q25 0 44 -17.5t19 -44.5q0 -14 -27.5 -67.5t-27.5 -124.5v-74q0 -29 -17.5 -48.5t-41.5 -19.5q-27 0 -45.5 19.5t-18.5 48.5z" />
<glyph unicode="&#x2019;" horiz-adv-x="421" d="M127 1110q0 14 27.5 67.5t27.5 125.5v73q0 29 17.5 48.5t42.5 19.5q27 0 45 -19.5t18 -48.5v-73q0 -123 -55 -216q-23 -39 -60 -38q-25 0 -44 17t-19 44z" />
<glyph unicode="&#x201a;" horiz-adv-x="421" d="M92 -123q0 14 26.5 67.5t26.5 125.5v75q0 27 18.5 46.5t45.5 19.5t44 -19.5t17 -46.5v-75q0 -123 -53 -215q-23 -39 -59 -39q-27 0 -46.5 17t-19.5 44z" />
<glyph unicode="&#x201c;" horiz-adv-x="663" d="M129 1104v74q0 123 53 215q23 39 62 39q25 0 44 -17.5t19 -44.5q0 -14 -26.5 -67.5t-26.5 -124.5v-74q0 -29 -18.5 -48.5t-45 -19.5t-44 19.5t-17.5 48.5zM379 1104v74q0 123 55 215q23 39 60 39q25 0 44 -17.5t19 -44.5q0 -14 -26.5 -67.5t-26.5 -124.5v-74 q0 -27 -18.5 -47.5t-43.5 -20.5q-27 0 -45 19.5t-18 48.5z" />
<glyph unicode="&#x201d;" horiz-adv-x="663" d="M123 1110q0 14 26.5 67.5t26.5 125.5v73q0 27 18.5 47.5t43.5 20.5q27 0 45 -19.5t18 -48.5v-73q0 -123 -55 -216q-23 -39 -60 -38q-27 0 -45 17t-18 44zM373 1110q0 14 26.5 67.5t26.5 125.5v73q0 27 18.5 47.5t42.5 20.5q27 0 45.5 -19.5t18.5 -48.5v-73 q0 -123 -55 -216q-23 -39 -60 -38q-25 0 -44 17t-19 44z" />
<glyph unicode="&#x201e;" horiz-adv-x="663" d="M123 -123q0 14 26.5 67.5t26.5 125.5v75q0 27 18.5 46.5t43.5 19.5q27 0 45 -19.5t18 -46.5v-75q0 -123 -55 -215q-23 -39 -60 -39q-25 0 -44 17t-19 44zM373 -123q0 14 26.5 67.5t26.5 125.5v75q0 27 18.5 46.5t42.5 19.5q27 0 45.5 -19.5t18.5 -46.5v-75 q0 -123 -55 -215q-23 -39 -60 -39q-25 0 -44 17t-19 44z" />
<glyph unicode="&#x2022;" horiz-adv-x="966" d="M225 716.5q0 106.5 76 182.5t182.5 76t182 -76t75.5 -182.5t-75.5 -182t-182 -75.5t-182.5 75.5t-76 182z" />
<glyph unicode="&#x2026;" horiz-adv-x="1273" d="M143 51v111q0 29 19.5 49t48.5 20t48.5 -20.5t19.5 -48.5v-111q0 -31 -18.5 -50t-49.5 -19q-29 0 -48.5 20t-19.5 49zM571 51v111q0 29 19.5 49t48.5 20t48.5 -20.5t19.5 -48.5v-111q0 -31 -18.5 -50t-49.5 -19q-29 0 -48.5 20t-19.5 49zM995 51v111q0 29 19.5 49 t48.5 20t48 -20.5t19 -48.5v-111q0 -31 -18 -50t-49 -19q-29 0 -48.5 20t-19.5 49z" />
<glyph unicode="&#x202f;" horiz-adv-x="380" />
<glyph unicode="&#x2039;" horiz-adv-x="731" d="M104 715q0 66 89 141l243 201q23 18 48.5 15t41.5 -23q16 -23 14.5 -47.5t-22.5 -40.5l-272 -218q-18 -14 -18.5 -28.5t18.5 -28.5l272 -219q47 -41 8 -90q-41 -47 -90 -8l-243 204q-89 74 -89 142z" />
<glyph unicode="&#x203a;" horiz-adv-x="731" d="M189.5 424q3.5 27 23.5 43l272 219q18 14 18.5 28.5t-18.5 28.5l-272 218q-20 16 -23.5 41.5t13.5 46.5q16 23 42.5 24.5t47.5 -16.5l246 -201q88 -76 88 -141q0 -68 -88 -142l-246 -204q-20 -16 -47 -14.5t-43.5 22t-13 47.5z" />
<glyph unicode="&#x205f;" horiz-adv-x="475" />
<glyph unicode="&#x20ac;" horiz-adv-x="1335" d="M113 604q0 25 17 41.5t44 16.5h107v112h-107q-27 0 -44 16.5t-17 38.5q0 27 17 43.5t44 16.5h111q14 248 152 404.5t376 156.5q264 0 416 -160q18 -18 18 -42.5t-17.5 -42t-41.5 -17.5q-23 0 -49 26q-74 66 -144.5 91.5t-181.5 25.5q-188 0 -291.5 -119.5t-115.5 -322.5 h423q25 0 42.5 -17.5t17.5 -42.5q0 -23 -18.5 -39t-41.5 -16h-430v-112h430q25 0 42.5 -16.5t17.5 -41.5q0 -23 -18.5 -40t-41.5 -17h-423q12 -205 114.5 -327t292.5 -122q111 0 181.5 26t144.5 93q25 25 49 25t41.5 -16.5t17.5 -43.5q0 -23 -18 -43q-154 -160 -416 -159 q-236 0 -376 158.5t-152 408.5h-111q-27 0 -44 17t-17 40z" />
<glyph unicode="&#x2122;" horiz-adv-x="1247" d="M125 1382q0 12 9 21.5t22 9.5h342q14 0 23 -9t9 -22q0 -31 -32 -30h-138v-394q0 -12 -10 -22t-20 -10q-14 0 -23.5 10t-9.5 22v394h-141q-31 -1 -31 30zM535 965l67 401q12 53 60 53q45 0 57 -47l102 -389l103 389q14 47 53 47q49 0 59 -53l70 -399q8 -37 -24.5 -43 t-37.5 28l-65 402l-100 -375q-14 -53 -57.5 -53t-59.5 53l-100 373l-66 -402q-4 -33 -39 -26q-30 6 -22 41z" />
<glyph unicode="&#xe000;" horiz-adv-x="1070" d="M0 1070h1070v-1070h-1070v1070z" />
<glyph unicode="&#xfb01;" horiz-adv-x="1312" d="M90 979q0 27 17.5 43t44.5 16h79v111q0 141 77 227t229 86q111 0 178 -24q39 -14 39 -56q0 -23 -15.5 -38t-42.5 -15q-12 0 -61 9.5t-107 9.5q-178 0 -178 -213v-97h309q25 0 42.5 -17t17.5 -42q0 -23 -18.5 -39t-41.5 -16h-309v-871q0 -27 -16.5 -44t-42.5 -17 q-25 0 -42.5 18.5t-17.5 42.5v871h-79q-27 0 -44.5 16t-17.5 39zM956 1337.5q0 34.5 24 58t58.5 23.5t59 -23.5t24.5 -58t-24.5 -59.5t-59 -25t-58.5 25t-24 59.5zM981 53v951q0 27 16.5 44t41 17t43 -17.5t18.5 -43.5v-951q0 -27 -17.5 -44t-44.5 -17q-25 0 -41 17t-16 44z " />
<glyph unicode="&#xfb02;" horiz-adv-x="1302" d="M90 979q0 27 17.5 43t44.5 16h79v111q0 141 77 227t229 86q111 0 178 -24q39 -14 39 -56q0 -23 -15.5 -38t-42.5 -15q-12 0 -61 9.5t-107 9.5q-178 0 -178 -213v-97h309q25 0 42.5 -17t17.5 -42q0 -23 -18.5 -39t-41.5 -16h-309v-871q0 -27 -16.5 -44t-42.5 -17 q-25 0 -42.5 18.5t-17.5 42.5v871h-79q-27 0 -44.5 16t-17.5 39zM979 53v1333q0 27 16.5 45.5t42.5 18.5q25 0 42.5 -18.5t17.5 -45.5v-1333q0 -25 -17.5 -43t-42 -18t-42 18t-17.5 43z" />
<glyph unicode="&#xfb03;" horiz-adv-x="2074" d="M1718 1337.5q0 34.5 24 58t58.5 23.5t59 -23.5t24.5 -58t-24.5 -59.5t-59 -25t-58.5 25t-24 59.5zM1743 53v951q0 27 16.5 44t41 17t43 -17.5t18.5 -43.5v-951q0 -27 -17.5 -44t-44.5 -17q-25 0 -41 17t-16 44zM854 979q0 27 17.5 43t44.5 16h79v111q0 141 77 227t229 86 q111 0 178 -24q39 -14 39 -56q0 -23 -15.5 -38t-42.5 -15q-12 0 -61 9.5t-107 9.5q-178 0 -178 -213v-97h309q25 0 42.5 -17t17.5 -42q0 -23 -18.5 -39t-41.5 -16h-309v-871q0 -27 -16.5 -44t-42.5 -17q-25 0 -42.5 18.5t-17.5 42.5v871h-79q-27 0 -44.5 16t-17.5 39z M90 979q0 27 17.5 43t44.5 16h79v111q0 141 77 227t229 86q111 0 178 -24q39 -14 39 -56q0 -23 -15.5 -38t-42.5 -15q-12 0 -61 9.5t-107 9.5q-178 0 -178 -213v-97h309q25 0 42.5 -17t17.5 -42q0 -23 -18.5 -39t-41.5 -16h-309v-871q0 -27 -16.5 -44t-42.5 -17 q-25 0 -42.5 18.5t-17.5 42.5v871h-79q-27 0 -44.5 16t-17.5 39z" />
<glyph unicode="&#xfb04;" horiz-adv-x="2056" d="M1733 53v1333q0 27 16.5 45.5t42.5 18.5q25 0 42.5 -18.5t17.5 -45.5v-1333q0 -25 -17.5 -43t-42 -18t-42 18t-17.5 43zM854 979q0 27 17.5 43t44.5 16h79v111q0 141 77 227t229 86q111 0 178 -24q39 -14 39 -56q0 -23 -15.5 -38t-42.5 -15q-12 0 -61 9.5t-107 9.5 q-178 0 -178 -213v-97h309q25 0 42.5 -17t17.5 -42q0 -23 -18.5 -39t-41.5 -16h-309v-871q0 -27 -16.5 -44t-42.5 -17q-25 0 -42.5 18.5t-17.5 42.5v871h-79q-27 0 -44.5 16t-17.5 39zM90 979q0 27 17.5 43t44.5 16h79v111q0 141 77 227t229 86q111 0 178 -24q39 -14 39 -56 q0 -23 -15.5 -38t-42.5 -15q-12 0 -61 9.5t-107 9.5q-178 0 -178 -213v-97h309q25 0 42.5 -17t17.5 -42q0 -23 -18.5 -39t-41.5 -16h-309v-871q0 -27 -16.5 -44t-42.5 -17q-25 0 -42.5 18.5t-17.5 42.5v871h-79q-27 0 -44.5 16t-17.5 39z" />
</font>
</defs>
</svg>
