<?xml version="1.0" standalone="no"?>
<!DOCTYPE svg PUBLIC "-//W3C//DTD SVG 1.1//EN" "http://www.w3.org/Graphics/SVG/1.1/DTD/svg11.dtd" >
<svg xmlns="http://www.w3.org/2000/svg">
<metadata>
This is a custom SVG webfont generated by Font Squirrel.
Copyright   : Copyright c 2010 by Miles Newlyn All rights reserved
Designer    : Miles Newlyn
Foundry     : Miles Newlyn
Foundry URL : wwwnewlyncom
</metadata>
<defs>
<font id="RubrikRegular" horiz-adv-x="1150" >
<font-face units-per-em="2048" ascent="1536" descent="-512" />
<missing-glyph horiz-adv-x="559" />
<glyph unicode=" "  horiz-adv-x="559" />
<glyph unicode="&#x09;" horiz-adv-x="559" />
<glyph unicode="&#xa0;" horiz-adv-x="559" />
<glyph unicode="!" horiz-adv-x="440" d="M135 63v109q0 33 25.5 57.5t60.5 24.5t59.5 -24.5t24.5 -57.5v-109q0 -33 -24.5 -57t-59.5 -24t-60.5 24t-25.5 57zM137 1350q0 35 24.5 60.5t59.5 25.5q33 0 57.5 -26t24.5 -60l-10 -811q0 -31 -21.5 -52.5t-52.5 -21.5q-29 0 -50.5 22.5t-21.5 51.5z" />
<glyph unicode="&#x22;" horiz-adv-x="714" d="M135 1075v279q0 35 24.5 58.5t57.5 23.5t56.5 -23.5t23.5 -58.5v-279q0 -35 -23.5 -57.5t-56.5 -22.5q-35 0 -58.5 23.5t-23.5 56.5zM418 1075v279q0 35 23.5 58.5t56.5 23.5q35 0 58.5 -23.5t23.5 -58.5v-279q0 -35 -24 -57.5t-58.5 -22.5t-57 22.5t-22.5 57.5z" />
<glyph unicode="#" horiz-adv-x="1314" d="M94 499.5q0 32.5 23.5 54t58.5 21.5h166l98 310h-118q-35 0 -58.5 21.5t-23.5 54t23.5 54t58.5 21.5h170l118 361q18 53 68 53q45 0 64.5 -35t5.5 -76l-99 -303h217l119 361q18 53 70 53q43 0 62.5 -35t6.5 -76l-100 -303h115q35 0 58.5 -21.5t23.5 -54t-23.5 -54 t-58.5 -21.5h-168l-99 -310h121q35 0 58.5 -21.5t23.5 -54t-23.5 -54t-58.5 -21.5h-172l-125 -387q-18 -55 -69 -55q-43 0 -63.5 34.5t-6.5 75.5l107 332h-220l-125 -387q-16 -55 -67 -55q-45 0 -64.5 34.5t-5.5 75.5l107 332h-115q-35 0 -57.5 21.5t-22.5 54zM498 575h219 l98 310h-219z" />
<glyph unicode="$" horiz-adv-x="1247" d="M133 250q0 35 25.5 59.5t60.5 24.5q29 0 60 -25q160 -119 362 -119q147 0 228 57.5t81 168.5q0 92 -75.5 141t-292.5 96q-229 49 -330.5 135t-101.5 242q0 154 108.5 254t288.5 117v133q0 33 22.5 56.5t53.5 23.5q33 0 54 -22.5t21 -57.5v-133q188 -25 293 -111 q31 -25 31 -67q0 -33 -24.5 -55.5t-59.5 -22.5q-16 0 -57 22q-125 78 -271 78q-156 0 -223.5 -61.5t-67.5 -147.5q0 -104 68 -147t234 -78q266 -55 382.5 -143t116.5 -252q0 -162 -118.5 -267.5t-303.5 -115.5v-135q0 -35 -21.5 -57.5t-53.5 -22.5q-29 0 -52.5 23.5 t-23.5 56.5v139q-207 18 -369 137q-45 33 -45 76z" />
<glyph unicode="%" horiz-adv-x="1531" d="M80 1047q-4 53 0 102q4 127 93 215t214 88t212 -88t93 -215q2 -51 0 -102q-8 -127 -94 -215.5t-211 -88.5t-213 89.5t-94 214.5zM231 1053q4 -70 47.5 -114t109 -44t108.5 45t47 115q4 39 0 88q-4 70 -47 115t-108.5 45t-107.5 -45.5t-49 -114.5q-4 -45 0 -90zM296 256 q-1 33 19 55l801 926q20 25 54 27t57 -19q25 -20 25.5 -53t-19.5 -57q-221 -252 -803 -926q-23 -23 -54.5 -25t-56.5 19q-22 20 -23 53zM838 283q-4 53 0 102q6 125 95 214t214 89q123 0 211 -89t94 -214q2 -51 0 -102q-8 -127 -95 -215t-210 -88q-125 0 -213 88t-96 215z M991 289q4 -68 47 -113t107 -45q66 0 108.5 44t46.5 114q4 41 0 90q-4 70 -47 115t-108 45q-63 0 -105.5 -45t-48.5 -115q-4 -45 0 -90z" />
<glyph unicode="&#x26;" horiz-adv-x="1421" d="M100 381q0 256 271 358q-182 135 -183 322q0 166 124 272.5t319 106.5q205 0 326.5 -104.5t121.5 -264.5q0 -170 -108.5 -263t-349.5 -149q-199 -43 -274 -105t-75 -169q0 -111 94.5 -177.5t266.5 -66.5q180 0 285.5 96.5t111.5 249.5q6 143 131 144h160q35 0 60.5 -23.5 t25.5 -58.5t-24.5 -59.5t-59.5 -24.5h-137q-14 -225 -167 -354t-382 -129q-254 0 -395.5 111.5t-141.5 287.5zM358 1055q0 -63 34 -115.5t71 -78t92 -56.5q207 41 280.5 93t73.5 163q0 90 -69.5 154.5t-206.5 64.5q-133 0 -204 -63.5t-71 -161.5z" />
<glyph unicode="'" horiz-adv-x="434" d="M135 1075v279q0 35 24.5 58.5t57.5 23.5t56.5 -23.5t23.5 -58.5v-279q0 -35 -23.5 -57.5t-56.5 -22.5q-35 0 -58.5 23.5t-23.5 56.5z" />
<glyph unicode="(" horiz-adv-x="718" d="M162 632.5q0 272.5 105.5 526.5t310.5 443q33 27 65.5 20.5t52.5 -35.5q35 -55 -12 -102q-174 -164 -266 -386t-92 -466t92 -466t266 -386q47 -47 12 -103q-18 -29 -53 -34.5t-65 18.5q-205 190 -310.5 444t-105.5 526.5z" />
<glyph unicode=")" horiz-adv-x="718" d="M23 -322q-35 55 12 103q174 164 266 386t92 466t-92 466t-266 386q-47 47 -12 102q18 29 53 35t65 -20q205 -188 310.5 -442.5t105.5 -527t-105.5 -526t-310.5 -444.5q-31 -25 -65.5 -19t-52.5 35z" />
<glyph unicode="*" horiz-adv-x="796" d="M82 1217.5q-10 25.5 6 58.5q14 25 44 30t56 -14q2 0 9.5 -6t45.5 -30.5t97 -63.5l-10 172q-2 35 19.5 56.5t50 21.5t50 -21.5t19.5 -56.5l-10 -172q37 25 66.5 44t44 28.5t24.5 16.5t12 9t4 2q27 18 56.5 13t44.5 -29q16 -33 6 -58.5t-37 -39.5l-170 -86l170 -84 q25 -12 36 -39t-5 -60q-14 -25 -44 -28.5t-57 12.5l-153 96l12 -172q2 -35 -18.5 -56.5t-51 -21.5t-51 21.5t-18.5 56.5l12 172l-154 -96q-27 -16 -56.5 -12t-43.5 28q-16 33 -5 59.5t36 39.5l170 84l-170 86q-27 14 -37 39.5z" />
<glyph unicode="+" horiz-adv-x="1286" d="M123 717q0 35 24.5 58.5t59.5 23.5h356v356q0 35 23.5 59.5t58.5 24.5t58.5 -24.5t23.5 -59.5v-356h352q35 0 59.5 -23.5t24.5 -58.5q0 -33 -24.5 -56.5t-59.5 -23.5h-352v-358q0 -35 -23.5 -59.5t-58.5 -24.5t-58.5 24.5t-23.5 59.5v358h-356q-35 0 -59.5 23.5 t-24.5 56.5z" />
<glyph unicode="," horiz-adv-x="438" d="M88 -117q0 20 23.5 67.5t23.5 117.5v106q0 35 24.5 58.5t59.5 23.5t59.5 -24.5t24.5 -57.5v-53q0 -164 -51 -256q-33 -57 -88 -58q-33 0 -54.5 23.5t-21.5 52.5z" />
<glyph unicode="-" horiz-adv-x="694" d="M104 586q0 35 26 59.5t60 24.5h314q35 0 60.5 -24.5t25.5 -59.5t-25.5 -58.5t-60.5 -23.5h-314q-35 0 -60.5 24.5t-25.5 57.5z" />
<glyph unicode="." horiz-adv-x="542" d="M135 68v110q0 35 24.5 60.5t59.5 25.5t59.5 -25.5t24.5 -60.5v-110q0 -37 -23.5 -61.5t-60.5 -24.5q-35 0 -59.5 25.5t-24.5 60.5z" />
<glyph unicode="/" horiz-adv-x="714" d="M5 -17.5q-13 31.5 1 64.5l555 1399q12 31 43 45t62 4q33 -12 45 -44t0 -65l-555 -1400q-12 -31 -43 -44.5t-62 -2.5q-33 12 -46 43.5z" />
<glyph unicode="0" horiz-adv-x="1425" d="M176 530q-10 190 0 379q16 244 161.5 394.5t375.5 150.5q227 0 374.5 -151.5t161.5 -393.5q10 -188 0 -379q-14 -244 -161.5 -397t-375 -153t-375 153t-161.5 397zM344 539q14 -182 111.5 -290t257 -108t257 107.5t111.5 290.5q8 145 0 364q-10 180 -108.5 284.5 t-260 104.5t-260 -104.5t-108.5 -284.5q-8 -219 0 -364z" />
<glyph unicode="1" horiz-adv-x="942" d="M106.5 1159q10.5 35 38.5 51l377 211q23 12 45 13q37 0 60.5 -26t23.5 -60v-1270q0 -37 -24.5 -61.5t-59.5 -24.5t-59.5 25.5t-24.5 60.5v1130l-256 -141q-31 -18 -64.5 -10t-49.5 39q-17 28 -6.5 63z" />
<glyph unicode="2" horiz-adv-x="1204" d="M121 119q0 133 75.5 244.5t241.5 230.5q274 195 336 256q90 94 92 207q0 94 -71.5 164.5t-216.5 70.5q-186 0 -302 -145q-20 -27 -47 -35q-35 -10 -66.5 4t-39.5 45q-12 41 10 74q68 92 178.5 155.5t259.5 63.5q219 0 341 -113.5t122 -283.5q0 -154 -89 -256.5 t-355 -292.5q-156 -113 -226.5 -190.5t-72.5 -155.5h688q35 0 60.5 -22.5t25.5 -55.5q0 -37 -24.5 -60.5t-61.5 -23.5h-737q-53 0 -87 32t-34 87z" />
<glyph unicode="3" horiz-adv-x="1210" d="M88 1354q0 37 24.5 59.5t61.5 22.5h660q53 0 88.5 -33t35.5 -84q0 -43 -28 -78l-316 -338q184 4 305 -103.5t121 -279.5q0 -264 -233.5 -405.5t-630.5 -118.5q-37 2 -60.5 23.5t-25.5 54.5q-2 39 25.5 62.5t70.5 21.5q309 -27 497.5 70.5t188.5 287.5q0 115 -75.5 181.5 t-200.5 66.5q-45 0 -91 -8t-59 -8q-33 0 -56 22.5t-23 54.5q0 35 24 60l361 389h-578q-37 0 -61.5 22.5t-24.5 57.5z" />
<glyph unicode="4" horiz-adv-x="1361" d="M121 487q0 47 37 97l544 710q37 49 58.5 74t55.5 45.5t71 20.5q137 0 137 -172v-748h152q35 0 58 -23.5t23 -60.5q0 -33 -24.5 -56.5t-56.5 -23.5h-152v-266q0 -35 -24.5 -59.5t-59.5 -24.5t-58.5 24.5t-23.5 59.5v266h-596q-63 0 -104 38t-37 99zM301 514h557v725z" />
<glyph unicode="5" horiz-adv-x="1241" d="M152 72q0 39 23.5 60.5t60.5 21.5q336 0 522 98t186 297q0 106 -78 174t-202 68q-158 0 -332 -91q-61 -27 -100 1t-39 81v516q0 72 39.5 105t101.5 33h608q37 0 61.5 -23.5t24.5 -58.5t-25.5 -57.5t-60.5 -22.5h-594v-404q160 80 326 80q197 0 317.5 -112.5t120.5 -284.5 q0 -270 -234.5 -416.5t-637.5 -146.5q-39 0 -63.5 21.5t-24.5 60.5z" />
<glyph unicode="6" horiz-adv-x="1368" d="M174 745q20 340 195.5 524.5t474.5 184.5q121 0 209 -20q68 -16 67 -80q0 -33 -21.5 -55.5t-58.5 -22.5q-10 0 -70.5 8t-125.5 8q-207 0 -339 -121.5t-153 -343.5q195 88 373 88q227 0 360.5 -120.5t133.5 -329.5t-134.5 -347t-379.5 -138q-199 0 -325 101t-172 268 t-34 396zM340 653q-14 -252 81 -382t284 -130q168 0 257 90.5t89 233.5q0 141 -87 217t-253 76q-178 -1 -371 -105z" />
<glyph unicode="7" horiz-adv-x="1079" d="M70 1354q0 37 24.5 59.5t61.5 22.5h751q53 0 88 -31t35 -82q0 -37 -26 -80q-291 -483 -405 -710.5t-173 -475.5q-12 -45 -50 -59t-69 2q-59 27 -35 113q66 238 187 484.5t379 676.5h-682q-35 0 -60.5 23.5t-25.5 56.5z" />
<glyph unicode="8" horiz-adv-x="1394" d="M160 393q0 137 69.5 229.5t184.5 129.5q-96 37 -157.5 117.5t-61.5 195.5q0 184 131 286.5t368 102.5q240 0 372 -102.5t132 -278.5q0 -231 -215 -319q115 -37 183.5 -129.5t68.5 -229.5q0 -190 -138.5 -302.5t-398.5 -112.5t-399 112.5t-139 300.5zM330 399 q0 -117 90 -187.5t274 -70.5q186 0 279.5 73t93.5 183q0 121 -100.5 194t-278.5 73q-176 0 -267 -72t-91 -193zM360 1067q0 -113 90.5 -176.5t245.5 -63.5q158 0 246 65.5t88 178.5q0 221 -332 221q-172 0 -255 -60.5t-83 -164.5z" />
<glyph unicode="9" horiz-adv-x="1357" d="M150 969q0 213 134 349t375 136q549 0 527 -713q-16 -408 -221 -574.5t-639 -176.5q-37 -2 -61.5 20.5t-26.5 57t20.5 60.5t60.5 28q76 4 109 6t100.5 8t99 14.5t86 24.5t83 37.5t67.5 53.5t61.5 73t43 96t32.5 123q-180 -84 -364 -84q-223 0 -355 124t-132 337zM317 971 q0 -305 345 -305q70 0 136 15t106 32.5t114 52.5q8 272 -73 399t-286 127q-170 0 -256 -87t-86 -234z" />
<glyph unicode=":" horiz-adv-x="567" d="M199 68v110q0 35 24.5 60.5t59 25.5t59.5 -25.5t25 -60.5v-110q0 -37 -24 -61.5t-60 -24.5q-35 0 -59.5 25.5t-24.5 60.5zM199 825v111q0 35 24.5 60.5t59 25.5t59.5 -25.5t25 -60.5v-111q0 -37 -24 -61.5t-60 -24.5q-35 0 -59.5 25.5t-24.5 60.5z" />
<glyph unicode=";" horiz-adv-x="567" d="M186 -123q0 12 4 33q2 8 14.5 30.5t19.5 52.5t7 75v106q0 35 24 58.5t60 23.5q35 0 59.5 -24.5t24.5 -57.5v-45v-47q-2 -61 -13 -118.5t-44 -107t-82 -49.5q-31 0 -51.5 21.5t-22.5 48.5zM231 825v111q0 35 25 60.5t59.5 25.5t59 -25.5t24.5 -60.5v-111 q0 -37 -23.5 -61.5t-60.5 -24.5q-35 0 -59.5 25.5t-24.5 60.5z" />
<glyph unicode="&#x3c;" horiz-adv-x="1286" d="M221 717q0 76 92 153l557 453q29 23 62 20.5t55.5 -29t19.5 -61t-30 -55.5l-563 -453q-18 -14 -18.5 -28.5t18.5 -28.5l563 -452q27 -20 30 -55.5t-20 -61.5q-20 -27 -54 -29t-63 21l-557 452q-92 78 -92 154z" />
<glyph unicode="=" horiz-adv-x="1286" d="M137 532q0 35 24.5 58.5t59.5 23.5h844q35 0 59.5 -23.5t24.5 -58.5q0 -33 -24.5 -56t-59.5 -23h-844q-35 0 -59.5 23t-24.5 56zM137 903q0 35 24.5 58.5t59.5 23.5h844q35 0 59.5 -23.5t24.5 -58.5q0 -33 -24.5 -56.5t-59.5 -23.5h-844q-35 0 -59.5 23.5t-24.5 56.5z " />
<glyph unicode="&#x3e;" horiz-adv-x="1286" d="M279.5 180q3.5 35 29.5 56l563 452q18 14 18.5 28.5t-18.5 28.5l-563 453q-27 20 -30 55t18 62q23 27 55.5 29t61.5 -21l559 -453q92 -78 92 -153.5t-92 -153.5l-559 -452q-29 -23 -62 -21t-55 29q-21 26 -17.5 61z" />
<glyph unicode="?" horiz-adv-x="1142" d="M117 1198q0 29 22 59q160 195 439 195q190 0 309 -109.5t119 -281.5q0 -188 -99.5 -297t-335.5 -219q-29 -14 -61 -15q-31 0 -54.5 22.5t-23.5 55.5q0 55 57 82q199 88 274 163t75 204q0 104 -69 168.5t-191 64.5q-104 0 -176 -32.5t-134 -108.5q-29 -37 -69 -37 q-33 0 -57.5 25.5t-24.5 60.5zM432 63v109q0 33 24.5 57.5t59.5 24.5t59.5 -23.5t24.5 -58.5v-109q0 -35 -24.5 -58t-59.5 -23q-33 0 -58.5 24t-25.5 57z" />
<glyph unicode="@" horiz-adv-x="1767" d="M143 752q20 301 230.5 500.5t513.5 199.5q311 0 527 -206t216 -527v-332q0 -109 -75.5 -184.5t-180.5 -75.5q-111 0 -186.5 77t-75.5 183v231q0 94 -64.5 159t-158.5 65q-92 0 -154.5 -64.5t-66.5 -159.5q-2 -66 0 -133q6 -127 99 -180t200 -16q39 12 66.5 -4.5 t33.5 -46.5q6 -33 -10.5 -57.5t-46.5 -35.5q-55 -20 -127 -20q-158 0 -260.5 94t-108.5 256q-4 74 0 150q6 156 112.5 262t262.5 106q154 0 263.5 -107.5t109.5 -260.5v-242q0 -45 31.5 -78t74.5 -33q45 0 77 33t32 78v330q0 260 -172 422.5t-418 162.5 q-236 0 -398.5 -156.5t-185.5 -396.5q-16 -174 2 -403q23 -248 183.5 -381t379.5 -133q131 0 242 45q63 25 96 -23q18 -25 11 -57.5t-37 -50.5q-129 -68 -310 -68q-131 0 -252.5 41t-224 120t-169 209t-79.5 294q-14 193 -2 414z" />
<glyph unicode="A" horiz-adv-x="1382" d="M55 113l426 1187q57 156 211 156q156 0 209 -156l426 -1187q4 -13 5 -27q0 -18 -8 -37q-13 -33 -44 -45q-16 -6 -31 -6l-35 7q-33 13 -45 46l-151 428h-653l-152 -428q-12 -33 -44 -46q-17 -7 -34 -7q-16 0 -33 6q-31 12 -44 45q-8 19 -7 37q0 14 4 27zM422 639h539 l-216 612q-14 41 -53 41t-53 -41z" />
<glyph unicode="B" horiz-adv-x="1370" d="M205 139v1157q0 61 38 100.5t105 39.5h455q193 0 301 -106.5t108 -262.5q0 -252 -192 -319v-5q109 -27 171 -114.5t62 -218.5q0 -211 -118.5 -310.5t-309.5 -99.5h-477q-68 0 -105.5 40t-37.5 99zM373 162h430q279 0 278 252q0 117 -70.5 182.5t-187.5 65.5h-450v-500z M373 821h420q252 0 251 226q0 227 -251 227h-420v-453z" />
<glyph unicode="C" horiz-adv-x="1361" d="M143 551q-6 84 -6 167t6 165q18 246 179 408.5t405 162.5q174 0 317.5 -93t204.5 -247q6 -20 6 -39q0 -33 -25.5 -55.5t-53.5 -22.5q-55 0 -78 54q-47 111 -147.5 176t-223.5 65q-174 0 -286.5 -116.5t-129.5 -301.5q-5 -79 -5 -157.5t5 -157.5q16 -184 129 -301 t287 -117q123 0 223.5 66.5t147.5 177.5q23 53 78 53q29 0 54 -23.5t25 -56.5q0 -14 -6 -36q-61 -154 -204.5 -248t-317.5 -94q-244 0 -406 162.5t-178 408.5z" />
<glyph unicode="D" horiz-adv-x="1472" d="M205 139v1157q0 61 38 100.5t103 39.5h342q301 0 464 -166t179 -441q3 -58 3 -114t-3 -109q-16 -274 -179 -440t-464 -166h-342q-66 0 -103.5 40t-37.5 99zM373 162h315q227 0 345 118.5t130 329.5q3 56 3 109.5t-3 103.5q-10 211 -127.5 331t-347.5 120h-315v-1112z" />
<glyph unicode="E" horiz-adv-x="1280" d="M205 139v1157q0 61 38 100.5t105 39.5h707q35 0 59.5 -23.5t24.5 -58.5q0 -33 -26 -56.5t-58 -23.5h-682v-471h663q35 0 58.5 -22.5t23.5 -57.5q0 -33 -24.5 -56.5t-57.5 -23.5h-663v-481h686q33 0 58.5 -23.5t25.5 -56.5q0 -35 -24.5 -58.5t-59.5 -23.5h-711 q-68 0 -105.5 40t-37.5 99z" />
<glyph unicode="F" horiz-adv-x="1216" d="M205 78v1218q0 61 38 100.5t105 39.5h703q37 0 61.5 -22.5t24.5 -57.5q0 -33 -26 -57.5t-60 -24.5h-678v-502h643q35 0 59.5 -23.5t24.5 -58.5q0 -33 -25.5 -56.5t-58.5 -23.5h-643v-532q0 -35 -24.5 -60.5t-59.5 -25.5q-33 0 -58.5 25.5t-25.5 60.5z" />
<glyph unicode="G" horiz-adv-x="1435" d="M143 551q-6 84 -6 167t6 165q18 244 186.5 407.5t411.5 163.5q174 0 310.5 -84t208.5 -231q8 -16 8 -41q0 -33 -24.5 -57.5t-59.5 -24.5q-47 0 -74 45q-53 109 -148.5 170t-218.5 61q-178 0 -296.5 -116.5t-135.5 -301.5q-6 -81 -6 -159.5t6 -155.5q16 -182 136 -300 t296 -118q172 0 279.5 93.5t107.5 238.5v127h-292q-35 0 -60.5 24.5t-25.5 57.5q0 35 25.5 58.5t60.5 23.5h317q68 0 104.5 -39t36.5 -98v-135q0 -211 -155.5 -361.5t-399.5 -150.5q-246 0 -414 162.5t-184 408.5z" />
<glyph unicode="H" horiz-adv-x="1546" d="M205 78v1280q0 35 24.5 60.5t59.5 25.5q37 0 60.5 -24.5t23.5 -61.5v-559h798v559q0 35 25 60.5t59 25.5q37 0 60.5 -24.5t23.5 -61.5v-1280q0 -37 -23.5 -61.5t-60.5 -24.5q-33 0 -58.5 25.5t-25.5 60.5v559h-798v-559q0 -37 -23.5 -61.5t-60.5 -24.5q-35 0 -59.5 25.5 t-24.5 60.5z" />
<glyph unicode="I" horiz-adv-x="579" d="M205 78v1280q0 35 24.5 60.5t59.5 25.5q37 0 60.5 -24.5t23.5 -61.5v-1280q0 -37 -23.5 -61.5t-60.5 -24.5q-35 0 -59.5 25.5t-24.5 60.5z" />
<glyph unicode="J" horiz-adv-x="1056" d="M74 244q0 33 23.5 57.5t56.5 24.5q49 0 77 -50q74 -135 220 -135q102 0 171.5 72t69.5 207v938q0 35 24.5 60.5t59.5 25.5q37 0 60.5 -24.5t23.5 -61.5v-950q0 -186 -118.5 -307t-290.5 -121q-121 0 -220.5 62t-148.5 163q-8 25 -8 39z" />
<glyph unicode="K" horiz-adv-x="1296" d="M205 78v1280q0 35 24.5 60.5t59.5 25.5q37 0 60.5 -24.5t23.5 -61.5v-551h14q63 0 115 49l583 559q27 27 62 27t57 -25q23 -27 23 -58.5t-25 -55.5l-602 -572l614 -594q27 -29 28 -59q0 -29 -25 -58q-23 -27 -58 -27h-2q-33 0 -57 25l-598 578q-45 47 -115 47h-14v-565 q0 -37 -23.5 -61.5t-60.5 -24.5q-33 0 -58.5 25.5t-25.5 60.5z" />
<glyph unicode="L" horiz-adv-x="1138" d="M205 133v1225q0 35 24.5 60.5t59.5 25.5q37 0 60.5 -24.5t23.5 -61.5v-1196h669q35 0 60.5 -23.5t25.5 -56.5q0 -37 -24.5 -59.5t-61.5 -22.5h-700q-63 0 -100 38t-37 95z" />
<glyph unicode="M" horiz-adv-x="1896" d="M133 94l176 1196q12 82 60.5 122t117.5 40q141 0 177 -145l264 -1129q6 -20 22.5 -20t22.5 20l258 1129q14 70 62 107.5t116 37.5t116 -41t60 -121l178 -1194q2 -13 2 -23q0 -65 -61 -81q-14 -4 -27 -4q-25 0 -45 13q-31 19 -35 56l-167 1207q-4 20 -20.5 20t-25.5 -18 l-266 -1112q-37 -156 -170 -156q-135 0 -172 156l-266 1112q-8 18 -23 18q-16 0 -22 -20l-168 -1207q-4 -37 -35 -55q-21 -13 -46 -13q-11 0 -23 3q-61 16 -62 79q0 11 2 23z" />
<glyph unicode="N" horiz-adv-x="1574" d="M205 78v1214q0 63 40 106.5t103 43.5q92 0 139 -80l717 -1163h4q0 27 -3 80t-4 109t-1 116v854q0 35 24.5 60.5t59.5 25.5q37 0 60.5 -24.5t23.5 -61.5v-1219q0 -61 -38 -102t-97 -41q-88 0 -135 76l-727 1177h-4q6 -252 6 -317v-854q0 -37 -23.5 -61.5t-60.5 -24.5 q-33 0 -58.5 25.5t-25.5 60.5z" />
<glyph unicode="O" horiz-adv-x="1492" d="M143 551q-6 84 -6 167t6 165q18 244 187.5 407.5t412.5 163.5q246 0 418 -165t189 -406q6 -82 6 -165t-6 -167q-16 -244 -188.5 -407.5t-418.5 -163.5q-244 0 -414 163.5t-186 407.5zM311 559q16 -182 136 -300t296 -118q178 0 299 118t138 300q8 79 8 158.5t-8 159.5 q-16 180 -138 297.5t-299 117.5q-174 0 -294.5 -116.5t-137.5 -298.5q-6 -80 -6 -159.5t6 -158.5z" />
<glyph unicode="P" horiz-adv-x="1318" d="M205 78v1220q0 59 37 98.5t102 39.5h414q197 0 331 -121t134 -328q0 -211 -134.5 -330.5t-347.5 -119.5h-368v-459q0 -35 -25.5 -60.5t-58.5 -25.5t-58.5 25.5t-25.5 60.5zM373 698h366q311 0 312 287q0 135 -75 212t-226 77h-377v-576z" />
<glyph unicode="Q" horiz-adv-x="1495" d="M143 551q-6 84 -6 167t6 165q18 244 187.5 407.5t412.5 163.5q246 0 418 -165t189 -406q6 -82 6 -165t-6 -167q-18 -256 -203 -420l190 -233q19 -24 19 -54q0 -37 -27 -59q-21 -18 -49 -18q-4 0 -8 1q-33 3 -53 27l-203 246q-127 -61 -273 -61q-244 0 -414 163.5 t-186 407.5zM311 559q16 -182 136 -300t296 -118q88 0 166 31l-198 244q-18 23 -17.5 56.5t25.5 53.5q22 20 51 20h8q35 -3 56 -30l208 -258q123 123 138 301q8 79 8 158.5t-8 159.5q-16 180 -138 297.5t-299 117.5q-174 0 -294.5 -116.5t-137.5 -298.5q-6 -80 -6 -159.5 t6 -158.5z" />
<glyph unicode="R" horiz-adv-x="1388" d="M205 78v1220q0 59 37 98.5t102 39.5h418q197 0 330 -117t133 -324q0 -176 -93.5 -276.5t-254.5 -126.5l372 -461q18 -21 18 -51q0 -42 -28 -66q-26 -23 -57 -22h-5q-34 2 -57 28l-385 476q-29 35 -52.5 50t-61.5 15h-248v-483q0 -35 -25.5 -60.5t-58.5 -25.5t-58.5 25.5 t-25.5 60.5zM373 721h368q313 0 314 274q0 131 -76 205t-227 74h-379v-553z" />
<glyph unicode="S" horiz-adv-x="1267" d="M121 203q0 37 24.5 61.5t61.5 24.5q27 0 61 -25q174 -121 394 -121q164 0 255 69t91 191q0 98 -79 149.5t-292 92.5q-252 49 -368.5 142.5t-116.5 256.5q0 188 136 299t357 111q125 0 234.5 -31.5t169.5 -83.5q33 -27 32 -69q0 -33 -23.5 -56.5t-53.5 -23.5q-29 0 -66 20 q-152 82 -293 82q-168 0 -245.5 -67.5t-77.5 -175.5q0 -98 75.5 -149.5t280.5 -92.5q272 -51 386 -141.5t114 -262.5q0 -188 -139.5 -305.5t-379.5 -117.5q-276 0 -495 149q-43 27 -43 74z" />
<glyph unicode="T" horiz-adv-x="1228" d="M37 1354q0 37 24.5 59.5t61.5 22.5h983q37 0 60.5 -22.5t23.5 -59.5q0 -33 -24.5 -56.5t-59.5 -23.5h-406v-1196q0 -35 -24.5 -60.5t-59 -25.5t-59.5 25.5t-25 60.5v1196h-409q-35 0 -60.5 23.5t-25.5 56.5z" />
<glyph unicode="U" horiz-adv-x="1531" d="M186 582v776q0 35 25 60.5t59.5 25.5t59 -25.5t24.5 -60.5v-774q0 -201 116 -322t296 -121t296 121t116 322v774q0 35 24.5 60.5t59 25.5t59.5 -25.5t25 -60.5v-776q0 -266 -164 -434t-416 -168t-416 168t-164 434z" />
<glyph unicode="V" horiz-adv-x="1359" d="M53 1325q-6 15 -5 30q0 18 7 36q14 33 47 45q15 6 30 5q17 0 35 -7q32 -14 44 -48l444 -1222q8 -18 25 -19q20 0 25 19l444 1220q12 35 44 50q19 8 37 8q13 0 27 -4q31 -12 46 -46q8 -20 8 -39q0 -14 -4 -28l-447 -1198q-55 -147 -180 -147q-123 0 -182 147z" />
<glyph unicode="W" horiz-adv-x="1896" d="M82 1337q-3 11 -3 23q0 21 10 41q15 31 50 39q11 3 22 2q23 0 45 -11q32 -17 38 -51l258 -1241q2 -4 6 -4t6 4l305 1176q14 59 56.5 92t93.5 33q47 0 89 -33t56 -92l303 -1176q2 -6 6 -6t7 6l264 1241q10 33 39 51q19 12 42 11q11 0 23 -2q35 -8 49 -39q10 -22 10 -44 q0 -10 -2 -20l-286 -1231q-12 -59 -54 -91.5t-91.5 -32.5t-92.5 32.5t-57 89.5l-303 1168q-2 4 -5 4t-5 -4l-308 -1168q-16 -59 -56 -91.5t-89 -32.5q-51 0 -94 33.5t-56 95.5z" />
<glyph unicode="X" horiz-adv-x="1320" d="M72 76q0 30 20 55l459 584l-459 588q-20 25 -20 54q0 4 1 8q3 34 31 56q26 19 55 19h10q34 -4 56 -33l434 -557l437 557q23 31 59 35q6 1 11 0q30 0 53 -19q27 -23 29 -57q0 -4 1 -8q0 -30 -20 -58l-463 -587l457 -582q22 -27 22 -58q0 -4 -1 -7q-3 -35 -34 -56 q-21 -16 -48 -16q-7 0 -14 1q-36 5 -56 32l-430 551l-437 -553q-20 -27 -58 -31q-6 -1 -12 -1q-30 0 -51 17q-32 26 -32 66z" />
<glyph unicode="Y" horiz-adv-x="1325" d="M63 1423q23 19 53 19h11q37 -4 57 -31l478 -598l479 598q23 29 57 32h8q30 0 56 -20q27 -23 29 -56q0 -4 1 -8q0 -29 -20 -54l-471 -578q-4 -6 -13.5 -16.5t-12.5 -15.5t-9 -13t-9 -14t-6 -15.5t-4.5 -19.5t-1.5 -23v-532q0 -37 -23.5 -61.5t-59.5 -24.5 q-33 0 -58.5 25.5t-25.5 60.5v532q0 12 -1.5 22.5t-5.5 20t-5 15.5t-8 16t-10 13t-13.5 15.5t-12.5 16.5l-469 574q-20 25 -20 55q0 40 30 65z" />
<glyph unicode="Z" horiz-adv-x="1200" d="M104 135q0 49 41 103l748 1036h-694q-35 0 -59.5 22.5t-24.5 55.5q0 37 24.5 60.5t59.5 23.5h731q70 0 109.5 -38t39.5 -95q0 -45 -47 -115l-741 -1026h745q35 0 60.5 -23.5t25.5 -56.5q0 -37 -24.5 -59.5t-61.5 -22.5h-780q-70 0 -111 38t-41 97z" />
<glyph unicode="[" horiz-adv-x="739" d="M180 -227v1720q0 55 36 93t97 38h322q35 0 60.5 -23.5t25.5 -58.5t-25.5 -59.5t-60.5 -24.5h-287v-1651h287q35 0 60.5 -24.5t25.5 -59t-25.5 -58t-60.5 -23.5h-322q-63 0 -98 37t-35 94z" />
<glyph unicode="\" horiz-adv-x="718" d="M-20 1448q-12 31 1 63.5t46 44.5q33 14 64.5 0t43.5 -47l604 -1519q14 -33 0 -67t-47 -46t-64.5 3.5t-43.5 47.5z" />
<glyph unicode="]" horiz-adv-x="739" d="M18 -278.5q0 34.5 26 59t60 24.5h287v1651h-287q-35 0 -60.5 24.5t-25.5 59.5t26 58.5t60 23.5h320q63 0 98 -37t35 -94v-1720q0 -57 -35 -94t-98 -37h-320q-35 0 -60.5 23.5t-25.5 58z" />
<glyph unicode="^" horiz-adv-x="1251" d="M258 811l188 487q57 145 178 145.5t181 -145.5l188 -487q12 -29 -2 -61.5t-45 -44.5q-33 -12 -64.5 1t-43.5 46l-187 501q-8 20 -26 21q-16 0 -25 -21l-188 -501q-10 -33 -43 -46.5t-64 -0.5q-33 12 -46 44.5t-1 61.5z" />
<glyph unicode="_" horiz-adv-x="966" d="M0 -250h967v-153h-967v153z" />
<glyph unicode="`" horiz-adv-x="737" d="M160 1757q0 29 19.5 49.5t47.5 20.5q16 0 37 -8l277 -144q39 -20 39 -63q0 -29 -20.5 -49.5t-49.5 -20.5q-16 0 -41 12l-272 142q-37 20 -37 61z" />
<glyph unicode="a" d="M123 330q0 143 106.5 237.5t305.5 94.5q127 0 286 -44v84q0 123 -62.5 179.5t-193.5 56.5q-102 0 -243 -53q-23 -9 -44 -9q-22 0 -40 11q-35 20 -35 61q0 53 53 78q135 66 325.5 66t297 -94.5t106.5 -288.5v-545q0 -47 -35 -68q-53 -39 -168.5 -76.5t-249.5 -37.5 q-197 0 -303 95t-106 253zM289 334q0 -203 262 -203q109 0 177.5 25.5t92.5 50.5v268q-176 45 -284.5 45t-178 -50t-69.5 -136z" />
<glyph unicode="b" horiz-adv-x="1230" d="M188 172v1198q0 35 24 60.5t58.5 25.5t59 -25.5t24.5 -60.5v-344q147 66 295 66q193 0 303.5 -106.5t126.5 -299.5q6 -74 6 -146.5t-6 -144.5q-16 -193 -134 -303t-318 -110q-121 0 -233.5 40.5t-172.5 81.5q-33 23 -33 68zM354 221q37 -29 119 -56.5t152 -27.5 q262 0 286 271q5 58 5 124.5t-5 141.5q-16 262 -268 262q-166 0 -289 -72v-643z" />
<glyph unicode="c" horiz-adv-x="1140" d="M150 395q-4 73 -4.5 145.5t4.5 145.5q10 180 138 293t320 113q190 0 304 -105.5t114 -195.5q0 -37 -22.5 -60.5t-55.5 -23.5q-55 0 -80 55q-35 86 -104.5 130t-153.5 44q-129 0 -206.5 -70.5t-88.5 -189.5q-4 -58 -4 -126t4 -144q10 -119 87 -194t208 -75q84 0 156 44 t106 130q25 55 80 56q33 0 55.5 -24t22.5 -60q0 -92 -115.5 -196.5t-306.5 -104.5q-195 0 -321.5 117.5t-136.5 295.5z" />
<glyph unicode="d" horiz-adv-x="1230" d="M152 395q-6 72 -6.5 144t6.5 145q16 195 126.5 301.5t303.5 106.5q147 0 295 -66v344q0 35 24.5 60.5t56.5 25.5q37 0 60.5 -24.5t23.5 -61.5v-1198q0 -43 -34 -68q-55 -39 -168 -80.5t-236 -41.5q-201 0 -318.5 110t-133.5 303zM317 408q25 -270 289 -271q70 0 152 28 t119 56v643q-123 72 -289 72q-252 0 -271 -260q-4 -62 -4 -129t4 -139z" />
<glyph unicode="e" horiz-adv-x="1171" d="M150 422q-4 65 -4 120q0 70 6 126q16 197 140 310.5t312 113.5q201 0 320.5 -124t119.5 -321v-61q0 -119 -120 -119h-613v-33q0 -141 84 -221t221 -80q100 0 250 53q24 10 44 10q23 0 41 -13q34 -24 34 -62q0 -45 -45 -74q-49 -29 -142 -47t-184 -18q-209 0 -331.5 119.5 t-132.5 320.5zM311 606h545q25 0 27 25q1 14 0 26q0 121 -68 199q-76 86 -209 86q-147 0 -223 -90q-72 -85 -72 -230v-16z" />
<glyph unicode="f" horiz-adv-x="804" d="M76 966.5q0 32.5 23.5 54t56.5 21.5h71v95q0 154 83 243.5t239 89.5q109 0 180 -22q66 -18 66 -78q0 -29 -20.5 -51.5t-59.5 -22.5q-20 0 -72.5 9.5t-89.5 9.5q-160 0 -160 -191v-82h287q33 0 56.5 -21.5t23.5 -54t-23.5 -54t-56.5 -21.5h-287v-813q0 -37 -23.5 -61.5 t-58.5 -24.5t-59.5 24.5t-24.5 61.5v813h-71q-33 0 -56.5 21.5t-23.5 54z" />
<glyph unicode="g" horiz-adv-x="1228" d="M150 418q-3 65 -3.5 129t3.5 129q10 184 127.5 300t300.5 116q143 0 257.5 -40t170.5 -83q35 -20 34 -72v-821q0 -215 -129 -338t-383 -123q-98 0 -229 23q-74 14 -74 75q0 37 26 63q19 19 50 19q10 0 21 -2q121 -25 213 -24q340 0 339 311q-147 -70 -303 -70 q-186 0 -298.5 112t-122.5 296zM315 428q10 -125 75 -194.5t185 -69.5q193 0 299 84v612q-6 6 -36.5 21.5t-99 34t-140.5 18.5q-258 0 -283 -268q-2 -40 -2 -99.5t2 -138.5z" />
<glyph unicode="h" horiz-adv-x="1249" d="M188 78v1292q0 35 24 60.5t58.5 25.5t59 -25.5t24.5 -60.5v-414q55 57 142.5 96.5t179.5 39.5q182 0 291.5 -109t109.5 -309v-596q0 -37 -24.5 -61.5t-59.5 -24.5t-58.5 24.5t-23.5 61.5v581q0 129 -66.5 202t-187.5 73q-88 0 -171 -45t-132 -113v-698q0 -37 -23.5 -61.5 t-60.5 -24.5q-35 0 -58.5 24.5t-23.5 61.5z" />
<glyph unicode="i" horiz-adv-x="559" d="M178 1346q0 43 29 72.5t72 29.5t72.5 -29.5t29.5 -72.5t-29.5 -74t-72.5 -31t-72 31t-29 74zM197 78v913q0 35 23.5 60.5t58 25.5t59 -25.5t24.5 -60.5v-913q0 -37 -23.5 -61.5t-59.5 -24.5q-33 0 -57.5 24.5t-24.5 61.5z" />
<glyph unicode="j" horiz-adv-x="544" d="M4 -312q0 28 25 60q88 96 120.5 183t32.5 219v841q0 35 23.5 60.5t58.5 25.5t59.5 -25.5t24.5 -60.5v-835q0 -170 -48 -288t-150 -230q-23 -25 -58 -28q-5 0 -9 -1q-28 0 -46 16q-33 25 -33 63zM164 1346q0 43 28.5 72.5t71.5 29.5t73 -29.5t30 -72.5t-30 -74t-73 -31 t-71.5 31t-28.5 74z" />
<glyph unicode="k" horiz-adv-x="1095" d="M188 78v1292q0 35 24 59.5t58.5 24.5t59 -24.5t24.5 -59.5v-739h35q68 0 115 47l383 377q25 27 60.5 26.5t58.5 -24.5q25 -29 25 -58q0 -30 -27 -59l-404 -387l410 -416q29 -31 28 -62q0 -29 -24 -59q-23 -25 -58.5 -24.5t-60.5 26.5l-391 402q-49 49 -113 49h-37v-391 q0 -37 -23.5 -61.5t-60.5 -24.5q-33 0 -57.5 25.5t-24.5 60.5z" />
<glyph unicode="l" horiz-adv-x="542" d="M188 78v1292q0 35 24 59.5t58.5 24.5t59 -24.5t24.5 -59.5v-1292q0 -37 -23.5 -61.5t-60.5 -24.5q-35 0 -58.5 24.5t-23.5 61.5z" />
<glyph unicode="m" horiz-adv-x="1789" d="M186 78v827q0 45 43 80q139 106 355 107q219 0 315 -125q150 125 324 125q205 0 300 -105.5t95 -312.5v-596q0 -37 -23.5 -61.5t-58.5 -24.5t-59.5 24.5t-24.5 61.5v586q0 270 -233 270q-156 0 -234 -109v-747q0 -37 -23.5 -61.5t-58.5 -24.5t-59.5 24.5t-24.5 61.5v604 q0 252 -233 252q-131 0 -234 -68v-788q0 -37 -23.5 -61.5t-58 -24.5t-59.5 24.5t-25 61.5z" />
<glyph unicode="n" horiz-adv-x="1247" d="M186 78v829q0 47 37 74q55 41 165 76t251 35q213 0 324.5 -107.5t111.5 -310.5v-596q0 -37 -22.5 -61.5t-59.5 -24.5q-35 0 -59.5 24.5t-24.5 61.5v588q0 133 -77.5 200.5t-196.5 67.5q-168 0 -283 -68v-788q0 -37 -23.5 -61.5t-58 -24.5t-59.5 24.5t-25 61.5z" />
<glyph unicode="o" horiz-adv-x="1212" d="M150 395q-4 72 -4.5 144.5t4.5 146.5q10 178 138 292t318.5 114t318.5 -113t138 -293q5 -74 5 -146.5t-5 -144.5q-10 -180 -138 -296.5t-319 -116.5q-188 0 -317 116.5t-139 296.5zM315 406q10 -121 89 -195t202 -74t202 74t89 195q4 67 4 133.5t-4 134.5 q-8 117 -86 189.5t-205 72.5t-204.5 -72.5t-86.5 -189.5q-4 -68 -4 -134.5t4 -133.5z" />
<glyph unicode="p" horiz-adv-x="1228" d="M186 -311v1214q0 41 33 64q57 41 173 83t243 42q197 0 312.5 -111t131.5 -303q6 -73 6 -145t-6 -144q-16 -195 -133 -301t-317 -106q-137 0 -277 65v-358q0 -35 -24.5 -60.5t-57.5 -25.5q-35 0 -59.5 25.5t-24.5 60.5zM352 213q119 -76 273 -76q268 0 286 260q5 77 5 144 t-5 125q-25 270 -278 270q-74 0 -158 -27.5t-123 -56.5v-639z" />
<glyph unicode="q" horiz-adv-x="1230" d="M152 387q-6 74 -6.5 146.5t6.5 144.5q16 193 130.5 303.5t311.5 110.5q127 0 244.5 -42t173.5 -83q31 -20 30 -64v-1214q0 -37 -23.5 -61.5t-60.5 -24.5q-33 0 -57 25.5t-24 60.5v358q-143 -66 -285 -65q-199 0 -311.5 106t-128.5 299zM317 399q18 -262 279 -262 q162 0 281 72v643q-39 29 -123 56.5t-156 27.5q-256 0 -281 -270q-4 -72 -4 -139t4 -128z" />
<glyph unicode="r" horiz-adv-x="774" d="M174 76v690q0 152 87 239t247 87q106 0 178 -23q66 -16 66 -78q0 -29 -21.5 -52.5t-60.5 -23.5q-16 0 -69.5 8.5t-92.5 8.5q-166 -2 -166 -184v-672q0 -35 -24.5 -59.5t-59.5 -24.5t-59.5 24.5t-24.5 59.5z" />
<glyph unicode="s" horiz-adv-x="997" d="M113 150q-1 7 -1 12q0 25 13 45q27 35 61 35q25 0 54 -19q63 -47 121.5 -69.5t158.5 -22.5q102 0 160.5 48t58.5 122q0 106 -164 148q-143 33 -147 34q-289 74 -289 291q0 145 106.5 231.5t276.5 86.5q178 0 293 -88q29 -23 30 -60t-20 -55q-24 -27 -55 -28q-25 0 -55 18 q-104 61 -199 61q-215 0 -215 -160q0 -51 36 -83.5t124 -57.5q39 -10 104 -25l66 -16q272 -70 272 -289q0 -150 -108.5 -238.5t-288.5 -88.5q-225 0 -365 114q-24 21 -28 54z" />
<glyph unicode="t" horiz-adv-x="835" d="M176 319v891q0 35 23.5 59.5t58.5 24.5t59.5 -24.5t24.5 -59.5v-168h309q31 0 54.5 -22.5t23.5 -53t-23.5 -53t-54.5 -22.5h-309v-578q0 -82 39 -130t119 -48q37 0 164 37q17 4 31 4q28 0 46 -15q29 -24 29 -65q0 -57 -68 -80q-90 -35 -210 -34q-158 0 -237 92.5 t-79 244.5z" />
<glyph unicode="u" horiz-adv-x="1247" d="M172 399v592q0 35 23.5 60.5t58.5 25.5t59.5 -25.5t24.5 -60.5v-594q0 -121 72.5 -189.5t201.5 -68.5q168 0 283 76v776q0 35 23.5 60.5t58.5 25.5t59.5 -25.5t24.5 -60.5v-819q0 -45 -35 -68q-176 -123 -414 -122q-201 0 -320.5 109t-119.5 308z" />
<glyph unicode="v" horiz-adv-x="1050" d="M53 961q-8 19 -7 36q0 25 15 46q27 36 72 36q53 0 76 -59l307 -850q2 -8 10.5 -8t10.5 8l301 840q25 66 82 65q45 0 69 -37q15 -22 15 -47q0 -17 -7 -35l-313 -839q-49 -129 -159.5 -129t-153.5 127z" />
<glyph unicode="w" horiz-adv-x="1662" d="M76 963q-4 17 -5 31q0 28 15 52q23 36 66 35q63 0 75 -59l232 -864q4 -10 10 -10.5t10 10.5l207 803q14 55 55 87.5t93 32.5q53 0 93 -32.5t54 -90.5l207 -800q4 -10 10 -10.5t10 10.5l224 858q12 66 81 65q43 0 66 -37q15 -24 15 -51q0 -15 -5 -30l-239 -861 q-37 -127 -152 -127q-121 0 -151 127l-203 785q-2 8 -10 8q-10 0 -11 -8l-209 -783q-33 -129 -147 -129q-55 0 -96 33t-58 94z" />
<glyph unicode="x" horiz-adv-x="1114" d="M103 73q0 29 20 54l330 418l-312 393q-20 25 -20 54q0 4 1 8q3 34 32 57q22 17 49 17q5 0 11 -1q34 -4 54 -31l287 -368l287 366q23 29 58 33q6 1 12 1q29 0 53 -17q27 -23 28 -58v-5q0 -31 -20 -58l-309 -393l327 -416q22 -24 22 -55v-7q-3 -36 -34 -57q-21 -16 -48 -16 q-7 0 -13 1q-35 5 -54 30l-307 393l-305 -393q-20 -27 -57 -31q-6 -1 -12 -1q-29 0 -50 17q-30 26 -30 65z" />
<glyph unicode="y" horiz-adv-x="1048" d="M55 956q-8 20 -7 38q0 25 14 45q26 36 71 36q49 0 78 -59l317 -731q4 -6 8.5 -6t8.5 6l289 725q25 66 81 65q47 0 72 -38q14 -22 14 -45q0 -17 -8 -36l-385 -933q-57 -137 -136 -243t-148 -147q-41 -25 -74 -24q-33 0 -57.5 21.5t-24.5 56.5q0 49 39 71q164 94 237 310z " />
<glyph unicode="z" horiz-adv-x="1042" d="M115 127q0 55 41 106l608 668h-539q-33 0 -57.5 21.5t-24.5 54.5t25 55.5t57 22.5h570q63 0 101 -33t42 -86q1 -7 1 -13q0 -59 -50 -114l-596 -655h561q35 0 58.5 -21.5t23.5 -54.5t-23.5 -55.5t-58.5 -22.5h-594q-66 0 -105.5 36t-39.5 91z" />
<glyph unicode="{" horiz-adv-x="778" d="M70 645q0 39 41 72q61 49 84.5 102t23.5 131v467q0 84 61.5 144.5t145.5 60.5h248q35 0 60.5 -23.5t25.5 -58.5t-25.5 -59.5t-60.5 -24.5h-225q-27 0 -44.5 -17.5t-17.5 -43.5v-445q0 -213 -137 -305q137 -98 137 -305v-473q0 -27 16.5 -44.5t42.5 -17.5h228 q35 0 60.5 -24.5t25.5 -59t-25.5 -58t-60.5 -23.5h-240q-88 0 -151.5 62t-63.5 151v485q0 78 -23.5 131t-84.5 102q-41 33 -41 74z" />
<glyph unicode="|" horiz-adv-x="626" d="M223 -201v1825q0 35 24.5 60.5t59.5 25.5t59.5 -25.5t24.5 -60.5v-1825q0 -37 -24.5 -61.5t-59.5 -24.5t-59.5 25.5t-24.5 60.5z" />
<glyph unicode="}" horiz-adv-x="778" d="M18 -278.5q0 34.5 26 59t60 24.5h226q27 0 44 17.5t17 44.5v473q0 207 137 305q-137 92 -137 305v445q0 27 -17.5 44t-43.5 17h-226q-35 0 -60.5 24.5t-25.5 59.5t26 58.5t60 23.5h248q84 0 144.5 -60.5t60.5 -144.5v-467q0 -78 23.5 -131t85.5 -102q41 -33 41 -72 q0 -41 -41 -74q-61 -49 -85 -102t-24 -131v-485q0 -88 -62.5 -150.5t-150.5 -62.5h-240q-35 0 -60.5 23.5t-25.5 58z" />
<glyph unicode="~" horiz-adv-x="1296" d="M141 715q0 61 66 86q150 63 239 63q78 0 203 -53t201 -53q70 0 172 51q55 29 93 1t38 -69q0 -61 -66 -86q-147 -63 -241 -63q-78 0 -203 53t-201 53q-66 0 -168 -51q-55 -29 -94 -2t-39 70z" />
<glyph unicode="&#xa1;" horiz-adv-x="440" d="M135 1262v108q0 33 25.5 57.5t60.5 24.5t59.5 -24.5t24.5 -57.5v-108q0 -33 -24.5 -57.5t-59.5 -24.5t-60.5 24.5t-25.5 57.5zM137 84l10 811q0 29 21.5 51.5t50.5 22.5q31 0 52.5 -21.5t21.5 -52.5l10 -811q0 -35 -24.5 -60.5t-57.5 -25.5q-35 0 -59.5 25.5t-24.5 60.5z " />
<glyph unicode="&#xa2;" horiz-adv-x="1032" d="M190 614q-6 100 0 205q10 139 98.5 240.5t219.5 126.5v186q0 33 22.5 56.5t53 23.5t52 -23.5t21.5 -56.5v-186q94 -16 167 -73.5t104 -135.5q10 -27 10 -41q0 -31 -24.5 -53.5t-53.5 -22.5q-49 0 -72 49q-27 61 -80 99.5t-120 38.5q-104 0 -166 -64.5t-72 -171.5 q-10 -96 0 -190q10 -106 71.5 -169t166.5 -63q68 0 121 36t79 99q20 47 72 47q29 0 52.5 -21.5t23.5 -51.5q0 -8 -8 -33q-82 -184 -271 -221v-183q0 -33 -21.5 -56t-52 -23t-53 23.5t-22.5 55.5v187q-133 25 -221.5 125t-96.5 241z" />
<glyph unicode="&#xa3;" horiz-adv-x="1157" d="M25 674q0 33 24.5 55.5t59.5 22.5h106q-47 225 -47 280q0 180 115.5 301t324.5 121q233 0 396 -162q35 -35 34 -71q0 -35 -22.5 -58.5t-57 -23.5t-73.5 32q-68 61 -129.5 91t-151.5 30q-137 0 -203.5 -77.5t-66.5 -178.5q0 -35 7 -78t21.5 -107.5t20.5 -98.5h303 q35 0 60.5 -22.5t25.5 -55.5q0 -35 -25.5 -59.5t-60.5 -24.5h-283q23 -195 -104 -428h698q35 0 60.5 -23.5t25.5 -58.5t-24.5 -57.5t-61.5 -22.5h-757q-59 0 -92 30.5t-33 80.5q0 35 35 104q104 207 86 375h-127q-35 0 -59.5 23.5t-24.5 60.5z" />
<glyph unicode="&#xa4;" horiz-adv-x="1271" d="M101 264q1 35 24 60l176 174q-35 72 -37 155q-2 63 0 127q4 88 37 158l-174 176q-25 25 -26 58.5t22 56.5q27 25 60.5 24.5t56.5 -26.5l161 -162q102 82 236 82q131 0 233 -82l162 162q25 27 58.5 26.5t58.5 -24.5q23 -23 22.5 -56.5t-24.5 -58.5l-174 -176 q31 -66 35 -158q2 -63 0 -127q-4 -90 -35 -155l174 -174q25 -25 24.5 -60t-22.5 -57q-25 -23 -57.5 -22t-59.5 26l-160 158q-98 -82 -235 -82q-139 0 -238 82l-159 -158q-25 -25 -57.5 -26t-59.5 22q-23 22 -22 57zM416 655q4 -94 67.5 -157.5t153.5 -63.5t151.5 63.5 t65.5 157.5q2 53 0 123q-4 92 -65.5 155.5t-151.5 63.5t-152.5 -63.5t-68.5 -155.5q-4 -43 0 -123z" />
<glyph unicode="&#xa5;" horiz-adv-x="1325" d="M34 1366q3 35 29.5 57.5t63.5 18.5t57 -31l478 -598l479 598q23 29 57.5 32t63.5 -20q27 -23 29.5 -56.5t-19.5 -61.5l-471 -578q-4 -6 -13.5 -16.5t-12.5 -15.5t-9 -13t-9 -14t-6 -15.5t-4.5 -19.5t-1.5 -23v-8h246q33 0 56.5 -22.5t23.5 -55t-23.5 -55.5t-56.5 -23 h-246v-368q0 -37 -23.5 -61.5t-59.5 -24.5q-33 0 -58.5 25.5t-25.5 60.5v368h-244q-35 0 -58.5 23t-23.5 55.5t23.5 55t58.5 22.5h244v8q0 12 -1.5 22.5t-5.5 20t-5 15.5t-8 16t-10 13t-13.5 15.5t-12.5 16.5l-469 574q-22 28 -19 63z" />
<glyph unicode="&#xa6;" horiz-adv-x="626" d="M223 -201v752q0 35 24.5 60.5t59.5 25.5t59.5 -25.5t24.5 -60.5v-752q0 -37 -24.5 -61.5t-59.5 -24.5t-59.5 25.5t-24.5 60.5zM223 872v752q0 35 24.5 60.5t59.5 25.5t59.5 -25.5t24.5 -60.5v-752q0 -37 -24.5 -61.5t-59.5 -24.5t-59.5 25.5t-24.5 60.5z" />
<glyph unicode="&#xa7;" horiz-adv-x="1187" d="M162 -23q0 33 23.5 56.5t54.5 23.5q18 0 59 -20q135 -84 295 -84q129 0 192.5 60.5t63.5 142.5q0 37 -7 65.5t-28.5 50t-40 36t-60.5 28.5t-69 21.5t-88 23.5q-199 51 -279.5 119.5t-80.5 177.5q0 100 73 180q-84 88 -84 225q0 160 120 263.5t304 103.5q123 0 223.5 -35 t153.5 -82q35 -29 35 -71q0 -33 -23.5 -56.5t-56.5 -23.5q-27 0 -57 22q-135 84 -273 84q-129 0 -192.5 -61.5t-63.5 -143.5q0 -45 15.5 -77.5t34 -53t64.5 -39t77 -27.5t102 -28q201 -51 281 -119.5t80 -177.5q0 -96 -74 -180q84 -84 84 -223q0 -160 -119 -264.5 t-303 -104.5q-125 0 -237.5 36t-167.5 83q-31 26 -31 69zM354 682q0 -53 56.5 -88t210.5 -70q125 -31 190 -61l4 4q39 43 39 88q0 53 -56.5 88t-209.5 72q-123 27 -191 61l-4 -4q-39 -43 -39 -90z" />
<glyph unicode="&#xa8;" horiz-adv-x="737" d="M115 1651q0 41 26.5 66.5t65.5 25.5t65.5 -26.5t26.5 -65.5t-26.5 -65.5t-65.5 -26.5t-65.5 26.5t-26.5 65.5zM438 1651q0 39 27 65.5t65.5 26.5t65.5 -25.5t27 -66.5q0 -39 -27 -65.5t-65.5 -26.5t-65.5 26.5t-27 65.5z" />
<glyph unicode="&#xa9;" horiz-adv-x="1650" d="M199 604q-4 115 0 230q8 270 187 444t439 174q258 0 438.5 -174t188.5 -444q4 -115 0 -230q-8 -270 -188.5 -443t-438.5 -173q-260 0 -439 173t-187 443zM326 594q12 -223 152 -353t347 -130t345.5 130t152.5 353q8 127 0 250q-14 225 -152.5 355t-345.5 130t-347 -131 t-152 -354q-8 -123 0 -250zM483 625q-10 94 0 194q10 139 107.5 234.5t236.5 95.5q109 0 189 -51t117 -135q10 -25 10 -39q0 -29 -19.5 -44.5t-44.5 -15.5q-33 0 -53 37q-25 57 -78 91t-121 34q-90 0 -148 -59.5t-69 -155.5q-4 -61 0 -182q8 -94 67.5 -155.5t149.5 -61.5 q68 0 121 33.5t78 91.5q18 39 53 38q25 0 44.5 -15t19.5 -44q0 -14 -10 -39q-37 -86 -117 -137t-189 -51q-139 0 -235.5 96.5t-108.5 239.5z" />
<glyph unicode="&#xaa;" horiz-adv-x="983" d="M94 889q-6 113 0 227q10 156 104.5 246t250.5 90q102 0 193 -30.5t136 -63.5q29 -23 29 -60v-378q0 -86 16.5 -133.5t55.5 -104.5q23 -37 14.5 -68.5t-35.5 -46.5q-63 -33 -106 23q-29 35 -47 76q-123 -111 -256 -111q-160 0 -252.5 91t-102.5 243zM246 899 q10 -190 203 -190q55 0 115.5 28.5t99.5 71.5q-8 55 -9 135v301q-27 20 -87 36.5t-119 16.5q-193 0 -203 -196q-8 -99 0 -203z" />
<glyph unicode="&#xab;" d="M98 719q0 82 90 153l248 197q27 23 60.5 19.5t54 -30t17.5 -59t-29 -55.5l-252 -196q-18 -14 -18.5 -28.5t18.5 -29.5l252 -198q27 -20 29.5 -54.5t-17.5 -60.5q-23 -27 -54.5 -29t-60.5 21l-248 196q-90 76 -90 154zM518 719q0 82 90 153l246 197q29 23 61.5 19.5 t53.5 -29.5q23 -27 19.5 -59.5t-30.5 -55.5l-251 -196q-18 -14 -18.5 -28.5t18.5 -29.5l251 -198q27 -20 30 -54.5t-19 -60.5q-20 -27 -53 -29t-62 21l-246 196q-90 76 -90 154z" />
<glyph unicode="&#xac;" horiz-adv-x="1286" d="M123 717q0 35 24.5 58.5t59.5 23.5h821q63 0 99 -39t36 -96v-385q0 -35 -23.5 -59.5t-58.5 -24.5q-33 0 -57.5 24.5t-24.5 59.5v358h-792q-35 0 -59.5 23.5t-24.5 56.5z" />
<glyph unicode="&#xad;" horiz-adv-x="694" d="M104 586q0 35 26 59.5t60 24.5h314q35 0 60.5 -24.5t25.5 -59.5t-25.5 -58.5t-60.5 -23.5h-314q-35 0 -60.5 24.5t-25.5 57.5z" />
<glyph unicode="&#xae;" horiz-adv-x="1261" d="M162 836q-4 74 0 149q8 201 140 334t325 133q190 0 322 -133t141 -334q4 -76 0 -149q-8 -201 -140.5 -335t-322.5 -134q-193 0 -325 134t-140 335zM258 827q14 -168 114.5 -266t254.5 -98q152 0 253 98t115 266q6 84 0 164q-14 168 -115.5 267.5t-252.5 99.5 q-154 0 -254.5 -98.5t-114.5 -268.5q-6 -80 0 -164zM430 682v446q0 29 17.5 47.5t48.5 18.5h161q78 0 131.5 -46t53.5 -128q0 -123 -115 -158l121 -151q12 -12 12 -33t-14.5 -34t-36.5 -13q-16 0 -35 18l-141 176q-12 18 -35 19h-74v-162q0 -49 -49 -49q-18 0 -31.5 14.5 t-13.5 34.5zM524 932h121q98 0 98 86q0 88 -94 88h-125v-174z" />
<glyph unicode="&#xaf;" horiz-adv-x="737" d="M133 1642q0 29 20.5 49.5t51.5 20.5h336q29 0 49 -20.5t20 -49.5q0 -31 -20.5 -51t-48.5 -20h-336q-31 0 -51.5 20t-20.5 51z" />
<glyph unicode="&#xb0;" horiz-adv-x="714" d="M102 1202q0 106 75 181t179.5 75t180 -74.5t75.5 -181.5q0 -104 -75.5 -179t-180 -75t-179.5 75t-75 179zM215 1202q0 -57 41 -98t100.5 -41t100.5 41t41 98q0 59 -41 100t-100.5 41t-100.5 -41t-41 -100z" />
<glyph unicode="&#xb1;" horiz-adv-x="1286" d="M123 80q0 35 24.5 58.5t59.5 23.5h872q35 0 59.5 -23.5t24.5 -58.5q0 -33 -24.5 -56.5t-59.5 -23.5h-872q-35 0 -59.5 23.5t-24.5 56.5zM123 735q0 35 24.5 58.5t59.5 23.5h356v357q0 35 24.5 59t57.5 24q35 0 58.5 -24.5t23.5 -58.5v-357h352q35 0 59.5 -23.5 t24.5 -58.5q0 -33 -24.5 -56.5t-59.5 -23.5h-352v-360q0 -35 -23.5 -60.5t-58.5 -25.5q-33 0 -57.5 26.5t-24.5 59.5v360h-356q-35 0 -59.5 23.5t-24.5 56.5z" />
<glyph unicode="&#xb2;" horiz-adv-x="935" d="M141 1260q0 25 19 49q41 59 116.5 101t174.5 42q147 0 227 -76t80 -192q0 -106 -61.5 -177t-227.5 -184q-150 -96 -164 -170h395q35 0 57.5 -21.5t22.5 -54t-22.5 -53t-57.5 -20.5h-456q-43 0 -71 29.5t-28 76.5q0 156 205 301q14 10 58.5 39t71 49.5t60 51t51 63.5 t17.5 66q0 49 -41 87t-116 38q-100 0 -166 -82q-31 -39 -66 -39q-33 0 -55.5 20.5t-22.5 55.5z" />
<glyph unicode="&#xb3;" horiz-adv-x="884" d="M125 559q0 31 22.5 52.5t55.5 21.5q12 0 37.5 -1t40.5 -1q150 0 237.5 53t87.5 145q0 61 -41 96.5t-108 35.5q-23 0 -50.5 -4.5t-37.5 -4.5q-29 0 -50.5 18.5t-21.5 47.5q0 31 25 53l182 197h-301q-33 0 -55.5 22.5t-22.5 55t22.5 54t55.5 21.5h403q43 0 73 -25.5 t30 -66.5q0 -43 -43 -90l-140 -147q104 -14 169 -85t65 -176q0 -164 -131 -257t-361 -93q-45 0 -65 2q-33 2 -55.5 23.5t-22.5 52.5z" />
<glyph unicode="&#xb4;" horiz-adv-x="737" d="M160 1612q0 43 37 63l278 144q20 8 35 8q29 0 49.5 -20.5t20.5 -49.5q0 -41 -39 -61l-277 -144q-16 -10 -37 -10q-29 0 -48 20.5t-19 49.5z" />
<glyph unicode="&#xb5;" horiz-adv-x="1261" d="M197 -287v1272q0 35 23.5 59.5t58 24.5t59 -24.5t24.5 -59.5v-588q0 -121 67 -190.5t189 -69.5q164 0 283 78v770q0 35 23.5 59.5t58.5 24.5t59.5 -24.5t24.5 -59.5v-817q0 -43 -31 -64q-182 -123 -413 -122q-156 0 -261 75v-344q0 -35 -24.5 -60.5t-58.5 -25.5 q-33 0 -57.5 25.5t-24.5 60.5z" />
<glyph unicode="&#x3bc;" horiz-adv-x="1261" d="M197 -287v1272q0 35 23.5 59.5t58 24.5t59 -24.5t24.5 -59.5v-588q0 -121 67 -190.5t189 -69.5q164 0 283 78v770q0 35 23.5 59.5t58.5 24.5t59.5 -24.5t24.5 -59.5v-817q0 -43 -31 -64q-182 -123 -413 -122q-156 0 -261 75v-344q0 -35 -24.5 -60.5t-58.5 -25.5 q-33 0 -57.5 25.5t-24.5 60.5z" />
<glyph unicode="&#xb6;" horiz-adv-x="1452" d="M197 985q0 207 134 329t331 122h446q137 0 137 -136v-1607q0 -35 -24.5 -60.5t-57.5 -25.5q-35 0 -59.5 25.5t-24.5 60.5v1581h-159v-1581q0 -37 -24 -61.5t-58.5 -24.5t-59 24.5t-24.5 61.5v842h-76q-213 0 -347 119.5t-134 330.5zM369 983q0 -135 77.5 -211t235.5 -76 h72v578h-80q-150 0 -227.5 -78t-77.5 -213z" />
<glyph unicode="&#xb7;" horiz-adv-x="542" d="M186 668v110q0 35 25 60.5t59.5 25.5t59 -25.5t24.5 -60.5v-110q0 -37 -23.5 -61.5t-60.5 -24.5q-35 0 -59.5 25.5t-24.5 60.5z" />
<glyph unicode="&#xb8;" horiz-adv-x="737" d="M221 -467q0 47 49 64q94 37 126 64.5t32 62.5q0 20 -16.5 38.5t-46.5 18.5q-14 0 -34 -3t-30 -3q-33 0 -52.5 27.5t-4.5 60.5l53 149q18 51 65 51q59 0 60 -57q0 -12 -4 -24l-29 -74q84 -10 132 -58.5t48 -123.5q0 -170 -254 -254q-33 -12 -63.5 4t-30.5 57z" />
<glyph unicode="&#xb9;" horiz-adv-x="684" d="M84 1239q8 33 39 49l215 129q31 18 55 19q39 0 62.5 -25t23.5 -63v-773q0 -33 -21.5 -55t-54 -22t-56 23.5t-23.5 53.5v648l-127 -68q-68 -35 -105 25q-16 26 -8 59z" />
<glyph unicode="&#xba;" horiz-adv-x="958" d="M113 901q-10 104 0 205q12 150 114.5 248t251.5 98q152 0 254.5 -98.5t112.5 -247.5q10 -98 0 -205q-10 -152 -112.5 -249t-254.5 -97q-150 0 -252 98t-114 248zM266 911q10 -90 67.5 -146t145.5 -56t146.5 56t68.5 146q6 94 0 185q-10 90 -69.5 146t-145.5 56 q-88 0 -146.5 -56t-66.5 -146q-10 -91 0 -185z" />
<glyph unicode="&#xbb;" d="M163 437q3 34 30 55l251 198q18 14 18.5 28.5t-18.5 29.5l-251 196q-27 23 -30 55.5t19 59.5q20 27 53 30t62 -20l246 -197q90 -72 90 -153q0 -78 -90 -154l-246 -196q-29 -23 -61.5 -21t-53.5 29q-22 26 -19 60zM583 437q3 34 29 55l252 198q18 14 18.5 28.5t-18.5 29.5 l-252 196q-27 23 -29.5 55.5t18 59t54 30t60.5 -19.5l248 -197q90 -72 90 -153q0 -78 -90 -154l-248 -196q-29 -23 -60.5 -21t-54.5 29q-20 26 -17 60z" />
<glyph unicode="&#xbc;" horiz-adv-x="1976" d="M88 1241q10 33 35 47l237 133q20 12 41 13q33 0 55.5 -22.5t22.5 -57.5v-779q0 -33 -21.5 -55t-54 -22t-56 23.5t-23.5 53.5v648l-127 -68q-66 -35 -105 29q-14 24 -4 57zM498 39l561 1409q12 31 41.5 43t58.5 2t41 -41t0 -59l-557 -1411q-12 -29 -42 -41.5t-58.5 -2 t-41.5 40t-3 60.5zM1030 313q0 49 47 99l414 469q49 55 100 55q49 0 80 -33t31 -80v-473h80q29 0 51 -19.5t22 -49.5q0 -33 -20 -52.5t-53 -19.5h-80v-135q0 -31 -20.5 -52.5t-51.5 -21.5q-33 0 -52 20.5t-19 53.5v133h-416q-49 0 -81 28.5t-32 77.5zM1212 350h347v389z" />
<glyph unicode="&#xbd;" horiz-adv-x="1941" d="M84 1239q8 33 39 49l215 129q31 18 55 19q39 0 62.5 -25t23.5 -63v-773q0 -33 -21.5 -55t-54 -22t-56 23.5t-23.5 53.5v648l-127 -68q-68 -35 -105 25q-16 26 -8 59zM483 39l561 1409q12 31 42 43t59 2t41 -41t0 -59l-557 -1411q-12 -29 -42 -41.5t-58.5 -2t-42 40 t-3.5 60.5zM1145 756q0 25 18 49q41 59 117 101t174 42q147 0 227 -75.5t80 -192.5q0 -106 -61.5 -177t-226.5 -184q-150 -96 -164 -169h395q35 0 57.5 -22t22.5 -54.5t-22.5 -53t-57.5 -20.5h-457q-43 0 -70.5 29.5t-27.5 76.5q0 156 205 302q14 10 58 38.5t70.5 49 t60.5 51.5t51.5 63.5t17.5 65.5q0 49 -41 87t-117 38q-100 0 -166 -82q-31 -39 -65 -39q-33 0 -55.5 20.5t-22.5 55.5z" />
<glyph unicode="&#xbe;" horiz-adv-x="2183" d="M125 559q0 31 22.5 52.5t55.5 21.5q12 0 37.5 -1t40.5 -1q150 0 237.5 53t87.5 145q0 61 -41 96.5t-108 35.5q-23 0 -50.5 -4.5t-37.5 -4.5q-29 0 -50.5 18.5t-21.5 47.5q0 31 25 53l182 197h-301q-33 0 -55.5 22.5t-22.5 55t22.5 54t55.5 21.5h403q43 0 73 -25.5 t30 -66.5q0 -43 -43 -90l-140 -147q104 -14 169 -85t65 -176q0 -164 -131 -257t-361 -93q-45 0 -65 2q-33 2 -55.5 23.5t-22.5 52.5zM721 39l561 1409q12 31 42 43t58.5 2t41 -41t-0.5 -59l-557 -1411q-12 -29 -41.5 -41.5t-58.5 -2t-42 40t-3 60.5zM1262 313q0 49 47 99 l413 469q49 55 101 55q49 0 79.5 -33t30.5 -80v-473h80q29 0 51.5 -19.5t22.5 -49.5q0 -33 -20.5 -52.5t-53.5 -19.5h-80v-135q0 -31 -20.5 -52.5t-50.5 -21.5q-33 0 -52.5 20.5t-19.5 53.5v133h-416q-49 0 -80.5 28.5t-31.5 77.5zM1444 350h346v389z" />
<glyph unicode="&#xbf;" horiz-adv-x="1142" d="M119 373q0 188 99 296.5t335 219.5q29 14 61 14q31 0 54.5 -22.5t23.5 -55.5q0 -55 -57 -82q-199 -88 -273.5 -162.5t-74.5 -203.5q0 -104 68.5 -169t191.5 -65q104 0 176 33t133 109q29 37 70 37q33 0 57.5 -26t24.5 -60q0 -29 -23 -60q-160 -195 -438 -194 q-190 0 -309 109.5t-119 281.5zM524 1262v108q0 35 24.5 58.5t59.5 23.5q33 0 58.5 -24.5t25.5 -57.5v-108q0 -33 -24.5 -57.5t-59.5 -24.5t-59.5 23.5t-24.5 58.5z" />
<glyph unicode="&#xc0;" horiz-adv-x="1382" d="M55 113l426 1187q57 156 211 156q156 0 209 -156l426 -1187q10 -31 -3 -64t-44 -45q-33 -12 -65.5 1t-45.5 46l-151 428h-653l-152 -428q-12 -33 -44 -46t-67 -1q-31 12 -44 45t-3 64zM403 1755q0 29 19.5 49.5t48.5 20.5q16 0 37 -8l276 -144q39 -20 39 -63 q0 -29 -20.5 -49.5t-48.5 -20.5q-16 0 -41 12l-273 142q-37 20 -37 61zM422 639h539l-216 612q-14 41 -53 41t-53 -41z" />
<glyph unicode="&#xc1;" horiz-adv-x="1382" d="M55 113l426 1187q57 156 211 156q156 0 209 -156l426 -1187q10 -31 -3 -64t-44 -45q-33 -12 -65.5 1t-45.5 46l-151 428h-653l-152 -428q-12 -33 -44 -46t-67 -1q-31 12 -44 45t-3 64zM422 639h539l-216 612q-14 41 -53 41t-53 -41zM553 1610q0 43 37 63l278 144 q20 8 35 8q29 0 49.5 -20.5t20.5 -49.5q0 -41 -39 -61l-277 -144q-16 -10 -36 -10q-29 0 -48.5 20.5t-19.5 49.5z" />
<glyph unicode="&#xc2;" horiz-adv-x="1382" d="M55 113l426 1187q57 156 211 156q156 0 209 -156l426 -1187q10 -31 -3 -64t-44 -45q-33 -12 -65.5 1t-45.5 46l-151 428h-653l-152 -428q-12 -33 -44 -46t-67 -1q-31 12 -44 45t-3 64zM412 1610q0 37 28 57l191 143q35 25 61 25q20 0 60 -25l192 -143q31 -23 31 -57 q0 -29 -20.5 -49.5t-49.5 -20.5q-25 0 -47 16l-166 125l-166 -125q-23 -16 -45 -16q-31 0 -50 20.5t-19 49.5zM422 639h539l-216 612q-14 41 -53 41t-53 -41z" />
<glyph unicode="&#xc3;" horiz-adv-x="1382" d="M55 113l426 1187q57 156 211 156q156 0 209 -156l426 -1187q10 -31 -3 -64t-44 -45q-33 -12 -65.5 1t-45.5 46l-151 428h-653l-152 -428q-12 -33 -44 -46t-67 -1q-31 12 -44 45t-3 64zM391 1632q0 27 29 56q80 70 153 69q55 0 127 -37t100.5 -37t62.5 28t59 28 q31 0 49 -20.5t18 -49.5q0 -31 -28 -55q-80 -70 -152 -70q-51 0 -127 37t-102 37q-29 0 -63 -27.5t-58 -27.5q-31 0 -49.5 20t-18.5 49zM422 639h539l-216 612q-14 41 -53 41t-53 -41z" />
<glyph unicode="&#xc4;" horiz-adv-x="1382" d="M55 113l426 1187q57 156 211 156q156 0 209 -156l426 -1187q10 -31 -3 -64t-44 -45q-33 -12 -65.5 1t-45.5 46l-151 428h-653l-152 -428q-12 -33 -44 -46t-67 -1q-31 12 -44 45t-3 64zM422 639h539l-216 612q-14 41 -53 41t-53 -41zM438 1651q0 41 27 66.5t65.5 25.5 t65.5 -26.5t27 -65.5t-27 -65.5t-65.5 -26.5t-65.5 26.5t-27 65.5zM762 1651q0 39 26.5 65.5t65.5 26.5t65.5 -25.5t26.5 -66.5q0 -39 -26.5 -65.5t-65.5 -26.5t-65.5 26.5t-26.5 65.5z" />
<glyph unicode="&#xc5;" horiz-adv-x="1382" d="M55 113l426 1187q57 156 211 156q156 0 209 -156l426 -1187q10 -31 -3 -64t-44 -45q-33 -12 -65.5 1t-45.5 46l-151 428h-653l-152 -428q-12 -33 -44 -46t-67 -1q-31 12 -44 45t-3 64zM422 639h539l-216 612q-14 41 -53 41t-53 -41zM496 1739q0 80 58 138t138 58 q82 0 139.5 -58t57.5 -138q0 -82 -57.5 -139.5t-139.5 -57.5q-80 0 -138 57.5t-58 139.5zM602 1739q0 -39 26.5 -65.5t63.5 -26.5q39 0 64.5 26.5t25.5 65.5q0 37 -25.5 63.5t-64.5 26.5q-37 0 -63.5 -26.5t-26.5 -63.5z" />
<glyph unicode="&#xc6;" horiz-adv-x="2136" d="M39 57q-8 37 10 64l807 1198q78 117 240 117h813q35 0 60.5 -23.5t25.5 -58.5q0 -33 -25.5 -56.5t-60.5 -23.5h-680v-471h663q35 0 58.5 -22.5t23.5 -57.5q0 -33 -24.5 -56.5t-57.5 -23.5h-663v-481h684q35 0 60.5 -23.5t25.5 -56.5q0 -35 -25.5 -58.5t-60.5 -23.5h-709 q-68 0 -105.5 40t-37.5 99v357h-555l-313 -467q-18 -29 -53.5 -36t-63.5 11q-29 16 -37 53zM612 655h449v617q-37 0 -66 -45z" />
<glyph unicode="&#xc7;" horiz-adv-x="1355" d="M143 551q-12 168 0 332q18 246 179 408.5t405 162.5q174 0 317.5 -93t204.5 -247q6 -20 6 -39q0 -33 -25.5 -55.5t-53.5 -22.5q-55 0 -78 54q-47 111 -147.5 176t-223.5 65q-174 0 -286.5 -116.5t-129.5 -301.5q-10 -158 0 -315q16 -184 129 -301t287 -117 q123 0 223.5 66.5t147.5 177.5q23 53 78 53q29 0 54 -23.5t25 -56.5q0 -14 -6 -36q-55 -139 -178 -229.5t-276 -108.5l-29 -76q82 -6 131 -56.5t49 -125.5q0 -168 -252 -254q-35 -12 -65.5 4t-30.5 57q0 47 51 64q92 37 124 64.5t32 59.5q0 23 -17.5 42.5t-46.5 19.5 q-14 0 -32.5 -4t-30.5 -4q-33 0 -52.5 27.5t-4.5 60.5l43 123q-219 20 -362 178t-159 387z" />
<glyph unicode="&#xc8;" horiz-adv-x="1280" d="M205 139v1157q0 61 38 100.5t105 39.5h707q35 0 59.5 -23.5t24.5 -58.5q0 -33 -26 -56.5t-58 -23.5h-682v-471h663q35 0 58.5 -22.5t23.5 -57.5q0 -33 -24.5 -56.5t-57.5 -23.5h-663v-481h686q33 0 58.5 -23.5t25.5 -56.5q0 -35 -24.5 -58.5t-59.5 -23.5h-711 q-68 0 -105.5 40t-37.5 99zM420 1755q0 29 19.5 49.5t47.5 20.5q16 0 37 -8l277 -144q39 -20 39 -63q0 -29 -20.5 -49.5t-49.5 -20.5q-16 0 -41 12l-272 142q-37 20 -37 61z" />
<glyph unicode="&#xc9;" horiz-adv-x="1280" d="M205 139v1157q0 61 38 100.5t105 39.5h707q35 0 59.5 -23.5t24.5 -58.5q0 -33 -26 -56.5t-58 -23.5h-682v-471h663q35 0 58.5 -22.5t23.5 -57.5q0 -33 -24.5 -56.5t-57.5 -23.5h-663v-481h686q33 0 58.5 -23.5t25.5 -56.5q0 -35 -24.5 -58.5t-59.5 -23.5h-711 q-68 0 -105.5 40t-37.5 99zM442 1610q0 43 37 63l279 144q20 8 35 8q29 0 49 -20.5t20 -49.5q0 -41 -39 -61l-276 -144q-16 -10 -37 -10q-29 0 -48.5 20.5t-19.5 49.5z" />
<glyph unicode="&#xca;" horiz-adv-x="1280" d="M205 139v1157q0 61 38 100.5t105 39.5h707q35 0 59.5 -23.5t24.5 -58.5q0 -33 -26 -56.5t-58 -23.5h-682v-471h663q35 0 58.5 -22.5t23.5 -57.5q0 -33 -24.5 -56.5t-57.5 -23.5h-663v-481h686q33 0 58.5 -23.5t25.5 -56.5q0 -35 -24.5 -58.5t-59.5 -23.5h-711 q-68 0 -105.5 40t-37.5 99zM399 1610q0 37 29 57l190 143q35 25 62 25q20 0 59 -25l193 -143q31 -23 31 -57q0 -29 -20.5 -49.5t-49.5 -20.5q-25 0 -47 16l-166 125l-166 -125q-23 -16 -45 -16q-31 0 -50.5 20.5t-19.5 49.5z" />
<glyph unicode="&#xcb;" horiz-adv-x="1280" d="M205 139v1157q0 61 38 100.5t105 39.5h707q35 0 59.5 -23.5t24.5 -58.5q0 -33 -26 -56.5t-58 -23.5h-682v-471h663q35 0 58.5 -22.5t23.5 -57.5q0 -33 -24.5 -56.5t-57.5 -23.5h-663v-481h686q33 0 58.5 -23.5t25.5 -56.5q0 -35 -24.5 -58.5t-59.5 -23.5h-711 q-68 0 -105.5 40t-37.5 99zM432 1649q0 39 25.5 65.5t66.5 26.5q39 0 65.5 -26.5t26.5 -65.5t-26.5 -66t-65.5 -27t-65.5 27t-26.5 66zM756 1649q0 39 26.5 65.5t65.5 26.5q41 0 66.5 -26.5t25.5 -65.5t-26.5 -66t-65.5 -27t-65.5 27t-26.5 66z" />
<glyph unicode="&#xcc;" horiz-adv-x="577" d="M6 1755q0 29 19.5 49.5t48.5 20.5q16 0 37 -8l276 -144q39 -20 39 -63q0 -29 -20.5 -49.5t-49.5 -20.5q-16 0 -41 12l-272 142q-37 20 -37 61zM203 78v1280q0 35 24.5 60.5t59.5 25.5q37 0 60.5 -24.5t23.5 -61.5v-1280q0 -37 -23.5 -61.5t-60.5 -24.5q-35 0 -59.5 25.5 t-24.5 60.5z" />
<glyph unicode="&#xcd;" horiz-adv-x="577" d="M135 1610q0 43 37 63l279 144q20 8 34 8q29 0 49.5 -20.5t20.5 -49.5q0 -41 -39 -61l-276 -144q-16 -10 -37 -10q-29 0 -48.5 20.5t-19.5 49.5zM203 78v1280q0 35 24.5 60.5t59.5 25.5q37 0 60.5 -24.5t23.5 -61.5v-1280q0 -37 -23.5 -61.5t-60.5 -24.5q-35 0 -59.5 25.5 t-24.5 60.5z" />
<glyph unicode="&#xce;" horiz-adv-x="577" d="M6 1610q0 37 29 57l190 143q35 25 62 25q20 0 59 -25l193 -143q31 -23 30 -57q0 -29 -20.5 -49.5t-48.5 -20.5q-25 0 -47 16l-166 125l-166 -125q-23 -16 -45 -16q-31 0 -50.5 20.5t-19.5 49.5zM203 78v1280q0 35 24.5 60.5t59.5 25.5q37 0 60.5 -24.5t23.5 -61.5v-1280 q0 -37 -23.5 -61.5t-60.5 -24.5q-35 0 -59.5 25.5t-24.5 60.5z" />
<glyph unicode="&#xcf;" horiz-adv-x="577" d="M35 1651q0 41 25.5 66.5t66.5 25.5q39 0 65.5 -26.5t26.5 -65.5t-26.5 -65.5t-65.5 -26.5t-65.5 26.5t-26.5 65.5zM203 78v1280q0 35 24.5 60.5t59.5 25.5q37 0 60.5 -24.5t23.5 -61.5v-1280q0 -37 -23.5 -61.5t-60.5 -24.5q-35 0 -59.5 25.5t-24.5 60.5zM358 1651 q0 39 27 65.5t66 26.5q41 0 66.5 -25.5t25.5 -66.5q0 -39 -27 -65.5t-65.5 -26.5t-65.5 26.5t-27 65.5z" />
<glyph unicode="&#xd0;" horiz-adv-x="1472" d="M-6 713q0 33 22.5 55.5t57.5 22.5h131v505q0 61 38 100.5t103 39.5h342q301 0 464 -166t179 -441q6 -117 0 -223q-16 -274 -179 -440t-464 -166h-342q-66 0 -103.5 40t-37.5 99v494h-131q-35 0 -57.5 22.5t-22.5 57.5zM373 162h315q227 0 345 118.5t130 329.5 q6 113 0 213q-10 211 -127.5 331t-347.5 120h-315v-483h323q33 0 56.5 -23t23.5 -55.5t-23.5 -56t-56.5 -23.5h-323v-471z" />
<glyph unicode="&#xd1;" horiz-adv-x="1574" d="M205 78v1214q0 63 40 106.5t103 43.5q92 0 139 -80l717 -1163h4q0 27 -3 80t-4 109t-1 116v854q0 35 24.5 60.5t59.5 25.5q37 0 60.5 -24.5t23.5 -61.5v-1219q0 -61 -38 -102t-97 -41q-88 0 -135 76l-727 1177h-4q6 -252 6 -317v-854q0 -37 -23.5 -61.5t-60.5 -24.5 q-33 0 -58.5 25.5t-25.5 60.5zM492 1636q0 27 28 56q80 70 154 69q55 0 126.5 -36.5t100.5 -36.5t62.5 27.5t58.5 27.5q31 0 49.5 -20.5t18.5 -49.5q0 -31 -29 -55q-80 -70 -152 -70q-53 0 -126.5 37t-102.5 37t-62.5 -27.5t-58.5 -27.5q-31 0 -49 20t-18 49z" />
<glyph unicode="&#xd2;" horiz-adv-x="1492" d="M143 551q-12 168 0 332q18 244 187.5 407.5t412.5 163.5q246 0 418 -165t189 -406q12 -164 0 -332q-16 -244 -188.5 -407.5t-418.5 -163.5q-244 0 -414 163.5t-186 407.5zM311 559q16 -182 136 -300t296 -118q178 0 299 118t138 300q16 158 0 318q-16 180 -138 297.5 t-299 117.5q-174 0 -294.5 -116.5t-137.5 -298.5q-12 -160 0 -318zM483 1755q0 29 19.5 49.5t48.5 20.5q16 0 37 -8l276 -144q39 -20 39 -63q0 -29 -20.5 -49.5t-48.5 -20.5q-16 0 -41 12l-273 142q-37 20 -37 61z" />
<glyph unicode="&#xd3;" horiz-adv-x="1492" d="M143 551q-12 168 0 332q18 244 187.5 407.5t412.5 163.5q246 0 418 -165t189 -406q12 -164 0 -332q-16 -244 -188.5 -407.5t-418.5 -163.5q-244 0 -414 163.5t-186 407.5zM311 559q16 -182 136 -300t296 -118q178 0 299 118t138 300q16 158 0 318q-16 180 -138 297.5 t-299 117.5q-174 0 -294.5 -116.5t-137.5 -298.5q-12 -160 0 -318zM586 1610q0 43 37 63l278 144q20 8 35 8q29 0 49.5 -20.5t20.5 -49.5q0 -41 -39 -61l-277 -144q-16 -10 -37 -10q-29 0 -48 20.5t-19 49.5z" />
<glyph unicode="&#xd4;" horiz-adv-x="1492" d="M143 551q-12 168 0 332q18 244 187.5 407.5t412.5 163.5q246 0 418 -165t189 -406q12 -164 0 -332q-16 -244 -188.5 -407.5t-418.5 -163.5q-244 0 -414 163.5t-186 407.5zM311 559q16 -182 136 -300t296 -118q178 0 299 118t138 300q16 158 0 318q-16 180 -138 297.5 t-299 117.5q-174 0 -294.5 -116.5t-137.5 -298.5q-12 -160 0 -318zM467 1610q0 37 29 57l190 143q35 25 62 25q20 0 59 -25l192 -143q31 -23 31 -57q0 -29 -20.5 -49.5t-48.5 -20.5q-25 0 -48 16l-165 125l-166 -125q-23 -16 -45 -16q-31 0 -50.5 20.5t-19.5 49.5z" />
<glyph unicode="&#xd5;" horiz-adv-x="1492" d="M143 551q-12 168 0 332q18 244 187.5 407.5t412.5 163.5q246 0 418 -165t189 -406q12 -164 0 -332q-16 -244 -188.5 -407.5t-418.5 -163.5q-244 0 -414 163.5t-186 407.5zM311 559q16 -182 136 -300t296 -118q178 0 299 118t138 300q16 158 0 318q-16 180 -138 297.5 t-299 117.5q-174 0 -294.5 -116.5t-137.5 -298.5q-12 -160 0 -318zM444 1628q0 27 29 55q80 70 154 70q55 0 126.5 -37t100.5 -37t62.5 28t58.5 28q31 0 49 -20.5t18 -49.5q0 -31 -28 -55q-80 -70 -152 -70q-51 0 -127 37t-102 37q-29 0 -62.5 -27.5t-58.5 -27.5 q-31 0 -49.5 20t-18.5 49z" />
<glyph unicode="&#xd6;" horiz-adv-x="1492" d="M143 551q-12 168 0 332q18 244 187.5 407.5t412.5 163.5q246 0 418 -165t189 -406q12 -164 0 -332q-16 -244 -188.5 -407.5t-418.5 -163.5q-244 0 -414 163.5t-186 407.5zM311 559q16 -182 136 -300t296 -118q178 0 299 118t138 300q16 158 0 318q-16 180 -138 297.5 t-299 117.5q-174 0 -294.5 -116.5t-137.5 -298.5q-12 -160 0 -318zM494 1651q0 41 25.5 66.5t66.5 25.5q39 0 65.5 -26.5t26.5 -65.5t-26.5 -65.5t-65.5 -26.5t-65.5 26.5t-26.5 65.5zM817 1651q0 39 26.5 65.5t65.5 26.5q41 0 66.5 -25.5t25.5 -66.5q0 -39 -26.5 -65.5 t-65.5 -26.5t-65.5 26.5t-26.5 65.5z" />
<glyph unicode="&#xd7;" horiz-adv-x="1286" d="M172 330q0 35 25 59l329 330l-329 330q-25 25 -25 59.5t23 56.5q27 25 59.5 24t58.5 -26l330 -329l326 325q27 25 61.5 26t59.5 -26q23 -25 21.5 -59.5t-26.5 -57.5l-325 -323l325 -322q25 -23 26 -57.5t-21 -58.5q-25 -27 -60 -26t-61 26l-326 323l-330 -330 q-27 -25 -59.5 -25.5t-58.5 23.5q-23 23 -23 58z" />
<glyph unicode="&#xd8;" horiz-adv-x="1495" d="M145 551q-12 168 0 332q18 244 187.5 407.5t412.5 163.5q164 0 306 -82l28 45q16 27 46 34t56.5 -9.5t32 -46t-11.5 -58.5l-33 -55q164 -160 183 -399q12 -164 0 -332q-16 -244 -188.5 -407.5t-418.5 -163.5q-170 0 -309 81l-26 -45q-16 -27 -46 -34t-57 10 q-27 14 -33 46t11 58l34 58q-160 161 -174 397zM313 559q12 -145 97 -256l559 930q-106 59 -224 59q-174 0 -294.5 -116.5t-137.5 -298.5q-12 -160 0 -318zM522 203q100 -61 223 -62q178 0 299 118t138 300q16 158 0 318q-12 147 -103 258z" />
<glyph unicode="&#xd9;" horiz-adv-x="1531" d="M186 582v776q0 35 25 60.5t59.5 25.5t59 -25.5t24.5 -60.5v-774q0 -201 116 -322t296 -121t296 121t116 322v774q0 35 24.5 60.5t59 25.5t59.5 -25.5t25 -60.5v-776q0 -266 -164 -434t-416 -168t-416 168t-164 434zM543 1755q0 29 19.5 49.5t47.5 20.5q16 0 37 -8 l277 -144q39 -20 39 -63q0 -29 -20.5 -49.5t-49.5 -20.5q-16 0 -41 12l-272 142q-37 20 -37 61z" />
<glyph unicode="&#xda;" horiz-adv-x="1531" d="M186 582v776q0 35 25 60.5t59.5 25.5t59 -25.5t24.5 -60.5v-774q0 -201 116 -322t296 -121t296 121t116 322v774q0 35 24.5 60.5t59 25.5t59.5 -25.5t25 -60.5v-776q0 -266 -164 -434t-416 -168t-416 168t-164 434zM565 1610q0 43 37 63l279 144q20 8 34 8 q29 0 49.5 -20.5t20.5 -49.5q0 -41 -39 -61l-276 -144q-16 -10 -37 -10q-29 0 -48.5 20.5t-19.5 49.5z" />
<glyph unicode="&#xdb;" horiz-adv-x="1531" d="M186 582v776q0 35 25 60.5t59.5 25.5t59 -25.5t24.5 -60.5v-774q0 -201 116 -322t296 -121t296 121t116 322v774q0 35 24.5 60.5t59 25.5t59.5 -25.5t25 -60.5v-776q0 -266 -164 -434t-416 -168t-416 168t-164 434zM485 1610q0 37 29 57l191 143q35 25 61 25q20 0 59 -25 l193 -143q31 -23 31 -57q0 -29 -20.5 -49.5t-49.5 -20.5q-25 0 -47 16l-166 125l-166 -125q-23 -16 -45 -16q-31 0 -50.5 20.5t-19.5 49.5z" />
<glyph unicode="&#xdc;" horiz-adv-x="1531" d="M186 582v776q0 35 25 60.5t59.5 25.5t59 -25.5t24.5 -60.5v-774q0 -201 116 -322t296 -121t296 121t116 322v774q0 35 24.5 60.5t59 25.5t59.5 -25.5t25 -60.5v-776q0 -266 -164 -434t-416 -168t-416 168t-164 434zM512 1651q0 41 26.5 66.5t65.5 25.5t65.5 -26.5 t26.5 -65.5t-26.5 -65.5t-65.5 -26.5t-65.5 26.5t-26.5 65.5zM836 1651q0 39 26.5 65.5t65.5 26.5t65.5 -25.5t26.5 -66.5q0 -39 -26.5 -65.5t-65.5 -26.5t-65.5 26.5t-26.5 65.5z" />
<glyph unicode="&#xdd;" horiz-adv-x="1325" d="M34 1366q3 35 29.5 57.5t63.5 18.5t57 -31l478 -598l479 598q23 29 57.5 32t63.5 -20q27 -23 29.5 -56.5t-19.5 -61.5l-471 -578q-4 -6 -13.5 -16.5t-12.5 -15.5t-9 -13t-9 -14t-6 -15.5t-4.5 -19.5t-1.5 -23v-532q0 -37 -23.5 -61.5t-59.5 -24.5q-33 0 -58.5 25.5 t-25.5 60.5v532q0 12 -1.5 22.5t-5.5 20t-5 15.5t-8 16t-10 13t-13.5 15.5t-12.5 16.5l-469 574q-22 28 -19 63zM451 1610q0 43 36 63l279 144q20 8 35 8q29 0 49 -20.5t20 -49.5q0 -41 -39 -61l-276 -144q-16 -10 -37 -10q-29 0 -48 20.5t-19 49.5z" />
<glyph unicode="&#xde;" horiz-adv-x="1318" d="M205 78v1288q0 35 24.5 60.5t59.5 25.5t59.5 -25.5t24.5 -60.5v-199h385q197 0 331 -120.5t134 -327.5q0 -211 -134.5 -331t-347.5 -120h-368v-190q0 -37 -23.5 -61.5t-60.5 -24.5q-35 0 -59.5 25.5t-24.5 60.5zM373 430h366q160 0 236 77t76 212q0 133 -76 211t-225 78 h-377v-578z" />
<glyph unicode="&#xdf;" horiz-adv-x="1357" d="M188 78v954q0 201 116 309.5t329 108.5q170 0 275.5 -83t105.5 -214q0 -63 -26.5 -117.5t-58.5 -86t-58.5 -71.5t-26.5 -81q0 -51 35.5 -80t130.5 -66q274 -98 274 -325q0 -150 -112.5 -247t-292.5 -97q-176 0 -320 114q-27 20 -31 55t13 60q18 27 51 32t65 -18 q86 -66 131 -78q41 -12 97 -12q106 0 169.5 51.5t63.5 147.5q0 72 -44 111.5t-148 74.5q-135 47 -192.5 106.5t-57.5 164.5q0 74 43 132t87 108t44 104q0 76 -56.5 120.5t-160.5 42.5q-279 -4 -279 -276v-944q0 -37 -23.5 -61.5t-60.5 -24.5q-35 0 -58.5 24.5t-23.5 61.5z " />
<glyph unicode="&#xe0;" d="M123 330q0 143 106.5 237.5t305.5 94.5q127 0 286 -44v84q0 123 -62.5 179.5t-193.5 56.5q-102 0 -243 -53q-49 -18 -84 2t-35 61q0 53 53 78q135 66 325.5 66t297 -94.5t106.5 -288.5v-545q0 -47 -35 -68q-53 -39 -168.5 -76.5t-249.5 -37.5q-197 0 -303 95t-106 253z M289 334q0 -203 262 -203q109 0 177.5 25.5t92.5 50.5v268q-176 45 -284.5 45t-178 -50t-69.5 -136zM362 1419q0 29 19.5 49.5t48.5 20.5q16 0 37 -8l276 -144q39 -20 39 -63q0 -29 -20.5 -49.5t-48.5 -20.5q-16 0 -41 13l-273 141q-37 20 -37 61z" />
<glyph unicode="&#xe1;" d="M123 330q0 143 106.5 237.5t305.5 94.5q127 0 286 -44v84q0 123 -62.5 179.5t-193.5 56.5q-102 0 -243 -53q-49 -18 -84 2t-35 61q0 53 53 78q135 66 325.5 66t297 -94.5t106.5 -288.5v-545q0 -47 -35 -68q-53 -39 -168.5 -76.5t-249.5 -37.5q-197 0 -303 95t-106 253z M289 334q0 -203 262 -203q109 0 177.5 25.5t92.5 50.5v268q-176 45 -284.5 45t-178 -50t-69.5 -136zM379 1274q0 43 37 63l278 144q20 8 35 8q29 0 49.5 -20.5t20.5 -49.5q0 -41 -39 -61l-277 -144q-16 -10 -37 -10q-29 0 -48 20.5t-19 49.5z" />
<glyph unicode="&#xe2;" d="M123 330q0 143 106.5 237.5t305.5 94.5q127 0 286 -44v84q0 123 -62.5 179.5t-193.5 56.5q-102 0 -243 -53q-49 -18 -84 2t-35 61q0 53 53 78q135 66 325.5 66t297 -94.5t106.5 -288.5v-545q0 -47 -35 -68q-53 -39 -168.5 -76.5t-249.5 -37.5q-197 0 -303 95t-106 253z M289 334q0 -203 262 -203q109 0 177.5 25.5t92.5 50.5v268q-176 45 -284.5 45t-178 -50t-69.5 -136zM301 1247q0 35 29 58l190 143q35 25 62 25q20 0 59 -25l193 -143q31 -23 30 -58q0 -29 -20.5 -49t-48.5 -20q-25 0 -47 16l-166 125l-166 -125q-23 -16 -45 -16 q-31 0 -50.5 20t-19.5 49z" />
<glyph unicode="&#xe3;" d="M123 330q0 143 106.5 237.5t305.5 94.5q127 0 286 -44v84q0 123 -62.5 179.5t-193.5 56.5q-102 0 -243 -53q-49 -18 -84 2t-35 61q0 53 53 78q135 66 325.5 66t297 -94.5t106.5 -288.5v-545q0 -47 -35 -68q-53 -39 -168.5 -76.5t-249.5 -37.5q-197 0 -303 95t-106 253z M281 1300q0 27 28 56q80 70 154 69q55 0 127 -36.5t100.5 -36.5t62 27.5t58.5 27.5q31 0 49.5 -20.5t18.5 -49.5q0 -31 -29 -55q-80 -70 -152 -70q-51 0 -126.5 37t-102.5 37q-29 0 -62.5 -27.5t-58.5 -27.5q-31 0 -49 20t-18 49zM289 334q0 -203 262 -203q109 0 177.5 25.5 t92.5 50.5v268q-176 45 -284.5 45t-178 -50t-69.5 -136z" />
<glyph unicode="&#xe4;" d="M123 330q0 143 106.5 237.5t305.5 94.5q127 0 286 -44v84q0 123 -62.5 179.5t-193.5 56.5q-102 0 -243 -53q-49 -18 -84 2t-35 61q0 53 53 78q135 66 325.5 66t297 -94.5t106.5 -288.5v-545q0 -47 -35 -68q-53 -39 -168.5 -76.5t-249.5 -37.5q-197 0 -303 95t-106 253z M289 334q0 -203 262 -203q109 0 177.5 25.5t92.5 50.5v268q-176 45 -284.5 45t-178 -50t-69.5 -136zM328 1319q0 41 26.5 66.5t65.5 25.5t65.5 -26.5t26.5 -65.5t-26.5 -65.5t-65.5 -26.5t-65.5 26.5t-26.5 65.5zM651 1319q0 39 27 65.5t65.5 26.5t65.5 -25.5t27 -66.5 q0 -39 -27 -65.5t-65.5 -26.5t-65.5 26.5t-27 65.5z" />
<glyph unicode="&#xe5;" d="M123 330q0 143 106.5 237.5t305.5 94.5q127 0 286 -44v84q0 123 -62.5 179.5t-193.5 56.5q-102 0 -243 -53q-49 -18 -84 2t-35 61q0 53 53 78q135 66 325.5 66t297 -94.5t106.5 -288.5v-545q0 -47 -35 -68q-53 -39 -168.5 -76.5t-249.5 -37.5q-197 0 -303 95t-106 253z M289 334q0 -203 262 -203q109 0 177.5 25.5t92.5 50.5v268q-176 45 -284.5 45t-178 -50t-69.5 -136zM385 1358q0 80 58.5 138t138.5 58q82 0 139 -58t57 -138q0 -82 -57 -139.5t-139 -57.5q-80 0 -138.5 57.5t-58.5 139.5zM492 1358q0 -39 26.5 -65.5t63.5 -26.5 q39 0 64.5 26.5t25.5 65.5q0 37 -25.5 63.5t-64.5 26.5q-37 0 -63.5 -26.5t-26.5 -63.5z" />
<glyph unicode="&#xe6;" horiz-adv-x="1845" d="M123 332q0 141 106.5 235.5t305.5 94.5q125 0 284 -44v84q0 123 -61.5 179.5t-192.5 56.5q-98 0 -243 -53q-49 -18 -84 2t-35 61q0 53 53 78q135 66 326 66q244 0 342 -158q125 158 352 158q201 0 320.5 -124t119.5 -321v-61q0 -119 -121 -119h-612v-33q0 -141 82 -221 t221 -80q106 0 252 53q51 20 85 -3t34 -62q0 -47 -45 -74q-111 -66 -326 -65q-209 0 -336 127q-61 -47 -176 -87t-242 -40q-197 0 -303 95t-106 255zM289 334q0 -203 262 -203q158 0 311 109q-45 109 -43 235q-180 45 -282 45q-109 0 -178.5 -50t-69.5 -136zM983 606h545 q25 0 26 25q8 139 -68.5 225t-209.5 86q-147 0 -222 -90t-71 -246z" />
<glyph unicode="&#xe7;" horiz-adv-x="1140" d="M150 395q-8 145 0 291q10 180 138 293t320 113q190 0 304 -105.5t114 -195.5q0 -37 -22.5 -60.5t-55.5 -23.5q-55 0 -80 55q-35 86 -104.5 130t-153.5 44q-129 0 -206.5 -70.5t-88.5 -189.5q-8 -117 0 -270q10 -119 87 -194t208 -75q84 0 156 44t106 130q25 55 80 56 q33 0 55.5 -24t22.5 -60q0 -84 -101.5 -184.5t-269.5 -114.5l-28 -76q82 -6 131 -56.5t49 -125.5q0 -168 -252 -254q-35 -12 -65.5 4t-30.5 57q0 47 51 64q92 37 124 64.5t32 59.5q0 23 -17.5 42.5t-46.5 19.5q-14 0 -32.5 -4t-30.5 -4q-33 0 -52.5 27.5t-5.5 60.5l45 125 q-166 23 -268 135t-112 272z" />
<glyph unicode="&#xe8;" horiz-adv-x="1171" d="M150 422q-8 145 2 246q16 197 140 310.5t312 113.5q201 0 320.5 -124t119.5 -321v-61q0 -119 -120 -119h-613v-33q0 -141 84 -221t221 -80q100 0 250 53q51 20 85 -3t34 -62q0 -45 -45 -74q-49 -29 -142 -47t-184 -18q-209 0 -331.5 119.5t-132.5 320.5zM311 606h545 q25 0 27 25q8 139 -68 225t-209 86q-147 0 -223 -90t-72 -246zM360 1419q0 29 19.5 49.5t48.5 20.5q16 0 37 -8l276 -144q39 -20 39 -63q0 -29 -20.5 -49.5t-48.5 -20.5q-16 0 -41 13l-273 141q-37 20 -37 61z" />
<glyph unicode="&#xe9;" horiz-adv-x="1171" d="M150 422q-8 145 2 246q16 197 140 310.5t312 113.5q201 0 320.5 -124t119.5 -321v-61q0 -119 -120 -119h-613v-33q0 -141 84 -221t221 -80q100 0 250 53q51 20 85 -3t34 -62q0 -45 -45 -74q-49 -29 -142 -47t-184 -18q-209 0 -331.5 119.5t-132.5 320.5zM311 606h545 q25 0 27 25q8 139 -68 225t-209 86q-147 0 -223 -90t-72 -246zM422 1274q0 43 37 63l278 144q20 8 35 8q29 0 49.5 -20.5t20.5 -49.5q0 -41 -39 -61l-277 -144q-16 -10 -37 -10q-29 0 -48 20.5t-19 49.5z" />
<glyph unicode="&#xea;" horiz-adv-x="1171" d="M150 422q-8 145 2 246q16 197 140 310.5t312 113.5q201 0 320.5 -124t119.5 -321v-61q0 -119 -120 -119h-613v-33q0 -141 84 -221t221 -80q100 0 250 53q51 20 85 -3t34 -62q0 -45 -45 -74q-49 -29 -142 -47t-184 -18q-209 0 -331.5 119.5t-132.5 320.5zM309 1274 q0 37 29 57l190 144q35 25 62 24q20 0 59 -24l193 -144q31 -23 30 -57q0 -29 -20.5 -49.5t-48.5 -20.5q-25 0 -47 17l-166 125l-166 -125q-23 -16 -45 -17q-31 0 -50.5 20.5t-19.5 49.5zM311 606h545q25 0 27 25q8 139 -68 225t-209 86q-147 0 -223 -90t-72 -246z" />
<glyph unicode="&#xeb;" horiz-adv-x="1171" d="M150 422q-8 145 2 246q16 197 140 310.5t312 113.5q201 0 320.5 -124t119.5 -321v-61q0 -119 -120 -119h-613v-33q0 -141 84 -221t221 -80q100 0 250 53q51 20 85 -3t34 -62q0 -45 -45 -74q-49 -29 -142 -47t-184 -18q-209 0 -331.5 119.5t-132.5 320.5zM311 606h545 q25 0 27 25q8 139 -68 225t-209 86q-147 0 -223 -90t-72 -246zM346 1319q0 41 25.5 66.5t66.5 25.5q39 0 65.5 -26.5t26.5 -65.5t-26.5 -65.5t-65.5 -26.5t-65.5 26.5t-26.5 65.5zM670 1319q0 39 26.5 65.5t65.5 26.5q41 0 66.5 -25.5t25.5 -66.5q0 -39 -26.5 -65.5 t-65.5 -26.5t-65.5 26.5t-26.5 65.5z" />
<glyph unicode="&#xec;" horiz-adv-x="559" d="M14 1419q0 29 19.5 49.5t48.5 20.5q16 0 37 -8l276 -144q39 -20 39 -63q0 -29 -20.5 -49.5t-48.5 -20.5q-16 0 -41 13l-273 141q-37 20 -37 61zM197 76v915q0 35 23.5 60.5t58 25.5t59 -25.5t24.5 -60.5v-915q0 -35 -23.5 -59.5t-59.5 -24.5q-35 0 -58.5 24.5t-23.5 59.5 z" />
<glyph unicode="&#xed;" horiz-adv-x="559" d="M131 1274q0 43 37 63l278 144q20 8 35 8q29 0 49.5 -20.5t20.5 -49.5q0 -41 -39 -61l-276 -144q-16 -10 -37 -10q-29 0 -48.5 20.5t-19.5 49.5zM197 76v915q0 35 23.5 60.5t58 25.5t59 -25.5t24.5 -60.5v-915q0 -35 -23.5 -59.5t-59.5 -24.5q-35 0 -58.5 24.5t-23.5 59.5 z" />
<glyph unicode="&#xee;" horiz-adv-x="559" d="M8 1274q0 37 29 57l190 144q35 25 62 24q20 0 59 -24l193 -144q31 -23 30 -57q0 -29 -20.5 -49.5t-48.5 -20.5q-25 0 -47 17l-166 125l-166 -125q-23 -16 -45 -17q-31 0 -50.5 20.5t-19.5 49.5zM197 76v915q0 35 23.5 60.5t58 25.5t59 -25.5t24.5 -60.5v-915 q0 -35 -23.5 -59.5t-59.5 -24.5q-35 0 -58.5 24.5t-23.5 59.5z" />
<glyph unicode="&#xef;" horiz-adv-x="559" d="M35 1319q0 41 25.5 66.5t66.5 25.5q39 0 65.5 -26.5t26.5 -65.5t-26.5 -65.5t-65.5 -26.5t-65.5 26.5t-26.5 65.5zM197 76v915q0 35 23.5 60.5t58 25.5t59 -25.5t24.5 -60.5v-915q0 -35 -23.5 -59.5t-59.5 -24.5q-35 0 -58.5 24.5t-23.5 59.5zM358 1319q0 39 27 65.5 t66 26.5q41 0 66.5 -25.5t25.5 -66.5q0 -39 -27 -65.5t-65.5 -26.5t-65.5 26.5t-27 65.5z" />
<glyph unicode="&#xf0;" horiz-adv-x="1220" d="M150 385q-6 123 0 244q12 176 135 285.5t307 109.5q170 0 287 -111q0 172 -91 279l-145 -66q-29 -14 -59.5 -3.5t-40.5 36.5q-12 29 -1 57.5t40 43.5l80 36l-48 27q-37 18 -44 55t12 62q16 25 46.5 32t59.5 -8q86 -45 139 -94l117 53q27 14 56.5 3t42 -39.5t1 -56 t-37.5 -40.5l-72 -33q109 -158 108 -426l-2 -415q0 -193 -128 -313.5t-318 -120.5q-182 0 -307 114.5t-137 288.5zM319 395q10 -113 85 -183.5t190 -70.5q117 0 191.5 70t84.5 184q8 86 0 221q-8 111 -81.5 179.5t-194.5 68.5q-119 0 -192.5 -68.5t-82.5 -179.5 q-8 -135 0 -221z" />
<glyph unicode="&#xf1;" horiz-adv-x="1247" d="M186 78v829q0 47 37 74q55 41 165 76t251 35q213 0 324.5 -107.5t111.5 -310.5v-596q0 -37 -22.5 -61.5t-59.5 -24.5q-35 0 -59.5 24.5t-24.5 61.5v588q0 133 -77.5 200.5t-196.5 67.5q-168 0 -283 -68v-788q0 -37 -23.5 -61.5t-58 -24.5t-59.5 24.5t-25 61.5zM319 1300 q0 27 29 56q80 70 154 69q55 0 126.5 -36.5t100.5 -36.5t62.5 27.5t58.5 27.5q31 0 49.5 -20.5t18.5 -49.5q0 -31 -29 -55q-80 -70 -152 -70q-53 0 -126.5 37t-102.5 37t-62.5 -27.5t-58.5 -27.5q-31 0 -49.5 20t-18.5 49z" />
<glyph unicode="&#xf2;" horiz-adv-x="1212" d="M150 395q-8 143 0 291q10 178 138 292t318.5 114t318.5 -113t138 -293q10 -147 0 -291q-10 -180 -138 -296.5t-319 -116.5q-188 0 -317 116.5t-139 296.5zM315 406q10 -121 89 -195t202 -74t202 74t89 195q8 133 0 268q-8 117 -86 189.5t-205 72.5t-204.5 -72.5 t-86.5 -189.5q-8 -135 0 -268zM387 1419q0 29 19.5 49.5t48.5 20.5q16 0 37 -8l276 -144q39 -20 39 -63q0 -29 -20.5 -49.5t-49.5 -20.5q-16 0 -41 13l-272 141q-37 20 -37 61z" />
<glyph unicode="&#xf3;" horiz-adv-x="1212" d="M150 395q-8 143 0 291q10 178 138 292t318.5 114t318.5 -113t138 -293q10 -147 0 -291q-10 -180 -138 -296.5t-319 -116.5q-188 0 -317 116.5t-139 296.5zM315 406q10 -121 89 -195t202 -74t202 74t89 195q8 133 0 268q-8 117 -86 189.5t-205 72.5t-204.5 -72.5 t-86.5 -189.5q-8 -135 0 -268zM401 1274q0 43 37 63l279 144q20 8 35 8q29 0 49 -20.5t20 -49.5q0 -41 -39 -61l-276 -144q-16 -10 -37 -10q-29 0 -48.5 20.5t-19.5 49.5z" />
<glyph unicode="&#xf4;" horiz-adv-x="1212" d="M150 395q-8 143 0 291q10 178 138 292t318.5 114t318.5 -113t138 -293q10 -147 0 -291q-10 -180 -138 -296.5t-319 -116.5q-188 0 -317 116.5t-139 296.5zM315 406q10 -121 89 -195t202 -74t202 74t89 195q8 133 0 268q-8 117 -86 189.5t-205 72.5t-204.5 -72.5 t-86.5 -189.5q-8 -135 0 -268zM326 1272q0 35 28 57l191 144q35 25 61 24q20 0 60 -24l192 -144q31 -23 31 -57q0 -29 -20.5 -49.5t-49.5 -20.5q-25 0 -47 17l-166 124l-166 -124q-23 -16 -45 -17q-31 0 -50 20.5t-19 49.5z" />
<glyph unicode="&#xf5;" horiz-adv-x="1212" d="M150 395q-8 143 0 291q10 178 138 292t318.5 114t318.5 -113t138 -293q10 -147 0 -291q-10 -180 -138 -296.5t-319 -116.5q-188 0 -317 116.5t-139 296.5zM305 1300q0 27 29 56q80 70 153 69q55 0 127 -36.5t100.5 -36.5t62.5 27.5t59 27.5q31 0 49 -20.5t18 -49.5 q0 -31 -29 -55q-80 -70 -151 -70q-51 0 -127 37t-102 37q-29 0 -63 -27.5t-58 -27.5q-31 0 -49.5 20t-18.5 49zM315 406q10 -121 89 -195t202 -74t202 74t89 195q8 133 0 268q-8 117 -86 189.5t-205 72.5t-204.5 -72.5t-86.5 -189.5q-8 -135 0 -268z" />
<glyph unicode="&#xf6;" horiz-adv-x="1212" d="M150 395q-8 143 0 291q10 178 138 292t318.5 114t318.5 -113t138 -293q10 -147 0 -291q-10 -180 -138 -296.5t-319 -116.5q-188 0 -317 116.5t-139 296.5zM315 406q10 -121 89 -195t202 -74t202 74t89 195q8 133 0 268q-8 117 -86 189.5t-205 72.5t-204.5 -72.5 t-86.5 -189.5q-8 -135 0 -268zM352 1319q0 41 27 66.5t65.5 25.5t65.5 -26.5t27 -65.5t-27 -65.5t-65.5 -26.5t-65.5 26.5t-27 65.5zM676 1319q0 39 26.5 65.5t65.5 26.5t65.5 -25.5t26.5 -66.5q0 -39 -26.5 -65.5t-65.5 -26.5t-65.5 26.5t-26.5 65.5z" />
<glyph unicode="&#xf7;" horiz-adv-x="1286" d="M123 717q0 35 24.5 58.5t59.5 23.5h872q35 0 59.5 -23.5t24.5 -58.5q0 -33 -24.5 -56.5t-59.5 -23.5h-872q-35 0 -59.5 23.5t-24.5 56.5zM535 336q0 45 31.5 76.5t76.5 31.5q43 0 76 -31.5t33 -76.5q0 -43 -33 -75t-76 -32q-45 0 -76.5 32t-31.5 75zM535 1100 q0 43 31.5 74.5t76.5 31.5q43 0 76 -31.5t33 -74.5q0 -45 -33 -77t-76 -32q-45 0 -76.5 32t-31.5 77z" />
<glyph unicode="&#xf8;" horiz-adv-x="1214" d="M130 67.5q-1 32.5 20 55.5l61 70q-55 90 -61 202q-8 143 0 291q10 178 138 292t318 114q172 0 295 -95l47 54q20 27 53 28.5t56 -18.5q25 -20 26.5 -53t-18.5 -58l-61 -69q53 -94 59 -195q10 -147 0 -291q-10 -180 -138 -296.5t-319 -116.5q-172 0 -295 96l-47 -55 q-20 -25 -53 -27t-57 18q-23 21 -24 53.5zM315 406q4 -43 15 -74l467 542q-78 61 -191 62q-127 0 -204.5 -72.5t-86.5 -189.5q-8 -135 0 -268zM416 199q78 -61 190 -62q123 0 202 74t89 195q8 133 0 268q-4 35 -12 67z" />
<glyph unicode="&#xf9;" horiz-adv-x="1247" d="M172 399v592q0 35 23.5 60.5t58.5 25.5t59.5 -25.5t24.5 -60.5v-594q0 -121 72.5 -189.5t201.5 -68.5q168 0 283 76v776q0 35 23.5 60.5t58.5 25.5t59.5 -25.5t24.5 -60.5v-819q0 -45 -35 -68q-176 -123 -414 -122q-201 0 -320.5 109t-119.5 308zM408 1419q0 29 19 49.5 t48 20.5q16 0 37 -8l276 -144q39 -20 39 -63q0 -29 -20.5 -49.5t-48.5 -20.5q-16 0 -41 13l-273 141q-36 20 -36 61z" />
<glyph unicode="&#xfa;" horiz-adv-x="1247" d="M172 399v592q0 35 23.5 60.5t58.5 25.5t59.5 -25.5t24.5 -60.5v-594q0 -121 72.5 -189.5t201.5 -68.5q168 0 283 76v776q0 35 23.5 60.5t58.5 25.5t59.5 -25.5t24.5 -60.5v-819q0 -45 -35 -68q-176 -123 -414 -122q-201 0 -320.5 109t-119.5 308zM426 1274q0 43 37 63 l278 144q20 8 35 8q29 0 49.5 -20.5t20.5 -49.5q0 -41 -39 -61l-277 -144q-16 -10 -36 -10q-29 0 -48.5 20.5t-19.5 49.5z" />
<glyph unicode="&#xfb;" horiz-adv-x="1247" d="M172 399v592q0 35 23.5 60.5t58.5 25.5t59.5 -25.5t24.5 -60.5v-594q0 -121 72.5 -189.5t201.5 -68.5q168 0 283 76v776q0 35 23.5 60.5t58.5 25.5t59.5 -25.5t24.5 -60.5v-819q0 -45 -35 -68q-176 -123 -414 -122q-201 0 -320.5 109t-119.5 308zM344 1274q0 37 29 57 l190 144q35 25 62 24q20 0 59 -24l193 -144q31 -23 30 -57q0 -29 -20.5 -49.5t-48.5 -20.5q-25 0 -47 17l-166 125l-166 -125q-23 -16 -45 -17q-31 0 -50.5 20.5t-19.5 49.5z" />
<glyph unicode="&#xfc;" horiz-adv-x="1247" d="M172 399v592q0 35 23.5 60.5t58.5 25.5t59.5 -25.5t24.5 -60.5v-594q0 -121 72.5 -189.5t201.5 -68.5q168 0 283 76v776q0 35 23.5 60.5t58.5 25.5t59.5 -25.5t24.5 -60.5v-819q0 -45 -35 -68q-176 -123 -414 -122q-201 0 -320.5 109t-119.5 308zM373 1319 q0 41 26.5 66.5t65.5 25.5t65.5 -26.5t26.5 -65.5t-26.5 -65.5t-65.5 -26.5t-65.5 26.5t-26.5 65.5zM696 1319q0 39 27 65.5t65.5 26.5t65.5 -25.5t27 -66.5q0 -39 -27 -65.5t-65.5 -26.5t-65.5 26.5t-27 65.5z" />
<glyph unicode="&#xfd;" horiz-adv-x="1048" d="M55 956q-18 47 7.5 83t70.5 36q49 0 78 -59l317 -731q4 -6 8.5 -6t8.5 6l289 725q25 66 81 65q47 0 72 -38t6 -81l-385 -933q-57 -137 -136 -243t-148 -147q-41 -25 -74 -24q-33 0 -57.5 21.5t-24.5 56.5q0 49 39 71q164 94 237 310zM418 1276q0 43 37 63l278 144 q20 8 35 8q29 0 49.5 -20.5t20.5 -49.5q0 -41 -39 -61l-277 -143q-16 -10 -37 -11q-29 0 -48 20.5t-19 49.5z" />
<glyph unicode="&#xfe;" horiz-adv-x="1230" d="M188 -311v1681q0 35 24 59.5t58.5 24.5t59 -24.5t24.5 -59.5v-342q147 63 289 64q195 0 307.5 -106.5t128.5 -301.5q12 -143 0 -295q-16 -195 -132 -301t-316 -106q-137 0 -277 65v-358q0 -37 -23.5 -61.5t-60.5 -24.5q-33 0 -57.5 25.5t-24.5 60.5zM354 213 q119 -76 271 -76q270 0 286 260q10 154 0 269q-23 270 -278 270q-72 0 -156 -27.5t-123 -56.5v-639z" />
<glyph unicode="&#xff;" horiz-adv-x="1048" d="M55 956q-18 47 7.5 83t70.5 36q49 0 78 -59l317 -731q4 -6 8.5 -6t8.5 6l289 725q25 66 81 65q47 0 72 -38t6 -81l-385 -933q-57 -137 -136 -243t-148 -147q-41 -25 -74 -24q-33 0 -57.5 21.5t-24.5 56.5q0 49 39 71q164 94 237 310zM283 1319q0 41 26.5 66.5t65.5 25.5 t65.5 -26.5t26.5 -65.5t-26.5 -65.5t-65.5 -26.5t-65.5 26.5t-26.5 65.5zM606 1319q0 39 26.5 65.5t65.5 26.5t66 -25.5t27 -66.5q0 -39 -27 -65.5t-66 -26.5t-65.5 26.5t-26.5 65.5z" />
<glyph unicode="&#x152;" horiz-adv-x="2189" d="M141 588q-6 123 0 246q14 272 185.5 446t466.5 174q104 0 246.5 -9t201.5 -9h721q35 0 60.5 -23.5t25.5 -58.5q0 -33 -25.5 -56.5t-60.5 -23.5h-690v-471h674q35 0 58.5 -22.5t23.5 -57.5q0 -33 -25 -55.5t-57 -22.5h-674v-483h694q35 0 60.5 -23.5t25.5 -56.5 q0 -35 -25.5 -58.5t-60.5 -23.5h-774q-27 0 -158 -10t-243 -10q-297 0 -466.5 169t-183.5 439zM309 594q10 -207 133 -330t351 -123q180 0 313 19v434v682q-156 16 -313 16q-227 0 -350.5 -127t-133.5 -338q-6 -114 0 -233z" />
<glyph unicode="&#x153;" horiz-adv-x="1925" d="M150 395q-8 143 0 291q10 178 138 292t318 114q250 0 379 -187q123 186 373 187q197 0 315.5 -124t118.5 -321v-61q0 -119 -119 -119h-614v-33q0 -143 85 -222t222 -79q100 0 246 53q51 20 86 -3t35 -62q0 -47 -45 -74q-47 -29 -140.5 -47t-181.5 -18q-264 0 -385 186 q-129 -186 -375 -186q-188 0 -317 117.5t-139 295.5zM315 406q10 -121 89 -195t202 -74t202 74t89 195q8 133 0 268q-8 117 -86 189.5t-205 72.5t-204.5 -72.5t-86.5 -189.5q-8 -135 0 -268zM1059 606h545q23 0 26 25q8 139 -67.5 225t-208.5 86q-147 0 -223 -90t-72 -246z " />
<glyph unicode="&#x178;" horiz-adv-x="1325" d="M34 1366q3 35 29.5 57.5t63.5 18.5t57 -31l478 -598l479 598q23 29 57.5 32t63.5 -20q27 -23 29.5 -56.5t-19.5 -61.5l-471 -578q-4 -6 -13.5 -16.5t-12.5 -15.5t-9 -13t-9 -14t-6 -15.5t-4.5 -19.5t-1.5 -23v-532q0 -37 -23.5 -61.5t-59.5 -24.5q-33 0 -58.5 25.5 t-25.5 60.5v532q0 12 -1.5 22.5t-5.5 20t-5 15.5t-8 16t-10 13t-13.5 15.5t-12.5 16.5l-469 574q-22 28 -19 63zM408 1546q0 39 25.5 65.5t66.5 26.5q39 0 65.5 -26.5t26.5 -65.5t-26.5 -65.5t-65.5 -26.5t-65.5 26.5t-26.5 65.5zM731 1546q0 39 26.5 65.5t65.5 26.5 q41 0 66.5 -26.5t25.5 -65.5t-26.5 -65.5t-65.5 -26.5t-65.5 26.5t-26.5 65.5z" />
<glyph unicode="&#x2c6;" horiz-adv-x="737" d="M86 1606q0 37 29 57l190 143q35 25 62 25q20 0 59 -25l192 -143q31 -23 31 -57q0 -29 -20.5 -49.5t-48.5 -20.5q-25 0 -48 16l-165 125l-166 -125q-23 -16 -45 -16q-31 0 -50.5 20.5t-19.5 49.5z" />
<glyph unicode="&#x2dc;" horiz-adv-x="737" d="M74 1624q0 27 28 55q80 70 154 70q55 0 127 -37t100.5 -37t62.5 28t58 28q31 0 49.5 -20.5t18.5 -49.5q0 -31 -29 -55q-80 -70 -151 -70q-53 0 -127 37t-103 37t-62.5 -28t-58.5 -28q-31 0 -49 20.5t-18 49.5z" />
<glyph unicode="&#x2000;" horiz-adv-x="966" />
<glyph unicode="&#x2001;" horiz-adv-x="1935" />
<glyph unicode="&#x2002;" horiz-adv-x="966" />
<glyph unicode="&#x2003;" horiz-adv-x="1935" />
<glyph unicode="&#x2004;" horiz-adv-x="645" />
<glyph unicode="&#x2005;" horiz-adv-x="483" />
<glyph unicode="&#x2006;" horiz-adv-x="321" />
<glyph unicode="&#x2007;" horiz-adv-x="321" />
<glyph unicode="&#x2008;" horiz-adv-x="241" />
<glyph unicode="&#x2009;" horiz-adv-x="387" />
<glyph unicode="&#x200a;" horiz-adv-x="106" />
<glyph unicode="&#x2010;" horiz-adv-x="694" d="M104 586q0 35 26 59.5t60 24.5h314q35 0 60.5 -24.5t25.5 -59.5t-25.5 -58.5t-60.5 -23.5h-314q-35 0 -60.5 24.5t-25.5 57.5z" />
<glyph unicode="&#x2011;" horiz-adv-x="694" d="M104 586q0 35 26 59.5t60 24.5h314q35 0 60.5 -24.5t25.5 -59.5t-25.5 -58.5t-60.5 -23.5h-314q-35 0 -60.5 24.5t-25.5 57.5z" />
<glyph unicode="&#x2012;" horiz-adv-x="694" d="M104 586q0 35 26 59.5t60 24.5h314q35 0 60.5 -24.5t25.5 -59.5t-25.5 -58.5t-60.5 -23.5h-314q-35 0 -60.5 24.5t-25.5 57.5z" />
<glyph unicode="&#x2013;" horiz-adv-x="1222" d="M109 586q0 35 25.5 59.5t60.5 24.5h833q35 0 59.5 -24.5t24.5 -59.5t-24.5 -58.5t-59.5 -23.5h-833q-35 0 -60.5 24.5t-25.5 57.5z" />
<glyph unicode="&#x2014;" horiz-adv-x="1968" d="M109 586q0 35 25.5 59.5t60.5 24.5h1579q35 0 59.5 -24.5t24.5 -59.5q0 -33 -25 -57.5t-59 -24.5h-1579q-35 0 -60.5 24.5t-25.5 57.5z" />
<glyph unicode="&#x2018;" horiz-adv-x="438" d="M121 1075v86q0 127 55 223q29 51 80 52q33 0 56.5 -21.5t23.5 -52.5q0 -16 -26.5 -71.5t-26.5 -125.5v-90q0 -33 -23.5 -56.5t-58.5 -23.5q-33 0 -56.5 22.5t-23.5 57.5z" />
<glyph unicode="&#x2019;" horiz-adv-x="438" d="M115 1077q0 16 26.5 71.5t26.5 125.5v90q0 33 23.5 56.5t58.5 23.5q33 0 56.5 -23.5t23.5 -56.5v-86q0 -127 -56 -223q-29 -51 -79 -51q-33 0 -56.5 21t-23.5 52z" />
<glyph unicode="&#x201a;" horiz-adv-x="438" d="M88 -123q0 16 26.5 71.5t26.5 125.5v88q0 35 23.5 58.5t56.5 23.5q35 0 58.5 -23.5t23.5 -58.5v-84q0 -127 -57 -223q-29 -51 -80 -52q-33 0 -55.5 21.5t-22.5 52.5z" />
<glyph unicode="&#x201c;" horiz-adv-x="729" d="M125 1075v86q0 127 57 223q27 51 78 52q33 0 56.5 -21.5t23.5 -52.5q0 -16 -26.5 -71.5t-26.5 -125.5v-90q0 -33 -23.5 -56.5t-58.5 -23.5q-33 0 -56.5 22.5t-23.5 57.5zM408 1075v86q0 127 55 223q29 51 80 52q33 0 56.5 -21.5t23.5 -52.5q0 -16 -27 -71.5t-27 -125.5 v-90q0 -33 -23.5 -56.5t-58.5 -23.5q-33 0 -56 22.5t-23 57.5z" />
<glyph unicode="&#x201d;" horiz-adv-x="729" d="M119 1077q0 16 26.5 71.5t26.5 125.5v90q0 33 23.5 56.5t58.5 23.5q33 0 56.5 -23.5t23.5 -56.5v-86q0 -127 -55 -223q-29 -51 -80 -51q-33 0 -56.5 21t-23.5 52zM401 1077q0 16 27 71.5t27 125.5v90q0 33 23.5 56.5t58.5 23.5q33 0 56 -23.5t23 -56.5v-86 q0 -127 -55 -223q-29 -51 -80 -51q-33 0 -56.5 21t-23.5 52z" />
<glyph unicode="&#x201e;" horiz-adv-x="729" d="M119 -123q0 16 26.5 71.5t26.5 125.5v88q0 35 23.5 58.5t58.5 23.5t57.5 -23.5t22.5 -58.5v-84q0 -127 -55 -223q-29 -51 -80 -52q-33 0 -56.5 21.5t-23.5 52.5zM401 -123q0 16 27 71.5t27 125.5v88q0 35 23.5 58.5t58 23.5t57 -23.5t22.5 -58.5v-84q0 -127 -55 -223 q-29 -51 -80 -52q-33 0 -56.5 21.5t-23.5 52.5z" />
<glyph unicode="&#x2022;" horiz-adv-x="966" d="M225 716.5q0 106.5 76 182.5t182.5 76t182 -76t75.5 -182.5t-75.5 -182t-182 -75.5t-182.5 75.5t-76 182z" />
<glyph unicode="&#x2026;" horiz-adv-x="1314" d="M135 68v110q0 35 24.5 60.5t59.5 25.5t59.5 -25.5t24.5 -60.5v-110q0 -37 -23.5 -61.5t-60.5 -24.5q-35 0 -59.5 25.5t-24.5 60.5zM575 68v110q0 35 25 60.5t59.5 25.5t59 -25.5t24.5 -60.5v-110q0 -37 -23.5 -61.5t-60.5 -24.5q-35 0 -59.5 25.5t-24.5 60.5zM1012 68 v110q0 35 24.5 60.5t59 25.5t59.5 -25.5t25 -60.5v-110q0 -37 -23.5 -61.5t-60.5 -24.5q-35 0 -59.5 25.5t-24.5 60.5z" />
<glyph unicode="&#x202f;" horiz-adv-x="387" />
<glyph unicode="&#x2039;" horiz-adv-x="731" d="M98 719q0 82 90 153l248 197q27 23 60.5 19.5t54 -30t17.5 -59t-29 -55.5l-252 -196q-18 -14 -18.5 -28.5t18.5 -29.5l252 -198q27 -20 29.5 -54.5t-17.5 -60.5q-23 -27 -54.5 -29t-60.5 21l-248 196q-90 76 -90 154z" />
<glyph unicode="&#x203a;" horiz-adv-x="731" d="M163 437q3 34 30 55l251 198q18 14 18.5 28.5t-18.5 29.5l-251 196q-27 20 -30 54t19 61q20 27 53 30t62 -20l246 -197q90 -72 90 -153q0 -84 -90 -154l-246 -196q-29 -23 -60.5 -21t-54 28.5t-19.5 60.5z" />
<glyph unicode="&#x205f;" horiz-adv-x="483" />
<glyph unicode="&#x20ac;" horiz-adv-x="1331" d="M100 592q0 33 22.5 54.5t55.5 21.5h94v100h-94q-33 0 -55.5 20.5t-22.5 53t22.5 54.5t55.5 22h98q20 240 159.5 387t373.5 147q268 0 418 -160q25 -25 24 -57q0 -35 -23.5 -57.5t-56.5 -22.5q-35 0 -69 35q-63 59 -127 81.5t-166 22.5q-162 0 -254 -101t-109 -275h375 q33 0 56.5 -22t23.5 -54q0 -31 -23.5 -52.5t-56.5 -21.5h-383v-100h383q33 0 56.5 -21.5t23.5 -54.5q0 -31 -23.5 -52.5t-56.5 -21.5h-375q16 -176 107.5 -277.5t255.5 -101.5q100 0 164.5 23.5t128.5 81.5q37 37 69.5 37t56 -24t23.5 -56q0 -35 -24 -60 q-150 -160 -418 -159q-233 0 -371.5 147t-161.5 389h-98q-33 0 -55.5 20.5t-22.5 53.5z" />
<glyph unicode="&#x2122;" horiz-adv-x="1300" d="M113 1368q0 20 13 32.5t32 12.5h352q16 0 28.5 -12t12.5 -33q0 -18 -12.5 -30.5t-28.5 -12.5h-131v-381q0 -18 -13.5 -30.5t-31.5 -12.5q-43 0 -43 43v381h-133q-18 0 -31.5 12.5t-13.5 30.5zM551 956l67 394q12 70 76 69q57 0 74 -59l90 -354l92 354q14 59 74 59 q61 0 74 -69l69 -394q8 -47 -32 -57q-47 -10 -56 39l-59 373l-92 -348q-16 -61 -70 -62q-51 0 -67 62l-93 346l-59 -371q-8 -49 -55 -39q-41 6 -33 57z" />
<glyph unicode="&#xe000;" horiz-adv-x="1075" d="M0 1075h1075v-1075h-1075v1075z" />
<glyph unicode="&#xfb01;" horiz-adv-x="1361" d="M76 966.5q0 32.5 23.5 54t56.5 21.5h71v95q0 154 83 243.5t239 89.5q109 0 180 -22q66 -18 66 -78q0 -29 -20.5 -51.5t-59.5 -22.5q-20 0 -72.5 9.5t-89.5 9.5q-160 0 -160 -191v-82h287q33 0 56.5 -21.5t23.5 -54t-23.5 -54t-56.5 -21.5h-287v-813q0 -37 -23.5 -61.5 t-58.5 -24.5t-59.5 24.5t-24.5 61.5v813h-71q-33 0 -56.5 21.5t-23.5 54zM981 1346q0 43 28.5 72.5t71.5 29.5t73 -29.5t30 -72.5t-30 -74t-73 -31t-71.5 31t-28.5 74zM999 78v913q0 35 24 60.5t58.5 25.5t59 -25.5t24.5 -60.5v-913q0 -37 -23.5 -61.5t-60.5 -24.5 q-33 0 -57.5 24.5t-24.5 61.5z" />
<glyph unicode="&#xfb02;" horiz-adv-x="1355" d="M76 966.5q0 32.5 23.5 54t56.5 21.5h71v95q0 154 83 243.5t239 89.5q109 0 180 -22q66 -18 66 -78q0 -29 -20.5 -51.5t-59.5 -22.5q-20 0 -72.5 9.5t-89.5 9.5q-160 0 -160 -191v-82h287q33 0 56.5 -21.5t23.5 -54t-23.5 -54t-56.5 -21.5h-287v-813q0 -37 -23.5 -61.5 t-58.5 -24.5t-59.5 24.5t-24.5 61.5v813h-71q-33 0 -56.5 21.5t-23.5 54zM1001 78v1292q0 35 24 59.5t58.5 24.5t59 -24.5t24.5 -59.5v-1292q0 -37 -23.5 -61.5t-60.5 -24.5q-35 0 -58.5 24.5t-23.5 61.5z" />
<glyph unicode="&#xfb03;" horiz-adv-x="2168" d="M1788 1346q0 43 29 72.5t72 29.5t72.5 -29.5t29.5 -72.5t-29.5 -74t-72.5 -31t-72 31t-29 74zM1807 78v913q0 35 23.5 60.5t58 25.5t59 -25.5t24.5 -60.5v-913q0 -37 -23.5 -61.5t-59.5 -24.5q-33 0 -57.5 24.5t-24.5 61.5zM881 966.5q0 32.5 23.5 54t56.5 21.5h71v95 q0 154 83 243.5t239 89.5q109 0 180 -22q66 -18 66 -78q0 -29 -20.5 -51.5t-59.5 -22.5q-20 0 -72.5 9.5t-89.5 9.5q-160 0 -160 -191v-82h287q33 0 56.5 -21.5t23.5 -54t-23.5 -54t-56.5 -21.5h-287v-813q0 -37 -23.5 -61.5t-58.5 -24.5t-59.5 24.5t-24.5 61.5v813h-71 q-33 0 -56.5 21.5t-23.5 54zM76 966.5q0 32.5 23.5 54t56.5 21.5h71v95q0 154 83 243.5t239 89.5q109 0 180 -22q66 -18 66 -78q0 -29 -20.5 -51.5t-59.5 -22.5q-20 0 -72.5 9.5t-89.5 9.5q-160 0 -160 -191v-82h287q33 0 56.5 -21.5t23.5 -54t-23.5 -54t-56.5 -21.5h-287 v-813q0 -37 -23.5 -61.5t-58.5 -24.5t-59.5 24.5t-24.5 61.5v813h-71q-33 0 -56.5 21.5t-23.5 54z" />
<glyph unicode="&#xfb04;" horiz-adv-x="2152" d="M1798 78v1292q0 35 24 59.5t58.5 24.5t59 -24.5t24.5 -59.5v-1292q0 -37 -23.5 -61.5t-60.5 -24.5q-35 0 -58.5 24.5t-23.5 61.5zM881 966.5q0 32.5 23.5 54t56.5 21.5h71v95q0 154 83 243.5t239 89.5q109 0 180 -22q66 -18 66 -78q0 -29 -20.5 -51.5t-59.5 -22.5 q-20 0 -72.5 9.5t-89.5 9.5q-160 0 -160 -191v-82h287q33 0 56.5 -21.5t23.5 -54t-23.5 -54t-56.5 -21.5h-287v-813q0 -37 -23.5 -61.5t-58.5 -24.5t-59.5 24.5t-24.5 61.5v813h-71q-33 0 -56.5 21.5t-23.5 54zM76 966.5q0 32.5 23.5 54t56.5 21.5h71v95q0 154 83 243.5 t239 89.5q109 0 180 -22q66 -18 66 -78q0 -29 -20.5 -51.5t-59.5 -22.5q-20 0 -72.5 9.5t-89.5 9.5q-160 0 -160 -191v-82h287q33 0 56.5 -21.5t23.5 -54t-23.5 -54t-56.5 -21.5h-287v-813q0 -37 -23.5 -61.5t-58.5 -24.5t-59.5 24.5t-24.5 61.5v813h-71q-33 0 -56.5 21.5 t-23.5 54z" />
</font>
</defs>
</svg>
